<svg xmlns="http://www.w3.org/2000/svg" viewBox="0 0 17 19"><defs><style>.cls-1{stroke:#1d365b;}.cls-2{stroke:#264574;}.cls-3{stroke:#325fa2;}.cls-4{stroke:#3f75c5;}.cls-5{stroke:#89a5cf;}.cls-6{stroke:#d5d6d8;}.cls-7{stroke:#162946;}.cls-8{stroke:#6691d2;}.cls-9{stroke:#7b7b82;}.cls-10{stroke:#c9c9c9;}.cls-11{stroke:#493357;}.cls-12{stroke:#ced7dd;}.cls-13{stroke:#4e67c1;}.cls-14{stroke:#ffebce;}.cls-15{stroke:#e8a08d;}.cls-16{stroke:#ffc89b;}.cls-17{stroke:#7c513f;}.cls-18{stroke:#aa7162;}</style></defs><title>Datový zdroj 1</title><g id="Vrstva_2" data-name="Vrstva 2"><g id="Vrstva_1-2" data-name="Vrstva 1"><line class="cls-1" x1="6" y1="0.5" x2="11" y2="0.5"/><line class="cls-1" x1="3" y1="1.5" x2="6" y2="1.5"/><line class="cls-1" x1="11" y1="1.5" x2="14" y2="1.5"/><line class="cls-1" x1="2" y1="2.5" x2="3" y2="2.5"/><line class="cls-1" x1="14" y1="2.5" x2="15" y2="2.5"/><line class="cls-1" x1="1" y1="3.5" x2="2" y2="3.5"/><line class="cls-1" x1="15" y1="3.5" x2="16" y2="3.5"/><line class="cls-1" x1="1" y1="4.5" x2="2" y2="4.5"/><line class="cls-1" x1="15" y1="4.5" x2="16" y2="4.5"/><line class="cls-1" y1="5.5" x2="1" y2="5.5"/><line class="cls-1" x1="16" y1="5.5" x2="17" y2="5.5"/><line class="cls-1" y1="6.5" x2="1" y2="6.5"/><line class="cls-1" x1="16" y1="6.5" x2="17" y2="6.5"/><line class="cls-1" y1="7.5" x2="1" y2="7.5"/><line class="cls-1" x1="16" y1="7.5" x2="17" y2="7.5"/><line class="cls-1" x1="3" y1="15.5" x2="4" y2="15.5"/><line class="cls-1" x1="13" y1="15.5" x2="14" y2="15.5"/><line class="cls-1" x1="4" y1="16.5" x2="5" y2="16.5"/><line class="cls-1" x1="12" y1="16.5" x2="13" y2="16.5"/><line class="cls-1" x1="4" y1="17.5" x2="5" y2="17.5"/><line class="cls-1" x1="12" y1="17.5" x2="13" y2="17.5"/><line class="cls-1" x1="7" y1="18.5" x2="10" y2="18.5"/><line class="cls-2" x1="6" y1="1.5" x2="7" y2="1.5"/><line class="cls-2" x1="10" y1="1.5" x2="11" y2="1.5"/><line class="cls-2" x1="3" y1="2.5" x2="4" y2="2.5"/><line class="cls-2" x1="13" y1="2.5" x2="14" y2="2.5"/><line class="cls-2" x1="2" y1="3.5" x2="3" y2="3.5"/><line class="cls-2" x1="14" y1="3.5" x2="15" y2="3.5"/><line class="cls-2" x1="1" y1="5.5" x2="2" y2="5.5"/><line class="cls-2" x1="15" y1="5.5" x2="16" y2="5.5"/><line class="cls-2" x1="1" y1="6.5" x2="2" y2="6.5"/><line class="cls-2" x1="15" y1="6.5" x2="16" y2="6.5"/><line class="cls-2" x1="1" y1="12.5" x2="2" y2="12.5"/><line class="cls-2" x1="15" y1="12.5" x2="16" y2="12.5"/><line class="cls-2" x1="7" y1="14.5" x2="10" y2="14.5"/><line class="cls-2" x1="5" y1="15.5" x2="7" y2="15.5"/><line class="cls-2" x1="10" y1="15.5" x2="12" y2="15.5"/><line class="cls-3" x1="7" y1="1.5" x2="10" y2="1.5"/><line class="cls-3" x1="4" y1="2.5" x2="5" y2="2.5"/><line class="cls-3" x1="12" y1="2.5" x2="13" y2="2.5"/><line class="cls-3" x1="3" y1="3.5" x2="4" y2="3.5"/><line class="cls-3" x1="13" y1="3.5" x2="14" y2="3.5"/><line class="cls-3" x1="2" y1="4.5" x2="3" y2="4.5"/><line class="cls-3" x1="14" y1="4.5" x2="15" y2="4.5"/><line class="cls-3" x1="2" y1="6.5" x2="3" y2="6.5"/><line class="cls-3" x1="14" y1="6.5" x2="15" y2="6.5"/><line class="cls-3" x1="1" y1="7.5" x2="4" y2="7.5"/><line class="cls-3" x1="13" y1="7.5" x2="16" y2="7.5"/><line class="cls-3" x1="1" y1="8.5" x2="4" y2="8.5"/><line class="cls-3" x1="13" y1="8.5" x2="16" y2="8.5"/><line class="cls-3" x1="2" y1="9.5" x2="3" y2="9.5"/><line class="cls-3" x1="14" y1="9.5" x2="15" y2="9.5"/><line class="cls-3" x1="2" y1="10.5" x2="3" y2="10.5"/><line class="cls-3" x1="14" y1="10.5" x2="15" y2="10.5"/><line class="cls-3" x1="3" y1="11.5" x2="7" y2="11.5"/><line class="cls-3" x1="10" y1="11.5" x2="14" y2="11.5"/><line class="cls-3" x1="2" y1="12.5" x2="4" y2="12.5"/><line class="cls-3" x1="13" y1="12.5" x2="15" y2="12.5"/><line class="cls-3" x1="3" y1="13.5" x2="4" y2="13.5"/><line class="cls-3" x1="7" y1="13.5" x2="10" y2="13.5"/><line class="cls-3" x1="13" y1="13.5" x2="14" y2="13.5"/><line class="cls-3" x1="3" y1="14.5" x2="4" y2="14.5"/><line class="cls-3" x1="13" y1="14.5" x2="14" y2="14.5"/><line class="cls-3" x1="4" y1="15.5" x2="5" y2="15.5"/><line class="cls-3" x1="12" y1="15.5" x2="13" y2="15.5"/><line class="cls-4" x1="5" y1="2.5" x2="12" y2="2.5"/><line class="cls-4" x1="4" y1="3.5" x2="8" y2="3.5"/><line class="cls-4" x1="9" y1="3.5" x2="13" y2="3.5"/><line class="cls-4" x1="3" y1="4.5" x2="7" y2="4.5"/><line class="cls-4" x1="10" y1="4.5" x2="14" y2="4.5"/><line class="cls-4" x1="2" y1="5.5" x2="6" y2="5.5"/><line class="cls-4" x1="11" y1="5.5" x2="15" y2="5.5"/><line class="cls-4" x1="3" y1="6.5" x2="6" y2="6.5"/><line class="cls-4" x1="8" y1="6.5" x2="9" y2="6.5"/><line class="cls-4" x1="11" y1="6.5" x2="14" y2="6.5"/><line class="cls-4" x1="4" y1="7.5" x2="6" y2="7.5"/><line class="cls-4" x1="11" y1="7.5" x2="13" y2="7.5"/><line class="cls-4" x1="4" y1="8.5" x2="5" y2="8.5"/><line class="cls-4" x1="12" y1="8.5" x2="13" y2="8.5"/><line class="cls-4" x1="3" y1="9.5" x2="4" y2="9.5"/><line class="cls-4" x1="13" y1="9.5" x2="14" y2="9.5"/><line class="cls-4" x1="3" y1="10.5" x2="7" y2="10.5"/><line class="cls-4" x1="10" y1="10.5" x2="14" y2="10.5"/><line class="cls-4" x1="7" y1="11.5" x2="8" y2="11.5"/><line class="cls-4" x1="9" y1="11.5" x2="10" y2="11.5"/><line class="cls-4" x1="7" y1="12.5" x2="10" y2="12.5"/><path class="cls-5" d="M8,3.5H9m-2,1H8m1,0h1m-4,1H7m1,0H9m1,0h1m-4,1H8m1,0h1m-3,2h3m-9,3H2m13,0h1"/><line class="cls-6" x1="8" y1="4.5" x2="9" y2="4.5"/><line class="cls-6" x1="7" y1="5.5" x2="8" y2="5.5"/><line class="cls-6" x1="9" y1="5.5" x2="10" y2="5.5"/><line class="cls-6" x1="6" y1="6.5" x2="7" y2="6.5"/><line class="cls-6" x1="10" y1="6.5" x2="11" y2="6.5"/><line class="cls-6" x1="6" y1="7.5" x2="11" y2="7.5"/><line class="cls-6" x1="6" y1="8.5" x2="7" y2="8.5"/><line class="cls-6" x1="10" y1="8.5" x2="11" y2="8.5"/><line class="cls-6" x1="1" y1="9.5" x2="2" y2="9.5"/><line class="cls-6" x1="15" y1="9.5" x2="16" y2="9.5"/><line class="cls-6" x1="1" y1="10.5" x2="2" y2="10.5"/><line class="cls-6" x1="15" y1="10.5" x2="16" y2="10.5"/><line class="cls-6" x1="2" y1="11.5" x2="3" y2="11.5"/><line class="cls-6" x1="14" y1="11.5" x2="15" y2="11.5"/><line class="cls-7" y1="8.5" x2="1" y2="8.5"/><line class="cls-7" x1="16" y1="8.5" x2="17" y2="8.5"/><line class="cls-7" y1="9.5" x2="1" y2="9.5"/><line class="cls-7" x1="16" y1="9.5" x2="17" y2="9.5"/><line class="cls-7" y1="10.5" x2="1" y2="10.5"/><line class="cls-7" x1="16" y1="10.5" x2="17" y2="10.5"/><line class="cls-7" y1="11.5" x2="1" y2="11.5"/><line class="cls-7" x1="16" y1="11.5" x2="17" y2="11.5"/><line class="cls-7" y1="12.5" x2="1" y2="12.5"/><line class="cls-7" x1="16" y1="12.5" x2="17" y2="12.5"/><line class="cls-7" x1="1" y1="13.5" x2="3" y2="13.5"/><line class="cls-7" x1="14" y1="13.5" x2="16" y2="13.5"/><line class="cls-7" x1="2" y1="14.5" x2="3" y2="14.5"/><line class="cls-7" x1="14" y1="14.5" x2="15" y2="14.5"/><line class="cls-7" x1="2" y1="15.5" x2="3" y2="15.5"/><line class="cls-7" x1="14" y1="15.5" x2="15" y2="15.5"/><line class="cls-7" x1="3" y1="16.5" x2="4" y2="16.5"/><line class="cls-7" x1="13" y1="16.5" x2="14" y2="16.5"/><line class="cls-7" x1="6" y1="18.5" x2="7" y2="18.5"/><line class="cls-7" x1="10" y1="18.5" x2="12" y2="18.5"/><line class="cls-8" x1="5" y1="8.5" x2="6" y2="8.5"/><line class="cls-8" x1="11" y1="8.5" x2="12" y2="8.5"/><line class="cls-8" x1="4" y1="9.5" x2="13" y2="9.5"/><line class="cls-8" x1="7" y1="10.5" x2="10" y2="10.5"/><line class="cls-8" x1="8" y1="11.5" x2="9" y2="11.5"/><path class="cls-9" d="M4,12.5H5m7,0h1"/><path class="cls-10" d="M5,12.5H6m5,0h1"/><path class="cls-11" d="M6,12.5H7m3,0h1m-6,1H7m3,0h2"/><path class="cls-12" d="M4,13.5H5m7,0h1m-9,1H5m7,0h1"/><path class="cls-13" d="M5,14.5H7m3,0h2"/><path class="cls-14" d="M7,15.5h3"/><path class="cls-15" d="M5,16.5H6m5,0h1"/><path class="cls-16" d="M6,16.5h5"/><path class="cls-17" d="M5,17.5H7m3,0h2"/><path class="cls-18" d="M7,17.5h3"/></g></g></svg>