<svg xmlns="http://www.w3.org/2000/svg" viewBox="0 0 17 18"><defs><style>.cls-1{stroke:#73191b;}.cls-2{stroke:#8a1e21;}.cls-3{stroke:#a72326;}.cls-4{stroke:#ce2b2e;}.cls-5{stroke:#571315;}.cls-6{stroke:#db5d60;}.cls-7{stroke:#461011;}.cls-8{stroke:#332a23;}.cls-9{stroke:#cfd7dd;}.cls-10{stroke:#282828;}</style></defs><title>Datový zdroj 5</title><g id="Vrstva_2" data-name="Vrstva 2"><g id="Vrstva_1-2" data-name="Vrstva 1"><line class="cls-1" x1="6" y1="0.5" x2="11" y2="0.5"/><line class="cls-1" x1="3" y1="1.5" x2="6" y2="1.5"/><line class="cls-1" x1="11" y1="1.5" x2="14" y2="1.5"/><line class="cls-1" x1="2" y1="2.5" x2="3" y2="2.5"/><line class="cls-1" x1="14" y1="2.5" x2="15" y2="2.5"/><line class="cls-1" x1="1" y1="3.5" x2="2" y2="3.5"/><line class="cls-1" x1="15" y1="3.5" x2="16" y2="3.5"/><line class="cls-1" x1="1" y1="4.5" x2="2" y2="4.5"/><line class="cls-1" x1="15" y1="4.5" x2="16" y2="4.5"/><line class="cls-1" y1="5.5" x2="1" y2="5.5"/><line class="cls-1" x1="16" y1="5.5" x2="17" y2="5.5"/><line class="cls-1" y1="6.5" x2="1" y2="6.5"/><line class="cls-1" x1="16" y1="6.5" x2="17" y2="6.5"/><line class="cls-1" y1="7.5" x2="1" y2="7.5"/><line class="cls-1" x1="16" y1="7.5" x2="17" y2="7.5"/><line class="cls-1" x1="1" y1="10.5" x2="3" y2="10.5"/><line class="cls-1" x1="14" y1="10.5" x2="16" y2="10.5"/><line class="cls-1" x1="2" y1="11.5" x2="3" y2="11.5"/><line class="cls-1" x1="14" y1="11.5" x2="15" y2="11.5"/><line class="cls-1" x1="2" y1="12.5" x2="3" y2="12.5"/><line class="cls-1" x1="14" y1="12.5" x2="15" y2="12.5"/><line class="cls-1" x1="3" y1="15.5" x2="4" y2="15.5"/><line class="cls-1" x1="13" y1="15.5" x2="14" y2="15.5"/><line class="cls-1" x1="7" y1="17.5" x2="10" y2="17.5"/><line class="cls-2" x1="6" y1="1.5" x2="7" y2="1.5"/><line class="cls-2" x1="10" y1="1.5" x2="11" y2="1.5"/><line class="cls-2" x1="3" y1="2.5" x2="4" y2="2.5"/><line class="cls-2" x1="13" y1="2.5" x2="14" y2="2.5"/><line class="cls-2" x1="2" y1="3.5" x2="3" y2="3.5"/><line class="cls-2" x1="14" y1="3.5" x2="15" y2="3.5"/><line class="cls-2" x1="1" y1="5.5" x2="2" y2="5.5"/><line class="cls-2" x1="15" y1="5.5" x2="16" y2="5.5"/><line class="cls-2" x1="1" y1="6.5" x2="2" y2="6.5"/><line class="cls-2" x1="15" y1="6.5" x2="16" y2="6.5"/><line class="cls-2" x1="2" y1="8.5" x2="4" y2="8.5"/><line class="cls-2" x1="13" y1="8.5" x2="15" y2="8.5"/><line class="cls-2" x1="1" y1="9.5" x2="2" y2="9.5"/><line class="cls-2" x1="15" y1="9.5" x2="16" y2="9.5"/><line class="cls-2" x1="1" y1="12.5" x2="2" y2="12.5"/><line class="cls-2" x1="15" y1="12.5" x2="16" y2="12.5"/><line class="cls-2" x1="5" y1="16.5" x2="6" y2="16.5"/><line class="cls-2" x1="11" y1="16.5" x2="12" y2="16.5"/><line class="cls-3" x1="7" y1="1.5" x2="10" y2="1.5"/><line class="cls-3" x1="4" y1="2.5" x2="5" y2="2.5"/><line class="cls-3" x1="12" y1="2.5" x2="13" y2="2.5"/><line class="cls-3" x1="3" y1="3.5" x2="4" y2="3.5"/><line class="cls-3" x1="13" y1="3.5" x2="14" y2="3.5"/><line class="cls-3" x1="2" y1="4.5" x2="3" y2="4.5"/><line class="cls-3" x1="14" y1="4.5" x2="15" y2="4.5"/><line class="cls-3" x1="2" y1="6.5" x2="3" y2="6.5"/><line class="cls-3" x1="14" y1="6.5" x2="15" y2="6.5"/><line class="cls-3" x1="1" y1="7.5" x2="4" y2="7.5"/><line class="cls-3" x1="13" y1="7.5" x2="16" y2="7.5"/><line class="cls-3" x1="1" y1="8.5" x2="2" y2="8.5"/><line class="cls-3" x1="15" y1="8.5" x2="16" y2="8.5"/><line class="cls-3" x1="2" y1="9.5" x2="3" y2="9.5"/><line class="cls-3" x1="14" y1="9.5" x2="15" y2="9.5"/><line class="cls-3" x1="1" y1="11.5" x2="2" y2="11.5"/><line class="cls-3" x1="3" y1="11.5" x2="4" y2="11.5"/><line class="cls-3" x1="13" y1="11.5" x2="14" y2="11.5"/><line class="cls-3" x1="15" y1="11.5" x2="16" y2="11.5"/><line class="cls-3" x1="3" y1="14.5" x2="4" y2="14.5"/><line class="cls-3" x1="13" y1="14.5" x2="14" y2="14.5"/><line class="cls-3" x1="4" y1="15.5" x2="5" y2="15.5"/><line class="cls-3" x1="12" y1="15.5" x2="13" y2="15.5"/><line class="cls-3" x1="6" y1="16.5" x2="11" y2="16.5"/><line class="cls-4" x1="5" y1="2.5" x2="12" y2="2.5"/><line class="cls-4" x1="4" y1="3.5" x2="13" y2="3.5"/><line class="cls-4" x1="3" y1="4.5" x2="14" y2="4.5"/><line class="cls-4" x1="2" y1="5.5" x2="15" y2="5.5"/><line class="cls-4" x1="3" y1="6.5" x2="14" y2="6.5"/><line class="cls-4" x1="4" y1="7.5" x2="13" y2="7.5"/><line class="cls-4" x1="4" y1="8.5" x2="5" y2="8.5"/><line class="cls-4" x1="12" y1="8.5" x2="13" y2="8.5"/><line class="cls-4" x1="3" y1="9.5" x2="4" y2="9.5"/><line class="cls-4" x1="13" y1="9.5" x2="14" y2="9.5"/><line class="cls-4" x1="3" y1="10.5" x2="4" y2="10.5"/><line class="cls-4" x1="13" y1="10.5" x2="14" y2="10.5"/><line class="cls-4" x1="7" y1="12.5" x2="10" y2="12.5"/><line class="cls-4" x1="8" y1="13.5" x2="9" y2="13.5"/><line class="cls-4" x1="7" y1="14.5" x2="8" y2="14.5"/><line class="cls-4" x1="9" y1="14.5" x2="10" y2="14.5"/><line class="cls-4" x1="6" y1="15.5" x2="11" y2="15.5"/><line class="cls-5" y1="8.5" x2="1" y2="8.5"/><line class="cls-5" x1="16" y1="8.5" x2="17" y2="8.5"/><line class="cls-5" y1="9.5" x2="1" y2="9.5"/><line class="cls-5" x1="16" y1="9.5" x2="17" y2="9.5"/><line class="cls-5" x1="3" y1="12.5" x2="4" y2="12.5"/><line class="cls-5" x1="13" y1="12.5" x2="14" y2="12.5"/><line class="cls-5" x1="3" y1="13.5" x2="4" y2="13.5"/><line class="cls-5" x1="13" y1="13.5" x2="14" y2="13.5"/><line class="cls-5" x1="6" y1="17.5" x2="7" y2="17.5"/><line class="cls-5" x1="10" y1="17.5" x2="11" y2="17.5"/><line class="cls-6" x1="5" y1="8.5" x2="12" y2="8.5"/><line class="cls-6" x1="4" y1="9.5" x2="13" y2="9.5"/><line class="cls-6" x1="4" y1="10.5" x2="5" y2="10.5"/><line class="cls-6" x1="6" y1="10.5" x2="11" y2="10.5"/><line class="cls-6" x1="12" y1="10.5" x2="13" y2="10.5"/><line class="cls-6" x1="7" y1="11.5" x2="10" y2="11.5"/><line class="cls-6" x1="8" y1="14.5" x2="9" y2="14.5"/><line class="cls-7" y1="10.5" x2="1" y2="10.5"/><line class="cls-7" x1="16" y1="10.5" x2="17" y2="10.5"/><line class="cls-7" y1="11.5" x2="1" y2="11.5"/><line class="cls-7" x1="16" y1="11.5" x2="17" y2="11.5"/><line class="cls-7" y1="12.5" x2="1" y2="12.5"/><line class="cls-7" x1="16" y1="12.5" x2="17" y2="12.5"/><line class="cls-7" x1="1" y1="13.5" x2="3" y2="13.5"/><line class="cls-7" x1="14" y1="13.5" x2="16" y2="13.5"/><line class="cls-7" x1="2" y1="14.5" x2="3" y2="14.5"/><line class="cls-7" x1="14" y1="14.5" x2="15" y2="14.5"/><line class="cls-8" x1="5" y1="10.5" x2="6" y2="10.5"/><line class="cls-8" x1="11" y1="10.5" x2="12" y2="10.5"/><line class="cls-8" x1="4" y1="11.5" x2="7" y2="11.5"/><line class="cls-8" x1="10" y1="11.5" x2="13" y2="11.5"/><line class="cls-8" x1="4" y1="12.5" x2="7" y2="12.5"/><line class="cls-8" x1="10" y1="12.5" x2="13" y2="12.5"/><line class="cls-8" x1="4" y1="13.5" x2="5" y2="13.5"/><line class="cls-8" x1="7" y1="13.5" x2="8" y2="13.5"/><line class="cls-8" x1="9" y1="13.5" x2="10" y2="13.5"/><line class="cls-8" x1="12" y1="13.5" x2="13" y2="13.5"/><line class="cls-8" x1="4" y1="14.5" x2="7" y2="14.5"/><line class="cls-8" x1="10" y1="14.5" x2="13" y2="14.5"/><line class="cls-8" x1="5" y1="15.5" x2="6" y2="15.5"/><line class="cls-8" x1="11" y1="15.5" x2="12" y2="15.5"/><line class="cls-9" x1="5" y1="13.5" x2="7" y2="13.5"/><line class="cls-9" x1="10" y1="13.5" x2="12" y2="13.5"/><line class="cls-10" x1="4" y1="16.5" x2="5" y2="16.5"/><line class="cls-10" x1="12" y1="16.5" x2="13" y2="16.5"/></g></g></svg>