<svg xmlns="http://www.w3.org/2000/svg" viewBox="0 0 19 18"><defs><style>.cls-1{stroke:#1d1d1d;}.cls-2{stroke:#303030;}.cls-3{stroke:#3f3f3f;}.cls-4{stroke:#474747;}.cls-5{stroke:#6a6a6a;}.cls-6{stroke:#828282;}.cls-7{stroke:#5a5a5a;}.cls-8{stroke:#262626;}.cls-9{stroke:#e8a08d;}.cls-10{stroke:#ffc89b;}.cls-11{stroke:#ffebce;}.cls-12{stroke:#fffff3;}.cls-13{stroke:#5c4766;}.cls-14{stroke:#aa7162;}.cls-15{stroke:#493357;}.cls-16{stroke:#0c0c0c;}.cls-17{stroke:#7c513f;}.cls-18{stroke:#7b7b82;}.cls-19{stroke:#c9c9c9;}.cls-20{stroke:#ced7dd;}.cls-21{stroke:#588658;}</style></defs><title>Datový zdroj 4</title><g id="Vrstva_2" data-name="Vrstva 2"><g id="Vrstva_1-2" data-name="Vrstva 1"><line class="cls-1" x1="5" y1="0.5" x2="7" y2="0.5"/><line class="cls-1" x1="12" y1="0.5" x2="14" y2="0.5"/><line class="cls-1" x1="3" y1="1.5" x2="5" y2="1.5"/><line class="cls-1" x1="14" y1="1.5" x2="16" y2="1.5"/><line class="cls-1" x1="2" y1="2.5" x2="3" y2="2.5"/><line class="cls-1" x1="16" y1="2.5" x2="17" y2="2.5"/><line class="cls-1" x1="2" y1="3.5" x2="3" y2="3.5"/><line class="cls-1" x1="16" y1="3.5" x2="17" y2="3.5"/><line class="cls-1" x1="1" y1="4.5" x2="2" y2="4.5"/><line class="cls-1" x1="17" y1="4.5" x2="18" y2="4.5"/><line class="cls-1" x1="1" y1="5.5" x2="2" y2="5.5"/><line class="cls-1" x1="17" y1="5.5" x2="18" y2="5.5"/><line class="cls-1" y1="6.5" x2="1" y2="6.5"/><line class="cls-1" x1="18" y1="6.5" x2="19" y2="6.5"/><line class="cls-1" y1="7.5" x2="1" y2="7.5"/><line class="cls-1" x1="18" y1="7.5" x2="19" y2="7.5"/><line class="cls-1" y1="8.5" x2="1" y2="8.5"/><line class="cls-1" x1="2" y1="8.5" x2="3" y2="8.5"/><line class="cls-1" x1="16" y1="8.5" x2="17" y2="8.5"/><line class="cls-1" x1="18" y1="8.5" x2="19" y2="8.5"/><line class="cls-1" y1="9.5" x2="1" y2="9.5"/><line class="cls-1" x1="2" y1="9.5" x2="3" y2="9.5"/><line class="cls-1" x1="16" y1="9.5" x2="17" y2="9.5"/><line class="cls-1" x1="18" y1="9.5" x2="19" y2="9.5"/><line class="cls-1" y1="10.5" x2="1" y2="10.5"/><line class="cls-1" x1="18" y1="10.5" x2="19" y2="10.5"/><line class="cls-1" y1="11.5" x2="1" y2="11.5"/><line class="cls-1" x1="18" y1="11.5" x2="19" y2="11.5"/><line class="cls-1" y1="12.5" x2="1" y2="12.5"/><line class="cls-1" x1="18" y1="12.5" x2="19" y2="12.5"/><line class="cls-1" y1="13.5" x2="2" y2="13.5"/><line class="cls-1" x1="3" y1="13.5" x2="4" y2="13.5"/><line class="cls-1" x1="15" y1="13.5" x2="16" y2="13.5"/><line class="cls-1" x1="17" y1="13.5" x2="19" y2="13.5"/><line class="cls-1" x1="1" y1="14.5" x2="2" y2="14.5"/><line class="cls-1" x1="17" y1="14.5" x2="18" y2="14.5"/><line class="cls-1" x1="1" y1="15.5" x2="2" y2="15.5"/><line class="cls-1" x1="17" y1="15.5" x2="18" y2="15.5"/><line class="cls-1" x1="17" y1="16.5" x2="18" y2="16.5"/><line class="cls-1" x1="17" y1="17.5" x2="18" y2="17.5"/><line class="cls-2" x1="7" y1="0.5" x2="12" y2="0.5"/><line class="cls-2" x1="3" y1="5.5" x2="4" y2="5.5"/><line class="cls-2" x1="9" y1="5.5" x2="10" y2="5.5"/><line class="cls-2" x1="15" y1="5.5" x2="16" y2="5.5"/><line class="cls-2" x1="3" y1="6.5" x2="5" y2="6.5"/><line class="cls-2" x1="9" y1="6.5" x2="10" y2="6.5"/><line class="cls-2" x1="14" y1="6.5" x2="16" y2="6.5"/><line class="cls-2" x1="3" y1="8.5" x2="4" y2="8.5"/><line class="cls-2" x1="15" y1="8.5" x2="16" y2="8.5"/><line class="cls-2" x1="6" y1="10.5" x2="8" y2="10.5"/><line class="cls-2" x1="11" y1="10.5" x2="13" y2="10.5"/><path class="cls-3" d="M5,1.5H6m2,0h3m2,0h1M3,2.5H4m5,0h1m5,0h1M5,4.5H6m1,0H8m1,0h1m1,0h1m1,0h1M1,6.5H2m15,0h1M1,7.5H3m13,0h2M1,8.5H2m15,0h1M1,9.5H2m15,0h1"/><line class="cls-4" x1="6" y1="1.5" x2="8" y2="1.5"/><line class="cls-4" x1="11" y1="1.5" x2="13" y2="1.5"/><line class="cls-4" x1="7" y1="2.5" x2="9" y2="2.5"/><line class="cls-4" x1="10" y1="2.5" x2="12" y2="2.5"/><line class="cls-4" x1="5" y1="3.5" x2="14" y2="3.5"/><line class="cls-4" x1="2" y1="4.5" x2="3" y2="4.5"/><line class="cls-4" x1="4" y1="4.5" x2="5" y2="4.5"/><line class="cls-4" x1="6" y1="4.5" x2="7" y2="4.5"/><line class="cls-4" x1="8" y1="4.5" x2="9" y2="4.5"/><line class="cls-4" x1="10" y1="4.5" x2="11" y2="4.5"/><line class="cls-4" x1="12" y1="4.5" x2="13" y2="4.5"/><line class="cls-4" x1="14" y1="4.5" x2="15" y2="4.5"/><line class="cls-4" x1="16" y1="4.5" x2="17" y2="4.5"/><line class="cls-4" x1="4" y1="5.5" x2="5" y2="5.5"/><line class="cls-4" x1="8" y1="5.5" x2="9" y2="5.5"/><line class="cls-4" x1="10" y1="5.5" x2="11" y2="5.5"/><line class="cls-4" x1="14" y1="5.5" x2="15" y2="5.5"/><line class="cls-4" x1="2" y1="6.5" x2="3" y2="6.5"/><line class="cls-4" x1="16" y1="6.5" x2="17" y2="6.5"/><line class="cls-4" x1="5" y1="10.5" x2="6" y2="10.5"/><line class="cls-4" x1="13" y1="10.5" x2="14" y2="10.5"/><path class="cls-5" d="M4,2.5H7m5,0h3M4,3.5H5m9,0h1M3,4.5H4m11,0h1M2,5.5H3m13,0h1"/><path class="cls-6" d="M3,3.5H4m11,0h1"/><line class="cls-7" x1="5" y1="5.5" x2="6" y2="5.5"/><line class="cls-7" x1="13" y1="5.5" x2="14" y2="5.5"/><line class="cls-7" x1="7" y1="6.5" x2="8" y2="6.5"/><line class="cls-7" x1="11" y1="6.5" x2="12" y2="6.5"/><line class="cls-7" x1="3" y1="7.5" x2="4" y2="7.5"/><line class="cls-7" x1="15" y1="7.5" x2="16" y2="7.5"/><line class="cls-7" x1="3" y1="9.5" x2="4" y2="9.5"/><line class="cls-7" x1="15" y1="9.5" x2="16" y2="9.5"/><line class="cls-8" x1="6" y1="5.5" x2="8" y2="5.5"/><line class="cls-8" x1="11" y1="5.5" x2="13" y2="5.5"/><line class="cls-8" x1="8" y1="6.5" x2="9" y2="6.5"/><line class="cls-8" x1="10" y1="6.5" x2="11" y2="6.5"/><line class="cls-8" x1="2" y1="10.5" x2="4" y2="10.5"/><line class="cls-8" x1="15" y1="10.5" x2="17" y2="10.5"/><line class="cls-9" x1="5" y1="6.5" x2="7" y2="6.5"/><line class="cls-9" x1="12" y1="6.5" x2="14" y2="6.5"/><line class="cls-9" x1="4" y1="7.5" x2="5" y2="7.5"/><line class="cls-9" x1="14" y1="7.5" x2="15" y2="7.5"/><line class="cls-9" x1="4" y1="8.5" x2="5" y2="8.5"/><line class="cls-9" x1="14" y1="8.5" x2="15" y2="8.5"/><line class="cls-9" x1="4" y1="9.5" x2="5" y2="9.5"/><line class="cls-9" x1="2" y1="11.5" x2="3" y2="11.5"/><line class="cls-9" x1="16" y1="11.5" x2="17" y2="11.5"/><line class="cls-9" x1="6" y1="16.5" x2="7" y2="16.5"/><line class="cls-9" x1="12" y1="16.5" x2="13" y2="16.5"/><line class="cls-10" x1="5" y1="7.5" x2="6" y2="7.5"/><line class="cls-10" x1="13" y1="7.5" x2="14" y2="7.5"/><line class="cls-10" x1="4" y1="11.5" x2="5" y2="11.5"/><line class="cls-10" x1="14" y1="11.5" x2="15" y2="11.5"/><line class="cls-10" x1="2" y1="12.5" x2="3" y2="12.5"/><line class="cls-10" x1="16" y1="12.5" x2="17" y2="12.5"/><line class="cls-10" x1="4" y1="14.5" x2="5" y2="14.5"/><line class="cls-10" x1="14" y1="14.5" x2="15" y2="14.5"/><line class="cls-10" x1="5" y1="15.5" x2="6" y2="15.5"/><line class="cls-10" x1="13" y1="15.5" x2="14" y2="15.5"/><line class="cls-10" x1="7" y1="16.5" x2="12" y2="16.5"/><line class="cls-11" x1="6" y1="7.5" x2="13" y2="7.5"/><line class="cls-11" x1="5" y1="8.5" x2="6" y2="8.5"/><line class="cls-11" x1="13" y1="8.5" x2="14" y2="8.5"/><line class="cls-11" x1="5" y1="9.5" x2="6" y2="9.5"/><line class="cls-11" x1="13" y1="9.5" x2="15" y2="9.5"/><line class="cls-11" x1="4" y1="10.5" x2="5" y2="10.5"/><line class="cls-11" x1="14" y1="10.5" x2="15" y2="10.5"/><line class="cls-11" x1="8" y1="12.5" x2="11" y2="12.5"/><line class="cls-11" x1="8" y1="13.5" x2="11" y2="13.5"/><line class="cls-11" x1="5" y1="14.5" x2="6" y2="14.5"/><line class="cls-11" x1="8" y1="14.5" x2="9" y2="14.5"/><line class="cls-11" x1="10" y1="14.5" x2="11" y2="14.5"/><line class="cls-11" x1="13" y1="14.5" x2="14" y2="14.5"/><line class="cls-11" x1="6" y1="15.5" x2="13" y2="15.5"/><path class="cls-12" d="M6,8.5h7m-7,1h7m-5,1h3m-3,1h3m-2,3h1"/><path class="cls-13" d="M1,10.5H2m15,0h1m-17,1H2m15,0h1m-16,2H3m13,0h1"/><line class="cls-14" x1="3" y1="11.5" x2="4" y2="11.5"/><line class="cls-14" x1="7" y1="11.5" x2="8" y2="11.5"/><line class="cls-14" x1="11" y1="11.5" x2="12" y2="11.5"/><line class="cls-14" x1="15" y1="11.5" x2="16" y2="11.5"/><line class="cls-14" x1="3" y1="12.5" x2="4" y2="12.5"/><line class="cls-14" x1="15" y1="12.5" x2="16" y2="12.5"/><line class="cls-14" x1="4" y1="15.5" x2="5" y2="15.5"/><line class="cls-14" x1="14" y1="15.5" x2="15" y2="15.5"/><line class="cls-14" x1="5" y1="16.5" x2="6" y2="16.5"/><line class="cls-14" x1="13" y1="16.5" x2="14" y2="16.5"/><line class="cls-14" x1="8" y1="17.5" x2="11" y2="17.5"/><path class="cls-15" d="M5,11.5H7m5,0h2m-7,1H8m3,0h1m-6,1H8m3,0h2"/><line class="cls-16" x1="1" y1="12.5" x2="2" y2="12.5"/><line class="cls-16" x1="17" y1="12.5" x2="18" y2="12.5"/><line class="cls-16" y1="14.5" x2="1" y2="14.5"/><line class="cls-16" x1="2" y1="14.5" x2="4" y2="14.5"/><line class="cls-16" x1="15" y1="14.5" x2="17" y2="14.5"/><line class="cls-16" x1="18" y1="14.5" x2="19" y2="14.5"/><line class="cls-16" y1="15.5" x2="1" y2="15.5"/><line class="cls-16" x1="2" y1="15.5" x2="3" y2="15.5"/><line class="cls-16" x1="16" y1="15.5" x2="17" y2="15.5"/><line class="cls-16" x1="18" y1="15.5" x2="19" y2="15.5"/><line class="cls-16" y1="16.5" x2="1" y2="16.5"/><line class="cls-16" x1="16" y1="16.5" x2="17" y2="16.5"/><line class="cls-16" x1="18" y1="16.5" x2="19" y2="16.5"/><line class="cls-16" x1="18" y1="17.5" x2="19" y2="17.5"/><line class="cls-17" x1="4" y1="12.5" x2="5" y2="12.5"/><line class="cls-17" x1="14" y1="12.5" x2="15" y2="12.5"/><line class="cls-17" x1="4" y1="13.5" x2="5" y2="13.5"/><line class="cls-17" x1="14" y1="13.5" x2="15" y2="13.5"/><line class="cls-17" x1="6" y1="17.5" x2="8" y2="17.5"/><line class="cls-17" x1="11" y1="17.5" x2="13" y2="17.5"/><path class="cls-18" d="M5,12.5H6m7,0h1"/><path class="cls-19" d="M6,12.5H7m5,0h1"/><path class="cls-20" d="M5,13.5H6m7,0h1"/><path class="cls-21" d="M6,14.5H8m3,0h2"/></g></g></svg>