<svg xmlns="http://www.w3.org/2000/svg" viewBox="0 -0.5 128 192" shape-rendering="crispEdges">
<metadata>Made with Pixels to Svg https://codepen.io/shshaw/pen/XbxvNj</metadata>
<path stroke="#a87c36" d="M14 2h5M78 2h5M13 3h1M19 3h2M46 3h5M77 3h1M83 3h2M110 3h5M11 4h1M15 4h3M20 4h3M45 4h1M51 4h2M75 4h1M79 4h3M84 4h3M109 4h1M115 4h2M10 5h1M19 5h2M23 5h1M43 5h1M47 5h3M52 5h3M74 5h1M83 5h2M87 5h1M107 5h1M111 5h3M116 5h3M14 6h2M17 6h1M20 6h1M23 6h1M42 6h1M51 6h2M55 6h1M78 6h2M81 6h1M84 6h1M87 6h1M106 6h1M115 6h2M119 6h1M11 7h1M13 7h1M15 7h1M17 7h1M21 7h1M46 7h2M49 7h1M52 7h1M55 7h1M75 7h1M77 7h1M79 7h1M81 7h1M85 7h1M110 7h2M113 7h1M116 7h1M119 7h1M9 8h1M11 8h1M15 8h2M21 8h2M43 8h1M45 8h1M47 8h1M49 8h1M53 8h1M73 8h1M75 8h1M79 8h2M85 8h2M107 8h1M109 8h1M111 8h1M113 8h1M117 8h1M10 9h1M15 9h1M22 9h1M41 9h1M43 9h1M47 9h2M53 9h2M74 9h1M79 9h1M86 9h1M105 9h1M107 9h1M111 9h2M117 9h2M15 10h1M42 10h1M47 10h1M54 10h1M79 10h1M106 10h1M111 10h1M118 10h1M9 11h1M47 11h1M73 11h1M111 11h1M41 12h1M105 12h1M16 17h1M80 17h1M15 18h1M17 18h1M48 18h1M79 18h1M81 18h1M112 18h1M14 19h1M18 19h1M47 19h1M49 19h1M78 19h1M82 19h1M111 19h1M113 19h1M15 20h3M46 20h1M50 20h1M79 20h3M110 20h1M114 20h1M47 21h3M111 21h3M13 51h5M77 51h5M10 52h3M19 52h1M45 52h5M74 52h3M83 52h1M109 52h5M9 53h1M21 53h1M42 53h3M51 53h1M73 53h1M85 53h1M106 53h3M115 53h1M12 54h1M22 54h1M41 54h1M53 54h1M76 54h1M86 54h1M105 54h1M117 54h1M8 55h1M11 55h1M44 55h1M54 55h1M72 55h1M75 55h1M108 55h1M118 55h1M8 56h2M14 56h1M23 56h1M40 56h1M43 56h1M72 56h2M78 56h1M87 56h1M104 56h1M107 56h1M8 57h1M12 57h1M19 57h1M23 57h1M40 57h2M46 57h1M55 57h1M72 57h1M76 57h1M83 57h1M87 57h1M104 57h2M110 57h1M119 57h1M19 58h1M23 58h1M40 58h1M44 58h1M51 58h1M55 58h1M83 58h1M87 58h1M104 58h1M108 58h1M115 58h1M119 58h1M21 59h1M23 59h1M51 59h1M55 59h1M85 59h1M87 59h1M115 59h1M119 59h1M22 60h1M53 60h1M55 60h1M86 60h1M117 60h1M119 60h1M54 61h1M118 61h1M19 62h1M83 62h1M51 63h1M115 63h1M10 65h2M74 65h2M12 66h2M42 66h2M76 66h2M106 66h2M13 67h1M44 67h2M77 67h1M108 67h2M45 68h1M109 68h1M14 99h5M78 99h5M12 100h1M19 100h3M46 100h5M76 100h1M83 100h3M110 100h5M10 101h1M22 101h1M44 101h1M51 101h3M74 101h1M86 101h1M108 101h1M115 101h3M9 102h1M21 102h1M42 102h1M54 102h1M73 102h1M85 102h1M106 102h1M118 102h1M18 103h1M41 103h1M53 103h1M82 103h1M105 103h1M117 103h1M8 104h1M17 104h1M20 104h1M50 104h1M72 104h1M81 104h1M84 104h1M114 104h1M8 105h1M12 105h1M16 105h2M19 105h1M23 105h1M40 105h1M49 105h1M52 105h1M72 105h1M76 105h1M80 105h2M83 105h1M87 105h1M104 105h1M113 105h1M116 105h1M8 106h1M12 106h1M15 106h2M18 106h1M40 106h1M44 106h1M48 106h2M51 106h1M55 106h1M72 106h1M76 106h1M79 106h2M82 106h1M104 106h1M108 106h1M112 106h2M115 106h1M119 106h1M8 107h1M10 107h1M14 107h1M40 107h1M44 107h1M47 107h2M50 107h1M72 107h1M74 107h1M78 107h1M104 107h1M108 107h1M111 107h2M114 107h1M9 108h1M11 108h1M13 108h1M40 108h1M42 108h1M46 108h1M73 108h1M75 108h1M77 108h1M104 108h1M106 108h1M110 108h1M11 109h1M41 109h1M43 109h1M45 109h1M75 109h1M105 109h1M107 109h1M109 109h1M12 110h1M43 110h1M76 110h1M107 110h1M44 111h1M108 111h1M20 113h2M84 113h2M18 114h2M52 114h2M82 114h2M116 114h2M18 115h1M50 115h2M82 115h1M114 115h2M50 116h1M114 116h1M14 146h5M78 146h5M12 147h2M19 147h1M46 147h5M76 147h2M83 147h1M110 147h5M10 148h3M15 148h3M21 148h1M44 148h2M51 148h1M74 148h3M79 148h3M85 148h1M108 148h2M115 148h1M9 149h1M12 149h2M22 149h1M42 149h3M47 149h3M53 149h1M73 149h1M76 149h2M86 149h1M106 149h3M111 149h3M117 149h1M9 150h1M41 150h1M44 150h2M54 150h1M73 150h1M105 150h1M108 150h2M118 150h1M17 151h1M21 151h1M41 151h1M81 151h1M85 151h1M105 151h1M10 152h1M14 152h1M17 152h1M21 152h1M23 152h1M49 152h1M53 152h1M74 152h1M78 152h1M81 152h1M85 152h1M87 152h1M113 152h1M117 152h1M10 153h1M15 153h1M17 153h2M22 153h1M42 153h1M46 153h1M49 153h1M53 153h1M55 153h1M74 153h1M79 153h1M81 153h2M86 153h1M106 153h1M110 153h1M113 153h1M117 153h1M119 153h1M11 154h1M13 154h1M16 154h1M19 154h1M42 154h1M47 154h1M49 154h2M54 154h1M75 154h1M77 154h1M80 154h1M83 154h1M106 154h1M111 154h1M113 154h2M118 154h1M23 155h1M43 155h1M45 155h1M48 155h1M51 155h1M87 155h1M107 155h1M109 155h1M112 155h1M115 155h1M12 156h1M20 156h1M55 156h1M76 156h1M84 156h1M119 156h1M44 157h1M52 157h1M108 157h1M116 157h1" />
<path stroke="#684a1a" d="M12 3h1M76 3h1M10 4h1M44 4h1M74 4h1M108 4h1M9 5h1M15 5h1M42 5h1M73 5h1M79 5h1M106 5h1M9 6h1M41 6h1M47 6h1M73 6h1M105 6h1M111 6h1M8 7h1M19 7h2M24 7h1M41 7h1M72 7h1M83 7h2M88 7h1M105 7h1M8 8h1M24 8h1M40 8h1M51 8h2M56 8h1M72 8h1M88 8h1M104 8h1M115 8h2M120 8h1M8 9h1M12 9h1M16 9h1M24 9h1M40 9h1M56 9h1M72 9h1M76 9h1M80 9h1M88 9h1M104 9h1M120 9h1M11 10h1M40 10h1M44 10h1M48 10h1M56 10h1M75 10h1M104 10h1M108 10h1M112 10h1M120 10h1M43 11h1M107 11h1M22 12h1M24 12h1M86 12h1M88 12h1M10 13h1M22 13h1M54 13h1M56 13h1M74 13h1M86 13h1M118 13h1M120 13h1M42 14h1M54 14h1M106 14h1M118 14h1M18 51h2M82 51h2M20 52h2M50 52h2M84 52h2M114 52h2M22 53h1M52 53h2M86 53h1M116 53h2M8 54h1M11 54h1M15 54h2M23 54h1M54 54h1M72 54h1M75 54h1M79 54h2M87 54h1M118 54h1M7 55h1M10 55h1M14 55h2M17 55h1M23 55h1M40 55h1M43 55h1M47 55h2M55 55h1M71 55h1M74 55h1M78 55h2M81 55h1M87 55h1M104 55h1M107 55h1M111 55h2M119 55h1M7 56h1M10 56h1M13 56h1M24 56h1M39 56h1M42 56h1M46 56h2M49 56h1M55 56h1M71 56h1M74 56h1M77 56h1M88 56h1M103 56h1M106 56h1M110 56h2M113 56h1M119 56h1M7 57h1M9 57h2M13 57h1M24 57h1M39 57h1M42 57h1M45 57h1M56 57h1M71 57h1M73 57h2M77 57h1M88 57h1M103 57h1M106 57h1M109 57h1M120 57h1M8 58h3M12 58h1M20 58h1M39 58h1M41 58h2M45 58h1M56 58h1M72 58h3M76 58h1M84 58h1M103 58h1M105 58h2M109 58h1M120 58h1M9 59h1M20 59h1M40 59h3M44 59h1M52 59h1M73 59h1M84 59h1M104 59h3M108 59h1M116 59h1M23 60h1M41 60h1M52 60h1M87 60h1M105 60h1M116 60h1M19 61h1M22 61h2M55 61h1M83 61h1M86 61h2M119 61h1M20 62h1M22 62h1M51 62h1M54 62h2M84 62h1M86 62h1M115 62h1M118 62h2M52 63h1M54 63h1M116 63h1M118 63h1M19 64h1M83 64h1M19 65h1M51 65h1M83 65h1M115 65h1M51 66h1M115 66h1M17 67h2M81 67h2M49 68h2M113 68h2M12 99h2M76 99h2M10 100h2M44 100h2M74 100h2M108 100h2M9 101h1M42 101h2M73 101h1M106 101h2M8 102h1M23 102h1M41 102h1M72 102h1M87 102h1M105 102h1M8 103h1M24 103h1M40 103h1M55 103h1M72 103h1M88 103h1M104 103h1M119 103h1M7 104h1M22 104h1M24 104h1M40 104h1M56 104h1M71 104h1M86 104h1M88 104h1M104 104h1M120 104h1M7 105h1M22 105h1M24 105h1M39 105h1M54 105h1M56 105h1M71 105h1M86 105h1M88 105h1M103 105h1M118 105h1M120 105h1M11 106h1M22 106h2M39 106h1M54 106h1M56 106h1M75 106h1M86 106h2M103 106h1M118 106h1M120 106h1M11 107h1M22 107h1M43 107h1M54 107h2M75 107h1M86 107h1M107 107h1M118 107h2M8 108h1M43 108h1M54 108h1M72 108h1M107 108h1M118 108h1M8 109h2M12 109h1M40 109h1M72 109h2M76 109h1M104 109h1M9 110h1M11 110h1M40 110h2M44 110h1M73 110h1M75 110h1M104 110h2M108 110h1M41 111h1M43 111h1M105 111h1M107 111h1M12 112h1M76 112h1M12 113h1M44 113h1M76 113h1M108 113h1M44 114h1M108 114h1M13 115h2M77 115h2M45 116h2M109 116h2M20 147h2M84 147h2M22 148h1M52 148h2M86 148h1M116 148h2M23 149h1M54 149h1M87 149h1M118 149h1M23 150h1M55 150h1M87 150h1M119 150h1M8 151h1M24 151h1M55 151h1M72 151h1M88 151h1M119 151h1M8 152h1M24 152h1M40 152h1M56 152h1M72 152h1M88 152h1M104 152h1M120 152h1M8 153h1M24 153h1M40 153h1M56 153h1M72 153h1M88 153h1M104 153h1M120 153h1M40 154h1M56 154h1M104 154h1M120 154h1M18 156h1M82 156h1M14 157h1M18 157h1M50 157h1M78 157h1M82 157h1M114 157h1M11 158h1M14 158h1M18 158h1M21 158h1M46 158h1M50 158h1M75 158h1M78 158h1M82 158h1M85 158h1M110 158h1M114 158h1M10 159h2M14 159h2M17 159h2M21 159h2M43 159h1M46 159h1M50 159h1M53 159h1M74 159h2M78 159h2M81 159h2M85 159h2M107 159h1M110 159h1M114 159h1M117 159h1M11 160h1M13 160h3M17 160h3M21 160h1M42 160h2M46 160h2M49 160h2M53 160h2M75 160h1M77 160h3M81 160h3M85 160h1M106 160h2M110 160h2M113 160h2M117 160h2M12 161h1M14 161h5M20 161h1M43 161h1M45 161h3M49 161h3M53 161h1M76 161h1M78 161h5M84 161h1M107 161h1M109 161h3M113 161h3M117 161h1M12 162h1M14 162h5M20 162h1M44 162h1M46 162h5M52 162h1M76 162h1M78 162h5M84 162h1M108 162h1M110 162h5M116 162h1M15 163h3M44 163h1M46 163h5M52 163h1M79 163h3M108 163h1M110 163h5M116 163h1M47 164h3M111 164h3" />
<path stroke="#c9a161" d="M14 3h5M78 3h5M14 4h1M18 4h2M46 4h5M78 4h1M82 4h2M110 4h5M12 5h2M16 5h1M18 5h1M22 5h1M46 5h1M50 5h2M76 5h2M80 5h1M82 5h1M86 5h1M110 5h1M114 5h2M11 6h2M21 6h1M44 6h2M48 6h1M50 6h1M54 6h1M75 6h2M85 6h1M108 6h2M112 6h1M114 6h1M118 6h1M10 7h1M22 7h1M43 7h2M53 7h1M74 7h1M86 7h1M107 7h2M117 7h1M10 8h1M14 8h1M42 8h1M54 8h1M74 8h1M78 8h1M106 8h1M118 8h1M9 9h1M42 9h1M46 9h1M73 9h1M106 9h1M110 9h1M9 10h1M41 10h1M73 10h1M105 10h1M41 11h1M105 11h1M15 17h1M17 17h1M79 17h1M81 17h1M14 18h1M18 18h1M47 18h1M49 18h1M78 18h1M82 18h1M111 18h1M113 18h1M46 19h1M50 19h1M110 19h1M114 19h1M13 52h6M77 52h6M10 53h11M45 53h6M74 53h11M109 53h6M13 54h2M17 54h4M42 54h11M77 54h2M81 54h4M106 54h11M9 55h1M18 55h3M45 55h2M49 55h4M73 55h1M82 55h3M109 55h2M113 55h4M19 56h1M41 56h1M50 56h3M83 56h1M105 56h1M114 56h3M11 57h1M18 57h1M20 57h1M22 57h1M51 57h1M75 57h1M82 57h1M84 57h1M86 57h1M115 57h1M11 58h1M21 58h2M43 58h1M50 58h1M52 58h1M54 58h1M75 58h1M85 58h2M107 58h1M114 58h1M116 58h1M118 58h1M10 59h1M22 59h1M43 59h1M53 59h2M74 59h1M86 59h1M107 59h1M117 59h2M42 60h1M54 60h1M106 60h1M118 60h1M12 65h1M76 65h1M44 66h1M108 66h1M13 100h6M77 100h6M11 101h11M45 101h6M75 101h11M109 101h6M11 102h10M22 102h1M43 102h11M75 102h10M86 102h1M107 102h11M11 103h5M17 103h1M19 103h1M23 103h1M43 103h10M54 103h1M75 103h5M81 103h1M83 103h1M87 103h1M107 103h10M118 103h1M12 104h3M16 104h1M23 104h1M43 104h5M49 104h1M51 104h1M55 104h1M76 104h3M80 104h1M87 104h1M107 104h5M113 104h1M115 104h1M119 104h1M9 105h1M11 105h1M13 105h1M15 105h1M44 105h3M48 105h1M55 105h1M73 105h1M75 105h1M77 105h1M79 105h1M108 105h3M112 105h1M119 105h1M9 106h2M14 106h1M17 106h1M41 106h1M43 106h1M45 106h1M47 106h1M73 106h2M78 106h1M81 106h1M105 106h1M107 106h1M109 106h1M111 106h1M9 107h1M12 107h2M41 107h2M46 107h1M49 107h1M73 107h1M76 107h2M105 107h2M110 107h1M113 107h1M12 108h1M41 108h1M44 108h2M76 108h1M105 108h1M108 108h2M44 109h1M108 109h1M19 113h1M83 113h1M51 114h1M115 114h1M14 147h5M78 147h5M13 148h2M18 148h1M46 148h5M77 148h2M82 148h1M110 148h5M10 149h1M14 149h3M19 149h2M45 149h2M50 149h1M74 149h1M78 149h3M83 149h2M109 149h2M114 149h1M11 150h4M16 150h2M20 150h2M42 150h1M46 150h3M51 150h2M75 150h4M80 150h2M84 150h2M106 150h1M110 150h3M115 150h2M10 151h5M18 151h1M20 151h1M22 151h1M43 151h4M48 151h2M52 151h2M74 151h5M82 151h1M84 151h1M86 151h1M107 151h4M112 151h2M116 151h2M11 152h3M15 152h1M18 152h3M22 152h1M42 152h5M50 152h1M52 152h1M54 152h1M75 152h3M79 152h1M82 152h3M86 152h1M106 152h5M114 152h1M116 152h1M118 152h1M11 153h3M16 153h1M19 153h2M23 153h1M43 153h3M47 153h1M50 153h3M54 153h1M75 153h3M80 153h1M83 153h2M87 153h1M107 153h3M111 153h1M114 153h3M118 153h1M12 154h1M20 154h1M23 154h1M43 154h3M48 154h1M51 154h2M55 154h1M76 154h1M84 154h1M87 154h1M107 154h3M112 154h1M115 154h2M119 154h1M12 155h1M20 155h1M44 155h1M52 155h1M55 155h1M76 155h1M84 155h1M108 155h1M116 155h1M119 155h1M44 156h1M52 156h1M108 156h1M116 156h1" />
<path stroke="#e6c198" d="M12 4h2M76 4h2M11 5h1M14 5h1M17 5h1M21 5h1M44 5h2M75 5h1M78 5h1M81 5h1M85 5h1M108 5h2M10 6h1M13 6h1M16 6h1M22 6h1M43 6h1M46 6h1M49 6h1M53 6h1M74 6h1M77 6h1M80 6h1M86 6h1M107 6h1M110 6h1M113 6h1M117 6h1M12 7h1M16 7h1M23 7h1M42 7h1M45 7h1M48 7h1M54 7h1M76 7h1M80 7h1M87 7h1M106 7h1M109 7h1M112 7h1M118 7h1M23 8h1M44 8h1M48 8h1M55 8h1M87 8h1M108 8h1M112 8h1M119 8h1M55 9h1M119 9h1M9 54h2M21 54h1M73 54h2M85 54h1M12 55h2M21 55h2M41 55h2M53 55h1M76 55h2M85 55h2M105 55h2M117 55h1M11 56h2M20 56h3M44 56h2M53 56h2M75 56h2M84 56h3M108 56h2M117 56h2M21 57h1M43 57h2M52 57h3M85 57h1M107 57h2M116 57h3M18 58h1M53 58h1M82 58h1M117 58h1M50 59h1M114 59h1M10 102h1M74 102h1M9 103h2M16 103h1M20 103h1M42 103h1M73 103h2M80 103h1M84 103h1M106 103h1M9 104h3M15 104h1M18 104h2M41 104h2M48 104h1M52 104h1M73 104h3M79 104h1M82 104h2M105 104h2M112 104h1M116 104h1M10 105h1M14 105h1M18 105h1M41 105h3M47 105h1M50 105h2M74 105h1M78 105h1M82 105h1M105 105h3M111 105h1M114 105h2M13 106h1M42 106h1M46 106h1M50 106h1M77 106h1M106 106h1M110 106h1M114 106h1M45 107h1M109 107h1M19 148h2M83 148h2M11 149h1M18 149h1M21 149h1M51 149h2M75 149h1M82 149h1M85 149h1M115 149h2M10 150h1M15 150h1M18 150h2M22 150h1M43 150h1M50 150h1M53 150h1M74 150h1M79 150h1M82 150h2M86 150h1M107 150h1M114 150h1M117 150h1M9 151h1M15 151h2M19 151h1M42 151h1M47 151h1M50 151h2M54 151h1M73 151h1M79 151h2M83 151h1M106 151h1M111 151h1M114 151h2M118 151h1M9 152h1M16 152h1M41 152h1M47 152h2M51 152h1M73 152h1M80 152h1M105 152h1M111 152h2M115 152h1M41 153h1M48 153h1M105 153h1M112 153h1" />
<path stroke="#422f10" d="M18 6h2M82 6h2M18 7h1M50 7h2M82 7h1M114 7h2M50 8h1M114 8h1M8 10h1M22 10h1M24 10h1M72 10h1M86 10h1M88 10h1M8 11h1M11 11h1M22 11h1M24 11h1M40 11h1M54 11h1M56 11h1M72 11h1M75 11h1M86 11h1M88 11h1M104 11h1M118 11h1M120 11h1M10 12h1M40 12h1M43 12h1M54 12h1M56 12h1M74 12h1M104 12h1M107 12h1M118 12h1M120 12h1M42 13h1M106 13h1M16 55h1M80 55h1M15 56h4M48 56h1M79 56h4M112 56h1M17 57h1M47 57h4M81 57h1M111 57h4M49 58h1M113 58h1M24 61h1M88 61h1M24 62h1M56 62h1M88 62h1M120 62h1M23 63h1M56 63h1M87 63h1M120 63h1M23 64h1M55 64h1M87 64h1M119 64h1M20 65h1M22 65h1M55 65h1M84 65h1M86 65h1M119 65h1M19 66h1M21 66h2M52 66h1M54 66h1M83 66h1M85 66h2M116 66h1M118 66h1M19 67h3M51 67h1M53 67h2M83 67h3M115 67h1M117 67h2M20 68h1M51 68h3M84 68h1M115 68h3M52 69h1M116 69h1M21 103h2M85 103h2M21 104h1M53 104h2M85 104h1M117 104h2M53 105h1M117 105h1M7 109h1M71 109h1M7 110h1M39 110h1M71 110h1M103 110h1M8 111h1M39 111h1M72 111h1M103 111h1M8 112h1M40 112h1M72 112h1M104 112h1M9 113h1M11 113h1M40 113h1M73 113h1M75 113h1M104 113h1M9 114h2M12 114h1M41 114h1M43 114h1M73 114h2M76 114h1M105 114h1M107 114h1M10 115h3M41 115h2M44 115h1M74 115h3M105 115h2M108 115h1M11 116h1M42 116h3M75 116h1M106 116h3M43 117h1M107 117h1M8 154h1M24 154h1M72 154h1M88 154h1M8 155h1M24 155h1M40 155h1M56 155h1M72 155h1M88 155h1M104 155h1M120 155h1M8 156h1M40 156h1M56 156h1M72 156h1M104 156h1M120 156h1M40 157h1M104 157h1M9 158h1M23 158h1M73 158h1M87 158h1M41 159h1M55 159h1M105 159h1M119 159h1M10 160h1M22 160h1M74 160h1M86 160h1M13 161h1M19 161h1M42 161h1M54 161h1M77 161h1M83 161h1M106 161h1M118 161h1M11 162h1M13 162h1M19 162h1M21 162h1M45 162h1M51 162h1M75 162h1M77 162h1M83 162h1M85 162h1M109 162h1M115 162h1M12 163h3M18 163h3M43 163h1M45 163h1M51 163h1M53 163h1M76 163h3M82 163h3M107 163h1M109 163h1M115 163h1M117 163h1M15 164h3M44 164h3M50 164h3M79 164h3M108 164h3M114 164h3M47 165h3M111 165h3" />
<path stroke="#886020" d="M9 7h1M14 7h1M73 7h1M78 7h1M12 8h2M41 8h1M46 8h1M76 8h2M105 8h1M110 8h1M11 9h1M23 9h1M44 9h2M75 9h1M87 9h1M108 9h2M10 10h1M23 10h1M43 10h1M55 10h1M74 10h1M87 10h1M107 10h1M119 10h1M10 11h1M23 11h1M42 11h1M55 11h1M74 11h1M87 11h1M106 11h1M119 11h1M42 12h1M55 12h1M106 12h1M119 12h1M17 149h1M81 149h1M49 150h1M113 150h1M23 151h1M87 151h1M55 152h1M119 152h1M9 153h1M14 153h1M21 153h1M73 153h1M78 153h1M85 153h1M9 154h2M14 154h2M17 154h2M21 154h2M41 154h1M46 154h1M53 154h1M73 154h2M78 154h2M81 154h2M85 154h2M105 154h1M110 154h1M117 154h1M9 155h3M13 155h7M21 155h2M41 155h2M46 155h2M49 155h2M53 155h2M73 155h3M77 155h7M85 155h2M105 155h2M110 155h2M113 155h2M117 155h2M9 156h3M13 156h5M19 156h1M21 156h3M41 156h3M45 156h7M53 156h2M73 156h3M77 156h5M83 156h1M85 156h3M105 156h3M109 156h7M117 156h2M9 157h5M15 157h3M19 157h5M41 157h3M45 157h5M51 157h1M53 157h3M73 157h5M79 157h3M83 157h5M105 157h3M109 157h5M115 157h1M117 157h3M10 158h1M12 158h2M15 158h3M19 158h2M22 158h1M41 158h5M47 158h3M51 158h5M74 158h1M76 158h2M79 158h3M83 158h2M86 158h1M105 158h5M111 158h3M115 158h5M12 159h2M16 159h1M19 159h2M42 159h1M44 159h2M47 159h3M51 159h2M54 159h1M76 159h2M80 159h1M83 159h2M106 159h1M108 159h2M111 159h3M115 159h2M118 159h1M12 160h1M16 160h1M20 160h1M44 160h2M48 160h1M51 160h2M76 160h1M80 160h1M84 160h1M108 160h2M112 160h1M115 160h2M44 161h1M48 161h1M52 161h1M108 161h1M112 161h1M116 161h1" />
<path stroke="#aa7162" d="M17 8h1M20 8h1M81 8h1M84 8h1M13 9h2M21 9h1M49 9h1M52 9h1M77 9h2M85 9h1M113 9h1M116 9h1M12 10h1M45 10h2M53 10h1M76 10h1M109 10h2M117 10h1M44 11h1M108 11h1M11 12h1M75 12h1M14 13h1M18 13h1M43 13h1M78 13h1M82 13h1M107 13h1M9 14h1M23 14h1M46 14h1M50 14h1M73 14h1M87 14h1M110 14h1M114 14h1M41 15h1M55 15h1M105 15h1M119 15h1M10 16h1M22 16h1M74 16h1M86 16h1M11 17h1M21 17h1M42 17h1M54 17h1M75 17h1M85 17h1M106 17h1M118 17h1M12 18h1M20 18h1M43 18h1M53 18h1M76 18h1M84 18h1M107 18h1M117 18h1M15 19h3M44 19h1M52 19h1M79 19h3M108 19h1M116 19h1M47 20h3M111 20h3M17 58h1M81 58h1M49 59h1M113 59h1M18 60h1M82 60h1M50 61h1M114 61h1M9 62h1M73 62h1M19 63h1M41 63h1M83 63h1M105 63h1M51 64h1M115 64h1M18 66h1M82 66h1M14 67h1M50 67h1M78 67h1M114 67h1M46 68h1M110 68h1M20 105h2M84 105h2M19 106h1M52 106h2M83 106h1M116 106h2M15 107h1M51 107h1M79 107h1M115 107h1M14 108h1M47 108h1M78 108h1M111 108h1M13 109h1M46 109h1M77 109h1M110 109h1M22 110h1M45 110h1M86 110h1M109 110h1M12 111h1M54 111h1M76 111h1M118 111h1M44 112h1M108 112h1M13 114h1M77 114h1M17 115h1M45 115h1M81 115h1M109 115h1M49 116h1M113 116h1" />
<path stroke="#e8a08d" d="M18 8h2M82 8h2M50 9h2M114 9h2M13 10h2M16 10h1M21 10h1M77 10h2M80 10h1M85 10h1M45 11h2M48 11h1M53 11h1M109 11h2M112 11h1M117 11h1M9 12h1M23 12h1M73 12h1M87 12h1M11 13h1M41 13h1M55 13h1M75 13h1M105 13h1M119 13h1M11 14h1M43 14h1M75 14h1M107 14h1M10 15h1M22 15h1M43 15h1M74 15h1M86 15h1M107 15h1M42 16h1M54 16h1M106 16h1M118 16h1M13 18h1M19 18h1M77 18h1M83 18h1M45 19h1M51 19h1M109 19h1M115 19h1M14 57h1M16 57h1M78 57h1M80 57h1M13 58h1M46 58h1M48 58h1M77 58h1M110 58h1M112 58h1M11 59h2M17 59h1M45 59h1M75 59h2M81 59h1M109 59h1M10 60h1M43 60h2M49 60h1M74 60h1M107 60h2M113 60h1M18 61h1M42 61h1M82 61h1M106 61h1M18 62h1M50 62h1M82 62h1M114 62h1M9 63h1M50 63h1M73 63h1M114 63h1M9 64h1M41 64h1M73 64h1M105 64h1M18 65h1M41 65h1M82 65h1M105 65h1M11 66h1M17 66h1M50 66h1M75 66h1M81 66h1M114 66h1M43 67h1M49 67h1M107 67h1M113 67h1M20 106h1M84 106h1M16 107h3M52 107h1M80 107h3M116 107h1M15 108h1M48 108h3M79 108h1M112 108h3M14 109h1M47 109h1M78 109h1M111 109h1M13 110h1M46 110h1M77 110h1M110 110h1M22 111h1M45 111h1M86 111h1M109 111h1M22 112h1M54 112h1M86 112h1M118 112h1M13 113h1M54 113h1M77 113h1M118 113h1M14 114h1M20 114h1M45 114h1M78 114h1M84 114h1M109 114h1M46 115h1M52 115h1M110 115h1M116 115h1" />
<path stroke="#ffc89b" d="M17 9h1M20 9h1M81 9h1M84 9h1M49 10h1M52 10h1M113 10h1M116 10h1M9 13h1M21 13h1M23 13h1M73 13h1M85 13h1M87 13h1M21 14h1M41 14h1M53 14h1M55 14h1M85 14h1M105 14h1M117 14h1M119 14h1M11 15h1M21 15h1M53 15h1M75 15h1M85 15h1M117 15h1M11 16h1M21 16h1M43 16h1M53 16h1M75 16h1M85 16h1M107 16h1M117 16h1M12 17h1M20 17h1M43 17h1M53 17h1M76 17h1M84 17h1M107 17h1M117 17h1M16 18h1M44 18h1M52 18h1M80 18h1M108 18h1M116 18h1M48 19h1M112 19h1M15 57h1M79 57h1M14 58h3M47 58h1M78 58h3M111 58h1M13 59h1M16 59h1M46 59h3M77 59h1M80 59h1M110 59h3M11 60h2M16 60h2M45 60h1M48 60h1M75 60h2M80 60h2M109 60h1M112 60h1M10 61h2M15 61h3M43 61h2M48 61h2M74 61h2M79 61h3M107 61h2M112 61h2M16 62h2M42 62h2M47 62h3M80 62h2M106 62h2M111 62h3M18 63h1M20 63h1M48 63h2M82 63h1M84 63h1M112 63h2M15 64h1M18 64h1M20 64h1M50 64h1M52 64h1M79 64h1M82 64h1M84 64h1M114 64h1M116 64h1M47 65h1M50 65h1M52 65h1M111 65h1M114 65h1M116 65h1M15 66h2M79 66h2M47 67h2M111 67h2M21 106h1M85 106h1M19 107h3M53 107h1M83 107h3M117 107h1M16 108h3M51 108h3M80 108h3M115 108h3M15 109h2M20 109h1M48 109h3M79 109h2M84 109h1M112 109h3M14 110h2M47 110h2M52 110h1M78 110h2M111 110h2M116 110h1M11 111h1M13 111h1M46 111h2M75 111h1M77 111h1M110 111h2M11 112h1M13 112h1M16 112h1M43 112h1M45 112h1M75 112h1M77 112h1M80 112h1M107 112h1M109 112h1M43 113h1M45 113h1M48 113h1M107 113h1M109 113h1M112 113h1M15 114h2M79 114h2M47 115h2M111 115h2" />
<path stroke="#ffebce" d="M18 9h2M82 9h2M20 10h1M50 10h2M84 10h1M114 10h2M21 11h1M52 11h1M85 11h1M116 11h1M21 12h1M53 12h1M85 12h1M117 12h1M53 13h1M117 13h1M15 14h3M79 14h3M15 15h3M47 15h3M79 15h3M111 15h3M15 16h1M17 16h1M47 16h3M79 16h1M81 16h1M111 16h3M13 17h2M18 17h2M47 17h1M49 17h1M77 17h2M82 17h2M111 17h1M113 17h1M45 18h2M50 18h2M109 18h2M114 18h2M15 60h1M79 60h1M47 61h1M111 61h1M10 62h2M74 62h2M10 63h2M16 63h2M42 63h2M74 63h2M80 63h2M106 63h2M10 64h2M16 64h2M42 64h2M48 64h2M74 64h2M80 64h2M106 64h2M112 64h2M13 65h5M42 65h2M48 65h2M77 65h5M106 65h2M112 65h2M14 66h1M45 66h5M78 66h1M109 66h5M46 67h1M110 67h1M21 108h1M85 108h1M21 109h1M53 109h1M85 109h1M117 109h1M20 110h2M53 110h1M84 110h2M117 110h1M14 111h2M20 111h2M52 111h2M78 111h2M84 111h2M116 111h2M14 112h2M20 112h2M46 112h2M52 112h2M78 112h2M84 112h2M110 112h2M116 112h2M14 113h5M46 113h2M52 113h2M78 113h5M110 113h2M116 113h2M17 114h1M46 114h5M81 114h1M110 114h5M49 115h1M113 115h1" />
<path stroke="#fffff3" d="M17 10h3M81 10h3M12 11h9M49 11h3M76 11h9M113 11h3M12 12h9M44 12h9M76 12h9M108 12h9M15 13h3M44 13h9M79 13h3M108 13h9M47 14h3M111 14h3M16 16h1M80 16h1M48 17h1M112 17h1M14 59h2M78 59h2M13 60h2M46 60h2M77 60h2M110 60h2M45 61h2M109 61h2M19 108h2M83 108h2M51 109h2M115 109h2" />
<path stroke="#5c4766" d="M8 12h1M72 12h1M8 13h1M24 13h1M40 13h1M72 13h1M88 13h1M104 13h1M8 14h1M24 14h1M40 14h1M56 14h1M72 14h1M88 14h1M104 14h1M120 14h1M9 15h1M23 15h1M40 15h1M56 15h1M73 15h1M87 15h1M104 15h1M120 15h1M41 16h1M55 16h1M105 16h1M119 16h1M10 17h1M22 17h1M74 17h1M86 17h1M42 18h1M54 18h1M106 18h1M118 18h1M9 60h1M73 60h1M9 61h1M41 61h1M73 61h1M105 61h1M41 62h1M105 62h1M11 67h2M75 67h2M43 68h2M107 68h2M22 108h1M86 108h1M22 109h1M54 109h1M86 109h1M118 109h1M54 110h1M118 110h1M19 115h2M83 115h2M51 116h2M115 116h2" />
<path stroke="#493357" d="M12 13h2M19 13h2M76 13h2M83 13h2M14 14h1M18 14h1M44 14h2M51 14h2M78 14h1M82 14h1M108 14h2M115 14h2M13 15h2M18 15h2M46 15h1M50 15h1M77 15h2M82 15h2M110 15h1M114 15h1M45 16h2M50 16h2M109 16h2M114 16h2M13 61h2M77 61h2M12 62h1M45 62h2M76 62h1M109 62h2M12 63h2M44 63h1M76 63h2M108 63h1M44 64h2M108 64h2M17 109h2M81 109h2M19 110h1M49 110h2M83 110h1M113 110h2M18 111h2M51 111h1M82 111h2M115 111h1M50 112h2M114 112h2" />
<path stroke="#7c513f" d="M10 14h1M22 14h1M74 14h1M86 14h1M42 15h1M54 15h1M106 15h1M118 15h1M11 18h1M21 18h1M75 18h1M85 18h1M13 19h1M19 19h1M43 19h1M53 19h1M77 19h1M83 19h1M107 19h1M117 19h1M45 20h1M51 20h1M109 20h1M115 20h1M18 59h2M82 59h2M19 60h1M50 60h2M83 60h1M114 60h2M12 61h1M51 61h1M76 61h1M115 61h1M15 62h1M44 62h1M79 62h1M108 62h1M15 63h1M47 63h1M79 63h1M111 63h1M47 64h1M111 64h1M9 65h1M73 65h1M10 66h1M41 66h1M74 66h1M105 66h1M15 67h2M42 67h1M79 67h2M106 67h1M47 68h2M111 68h2M19 109h1M83 109h1M16 110h1M51 110h1M80 110h1M115 110h1M16 111h1M48 111h1M80 111h1M112 111h1M48 112h1M112 112h1M22 113h1M86 113h1M21 114h1M54 114h1M85 114h1M118 114h1M15 115h2M53 115h1M79 115h2M117 115h1M47 116h2M111 116h2" />
<path stroke="#7b7b82" d="M12 14h1M20 14h1M76 14h1M84 14h1M44 15h1M52 15h1M108 15h1M116 15h1M14 62h1M78 62h1M46 63h1M110 63h1M17 110h1M81 110h1M49 111h1M113 111h1" />
<path stroke="#c9c9c9" d="M13 14h1M19 14h1M77 14h1M83 14h1M45 15h1M51 15h1M109 15h1M115 15h1M13 62h1M77 62h1M45 63h1M109 63h1M18 110h1M82 110h1M50 111h1M114 111h1" />
<path stroke="#ced7dd" d="M12 15h1M20 15h1M76 15h1M84 15h1M12 16h1M20 16h1M44 16h1M52 16h1M76 16h1M84 16h1M108 16h1M116 16h1M44 17h1M52 17h1M108 17h1M116 17h1M14 63h1M78 63h1M14 64h1M46 64h1M78 64h1M110 64h1M46 65h1M110 65h1M17 111h1M81 111h1M17 112h1M49 112h1M81 112h1M113 112h1M49 113h1M113 113h1" />
<path stroke="#4b6400" d="M13 16h2M18 16h2M77 16h2M82 16h2M45 17h2M50 17h2M109 17h2M114 17h2M12 64h2M76 64h2M44 65h2M108 65h2M18 112h2M82 112h2M50 113h2M114 113h2" />
<path stroke="#503524" d="M9 18h1M73 18h1M9 19h1M41 19h1M73 19h1M105 19h1M9 20h2M41 20h1M73 20h2M105 20h1M10 21h1M41 21h2M74 21h1M105 21h2M11 22h2M42 22h1M75 22h2M106 22h1M12 23h2M43 23h2M76 23h2M107 23h2M13 24h1M44 24h2M77 24h1M108 24h2M13 25h2M45 25h1M77 25h2M109 25h1M14 26h2M45 26h2M78 26h2M109 26h2M15 27h2M46 27h2M79 27h2M110 27h2M16 28h1M18 28h1M47 28h2M80 28h1M82 28h1M111 28h2M18 29h2M48 29h1M50 29h1M82 29h2M112 29h1M114 29h1M19 30h2M23 30h1M50 30h3M83 30h2M87 30h1M114 30h3M21 31h3M51 31h2M85 31h3M115 31h2M119 31h1M53 32h2M117 32h3M11 68h1M11 69h2M43 69h1M107 69h1M12 70h1M43 70h2M76 70h1M107 70h2M13 71h2M44 71h1M77 71h2M108 71h1M14 72h2M45 72h2M78 72h2M109 72h2M15 73h2M46 73h2M79 73h2M110 73h2M15 74h1M46 74h1M79 74h1M111 74h1M111 75h2M21 76h1M51 76h1M112 76h2M21 77h2M51 77h1M86 77h1M113 77h1M21 78h2M24 78h1M51 78h2M86 78h1M88 78h1M22 79h1M24 79h1M52 79h3M86 79h1M88 79h1M53 80h2M56 80h1M55 81h2M12 116h2M76 116h2M14 117h2M44 117h2M78 117h2M16 118h1M46 118h2M80 118h1M106 118h3M17 119h1M48 119h1M81 119h1M109 119h2M18 120h1M49 120h1M82 120h1M111 120h2M19 121h1M50 121h1M83 121h1M113 121h1M20 122h2M51 122h1M84 122h2M114 122h1M21 123h1M52 123h1M85 123h1M115 123h1M53 124h1M116 124h2M53 125h1M117 125h1M23 162h1M87 162h1M23 163h1M55 163h1M87 163h1M119 163h1M22 164h2M55 164h1M86 164h2M119 164h1M22 165h1M54 165h2M86 165h1M118 165h2M21 166h1M54 166h1M85 166h1M118 166h1M20 167h1M53 167h1M84 167h1M117 167h1M19 168h1M52 168h1M83 168h1M116 168h1M18 169h2M51 169h1M82 169h2M115 169h1M17 170h2M50 170h2M81 170h2M114 170h2M16 171h2M49 171h2M80 171h2M113 171h2M14 172h1M16 172h1M48 172h2M78 172h1M80 172h1M112 172h2M12 173h3M46 173h1M48 173h1M76 173h3M110 173h1M112 173h1M12 174h2M44 174h3M76 174h2M108 174h3M10 175h2M44 175h2M74 175h2M108 175h2M8 176h3M40 176h1M42 176h2M72 176h3M106 176h2M40 177h3M106 177h1" />
<path stroke="#714d37" d="M10 18h1M74 18h1M10 19h1M42 19h1M74 19h1M106 19h1M11 20h1M42 20h1M75 20h1M106 20h1M11 21h2M43 21h1M75 21h2M107 21h1M13 22h1M43 22h2M77 22h1M107 22h2M14 23h1M45 23h1M78 23h1M109 23h1M14 24h1M46 24h1M78 24h1M110 24h1M15 25h1M46 25h1M79 25h1M110 25h1M16 26h1M47 26h1M80 26h1M111 26h1M17 27h2M48 27h1M81 27h2M112 27h1M17 28h1M19 28h1M49 28h2M81 28h1M83 28h1M113 28h2M20 29h1M49 29h1M51 29h1M84 29h1M113 29h1M115 29h1M21 30h2M53 30h1M85 30h2M117 30h1M53 31h1M117 31h2M12 68h1M13 69h1M44 69h1M108 69h1M13 70h2M45 70h1M77 70h2M109 70h1M15 71h1M45 71h2M79 71h1M109 71h2M16 72h1M47 72h1M80 72h1M111 72h1M112 73h1M112 74h1M113 75h1M52 77h1M23 78h1M53 78h1M87 78h1M23 79h1M55 79h1M87 79h1M55 80h1M14 116h2M78 116h2M16 117h1M46 117h2M80 117h2M108 117h1M17 118h1M48 118h1M81 118h1M109 118h2M18 119h1M49 119h1M82 119h1M111 119h2M19 120h1M50 120h1M83 120h1M113 120h1M20 121h1M51 121h1M84 121h1M114 121h1M52 122h1M115 122h1M53 123h1M116 123h1M22 163h1M21 164h1M54 164h1M20 165h2M53 165h1M20 166h1M52 166h2M19 167h1M52 167h1M18 168h1M51 168h1M17 169h1M50 169h1M16 170h1M49 170h1M14 171h2M48 171h1" />
<path stroke="#491313" d="M22 18h2M86 18h2M11 19h1M21 19h1M54 19h2M75 19h1M85 19h1M118 19h2M7 20h1M21 20h1M25 20h1M40 20h1M52 20h1M56 20h1M71 20h1M85 20h1M89 20h1M104 20h1M108 20h1M118 20h3M40 21h1M57 21h1M103 21h1M120 21h1M21 22h1M39 22h1M57 22h1M85 22h1M103 22h1M118 22h1M121 22h1M6 23h1M11 23h1M21 23h1M26 23h1M39 23h2M42 23h1M57 23h1M70 23h1M75 23h1M85 23h1M90 23h1M103 23h1M118 23h1M120 23h2M5 24h1M10 24h2M21 24h2M27 24h1M38 24h2M41 24h2M53 24h1M69 24h1M74 24h2M85 24h2M91 24h1M107 24h1M118 24h2M121 24h2M5 25h1M9 25h2M22 25h2M27 25h1M38 25h1M42 25h1M53 25h1M58 25h1M69 25h1M73 25h2M86 25h2M91 25h1M102 25h1M107 25h1M118 25h1M122 25h1M6 26h2M10 26h1M22 26h1M25 26h2M39 26h2M42 26h1M53 26h1M58 26h1M70 26h2M74 26h1M86 26h1M89 26h2M102 26h1M107 26h1M118 26h1M120 26h2M7 27h4M22 27h4M41 27h2M57 27h1M71 27h4M86 27h4M103 27h1M118 27h2M54 28h4M103 28h4M9 29h1M23 29h1M73 29h1M87 29h1M41 30h1M54 30h1M106 30h1M119 30h1M55 31h1M105 31h1M8 32h1M24 32h1M40 32h1M56 32h1M72 32h1M88 32h1M104 32h1M120 32h1M8 33h1M24 33h1M40 33h1M56 33h1M72 33h1M88 33h1M104 33h1M120 33h1M8 34h1M24 34h1M40 34h1M56 34h1M72 34h1M88 34h1M104 34h1M120 34h1M7 35h1M25 35h1M39 35h1M56 35h1M71 35h1M89 35h1M104 35h1M121 35h1M7 36h1M25 36h1M39 36h1M53 36h1M57 36h1M71 36h1M89 36h1M103 36h1M107 36h1M121 36h1M7 37h1M25 37h1M39 37h1M53 37h1M57 37h1M71 37h1M89 37h1M103 37h1M107 37h1M121 37h1M7 38h1M25 38h1M39 38h1M53 38h1M56 38h2M71 38h1M89 38h1M103 38h2M107 38h1M121 38h1M8 39h2M23 39h2M39 39h2M53 39h4M72 39h2M87 39h2M104 39h4M120 39h2M9 40h3M21 40h3M40 40h2M54 40h2M73 40h3M85 40h3M105 40h2M119 40h2M42 41h1M118 41h1M19 68h1M21 68h1M83 68h1M85 68h1M10 69h1M20 69h1M22 69h1M45 69h1M74 69h1M84 69h1M86 69h1M109 69h4M117 69h1M10 70h1M20 70h1M22 70h1M54 70h1M74 70h1M84 70h1M86 70h1M106 70h1M116 70h1M118 70h1M10 71h1M20 71h1M22 71h1M42 71h1M54 71h1M74 71h1M84 71h1M86 71h1M105 71h2M117 71h2M9 72h1M20 72h1M22 72h1M42 72h1M54 72h1M73 72h1M84 72h1M86 72h1M104 72h2M118 72h1M9 73h1M22 73h2M42 73h1M45 73h1M53 73h2M73 73h1M86 73h2M104 73h2M119 73h1M9 74h1M23 74h1M42 74h1M53 74h2M73 74h1M87 74h1M103 74h3M110 74h1M119 74h1M9 75h1M23 75h1M42 75h1M52 75h1M54 75h2M73 75h1M87 75h1M103 75h4M110 75h1M119 75h1M9 76h1M23 76h1M41 76h1M45 76h1M55 76h1M73 76h1M87 76h1M102 76h4M111 76h1M119 76h1M9 77h1M24 77h1M41 77h1M49 77h2M55 77h1M73 77h1M88 77h1M102 77h4M111 77h1M120 77h1M9 78h1M41 78h1M55 78h1M73 78h1M103 78h3M111 78h1M120 78h1M9 79h1M41 79h1M56 79h1M73 79h1M104 79h2M111 79h1M120 79h1M9 80h1M24 80h1M41 80h1M46 80h1M57 80h1M73 80h1M88 80h1M105 80h1M111 80h1M120 80h2M9 81h1M24 81h2M41 81h1M46 81h1M57 81h1M73 81h1M88 81h2M105 81h1M121 81h1M9 82h1M25 82h1M41 82h1M46 82h1M57 82h2M73 82h1M89 82h1M105 82h1M122 82h1M8 83h1M25 83h1M41 83h1M47 83h1M58 83h1M72 83h1M89 83h1M105 83h1M122 83h1M8 84h1M26 84h1M40 84h1M47 84h1M59 84h1M72 84h1M90 84h1M104 84h1M123 84h1M8 85h1M26 85h1M40 85h1M48 85h1M59 85h1M72 85h1M90 85h1M104 85h1M123 85h1M8 86h1M11 86h2M26 86h1M40 86h1M48 86h1M59 86h1M72 86h1M75 86h2M90 86h1M104 86h1M123 86h1M9 87h2M24 87h3M48 87h1M58 87h2M73 87h2M88 87h3M105 87h1M121 87h3M21 88h4M49 88h1M55 88h3M85 88h4M118 88h4M17 89h5M49 89h6M81 89h5M114 89h5M10 116h1M74 116h1M9 117h1M11 117h1M21 117h1M50 117h1M52 117h1M73 117h1M75 117h1M85 117h1M106 117h1M111 117h4M9 118h1M11 118h1M21 118h1M41 118h1M50 118h1M52 118h1M73 118h1M75 118h1M85 118h1M105 118h1M114 118h1M117 118h1M9 119h1M11 119h1M16 119h1M21 119h1M41 119h1M50 119h1M53 119h1M73 119h1M75 119h1M80 119h1M85 119h1M105 119h2M114 119h1M117 119h2M9 120h1M11 120h1M16 120h1M22 120h1M41 120h1M53 120h1M73 120h1M75 120h1M80 120h1M86 120h1M105 120h1M118 120h2M8 121h2M22 121h1M41 121h2M53 121h1M72 121h2M86 121h1M104 121h1M118 121h2M8 122h1M22 122h1M41 122h2M53 122h1M72 122h1M86 122h1M104 122h1M113 122h1M118 122h3M8 123h1M22 123h1M40 123h2M43 123h1M72 123h1M86 123h1M104 123h1M113 123h1M117 123h4M8 124h1M22 124h1M40 124h1M50 124h1M54 124h1M72 124h1M86 124h1M104 124h1M112 124h1M118 124h4M7 125h1M22 125h1M40 125h1M45 125h2M54 125h1M71 125h1M86 125h1M103 125h1M112 125h1M118 125h4M7 126h1M22 126h1M40 126h1M54 126h1M71 126h1M86 126h1M103 126h1M112 126h1M118 126h3M7 127h1M22 127h1M39 127h2M54 127h1M71 127h1M86 127h1M103 127h1M112 127h1M118 127h2M7 128h1M22 128h1M38 128h2M49 128h1M54 128h1M71 128h1M86 128h1M102 128h2M112 128h1M118 128h1M6 129h2M22 129h1M38 129h1M49 129h1M54 129h1M70 129h2M86 129h1M102 129h1M118 129h1M6 130h1M22 130h1M37 130h2M49 130h1M54 130h1M70 130h1M86 130h1M101 130h1M118 130h1M6 131h1M23 131h1M37 131h1M48 131h1M54 131h1M70 131h1M87 131h1M101 131h1M118 131h1M5 132h1M23 132h1M36 132h1M48 132h1M55 132h1M69 132h1M87 132h1M100 132h1M119 132h1M5 133h1M23 133h1M36 133h1M47 133h1M55 133h1M69 133h1M87 133h1M100 133h1M119 133h1M5 134h1M19 134h2M23 134h1M36 134h1M47 134h1M55 134h1M69 134h1M83 134h2M87 134h1M100 134h1M119 134h1M5 135h3M21 135h2M36 135h2M47 135h1M69 135h3M85 135h2M100 135h3M118 135h1M7 136h4M38 136h3M46 136h1M71 136h4M102 136h4M10 137h5M41 137h6M74 137h5M105 137h5M9 162h1M73 162h1M41 163h1M105 163h1M7 164h1M11 164h1M25 164h1M40 164h1M56 164h1M71 164h1M75 164h1M89 164h1M104 164h1M120 164h1M39 165h2M43 165h1M120 165h2M11 166h1M39 166h1M43 166h1M75 166h1M121 166h1M6 167h1M11 167h1M21 167h1M26 167h1M39 167h1M43 167h1M57 167h1M70 167h1M75 167h1M85 167h1M90 167h1M103 167h1M108 167h1M121 167h1M5 168h1M11 168h1M21 168h1M27 168h1M38 168h1M42 168h2M57 168h1M69 168h1M75 168h1M85 168h1M91 168h1M103 168h1M108 168h1M117 168h2M122 168h1M5 169h1M9 169h1M11 169h1M21 169h1M23 169h1M27 169h1M38 169h1M42 169h1M53 169h1M58 169h1M69 169h1M73 169h1M75 169h1M85 169h1M87 169h1M91 169h1M102 169h1M107 169h1M118 169h1M122 169h1M6 170h2M10 170h1M22 170h1M25 170h2M39 170h2M42 170h1M53 170h2M58 170h1M70 170h2M74 170h1M86 170h1M89 170h2M102 170h1M106 170h2M118 170h1M120 170h2M7 171h4M22 171h4M40 171h3M53 171h1M56 171h1M71 171h4M86 171h4M104 171h1M107 171h1M118 171h3M22 172h1M42 172h1M53 172h1M56 172h1M86 172h1M104 172h1M107 172h1M118 172h1M23 173h1M53 173h1M87 173h1M107 173h1M7 174h2M24 174h2M41 174h1M71 174h2M88 174h2M119 174h1M24 175h1M40 175h1M56 175h1M88 175h1M104 175h1M120 175h1M24 176h1M56 176h1M88 176h1M104 176h1M120 176h1M8 177h1M24 177h1M56 177h1M72 177h1M88 177h1M104 177h1M120 177h1M8 178h1M24 178h1M40 178h1M56 178h1M72 178h1M88 178h1M104 178h1M120 178h1M7 179h1M25 179h1M39 179h1M56 179h2M71 179h1M89 179h1M103 179h2M121 179h1M7 180h1M25 180h1M39 180h1M57 180h1M71 180h1M89 180h1M103 180h1M121 180h1M7 181h1M25 181h1M39 181h1M57 181h1M71 181h1M89 181h1M103 181h1M121 181h1M7 182h1M25 182h1M39 182h1M56 182h2M71 182h1M89 182h1M103 182h2M121 182h1M8 183h2M23 183h2M40 183h1M44 183h4M55 183h2M72 183h2M87 183h2M104 183h2M113 183h4M120 183h1M9 184h4M20 184h4M41 184h3M48 184h2M52 184h4M73 184h4M84 184h4M105 184h4M111 184h2M117 184h3M13 185h7M50 185h2M77 185h7M109 185h2" />
<path stroke="#6e1e1e" d="M8 19h1M24 19h1M72 19h1M88 19h1M53 20h1M55 20h1M107 20h1M7 21h2M21 21h1M24 21h2M56 21h1M71 21h2M85 21h1M88 21h2M104 21h1M118 21h2M6 22h2M10 22h1M22 22h1M25 22h2M40 22h2M56 22h1M70 22h2M74 22h1M86 22h1M89 22h2M104 22h1M119 22h2M8 23h1M10 23h1M22 23h1M24 23h1M41 23h1M53 23h1M72 23h1M74 23h1M86 23h1M88 23h1M119 23h1M6 24h2M25 24h2M40 24h1M57 24h1M70 24h2M89 24h2M103 24h1M120 24h1M6 25h1M8 25h1M24 25h1M26 25h1M39 25h3M55 25h3M70 25h1M72 25h1M88 25h1M90 25h1M103 25h3M119 25h3M9 26h1M23 26h1M41 26h1M54 26h1M73 26h1M87 26h1M106 26h1M119 26h1M53 27h1M56 27h1M104 27h1M107 27h1M53 28h1M107 28h1M15 68h4M79 68h4M15 69h3M19 69h1M47 69h4M79 69h3M83 69h1M113 69h3M15 70h2M46 70h2M51 70h1M79 70h2M113 70h2M47 71h1M51 71h1M113 71h1M51 72h1M113 72h1M117 72h1M20 73h1M51 73h1M84 73h1M113 73h1M117 73h1M17 74h4M45 74h1M47 74h1M51 74h1M81 74h4M113 74h1M116 74h2M15 75h2M20 75h1M45 75h1M48 75h4M79 75h2M84 75h1M114 75h2M17 76h3M46 76h2M50 76h1M81 76h3M48 77h1M114 77h2M16 116h1M80 116h1M12 117h1M48 117h1M76 117h1M109 117h2M15 118h1M44 118h1M49 118h1M79 118h1M44 119h1M44 120h1M106 120h1M110 120h1M11 121h1M15 121h2M44 121h1M49 121h1M75 121h1M79 121h2M106 121h1M110 121h1M11 122h4M16 122h1M44 122h1M48 122h3M75 122h4M80 122h1M106 122h2M110 122h1M11 123h1M15 123h2M44 123h4M50 123h1M75 123h1M79 123h2M108 123h3M12 124h3M45 124h1M48 124h2M76 124h3M110 124h1M47 125h1M108 125h2M8 163h1M24 163h1M72 163h1M88 163h1M41 164h2M105 164h1M7 165h1M11 165h1M25 165h1M41 165h2M52 165h1M56 165h1M71 165h1M75 165h1M89 165h1M104 165h1M108 165h1M6 166h2M10 166h1M22 166h1M25 166h2M40 166h3M56 166h1M70 166h2M74 166h1M86 166h1M89 166h2M104 166h1M108 166h1M119 166h2M10 167h1M22 167h1M40 167h3M46 167h6M74 167h1M86 167h1M107 167h1M109 167h6M118 167h3M6 168h2M9 168h2M22 168h2M25 168h2M41 168h1M49 168h2M53 168h1M70 168h2M73 168h2M86 168h2M89 168h2M107 168h1M109 168h3M119 168h1M6 169h1M8 169h1M10 169h1M22 169h1M24 169h1M26 169h1M39 169h1M49 169h1M52 169h1M54 169h4M70 169h1M72 169h1M74 169h1M86 169h1M88 169h1M90 169h1M103 169h4M108 169h4M121 169h1M9 170h1M23 170h1M41 170h1M52 170h1M73 170h1M87 170h1M108 170h3M119 170h1M51 171h2M54 171h1M57 171h1M103 171h1M106 171h1M108 171h2M51 172h2M54 172h2M105 172h2M108 172h2M51 173h1M51 174h1M51 175h1M51 176h1M109 176h1M51 177h1M109 177h1M50 178h2M55 178h1M105 178h1M109 178h2M50 179h2M53 179h3M105 179h3M109 179h2M50 180h3M108 180h3M51 183h1M109 183h1" />
<path stroke="#671b1b" d="M12 19h1M20 19h1M76 19h1M84 19h1M14 20h1M18 20h1M44 20h1M78 20h1M82 20h1M116 20h1M14 21h1M18 21h1M45 21h2M50 21h2M78 21h1M82 21h1M109 21h2M114 21h2M14 22h1M18 22h1M46 22h1M50 22h1M78 22h1M82 22h1M110 22h1M114 22h1M18 23h1M46 23h1M50 23h1M82 23h1M110 23h1M114 23h1M18 24h1M50 24h1M82 24h1M114 24h1M18 25h1M50 25h1M82 25h1M114 25h1M18 26h1M51 26h1M82 26h1M114 26h1M14 27h1M45 27h1M51 27h1M78 27h1M109 27h1M115 27h1M14 28h1M45 28h1M51 28h1M78 28h1M109 28h1M115 28h1M13 29h1M45 29h1M77 29h1M109 29h1M9 30h1M13 30h1M45 30h1M73 30h1M77 30h1M107 30h2M9 31h1M13 31h1M19 31h1M41 31h1M45 31h1M54 31h1M73 31h1M77 31h1M83 31h1M106 31h1M108 31h1M13 32h1M19 32h1M44 32h1M52 32h1M77 32h1M83 32h1M108 32h1M116 32h1M9 33h1M13 33h1M19 33h1M23 33h1M41 33h1M44 33h1M52 33h1M55 33h1M73 33h1M77 33h1M83 33h1M87 33h1M105 33h1M108 33h1M116 33h1M119 33h1M9 34h1M13 34h1M19 34h1M23 34h1M41 34h1M44 34h1M52 34h2M55 34h1M73 34h1M77 34h1M83 34h1M87 34h1M105 34h1M107 34h2M116 34h1M119 34h1M8 35h1M12 35h1M20 35h1M24 35h1M40 35h1M43 35h1M53 35h1M72 35h1M76 35h1M84 35h1M88 35h1M107 35h1M117 35h1M120 35h1M12 36h1M20 36h1M40 36h1M43 36h1M54 36h1M56 36h1M76 36h1M84 36h1M104 36h1M106 36h1M117 36h1M120 36h1M12 37h1M20 37h1M40 37h1M43 37h1M54 37h1M56 37h1M76 37h1M84 37h1M104 37h1M106 37h1M117 37h1M120 37h1M8 38h1M12 38h1M20 38h1M24 38h1M40 38h4M54 38h2M72 38h1M76 38h1M84 38h1M88 38h1M105 38h2M117 38h4M12 39h1M20 39h1M41 39h3M76 39h1M84 39h1M117 39h3M42 40h2M117 40h2M13 68h2M75 68h1M77 68h2M21 69h1M46 69h1M53 69h1M75 69h1M77 69h1M85 69h1M11 70h1M21 70h1M75 70h1M85 70h1M110 70h3M117 70h1M21 71h1M43 71h1M52 71h1M85 71h1M111 71h2M10 72h1M13 72h1M43 72h1M53 72h1M74 72h1M77 72h1M106 72h1M112 72h1M10 73h1M14 73h1M74 73h1M78 73h1M118 73h1M10 74h1M14 74h1M22 74h1M74 74h1M78 74h1M86 74h1M106 74h1M10 75h1M14 75h1M22 75h1M53 75h1M74 75h1M78 75h1M86 75h1M10 76h1M14 76h1M22 76h1M42 76h1M52 76h3M74 76h1M78 76h1M86 76h1M106 76h1M10 77h1M14 77h1M23 77h1M42 77h1M53 77h2M74 77h1M78 77h1M87 77h1M106 77h1M112 77h1M10 78h1M14 78h1M16 78h1M20 78h1M42 78h1M50 78h1M74 78h1M78 78h1M80 78h1M84 78h1M112 78h1M10 79h1M14 79h1M17 79h3M50 79h2M74 79h1M78 79h1M81 79h3M112 79h1M114 79h1M119 79h1M10 80h2M14 80h1M23 80h1M47 80h4M74 80h2M78 80h1M87 80h1M106 80h2M112 80h1M115 80h3M119 80h1M11 81h1M14 81h1M23 81h1M47 81h3M75 81h1M78 81h1M87 81h1M106 81h2M112 81h1M115 81h6M11 82h1M14 82h1M23 82h2M47 82h2M56 82h1M75 82h1M78 82h1M87 82h2M106 82h2M112 82h1M115 82h7M9 83h1M11 83h1M15 83h1M23 83h2M48 83h1M55 83h3M73 83h1M75 83h1M79 83h1M87 83h2M107 83h1M112 83h1M116 83h6M11 84h1M15 84h1M24 84h2M41 84h1M48 84h2M53 84h6M75 84h1M79 84h1M88 84h2M105 84h2M112 84h1M116 84h7M10 85h3M15 85h1M24 85h2M49 85h1M53 85h6M74 85h3M79 85h1M88 85h2M106 85h1M113 85h1M116 85h7M9 86h2M15 86h1M22 86h1M24 86h2M49 86h1M53 86h6M73 86h2M79 86h1M86 86h1M88 86h2M105 86h2M113 86h1M117 86h6M16 87h1M21 87h3M49 87h1M53 87h5M80 87h1M85 87h3M113 87h1M117 87h4M16 88h1M20 88h1M53 88h2M80 88h1M84 88h1M113 88h5M17 116h2M20 116h1M81 116h2M84 116h1M10 117h1M18 117h1M20 117h1M42 117h1M49 117h1M74 117h1M82 117h1M84 117h1M10 118h1M18 118h1M20 118h1M74 118h1M82 118h1M84 118h1M111 118h3M10 119h1M43 119h1M52 119h1M74 119h1M113 119h1M21 120h1M42 120h1M52 120h1M85 120h1M117 120h1M17 121h1M21 121h1M81 121h1M85 121h1M105 121h1M111 121h2M9 122h1M17 122h1M73 122h1M81 122h1M111 122h2M117 122h1M9 123h1M17 123h1M42 123h1M73 123h1M81 123h1M111 123h2M9 124h1M17 124h1M21 124h1M41 124h3M73 124h1M81 124h1M85 124h1M111 124h1M8 125h1M17 125h1M21 125h1M41 125h4M72 125h1M81 125h1M85 125h1M111 125h1M8 126h1M11 126h1M15 126h1M17 126h1M21 126h1M43 126h3M53 126h1M72 126h1M75 126h1M79 126h1M81 126h1M85 126h1M111 126h1M8 127h1M12 127h3M17 127h1M21 127h1M44 127h2M72 127h1M76 127h3M81 127h1M85 127h1M104 127h1M109 127h1M111 127h1M8 128h1M17 128h1M20 128h2M40 128h1M45 128h4M72 128h1M81 128h1M84 128h2M104 128h1M106 128h3M111 128h1M116 128h2M8 129h1M17 129h1M20 129h1M39 129h1M46 129h3M72 129h1M81 129h1M84 129h1M103 129h6M111 129h1M116 129h2M7 130h2M17 130h1M20 130h1M39 130h1M47 130h2M71 130h2M81 130h1M84 130h1M102 130h7M111 130h1M116 130h2M7 131h2M16 131h1M20 131h1M22 131h1M38 131h3M47 131h1M71 131h2M80 131h1M84 131h1M86 131h1M102 131h6M111 131h1M116 131h1M6 132h2M16 132h1M20 132h1M37 132h6M46 132h2M54 132h1M70 132h2M80 132h1M84 132h1M101 132h7M111 132h1M117 132h2M6 133h2M16 133h1M19 133h3M37 133h6M46 133h1M70 133h2M80 133h1M83 133h3M101 133h7M110 133h1M117 133h1M6 134h2M9 134h1M16 134h1M21 134h2M37 134h6M46 134h1M70 134h2M73 134h1M80 134h1M85 134h2M101 134h6M110 134h1M117 134h2M8 135h3M15 135h1M38 135h5M46 135h1M72 135h3M79 135h1M103 135h4M110 135h1M11 136h1M15 136h1M41 136h2M75 136h1M79 136h1M106 136h5M12 164h1M20 164h1M76 164h1M84 164h1M14 165h5M44 165h1M78 165h5M116 165h1M46 166h5M110 166h5M9 173h1M73 173h1M9 174h1M23 174h1M53 174h1M73 174h1M87 174h1M8 179h1M24 179h1M40 179h1M72 179h1M88 179h1M120 179h1M40 180h1M56 180h1M104 180h1M120 180h1M42 181h1M56 181h1M104 181h1M118 181h1M8 182h1M24 182h1M40 182h3M72 182h1M88 182h1M118 182h3M10 183h3M20 183h3M41 183h3M48 183h1M53 183h2M74 183h3M84 183h3M106 183h2M112 183h1M117 183h3M13 184h7M50 184h2M77 184h7M109 184h2" />
<path stroke="#a65a59" d="M22 19h1M86 19h1M12 20h1M20 20h1M22 20h2M43 20h1M76 20h1M84 20h1M86 20h2M117 20h1M20 21h1M54 21h1M84 21h1M117 21h1M20 22h1M52 22h1M54 22h1M84 22h1M7 23h1M25 23h1M52 23h1M54 23h1M71 23h1M89 23h1M106 23h1M52 24h1M54 24h1M106 24h1M116 24h1M7 25h1M12 25h1M20 25h1M25 25h1M44 25h1M71 25h1M76 25h1M84 25h1M89 25h1M116 25h1M11 26h2M20 26h2M43 26h2M56 26h1M75 26h2M84 26h2M104 26h1M116 26h2M11 27h2M20 27h2M43 27h1M55 27h1M75 27h2M84 27h2M105 27h1M117 27h1M10 28h3M20 28h3M43 28h1M74 28h3M84 28h3M117 28h1M10 29h1M22 29h1M42 29h2M53 29h1M74 29h1M86 29h1M107 29h1M117 29h2M10 30h1M42 30h2M74 30h1M118 30h1M10 31h1M42 31h2M74 31h1M11 32h1M21 32h1M42 32h1M75 32h1M85 32h1M106 32h1M11 33h1M21 33h1M42 33h1M75 33h1M85 33h1M118 33h1M10 34h2M21 34h2M42 34h1M74 34h2M85 34h2M118 34h1M9 35h2M22 35h2M41 35h1M73 35h2M86 35h2M119 35h1M9 36h2M22 36h2M41 36h1M73 36h2M86 36h2M119 36h1M9 37h2M22 37h2M41 37h1M73 37h2M86 37h2M119 37h1M9 38h2M22 38h2M73 38h2M86 38h2M51 69h1M17 70h2M81 70h2M17 71h1M19 71h1M48 71h2M81 71h1M83 71h1M115 71h1M17 72h1M19 72h1M48 72h1M50 72h1M81 72h1M83 72h1M114 72h1M116 72h1M18 73h1M49 73h2M82 73h1M114 73h2M48 74h2M52 80h1M114 80h1M16 81h1M21 81h1M51 81h3M80 81h1M85 81h1M114 81h1M16 82h1M18 82h4M52 82h3M80 82h1M82 82h4M52 83h2M17 85h2M51 85h1M81 85h2M17 86h2M51 86h1M81 86h2M18 87h1M51 87h1M82 87h1M18 88h1M82 88h1M13 118h2M77 118h2M12 119h1M14 119h1M46 119h2M76 119h1M78 119h1M108 119h1M12 120h1M14 120h1M45 120h1M47 120h1M76 120h1M78 120h1M107 120h1M109 120h1M13 121h1M45 121h2M77 121h1M108 121h2M46 122h2M43 128h1M109 128h1M10 129h1M15 129h1M42 129h3M74 129h1M79 129h1M109 129h1M10 130h4M15 130h1M41 130h3M74 130h4M79 130h1M42 131h2M13 133h2M44 133h1M77 133h2M13 134h2M44 134h1M77 134h2M13 135h1M44 135h1M77 135h1M13 136h1M77 136h1M9 164h2M73 164h2M8 165h1M24 165h1M72 165h1M88 165h1M106 165h1M8 166h1M24 166h1M55 166h1M72 166h1M88 166h1M105 166h1M7 167h2M24 167h2M54 167h1M71 167h2M88 167h2M106 167h1M55 168h1M105 168h1M11 171h1M75 171h1M11 172h2M75 172h2M10 173h1M43 173h2M74 173h1M116 173h2M14 174h1M78 174h1M114 174h4M13 175h3M46 175h3M77 175h3M112 175h6M11 176h1M14 176h2M19 176h1M45 176h1M48 176h2M75 176h1M78 176h2M83 176h1M111 176h2M115 176h1M117 176h2M10 177h3M15 177h2M19 177h2M43 177h1M45 177h1M49 177h1M74 177h3M79 177h2M83 177h2M111 177h1M115 177h1M117 177h2M10 178h4M16 178h4M21 178h1M42 178h2M45 178h1M47 178h3M74 178h4M80 178h4M85 178h1M111 178h3M115 178h1M117 178h2M9 179h2M12 179h3M16 179h5M43 179h1M45 179h5M73 179h2M76 179h3M80 179h5M111 179h5M117 179h1M9 180h1M13 180h7M21 180h1M45 180h2M73 180h1M77 180h7M85 180h1M114 180h2M13 181h4M18 181h1M20 181h1M77 181h4M82 181h1M84 181h1M15 182h2M18 182h2M79 182h2M82 182h2" />
<path stroke="#973737" d="M23 19h1M87 19h1M8 20h1M13 20h1M19 20h1M24 20h1M54 20h1M72 20h1M77 20h1M83 20h1M88 20h1M13 21h1M19 21h1M22 21h1M44 21h1M52 21h2M55 21h1M77 21h1M83 21h1M86 21h1M108 21h1M116 21h1M9 22h1M19 22h1M23 22h1M45 22h1M51 22h1M53 22h1M55 22h1M73 22h1M83 22h1M87 22h1M105 22h1M109 22h1M115 22h3M9 23h1M19 23h1M23 23h1M51 23h1M56 23h1M73 23h1M83 23h1M87 23h1M104 23h1M115 23h3M8 24h2M19 24h1M23 24h2M43 24h1M51 24h1M56 24h1M72 24h2M83 24h1M87 24h2M104 24h1M115 24h1M117 24h1M11 25h1M19 25h1M21 25h1M43 25h1M51 25h2M54 25h1M75 25h1M83 25h1M85 25h1M106 25h1M108 25h1M115 25h1M117 25h1M8 26h1M13 26h1M19 26h1M24 26h1M52 26h1M55 26h1M57 26h1M72 26h1M77 26h1M83 26h1M88 26h1M103 26h1M105 26h1M108 26h1M115 26h1M13 27h1M19 27h1M44 27h1M52 27h1M54 27h1M77 27h1M83 27h1M106 27h1M108 27h1M116 27h1M13 28h1M42 28h1M44 28h1M52 28h1M77 28h1M108 28h1M116 28h1M118 28h1M12 29h1M44 29h1M52 29h1M76 29h1M108 29h1M116 29h1M12 30h1M44 30h1M76 30h1M12 31h1M20 31h1M44 31h1M76 31h1M84 31h1M107 31h1M9 32h1M12 32h1M20 32h1M23 32h1M41 32h1M43 32h1M55 32h1M73 32h1M76 32h1M84 32h1M87 32h1M105 32h1M107 32h1M12 33h1M20 33h1M43 33h1M53 33h2M76 33h1M84 33h1M106 33h2M117 33h1M12 34h1M20 34h1M43 34h1M54 34h1M76 34h1M84 34h1M106 34h1M117 34h1M11 35h1M21 35h1M42 35h1M54 35h2M75 35h1M85 35h1M105 35h2M118 35h1M8 36h1M11 36h1M21 36h1M24 36h1M42 36h1M55 36h1M72 36h1M75 36h1M85 36h1M88 36h1M105 36h1M118 36h1M8 37h1M11 37h1M21 37h1M24 37h1M42 37h1M55 37h1M72 37h1M75 37h1M85 37h1M88 37h1M105 37h1M118 37h1M11 38h1M21 38h1M75 38h1M85 38h1M10 39h2M21 39h2M74 39h2M85 39h2M14 69h1M18 69h1M78 69h1M82 69h1M19 70h1M48 70h3M52 70h2M83 70h1M115 70h1M16 71h1M50 71h1M53 71h1M80 71h1M114 71h1M116 71h1M21 72h1M52 72h1M85 72h1M17 73h1M19 73h1M21 73h1M52 73h1M81 73h1M83 73h1M85 73h1M106 73h1M16 74h1M21 74h1M50 74h1M52 74h1M80 74h1M85 74h1M114 74h2M118 74h1M17 75h3M21 75h1M46 75h2M81 75h3M85 75h1M116 75h3M15 76h1M48 76h2M79 76h1M85 76h1M114 76h4M15 77h1M79 77h1M85 77h1M11 78h1M15 78h1M54 78h1M75 78h1M79 78h1M85 78h1M106 78h2M113 78h1M11 79h1M15 79h2M20 79h2M49 79h1M75 79h1M79 79h2M84 79h2M106 79h2M113 79h1M15 80h8M51 80h1M79 80h8M113 80h1M118 80h1M10 81h1M15 81h1M17 81h4M22 81h1M50 81h1M54 81h1M74 81h1M79 81h1M81 81h4M86 81h1M113 81h1M10 82h1M15 82h1M22 82h1M49 82h2M55 82h1M74 82h1M79 82h1M86 82h1M113 82h2M10 83h1M16 83h1M18 83h5M49 83h2M54 83h1M74 83h1M80 83h1M82 83h5M106 83h1M113 83h3M9 84h2M16 84h1M18 84h6M50 84h1M52 84h1M73 84h2M80 84h1M82 84h6M113 84h3M9 85h1M16 85h1M19 85h5M50 85h1M52 85h1M73 85h1M80 85h1M83 85h5M105 85h1M114 85h2M16 86h1M19 86h3M23 86h1M50 86h1M52 86h1M80 86h1M83 86h3M87 86h1M114 86h3M17 87h1M19 87h2M50 87h1M52 87h1M81 87h1M83 87h2M114 87h3M17 88h1M19 88h1M50 88h3M81 88h1M83 88h1M13 117h1M17 117h1M77 117h1M12 118h1M42 118h2M45 118h1M76 118h1M15 119h1M42 119h1M45 119h1M79 119h1M107 119h1M10 120h1M15 120h1M17 120h1M43 120h1M48 120h1M74 120h1M79 120h1M81 120h1M10 121h1M12 121h1M14 121h1M43 121h1M48 121h1M74 121h1M76 121h1M78 121h1M117 121h1M10 122h1M15 122h1M43 122h1M45 122h1M74 122h1M79 122h1M105 122h1M108 122h2M10 123h1M12 123h3M48 123h2M74 123h1M76 123h3M105 123h3M10 124h1M16 124h1M44 124h1M46 124h2M74 124h1M80 124h1M106 124h4M9 125h2M16 125h1M73 125h2M80 125h1M110 125h1M9 126h2M16 126h1M20 126h1M41 126h2M73 126h2M80 126h1M84 126h1M110 126h1M116 126h2M9 127h3M15 127h2M20 127h1M41 127h3M46 127h1M73 127h3M79 127h2M84 127h1M110 127h1M116 127h2M9 128h8M41 128h2M44 128h1M73 128h8M105 128h1M110 128h1M9 129h1M11 129h4M16 129h1M21 129h1M40 129h2M45 129h1M73 129h1M75 129h4M80 129h1M85 129h1M110 129h1M9 130h1M16 130h1M21 130h1M40 130h1M45 130h2M73 130h1M80 130h1M85 130h1M109 130h2M9 131h5M15 131h1M21 131h1M41 131h1M45 131h2M73 131h5M79 131h1M85 131h1M108 131h3M117 131h1M8 132h6M15 132h1M21 132h2M43 132h1M45 132h1M72 132h6M79 132h1M85 132h2M108 132h3M8 133h5M15 133h1M22 133h1M43 133h1M45 133h1M72 133h5M79 133h1M86 133h1M108 133h2M118 133h1M8 134h1M10 134h3M15 134h1M43 134h1M45 134h1M72 134h1M74 134h3M79 134h1M107 134h3M11 135h2M14 135h1M43 135h1M45 135h1M75 135h2M78 135h1M107 135h3M12 136h1M14 136h1M43 136h3M76 136h1M78 136h1M9 163h2M73 163h2M8 164h1M24 164h1M72 164h1M88 164h1M106 164h1M10 165h1M12 165h2M19 165h1M74 165h1M76 165h2M83 165h2M105 165h1M107 165h1M12 166h8M44 166h2M51 166h1M76 166h8M107 166h1M109 166h1M115 166h2M9 167h1M12 167h7M23 167h1M44 167h2M56 167h1M73 167h1M76 167h7M87 167h1M104 167h1M115 167h1M8 168h1M12 168h6M20 168h1M24 168h1M39 168h2M44 168h5M54 168h1M56 168h1M72 168h1M76 168h6M84 168h1M88 168h1M104 168h1M106 168h1M112 168h3M120 168h2M7 169h1M12 169h5M20 169h1M25 169h1M40 169h2M43 169h6M71 169h1M76 169h5M84 169h1M89 169h1M112 169h2M116 169h2M119 169h2M8 170h1M11 170h5M19 170h3M24 170h1M43 170h6M55 170h3M72 170h1M75 170h5M83 170h3M88 170h1M103 170h3M111 170h2M116 170h2M12 171h2M18 171h4M43 171h5M55 171h1M76 171h2M82 171h4M105 171h1M110 171h2M115 171h3M10 172h1M17 172h5M43 172h3M50 172h1M74 172h1M81 172h5M114 172h4M15 173h8M42 173h1M49 173h2M52 173h1M79 173h8M108 173h1M113 173h3M118 173h1M15 174h8M42 174h1M47 174h4M52 174h1M54 174h1M79 174h8M106 174h1M111 174h3M118 174h1M16 175h8M41 175h1M49 175h2M52 175h4M80 175h8M105 175h1M110 175h2M118 175h2M16 176h3M20 176h4M44 176h1M50 176h1M52 176h4M80 176h3M84 176h4M105 176h1M108 176h1M110 176h1M116 176h1M119 176h1M9 177h1M17 177h2M21 177h3M44 177h1M50 177h1M52 177h4M73 177h1M81 177h2M85 177h3M105 177h1M107 177h2M110 177h1M116 177h1M119 177h1M9 178h1M20 178h1M22 178h2M41 178h1M44 178h1M52 178h3M73 178h1M84 178h1M86 178h2M106 178h3M116 178h1M119 178h1M11 179h1M21 179h3M41 179h2M44 179h1M52 179h1M75 179h1M85 179h3M108 179h1M116 179h1M118 179h2M8 180h1M10 180h3M20 180h1M22 180h3M41 180h4M47 180h3M53 180h3M72 180h1M74 180h3M84 180h1M86 180h3M105 180h3M111 180h3M116 180h4M8 181h5M17 181h1M19 181h1M21 181h4M40 181h2M43 181h13M72 181h5M81 181h1M83 181h1M85 181h4M105 181h13M119 181h2M9 182h6M17 182h1M20 182h4M43 182h13M73 182h6M81 182h1M84 182h4M105 182h13M13 183h7M49 183h2M52 183h1M77 183h7M108 183h1M110 183h2" />
<path stroke="#ba7e7e" d="M9 21h1M23 21h1M73 21h1M87 21h1M8 22h1M24 22h1M72 22h1M88 22h1M20 23h1M55 23h1M84 23h1M105 23h1M12 24h1M20 24h1M55 24h1M76 24h1M84 24h1M105 24h1M11 29h1M21 29h1M75 29h1M85 29h1M11 30h1M75 30h1M11 31h1M75 31h1M10 32h1M22 32h1M74 32h1M86 32h1M10 33h1M22 33h1M74 33h1M86 33h1M18 71h1M82 71h1M18 72h1M49 72h1M82 72h1M115 72h1M48 73h1M116 73h1M17 82h1M51 82h1M81 82h1M17 83h1M51 83h1M81 83h1M17 84h1M51 84h1M81 84h1M13 119h1M77 119h1M13 120h1M46 120h1M77 120h1M108 120h1M47 121h1M107 121h1M14 130h1M44 130h1M78 130h1M14 131h1M44 131h1M78 131h1M14 132h1M44 132h1M78 132h1M9 165h1M23 165h1M73 165h1M87 165h1M9 166h1M23 166h1M73 166h1M87 166h1M106 166h1M55 167h1M105 167h1M12 175h1M76 175h1M12 176h2M46 176h2M76 176h2M113 176h2M13 177h2M46 177h3M77 177h2M112 177h3M14 178h2M46 178h1M78 178h2M114 178h1M15 179h1M79 179h1" />
<path stroke="#62646c" d="M15 21h3M79 21h3M48 23h2M111 23h2M15 28h1M46 28h1M79 28h1M110 28h1M11 71h2M75 71h2M107 71h1M11 72h1M75 72h1M107 72h1M11 73h1M43 73h2M75 73h1M43 74h1M43 75h1M11 76h1M43 76h1M75 76h1M11 77h1M43 77h2M75 77h1M108 77h3M12 78h2M76 78h2M19 119h2M83 119h2M116 119h1M20 120h1M84 120h1M116 120h1M52 121h1M20 124h1M52 124h1M84 124h1M20 125h1M51 125h2M84 125h1M113 125h3M18 126h2M82 126h2" />
<path stroke="#838795" d="M15 22h3M79 22h3M15 23h3M47 23h1M79 23h3M113 23h1M15 24h3M47 24h3M79 24h3M111 24h3M47 25h3M111 25h3M49 27h1M113 27h1M12 72h1M44 72h1M76 72h1M108 72h1M12 73h1M76 73h1M107 73h1M44 74h1M107 74h1M44 75h1M13 76h1M44 76h1M77 76h1M108 76h3M12 77h2M76 77h2M19 118h1M83 118h1M51 119h1M115 119h1M51 120h1M114 120h2M116 121h1M116 122h1M51 123h1M18 124h1M51 124h1M82 124h1M113 124h3M18 125h2M82 125h2" />
<path stroke="#43454d" d="M47 22h3M111 22h3M14 29h4M46 29h2M78 29h4M110 29h2M76 68h1M76 69h1M107 77h1M44 78h1M108 78h3M19 116h1M83 116h1M19 117h1M51 117h1M83 117h1M115 117h2M51 118h1M115 118h2M116 125h1M51 126h1M113 126h3" />
<path stroke="#a5a8b5" d="M16 25h2M80 25h2M17 26h1M48 26h3M81 26h1M112 26h2M50 27h1M114 27h1M13 73h1M77 73h1M108 73h2M11 74h3M75 74h3M108 74h2M11 75h3M75 75h3M107 75h3M12 76h1M76 76h1M107 76h1M18 121h1M82 121h1M115 121h1M18 122h2M82 122h2M18 123h3M82 123h3M114 123h1M19 124h1M83 124h1" />
<path stroke="#402f1c" d="M6 27h1M26 27h1M40 27h1M70 27h1M90 27h1M120 27h1M6 28h1M9 28h1M23 28h1M26 28h1M40 28h2M70 28h1M73 28h1M87 28h1M90 28h1M119 28h2M7 29h2M24 29h2M54 29h1M57 29h1M71 29h2M88 29h2M103 29h1M106 29h1M55 30h2M104 30h2M16 76h1M20 76h1M80 76h1M84 76h1M16 77h1M20 77h1M45 77h1M80 77h1M84 77h1M119 77h1M17 78h3M45 78h1M49 78h1M81 78h3M114 78h1M119 78h1M45 79h4M115 79h4M11 124h1M15 124h1M75 124h1M79 124h1M11 125h1M15 125h1M50 125h1M75 125h1M79 125h1M104 125h1M12 126h3M46 126h1M50 126h1M76 126h3M104 126h1M109 126h1M47 127h4M105 127h4M6 171h1M26 171h1M70 171h1M90 171h1M6 172h1M9 172h1M23 172h1M26 172h1M40 172h2M57 172h1M70 172h1M73 172h1M87 172h1M90 172h1M103 172h1M119 172h2M7 173h2M24 173h2M54 173h1M57 173h1M71 173h2M88 173h2M103 173h1M106 173h1M55 174h2M104 174h2" />
<path stroke="#271d13" d="M39 27h1M121 27h1M39 28h1M121 28h1M40 29h2M119 29h2M39 171h1M121 171h1M39 172h1M121 172h1M40 173h2M119 173h2" />
<path stroke="#5d4329" d="M7 28h2M24 28h2M71 28h2M88 28h2M55 29h2M104 29h2M118 76h1M19 77h1M46 77h2M83 77h1M116 77h3M48 78h1M115 78h1M118 78h1M105 124h1M12 125h1M48 125h2M76 125h1M105 125h3M47 126h1M105 126h1M108 126h1M7 172h2M24 172h2M71 172h2M88 172h2M55 173h2M104 173h2" />
<path stroke="#333333" d="M14 30h1M18 30h1M78 30h1M82 30h1M47 32h1M113 32h1M14 33h1M18 33h1M47 33h1M78 33h1M82 33h1M113 33h1M14 34h1M18 34h1M47 34h1M78 34h1M82 34h1M113 34h1M13 35h2M18 35h2M45 35h3M51 35h2M77 35h2M82 35h2M108 35h2M113 35h3M44 36h2M115 36h2M14 37h1M18 37h1M44 37h2M47 37h1M78 37h1M82 37h1M113 37h1M115 37h2M14 39h1M18 39h1M45 39h3M78 39h1M82 39h1M113 39h3M110 79h1M109 80h1M109 81h3M110 82h2M109 83h3M108 84h4M110 85h2M108 86h4M15 87h1M79 87h1M107 87h6M106 88h5M113 127h1M114 128h1M112 129h3M112 130h2M112 131h3M112 132h4M112 133h2M112 134h4M16 135h1M80 135h1M111 135h6M112 136h1M114 136h3" />
<path stroke="#1f1f1f" d="M15 30h1M17 30h1M46 30h3M79 30h1M81 30h1M109 30h2M112 30h2M15 31h1M17 31h1M46 31h3M50 31h1M79 31h1M81 31h1M109 31h2M112 31h3M15 32h1M17 32h1M48 32h1M50 32h2M79 32h1M81 32h1M109 32h2M112 32h1M15 33h1M17 33h1M48 33h1M50 33h2M79 33h1M81 33h1M109 33h2M112 33h1M15 34h1M17 34h1M48 34h1M50 34h2M79 34h1M81 34h1M109 34h2M112 34h1M15 35h1M17 35h1M44 35h1M48 35h1M50 35h1M79 35h1M81 35h1M110 35h1M112 35h1M116 35h1M14 36h2M17 36h2M47 36h2M50 36h3M78 36h2M81 36h2M108 36h3M112 36h2M15 37h1M17 37h1M48 37h1M50 37h2M79 37h1M81 37h1M109 37h2M112 37h1M14 38h2M17 38h2M44 38h1M47 38h2M78 38h2M81 38h2M112 38h2M116 38h1M108 79h1M108 80h1M14 85h1M78 85h1M107 85h1M112 85h1M14 86h1M78 86h1M107 86h1M112 86h1M14 87h1M78 87h1M106 87h1M103 91h1M115 127h1M115 128h1M17 133h1M81 133h1M111 133h1M116 133h1M17 134h1M81 134h1M111 134h1M116 134h1M17 135h1M81 135h1M117 135h1M118 136h1M112 137h1" />
<path stroke="#181818" d="M16 30h1M49 30h1M80 30h1M111 30h1M16 31h1M49 31h1M80 31h1M111 31h1M16 32h1M49 32h1M80 32h1M111 32h1M16 33h1M49 33h1M80 33h1M111 33h1M49 34h1M111 34h1M109 79h1M108 81h1M14 83h1M78 83h1M108 83h1M14 84h1M78 84h1M107 84h1M114 127h1M115 129h1M17 131h1M81 131h1M115 131h1M17 132h1M81 132h1M116 132h1" />
<path stroke="#434343" d="M14 31h1M18 31h1M78 31h1M82 31h1M14 32h1M18 32h1M45 32h2M78 32h1M82 32h1M114 32h2M45 33h2M114 33h2M45 34h2M114 34h2M13 36h1M19 36h1M46 36h1M77 36h1M83 36h1M114 36h1M13 37h1M19 37h1M46 37h1M77 37h1M83 37h1M114 37h1M13 38h1M19 38h1M45 38h2M77 38h1M83 38h1M114 38h2M13 39h1M19 39h1M77 39h1M83 39h1M110 80h1M108 82h2M108 85h2M113 128h1M114 130h2M114 133h2" />
<path stroke="#000000" d="M16 34h1M80 34h1M16 35h1M49 35h1M80 35h1M111 35h1M16 36h1M49 36h1M80 36h1M111 36h1M16 37h1M49 37h1M80 37h1M111 37h1M16 38h1M80 38h1M49 44h1M111 44h1M48 45h1M112 45h1M43 78h1M12 79h2M42 79h3M76 79h2M12 80h2M42 80h4M76 80h2M12 81h2M42 81h4M76 81h2M12 82h2M42 82h4M76 82h2M12 83h2M42 83h5M76 83h2M12 84h2M42 84h5M76 84h2M13 85h1M41 85h6M77 85h1M43 86h4M46 87h1M46 88h1M39 90h1M85 90h1M85 91h1M84 92h1M103 92h1M111 92h1M56 93h1M83 93h1M104 93h1M110 93h1M52 126h1M18 127h2M51 127h3M82 127h2M18 128h2M50 128h4M82 128h2M18 129h2M50 129h4M82 129h2M18 130h2M50 130h4M82 130h2M18 131h2M49 131h5M82 131h2M18 132h2M49 132h5M82 132h2M18 133h1M49 133h6M82 133h1M49 134h4M49 136h1M111 136h1M111 137h1M10 138h1M37 138h1M56 138h1M74 138h1M112 138h1M10 139h1M37 139h1M74 139h1M112 139h1M11 140h1M38 140h1M75 140h1M112 140h2M12 141h1M39 141h2M76 141h1M113 141h2" />
<path stroke="#202020" d="M52 37h1M108 37h1M50 38h3M108 38h3M51 39h1M109 39h1M50 40h3M108 40h3M11 41h2M14 41h2M17 41h2M20 41h2M44 41h2M47 41h2M50 41h1M53 41h1M75 41h2M78 41h2M81 41h2M84 41h2M107 41h1M110 41h1M112 41h2M115 41h2M10 42h1M15 42h1M17 42h1M22 42h1M43 42h1M48 42h1M50 42h3M74 42h1M79 42h1M81 42h1M86 42h1M108 42h3M112 42h1M117 42h1M15 89h1M56 89h2M79 89h1M106 89h1M111 89h1M13 90h3M19 90h2M49 90h3M55 90h3M77 90h3M82 90h2M104 90h3M109 90h2M13 91h1M49 91h1M56 91h2M77 91h1M104 91h1M16 137h1M39 137h2M80 137h1M113 137h1M118 137h1M12 138h2M16 138h3M39 138h3M44 138h3M76 138h2M80 138h3M114 138h2M118 138h3M18 139h1M39 139h2M46 139h1M82 139h1M120 139h1M11 185h1M21 185h1M43 185h1M47 185h2M75 185h1M85 185h1M112 185h2M117 185h1M10 186h2M14 186h2M17 186h2M21 186h2M43 186h1M45 186h1M74 186h2M78 186h2M81 186h2M85 186h2M115 186h1M117 186h1M10 187h1M15 187h1M17 187h1M22 187h1M43 187h2M74 187h1M79 187h1M81 187h1M86 187h1M116 187h2M11 188h1M14 188h1M18 188h1M21 188h1M75 188h1M78 188h1M82 188h1M85 188h1" />
<path stroke="#0d0d0d" d="M49 38h1M111 38h1M16 39h1M49 39h2M52 39h1M80 39h1M108 39h1M110 39h2M15 40h1M17 40h1M48 40h1M79 40h1M81 40h1M112 40h1M53 42h1M107 42h1M50 43h3M108 43h3M49 185h1M52 185h2M107 185h2M111 185h1M49 186h5M107 186h5M46 187h7M108 187h7M44 188h6M111 188h6M45 189h4M112 189h4" />
<path stroke="#2d2d2d" d="M15 39h1M17 39h1M48 39h1M79 39h1M81 39h1M112 39h1M14 40h1M18 40h1M44 40h1M47 40h1M53 40h1M78 40h1M82 40h1M107 40h1M113 40h1M116 40h1M13 41h1M19 41h1M46 41h1M51 41h2M77 41h1M83 41h1M108 41h2M114 41h1M11 42h4M18 42h4M44 42h4M75 42h4M82 42h4M113 42h4M10 43h1M14 43h1M18 43h1M22 43h1M43 43h1M47 43h1M74 43h1M78 43h1M82 43h1M86 43h1M113 43h1M117 43h1M42 86h1M13 87h1M42 87h2M77 87h1M12 88h1M14 88h1M40 88h4M76 88h1M78 88h1M111 88h1M11 89h2M41 89h2M55 89h1M75 89h2M110 89h1M16 90h3M52 90h3M80 90h2M107 90h2M14 91h1M19 91h2M50 91h1M55 91h1M78 91h1M82 91h2M105 91h1M109 91h2M17 92h3M53 92h3M81 92h2M108 92h2M53 134h1M18 135h1M52 135h2M82 135h1M17 136h1M19 136h1M52 136h4M81 136h1M83 136h1M113 136h1M117 136h1M19 137h2M53 137h2M83 137h2M114 137h1M14 138h2M42 138h2M78 138h2M116 138h2M12 139h2M17 139h1M41 139h1M45 139h1M76 139h2M81 139h1M114 139h2M119 139h1M13 140h2M41 140h2M77 140h2M115 140h2M44 184h4M113 184h4M12 185h1M20 185h1M44 185h3M76 185h1M84 185h1M114 185h3M12 186h2M19 186h2M44 186h1M76 186h2M83 186h2M116 186h1M11 187h4M18 187h4M75 187h4M82 187h4M12 188h2M19 188h2M76 188h2M83 188h2" />
<path stroke="#3b3b3b" d="M44 39h1M116 39h1M12 40h2M19 40h2M45 40h2M76 40h2M83 40h2M114 40h2M11 43h3M15 43h1M17 43h1M19 43h3M44 43h3M48 43h1M75 43h3M79 43h1M81 43h1M83 43h3M112 43h1M114 43h3M11 44h1M14 44h1M18 44h1M21 44h1M44 44h1M47 44h1M75 44h1M78 44h1M82 44h1M85 44h1M113 44h1M116 44h1M15 88h1M79 88h1M16 89h1M80 89h1M107 89h3M15 91h4M51 91h4M79 91h3M106 91h3M14 92h1M50 92h1M78 92h1M105 92h1M16 136h1M80 136h1M15 137h1M79 137h1M115 137h3M14 139h3M42 139h3M78 139h3M116 139h3M17 140h1M45 140h1M81 140h1M119 140h1" />
<path stroke="#171717" d="M16 40h1M49 40h1M80 40h1M111 40h1M10 41h1M16 41h1M22 41h1M43 41h1M49 41h1M74 41h1M80 41h1M86 41h1M111 41h1M117 41h1M16 42h1M49 42h1M80 42h1M111 42h1M16 43h1M49 43h1M80 43h1M111 43h1M10 44h1M15 44h1M17 44h1M22 44h1M43 44h1M48 44h1M74 44h1M79 44h1M81 44h1M86 44h1M112 44h1M117 44h1M11 45h4M18 45h4M44 45h4M75 45h4M82 45h4M113 45h4M41 86h1M12 87h1M40 87h2M44 87h2M76 87h1M11 88h1M13 88h1M39 88h1M44 88h2M75 88h1M77 88h1M105 88h1M112 88h1M13 89h2M39 89h2M43 89h3M58 89h1M77 89h2M105 89h1M112 89h1M119 89h2M11 90h2M21 90h1M40 90h5M58 90h1M75 90h2M84 90h1M111 90h1M115 90h5M12 91h1M21 91h1M58 91h1M76 91h1M84 91h1M111 91h1M13 92h1M20 92h1M49 92h1M56 92h2M77 92h1M83 92h1M104 92h1M110 92h1M14 93h6M50 93h6M78 93h5M105 93h5M54 134h1M19 135h1M49 135h3M54 135h2M83 135h1M18 136h1M20 136h1M50 136h2M56 136h1M82 136h1M84 136h1M17 137h2M38 137h1M50 137h3M55 137h2M81 137h2M103 137h2M119 137h1M11 138h1M19 138h2M38 138h1M51 138h5M75 138h1M83 138h2M104 138h5M113 138h1M11 139h1M19 139h1M38 139h1M75 139h1M83 139h1M113 139h1M12 140h1M18 140h1M39 140h2M46 140h1M76 140h1M82 140h1M114 140h1M120 140h1M13 141h5M41 141h5M77 141h5M115 141h5M10 185h1M22 185h1M74 185h1M86 185h1M16 186h1M46 186h3M80 186h1M112 186h3M16 187h1M45 187h1M80 187h1M115 187h1M10 188h1M15 188h1M17 188h1M22 188h1M43 188h1M74 188h1M79 188h1M81 188h1M86 188h1M117 188h1M11 189h4M18 189h4M44 189h1M75 189h4M82 189h4M116 189h1" />
<path stroke="#565656" d="M12 44h2M19 44h2M45 44h2M76 44h2M83 44h2M114 44h2M15 92h2M51 92h2M79 92h2M106 92h2M15 140h2M43 140h2M79 140h2M117 140h2" />
<path stroke="#563c14" d="M24 58h1M88 58h1M24 59h1M56 59h1M88 59h1M120 59h1M21 60h1M24 60h1M56 60h1M85 60h1M88 60h1M120 60h1M21 61h1M53 61h1M56 61h1M85 61h1M117 61h1M120 61h1M21 62h1M23 62h1M53 62h1M85 62h1M87 62h1M117 62h1M21 63h2M53 63h1M55 63h1M85 63h2M117 63h1M119 63h1M21 64h2M53 64h2M85 64h2M117 64h2M21 65h1M53 65h2M85 65h1M117 65h2M20 66h1M53 66h1M84 66h1M117 66h1M52 67h1M116 67h1M7 106h1M71 106h1M7 107h1M39 107h1M71 107h1M103 107h1M7 108h1M10 108h1M39 108h1M71 108h1M74 108h1M103 108h1M10 109h1M39 109h1M42 109h1M74 109h1M103 109h1M106 109h1M8 110h1M10 110h1M42 110h1M72 110h1M74 110h1M106 110h1M9 111h2M40 111h1M42 111h1M73 111h2M104 111h1M106 111h1M9 112h2M41 112h2M73 112h2M105 112h2M10 113h1M41 113h2M74 113h1M105 113h2M11 114h1M42 114h1M75 114h1M106 114h1M43 115h1M107 115h1M11 161h1M21 161h1M75 161h1M85 161h1M43 162h1M53 162h1M107 162h1M117 162h1" />
<path stroke="#693a32" d="M20 60h1M84 60h1M20 61h1M52 61h1M84 61h1M116 61h1M52 62h1M116 62h1M86 163h1M85 164h1M118 164h1M85 165h1M117 165h1M84 166h1M117 166h1M83 167h1M116 167h1M82 168h1M115 168h1M81 169h1M114 169h1M80 170h1M113 170h1M78 171h2M112 171h1M13 172h1M15 172h1M46 172h2M77 172h1M79 172h1M110 172h2M11 173h1M45 173h1M47 173h1M75 173h1M109 173h1M111 173h1M10 174h2M43 174h1M74 174h2M107 174h1M8 175h2M42 175h2M72 175h2M106 175h2M41 176h1" />
<path stroke="#88633e" d="M17 77h2M81 77h2M46 78h2M116 78h2M13 125h2M77 125h2M48 126h2M106 126h2" />
<path stroke="#2a2a2a" d="M13 86h1M77 86h1M18 134h1M82 134h1" />
<path stroke="#2e210c" d="M24 156h1M88 156h1M8 157h1M24 157h1M56 157h1M72 157h1M88 157h1M120 157h1M40 158h1M56 158h1M104 158h1M120 158h1M9 159h1M23 159h1M73 159h1M87 159h1M9 160h1M23 160h1M41 160h1M55 160h1M73 160h1M87 160h1M105 160h1M119 160h1M10 161h1M22 161h1M41 161h1M55 161h1M74 161h1M86 161h1M105 161h1M119 161h1M10 162h1M22 162h1M42 162h1M54 162h1M74 162h1M86 162h1M106 162h1M118 162h1M11 163h1M21 163h1M42 163h1M54 163h1M75 163h1M85 163h1M106 163h1M118 163h1M13 164h2M18 164h2M43 164h1M53 164h1M77 164h2M82 164h2M107 164h1M117 164h1M45 165h2M50 165h2M109 165h2M114 165h2" />
</svg>