<svg xmlns="http://www.w3.org/2000/svg" viewBox="0 -0.5 128 192" shape-rendering="crispEdges">
<metadata>Made with Pixels to Svg https://codepen.io/shshaw/pen/XbxvNj</metadata>
<path stroke="#352017" d="M11 3h11M75 3h11M9 4h3M15 4h1M17 4h1M21 4h3M43 4h11M73 4h3M79 4h1M81 4h1M85 4h3M107 4h11M9 5h1M11 5h1M21 5h1M23 5h1M41 5h3M47 5h1M49 5h1M53 5h3M73 5h1M75 5h1M85 5h1M87 5h1M105 5h3M111 5h1M113 5h1M117 5h3M8 6h1M12 6h1M20 6h1M24 6h1M41 6h1M43 6h1M53 6h1M55 6h1M72 6h1M76 6h1M84 6h1M88 6h1M105 6h1M107 6h1M117 6h1M119 6h1M8 7h2M12 7h1M20 7h1M23 7h2M40 7h1M44 7h1M52 7h1M56 7h1M72 7h2M76 7h1M84 7h1M87 7h2M104 7h1M108 7h1M116 7h1M120 7h1M8 8h3M22 8h3M40 8h2M44 8h1M52 8h1M55 8h2M72 8h3M86 8h3M104 8h2M108 8h1M116 8h1M119 8h2M8 9h1M10 9h1M15 9h3M22 9h1M24 9h1M40 9h3M54 9h3M72 9h1M74 9h1M79 9h3M86 9h1M88 9h1M104 9h3M118 9h3M8 10h2M23 10h2M40 10h1M42 10h1M47 10h3M54 10h1M56 10h1M72 10h2M87 10h2M104 10h1M106 10h1M111 10h3M118 10h1M120 10h1M10 11h1M22 11h1M40 11h2M55 11h2M74 11h1M86 11h1M104 11h2M119 11h2M9 12h1M23 12h1M42 12h1M54 12h1M73 12h1M87 12h1M106 12h1M118 12h1M9 13h2M22 13h2M41 13h1M55 13h1M73 13h2M86 13h2M105 13h1M119 13h1M10 14h1M22 14h1M41 14h2M54 14h2M74 14h1M86 14h1M105 14h2M118 14h2M10 15h1M22 15h1M42 15h1M54 15h1M74 15h1M86 15h1M106 15h1M118 15h1M42 16h1M54 16h1M106 16h1M118 16h1M14 51h5M78 51h5M11 52h11M46 52h5M75 52h11M110 52h5M10 53h1M13 53h2M20 53h4M43 53h11M74 53h1M77 53h2M84 53h4M107 53h11M9 54h1M12 54h1M23 54h2M42 54h1M45 54h2M52 54h4M73 54h1M76 54h1M87 54h2M106 54h1M109 54h2M116 54h4M9 55h1M18 55h3M24 55h1M41 55h1M44 55h1M55 55h2M73 55h1M82 55h3M88 55h1M105 55h1M108 55h1M119 55h2M9 56h1M21 56h5M41 56h1M50 56h3M56 56h1M73 56h1M85 56h5M105 56h1M114 56h3M120 56h1M9 57h1M24 57h2M41 57h1M53 57h5M73 57h1M88 57h2M105 57h1M117 57h5M21 58h2M25 58h1M41 58h1M56 58h2M85 58h2M89 58h1M105 58h1M120 58h2M18 59h2M23 59h2M53 59h2M57 59h1M82 59h2M87 59h2M117 59h2M121 59h1M21 60h2M24 60h1M50 60h2M55 60h2M85 60h2M88 60h1M114 60h2M119 60h2M19 61h1M22 61h2M53 61h2M56 61h1M83 61h1M86 61h2M117 61h2M120 61h1M20 62h2M23 62h1M51 62h1M54 62h2M84 62h2M87 62h1M115 62h1M118 62h2M18 63h1M21 63h2M52 63h2M55 63h1M82 63h1M85 63h2M116 63h2M119 63h1M22 64h1M50 64h1M53 64h2M86 64h1M114 64h1M117 64h2M54 65h1M118 65h1M13 99h5M77 99h5M10 100h11M45 100h5M74 100h11M109 100h5M8 101h4M17 101h2M21 101h1M42 101h11M72 101h4M81 101h2M85 101h1M106 101h11M7 102h2M19 102h1M22 102h1M40 102h4M49 102h2M53 102h1M71 102h2M83 102h1M86 102h1M104 102h4M113 102h2M117 102h1M7 103h1M11 103h3M22 103h1M39 103h2M51 103h1M54 103h1M71 103h1M75 103h3M86 103h1M103 103h2M115 103h1M118 103h1M6 104h5M22 104h1M39 104h1M43 104h3M54 104h1M70 104h5M86 104h1M103 104h1M107 104h3M118 104h1M6 105h2M22 105h1M38 105h5M54 105h1M70 105h2M86 105h1M102 105h5M118 105h1M6 106h1M9 106h2M38 106h2M54 106h1M70 106h1M73 106h2M102 106h2M118 106h1M7 107h2M12 107h2M38 107h1M41 107h2M71 107h2M76 107h2M102 107h1M105 107h2M7 108h1M9 108h2M39 108h2M44 108h2M71 108h1M73 108h2M103 108h2M108 108h2M8 109h2M12 109h1M39 109h1M41 109h2M72 109h2M76 109h1M103 109h1M105 109h2M8 110h1M10 110h2M40 110h2M44 110h1M72 110h1M74 110h2M104 110h2M108 110h1M9 111h2M13 111h1M40 111h1M42 111h2M73 111h2M77 111h1M104 111h1M106 111h2M9 112h1M41 112h2M45 112h1M73 112h1M105 112h2M109 112h1M41 113h1M105 113h1M11 147h11M75 147h11M9 148h3M15 148h1M17 148h1M21 148h3M43 148h11M73 148h3M79 148h1M81 148h1M85 148h3M107 148h11M9 149h1M11 149h1M21 149h1M23 149h1M41 149h3M47 149h1M49 149h1M53 149h3M73 149h1M75 149h1M85 149h1M87 149h1M105 149h3M111 149h1M113 149h1M117 149h3M8 150h1M12 150h1M20 150h1M24 150h1M41 150h1M43 150h1M53 150h1M55 150h1M72 150h1M76 150h1M84 150h1M88 150h1M105 150h1M107 150h1M117 150h1M119 150h1M8 151h2M12 151h1M20 151h1M23 151h2M40 151h1M44 151h1M52 151h1M56 151h1M72 151h2M76 151h1M84 151h1M87 151h2M104 151h1M108 151h1M116 151h1M120 151h1M8 152h3M22 152h3M40 152h2M44 152h1M52 152h1M55 152h2M72 152h3M86 152h3M104 152h2M108 152h1M116 152h1M119 152h2M8 153h1M10 153h1M22 153h1M24 153h1M40 153h3M54 153h3M72 153h1M74 153h1M86 153h1M88 153h1M104 153h3M118 153h3M8 154h2M23 154h2M40 154h1M42 154h1M54 154h1M56 154h1M72 154h2M87 154h2M104 154h1M106 154h1M118 154h1M120 154h1M10 155h1M22 155h1M40 155h2M55 155h2M74 155h1M86 155h1M104 155h2M119 155h2M9 156h1M23 156h1M42 156h1M54 156h1M73 156h1M87 156h1M106 156h1M118 156h1M9 157h1M23 157h1M41 157h1M55 157h1M73 157h1M87 157h1M105 157h1M119 157h1M9 158h2M12 158h1M20 158h1M22 158h2M41 158h1M55 158h1M73 158h2M76 158h1M84 158h1M86 158h2M105 158h1M119 158h1M9 159h2M12 159h1M15 159h1M17 159h1M20 159h1M22 159h2M41 159h2M44 159h1M52 159h1M54 159h2M73 159h2M76 159h1M79 159h1M81 159h1M84 159h1M86 159h2M105 159h2M108 159h1M116 159h1M118 159h2M10 160h1M12 160h2M15 160h1M17 160h1M19 160h2M22 160h1M41 160h2M44 160h1M47 160h1M49 160h1M52 160h1M54 160h2M74 160h1M76 160h2M79 160h1M81 160h1M83 160h2M86 160h1M105 160h2M108 160h1M111 160h1M113 160h1M116 160h1M118 160h2M10 161h2M13 161h1M15 161h3M19 161h1M21 161h2M42 161h1M44 161h2M47 161h1M49 161h1M51 161h2M54 161h1M74 161h2M77 161h1M79 161h3M83 161h1M85 161h2M106 161h1M108 161h2M111 161h1M113 161h1M115 161h2M118 161h1M11 162h11M42 162h2M45 162h1M47 162h3M51 162h1M53 162h2M75 162h11M106 162h2M109 162h1M111 162h3M115 162h1M117 162h2M13 163h2M16 163h1M18 163h2M43 163h11M77 163h2M80 163h1M82 163h2M107 163h11M45 164h2M48 164h1M50 164h2M109 164h2M112 164h1M114 164h2" />
<path stroke="#513528" d="M12 4h3M16 4h1M18 4h3M76 4h3M80 4h1M82 4h3M10 5h1M12 5h1M14 5h2M17 5h2M20 5h1M22 5h1M44 5h3M48 5h1M50 5h3M74 5h1M76 5h1M78 5h2M81 5h2M84 5h1M86 5h1M108 5h3M112 5h1M114 5h3M9 6h1M11 6h1M14 6h2M17 6h2M21 6h1M23 6h1M42 6h1M44 6h1M46 6h2M49 6h2M52 6h1M54 6h1M73 6h1M75 6h1M78 6h2M81 6h2M85 6h1M87 6h1M106 6h1M108 6h1M110 6h2M113 6h2M116 6h1M118 6h1M10 7h2M13 7h1M15 7h1M17 7h1M19 7h1M21 7h2M41 7h1M43 7h1M46 7h2M49 7h2M53 7h1M55 7h1M74 7h2M77 7h1M79 7h1M81 7h1M83 7h1M85 7h2M105 7h1M107 7h1M110 7h2M113 7h2M117 7h1M119 7h1M12 8h2M19 8h2M42 8h2M45 8h1M47 8h1M49 8h1M51 8h1M53 8h2M76 8h2M83 8h2M106 8h2M109 8h1M111 8h1M113 8h1M115 8h1M117 8h2M9 9h1M11 9h1M13 9h2M18 9h4M23 9h1M44 9h2M51 9h2M73 9h1M75 9h1M77 9h2M82 9h4M87 9h1M108 9h2M115 9h2M10 10h2M21 10h2M41 10h1M43 10h1M45 10h2M50 10h4M55 10h1M74 10h2M85 10h2M105 10h1M107 10h1M109 10h2M114 10h4M119 10h1M9 11h1M23 11h1M42 11h2M53 11h2M73 11h1M87 11h1M106 11h2M117 11h2M10 12h1M22 12h1M41 12h1M55 12h1M74 12h1M86 12h1M105 12h1M119 12h1M11 13h1M21 13h1M42 13h1M54 13h1M75 13h1M85 13h1M106 13h1M118 13h1M43 14h1M53 14h1M107 14h1M117 14h1M11 15h1M21 15h1M75 15h1M85 15h1M11 16h1M21 16h1M43 16h1M53 16h1M75 16h1M85 16h1M107 16h1M117 16h1M43 17h1M53 17h1M107 17h1M117 17h1M11 19h1M21 19h1M75 19h1M85 19h1M43 20h1M53 20h1M107 20h1M117 20h1M11 53h2M15 53h5M75 53h2M79 53h5M10 54h1M13 54h2M21 54h2M43 54h2M47 54h5M74 54h1M77 54h2M85 54h2M107 54h2M111 54h5M10 55h3M16 55h2M21 55h3M42 55h1M45 55h2M53 55h2M74 55h3M80 55h2M85 55h3M106 55h1M109 55h2M117 55h2M10 56h1M14 56h2M20 56h1M42 56h3M48 56h2M53 56h3M74 56h1M78 56h2M84 56h1M106 56h3M112 56h2M117 56h3M10 57h4M17 57h2M23 57h1M42 57h1M46 57h2M52 57h1M74 57h4M81 57h2M87 57h1M106 57h1M110 57h2M116 57h1M18 58h3M23 58h2M42 58h4M49 58h2M55 58h1M82 58h3M87 58h2M106 58h4M113 58h2M119 58h1M20 59h3M50 59h3M55 59h2M84 59h3M114 59h3M119 59h2M18 60h3M23 60h1M52 60h3M82 60h3M87 60h1M116 60h3M16 61h1M20 61h2M50 61h3M55 61h1M80 61h1M84 61h2M114 61h3M119 61h1M12 62h1M22 62h1M48 62h1M52 62h2M76 62h1M86 62h1M112 62h1M116 62h2M15 63h1M44 63h1M54 63h1M79 63h1M108 63h1M118 63h1M15 64h1M47 64h1M79 64h1M111 64h1M9 65h1M47 65h1M73 65h1M111 65h1M19 66h1M41 66h1M83 66h1M105 66h1M18 67h1M51 67h1M82 67h1M115 67h1M16 68h1M50 68h1M80 68h1M114 68h1M48 69h1M112 69h1M12 101h5M19 101h2M76 101h5M83 101h2M9 102h2M17 102h2M21 102h1M44 102h5M51 102h2M73 102h2M81 102h2M85 102h1M108 102h5M115 102h2M8 103h3M14 103h2M19 103h3M41 103h2M49 103h2M53 103h1M72 103h3M78 103h2M83 103h3M105 103h2M113 103h2M117 103h1M11 104h1M16 104h2M21 104h1M40 104h3M46 104h2M51 104h3M75 104h1M80 104h2M85 104h1M104 104h3M110 104h2M115 104h3M8 105h1M13 105h2M18 105h4M43 105h1M48 105h2M53 105h1M72 105h1M77 105h2M82 105h4M107 105h1M112 105h2M117 105h1M7 106h2M11 106h3M40 106h1M45 106h2M50 106h4M71 106h2M75 106h3M104 106h1M109 106h2M114 106h4M9 107h3M39 107h2M43 107h3M73 107h3M103 107h2M107 107h3M8 108h1M11 108h3M41 108h3M72 108h1M75 108h3M105 108h3M10 109h2M15 109h1M40 109h1M43 109h3M74 109h2M79 109h1M104 109h1M107 109h3M9 110h1M19 110h1M42 110h2M47 110h1M73 110h1M83 110h1M106 110h2M111 110h1M16 111h1M41 111h1M51 111h1M80 111h1M105 111h1M115 111h1M16 112h1M48 112h1M80 112h1M112 112h1M22 113h1M48 113h1M86 113h1M112 113h1M12 114h1M54 114h1M76 114h1M118 114h1M13 115h1M44 115h1M77 115h1M108 115h1M15 116h1M45 116h1M79 116h1M109 116h1M47 117h1M111 117h1M12 148h1M14 148h1M16 148h1M18 148h1M20 148h1M76 148h1M78 148h1M80 148h1M82 148h1M84 148h1M10 149h1M12 149h1M15 149h1M17 149h1M20 149h1M22 149h1M44 149h1M46 149h1M48 149h1M50 149h1M52 149h1M74 149h1M76 149h1M79 149h1M81 149h1M84 149h1M86 149h1M108 149h1M110 149h1M112 149h1M114 149h1M116 149h1M9 150h1M11 150h1M21 150h1M23 150h1M42 150h1M44 150h1M47 150h1M49 150h1M52 150h1M54 150h1M73 150h1M75 150h1M85 150h1M87 150h1M106 150h1M108 150h1M111 150h1M113 150h1M116 150h1M118 150h1M41 151h1M43 151h1M53 151h1M55 151h1M105 151h1M107 151h1M117 151h1M119 151h1M12 152h2M15 152h1M17 152h1M19 152h2M76 152h2M79 152h1M81 152h1M83 152h2M9 153h1M11 153h1M13 153h1M15 153h1M17 153h1M19 153h1M21 153h1M23 153h1M44 153h2M47 153h1M49 153h1M51 153h2M73 153h1M75 153h1M77 153h1M79 153h1M81 153h1M83 153h1M85 153h1M87 153h1M108 153h2M111 153h1M113 153h1M115 153h2M10 154h13M41 154h1M43 154h1M45 154h1M47 154h1M49 154h1M51 154h1M53 154h1M55 154h1M74 154h13M105 154h1M107 154h1M109 154h1M111 154h1M113 154h1M115 154h1M117 154h1M119 154h1M9 155h1M11 155h11M23 155h1M42 155h13M73 155h1M75 155h11M87 155h1M106 155h13M10 156h13M41 156h1M43 156h11M55 156h1M74 156h13M105 156h1M107 156h11M119 156h1M10 157h13M42 157h13M74 157h13M106 157h13M11 158h1M13 158h7M21 158h1M42 158h13M75 158h1M77 158h7M85 158h1M106 158h13M11 159h1M13 159h2M16 159h1M18 159h2M21 159h1M43 159h1M45 159h7M53 159h1M75 159h1M77 159h2M80 159h1M82 159h2M85 159h1M107 159h1M109 159h7M117 159h1M11 160h1M14 160h1M16 160h1M18 160h1M21 160h1M43 160h1M45 160h2M48 160h1M50 160h2M53 160h1M75 160h1M78 160h1M80 160h1M82 160h1M85 160h1M107 160h1M109 160h2M112 160h1M114 160h2M117 160h1M12 161h1M14 161h1M18 161h1M20 161h1M43 161h1M46 161h1M48 161h1M50 161h1M53 161h1M76 161h1M78 161h1M82 161h1M84 161h1M107 161h1M110 161h1M112 161h1M114 161h1M117 161h1M44 162h1M46 162h1M50 162h1M52 162h1M108 162h1M110 162h1M114 162h1M116 162h1" />
<path stroke="#603f30" d="M13 5h1M16 5h1M19 5h1M77 5h1M80 5h1M83 5h1M10 6h1M22 6h1M45 6h1M48 6h1M51 6h1M74 6h1M86 6h1M109 6h1M112 6h1M115 6h1M14 7h1M18 7h1M42 7h1M54 7h1M78 7h1M82 7h1M106 7h1M118 7h1M11 8h1M14 8h5M21 8h1M46 8h1M50 8h1M75 8h1M78 8h5M85 8h1M110 8h1M114 8h1M12 9h1M43 9h1M46 9h5M53 9h1M76 9h1M107 9h1M110 9h5M117 9h1M44 10h1M108 10h1M12 13h2M19 13h2M76 13h2M83 13h2M44 14h2M51 14h2M108 14h2M115 14h2M13 17h2M18 17h2M77 17h2M82 17h2M45 18h2M50 18h2M109 18h2M114 18h2M11 54h1M18 54h3M75 54h1M82 54h3M15 55h1M43 55h1M50 55h3M79 55h1M107 55h1M114 55h3M11 56h3M16 56h1M19 56h1M47 56h1M75 56h3M80 56h1M83 56h1M111 56h1M19 57h4M43 57h3M48 57h1M51 57h1M83 57h4M107 57h3M112 57h1M115 57h1M51 58h4M115 58h4M13 61h3M77 61h3M45 62h3M109 62h3M12 65h2M76 65h2M44 66h2M108 66h2M11 102h3M20 102h1M75 102h3M84 102h1M16 103h1M43 103h3M52 103h1M80 103h1M107 103h3M116 103h1M12 104h1M15 104h1M18 104h3M48 104h1M76 104h1M79 104h1M82 104h3M112 104h1M9 105h4M44 105h1M47 105h1M50 105h3M73 105h4M108 105h1M111 105h1M114 105h3M41 106h4M105 106h4M16 109h3M80 109h3M48 110h3M112 110h3M18 113h2M82 113h2M50 114h2M114 114h2M13 148h1M19 148h1M77 148h1M83 148h1M14 149h1M16 149h1M18 149h1M45 149h1M51 149h1M78 149h1M80 149h1M82 149h1M109 149h1M115 149h1M10 150h1M15 150h1M17 150h1M22 150h1M46 150h1M48 150h1M50 150h1M74 150h1M79 150h1M81 150h1M86 150h1M110 150h1M112 150h1M114 150h1M10 151h2M13 151h1M15 151h1M17 151h1M19 151h1M21 151h2M42 151h1M47 151h1M49 151h1M54 151h1M74 151h2M77 151h1M79 151h1M81 151h1M83 151h1M85 151h2M106 151h1M111 151h1M113 151h1M118 151h1M11 152h1M16 152h1M21 152h1M42 152h2M45 152h1M47 152h1M49 152h1M51 152h1M53 152h2M75 152h1M80 152h1M85 152h1M106 152h2M109 152h1M111 152h1M113 152h1M115 152h1M117 152h2M12 153h1M14 153h1M16 153h1M18 153h1M20 153h1M43 153h1M48 153h1M53 153h1M76 153h1M78 153h1M80 153h1M82 153h1M84 153h1M107 153h1M112 153h1M117 153h1M44 154h1M46 154h1M48 154h1M50 154h1M52 154h1M108 154h1M110 154h1M112 154h1M114 154h1M116 154h1" />
<path stroke="#95634d" d="M13 6h1M16 6h1M19 6h1M77 6h1M80 6h1M83 6h1M16 7h1M45 7h1M48 7h1M51 7h1M80 7h1M109 7h1M112 7h1M115 7h1M48 8h1M112 8h1M15 54h3M79 54h3M13 55h2M47 55h3M77 55h2M111 55h3M17 56h2M45 56h2M81 56h2M109 56h2M49 57h2M113 57h2M14 102h3M78 102h3M17 103h2M46 103h3M81 103h2M110 103h3M13 104h2M49 104h2M77 104h2M113 104h2M45 105h2M109 105h2M13 149h1M19 149h1M77 149h1M83 149h1M13 150h2M16 150h1M18 150h2M45 150h1M51 150h1M77 150h2M80 150h1M82 150h2M109 150h1M115 150h1M14 151h1M16 151h1M18 151h1M45 151h2M48 151h1M50 151h2M78 151h1M80 151h1M82 151h1M109 151h2M112 151h1M114 151h2M14 152h1M18 152h1M46 152h1M48 152h1M50 152h1M78 152h1M82 152h1M110 152h1M112 152h1M114 152h1M46 153h1M50 153h1M110 153h1M114 153h1" />
<path stroke="#e8a08d" d="M12 10h1M20 10h1M76 10h1M84 10h1M11 11h1M21 11h1M44 11h1M52 11h1M75 11h1M85 11h1M108 11h1M116 11h1M43 12h1M53 12h1M107 12h1M117 12h1M14 13h1M18 13h1M78 13h1M82 13h1M46 14h1M50 14h1M110 14h1M114 14h1M12 18h1M20 18h1M76 18h1M84 18h1M13 19h1M19 19h1M44 19h1M52 19h1M77 19h1M83 19h1M108 19h1M116 19h1M45 20h1M51 20h1M109 20h1M115 20h1M39 28h1M121 28h1M6 29h1M26 29h1M70 29h1M90 29h1M55 31h2M104 31h2M14 57h3M78 57h3M10 58h3M17 58h1M46 58h3M74 58h3M81 58h1M110 58h3M42 59h3M49 59h1M106 59h3M113 59h1M10 61h1M12 61h1M74 61h1M76 61h1M10 62h1M15 62h2M42 62h1M44 62h1M74 62h1M79 62h2M106 62h1M108 62h1M42 63h1M47 63h2M106 63h1M111 63h2M19 65h1M83 65h1M51 66h1M115 66h1M11 67h1M16 67h1M75 67h1M80 67h1M43 68h1M48 68h1M107 68h1M112 68h1M19 79h1M83 79h1M49 80h1M118 80h1M15 105h3M79 105h3M14 106h1M19 106h3M47 106h3M78 106h1M83 106h3M111 106h3M46 107h1M51 107h3M110 107h1M115 107h3M19 109h1M21 109h1M83 109h1M85 109h1M15 110h2M21 110h1M51 110h1M53 110h1M79 110h2M85 110h1M115 110h1M117 110h1M47 111h2M53 111h1M111 111h2M117 111h1M12 113h1M76 113h1M44 114h1M108 114h1M15 115h1M20 115h1M79 115h1M84 115h1M47 116h1M52 116h1M111 116h1M116 116h1M12 127h1M76 127h1M46 128h1M105 128h1M40 172h1M120 172h1M6 173h1M26 173h1M70 173h1M90 173h1M55 174h1M105 174h1" />
<path stroke="#ffc89b" d="M13 10h7M77 10h7M45 11h7M109 11h7M11 14h1M21 14h1M75 14h1M85 14h1M9 15h1M23 15h1M43 15h1M53 15h1M73 15h1M87 15h1M107 15h1M117 15h1M41 16h1M55 16h1M105 16h1M119 16h1M11 17h1M21 17h1M75 17h1M85 17h1M13 18h1M19 18h1M43 18h1M53 18h1M77 18h1M83 18h1M107 18h1M117 18h1M16 19h1M45 19h1M51 19h1M80 19h1M109 19h1M115 19h1M48 20h1M112 20h1M7 29h1M25 29h1M71 29h1M89 29h1M13 58h1M16 58h1M77 58h1M80 58h1M10 59h1M17 59h1M45 59h1M48 59h1M74 59h1M81 59h1M109 59h1M112 59h1M10 60h1M42 60h1M49 60h1M74 60h1M106 60h1M113 60h1M42 61h1M106 61h1M10 63h1M19 63h1M74 63h1M83 63h1M42 64h1M51 64h1M106 64h1M115 64h1M10 65h2M15 65h1M17 65h1M74 65h2M79 65h1M81 65h1M17 66h1M42 66h2M47 66h1M49 66h1M81 66h1M106 66h2M111 66h1M113 66h1M15 67h1M49 67h1M79 67h1M113 67h1M47 68h1M111 68h1M19 78h1M83 78h1M17 79h1M81 79h1M118 79h1M47 80h1M116 80h1M15 106h1M18 106h1M79 106h1M82 106h1M14 107h1M21 107h1M47 107h1M50 107h1M78 107h1M85 107h1M111 107h1M114 107h1M21 108h1M46 108h1M53 108h1M85 108h1M110 108h1M117 108h1M53 109h1M117 109h1M12 111h1M21 111h1M76 111h1M85 111h1M44 112h1M53 112h1M108 112h1M117 112h1M14 113h1M16 113h1M20 113h2M78 113h1M80 113h1M84 113h2M14 114h1M46 114h1M48 114h1M52 114h2M78 114h1M110 114h1M112 114h1M116 114h2M16 115h1M46 115h1M80 115h1M110 115h1M48 116h1M112 116h1M12 126h1M76 126h1M14 127h1M78 127h1M105 127h1M48 128h1M107 128h1M56 174h1M104 174h1" />
<path stroke="#1e120d" d="M8 11h1M24 11h1M72 11h1M88 11h1M8 12h1M24 12h1M40 12h1M56 12h1M72 12h1M88 12h1M104 12h1M120 12h1M8 13h1M24 13h1M40 13h1M56 13h1M72 13h1M88 13h1M104 13h1M120 13h1M40 14h1M56 14h1M104 14h1M120 14h1M25 59h1M89 59h1M25 60h1M57 60h1M89 60h1M121 60h1M18 61h1M24 61h1M57 61h1M82 61h1M88 61h1M121 61h1M18 62h2M24 62h1M50 62h1M56 62h1M82 62h2M88 62h1M114 62h1M120 62h1M20 63h1M23 63h1M50 63h2M56 63h1M84 63h1M87 63h1M114 63h2M120 63h1M20 64h2M23 64h1M52 64h1M55 64h1M84 64h2M87 64h1M116 64h1M119 64h1M20 65h3M52 65h2M55 65h1M84 65h3M116 65h2M119 65h1M20 66h3M52 66h3M84 66h3M116 66h3M19 67h3M52 67h3M83 67h3M116 67h3M17 68h2M20 68h1M51 68h3M81 68h2M84 68h1M115 68h3M49 69h2M52 69h1M113 69h2M116 69h1M6 107h1M70 107h1M6 108h1M38 108h1M70 108h1M102 108h1M7 109h1M13 109h1M38 109h1M71 109h1M77 109h1M102 109h1M7 110h1M12 110h2M39 110h1M45 110h1M71 110h1M76 110h2M103 110h1M109 110h1M8 111h1M11 111h1M39 111h1M44 111h2M72 111h1M75 111h1M103 111h1M108 111h2M8 112h1M10 112h2M40 112h1M43 112h1M72 112h1M74 112h2M104 112h1M107 112h1M9 113h3M40 113h1M42 113h2M73 113h3M104 113h1M106 113h2M9 114h3M41 114h3M73 114h3M105 114h3M10 115h3M41 115h3M74 115h3M105 115h3M11 116h1M13 116h2M42 116h3M75 116h1M77 116h2M106 116h3M43 117h1M45 117h2M107 117h1M109 117h2M8 155h1M24 155h1M72 155h1M88 155h1M8 156h1M24 156h1M40 156h1M56 156h1M72 156h1M88 156h1M104 156h1M120 156h1M8 157h1M24 157h1M40 157h1M56 157h1M72 157h1M88 157h1M104 157h1M120 157h1M8 158h1M24 158h1M40 158h1M56 158h1M72 158h1M88 158h1M104 158h1M120 158h1M8 159h1M24 159h1M40 159h1M56 159h1M72 159h1M88 159h1M104 159h1M120 159h1M9 160h1M23 160h1M40 160h1M56 160h1M73 160h1M87 160h1M104 160h1M120 160h1M9 161h1M23 161h1M41 161h1M55 161h1M73 161h1M87 161h1M105 161h1M119 161h1M10 162h1M22 162h1M41 162h1M55 162h1M74 162h1M86 162h1M105 162h1M119 162h1M10 163h3M15 163h1M17 163h1M20 163h3M42 163h1M54 163h1M74 163h3M79 163h1M81 163h1M84 163h3M106 163h1M118 163h1M13 164h7M42 164h3M47 164h1M49 164h1M52 164h3M77 164h7M106 164h3M111 164h1M113 164h1M116 164h3M45 165h7M109 165h7" />
<path stroke="#f8e6ce" d="M12 11h1M20 11h1M76 11h1M84 11h1M11 12h1M21 12h1M44 12h1M52 12h1M75 12h1M85 12h1M108 12h1M116 12h1M43 13h1M53 13h1M107 13h1M117 13h1M15 15h3M79 15h3M15 16h3M47 16h3M79 16h3M111 16h3M15 17h1M17 17h1M47 17h3M79 17h1M81 17h1M111 17h3M47 18h1M49 18h1M111 18h1M113 18h1M14 58h2M78 58h2M11 59h1M16 59h1M46 59h2M75 59h1M80 59h1M110 59h2M17 60h1M43 60h1M48 60h1M81 60h1M107 60h1M112 60h1M17 61h1M49 61h1M81 61h1M113 61h1M11 62h1M17 62h1M49 62h1M75 62h1M81 62h1M113 62h1M11 63h1M16 63h2M43 63h1M49 63h1M75 63h1M80 63h2M107 63h1M113 63h1M11 64h1M16 64h2M19 64h1M43 64h1M48 64h2M75 64h1M80 64h2M83 64h1M107 64h1M112 64h2M16 65h1M43 65h1M48 65h2M51 65h1M80 65h1M107 65h1M112 65h2M115 65h1M16 66h1M48 66h1M80 66h1M112 66h1M48 67h1M112 67h1M16 106h2M80 106h2M15 107h1M20 107h1M48 107h2M79 107h1M84 107h1M112 107h2M14 108h1M47 108h1M52 108h1M78 108h1M111 108h1M116 108h1M14 109h1M46 109h1M78 109h1M110 109h1M14 110h1M20 110h1M46 110h1M78 110h1M84 110h1M110 110h1M14 111h2M20 111h1M46 111h1M52 111h1M78 111h2M84 111h1M110 111h1M116 111h1M12 112h1M14 112h2M20 112h1M46 112h2M52 112h1M76 112h1M78 112h2M84 112h1M110 112h2M116 112h1M15 113h1M44 113h1M46 113h2M52 113h1M79 113h1M108 113h1M110 113h2M116 113h1M15 114h1M47 114h1M79 114h1M111 114h1M47 115h1M111 115h1" />
<path stroke="#fdf9f4" d="M13 11h7M77 11h7M12 12h9M45 12h7M76 12h9M109 12h7M15 13h3M44 13h9M79 13h3M108 13h9M15 14h3M47 14h3M79 14h3M111 14h3M47 15h3M111 15h3M16 17h1M80 17h1M48 18h1M112 18h1M12 59h4M76 59h4M11 60h6M44 60h4M75 60h6M108 60h4M11 61h1M43 61h6M75 61h1M107 61h6M43 62h1M107 62h1M10 64h1M74 64h1M42 65h1M106 65h1M16 107h4M80 107h4M15 108h6M48 108h4M79 108h6M112 108h4M20 109h1M47 109h6M84 109h1M111 109h6M52 110h1M116 110h1M21 112h1M85 112h1M53 113h1M117 113h1" />
<path stroke="#4e4058" d="M8 14h1M12 14h2M19 14h2M24 14h1M72 14h1M76 14h2M83 14h2M88 14h1M8 15h1M14 15h1M18 15h1M24 15h1M40 15h1M44 15h2M51 15h2M56 15h1M72 15h1M78 15h1M82 15h1M88 15h1M104 15h1M108 15h2M115 15h2M120 15h1M9 16h1M13 16h2M18 16h2M23 16h1M40 16h1M46 16h1M50 16h1M56 16h1M73 16h1M77 16h2M82 16h2M87 16h1M104 16h1M110 16h1M114 16h1M120 16h1M10 17h1M22 17h1M41 17h1M45 17h2M50 17h2M55 17h1M74 17h1M86 17h1M105 17h1M109 17h2M114 17h2M119 17h1M10 18h1M22 18h1M42 18h1M54 18h1M74 18h1M86 18h1M106 18h1M118 18h1M42 19h1M54 19h1M106 19h1M118 19h1M9 58h1M73 58h1M9 59h1M41 59h1M73 59h1M105 59h1M9 60h1M41 60h1M73 60h1M105 60h1M9 61h1M41 61h1M73 61h1M105 61h1M9 62h1M13 62h2M41 62h1M73 62h1M77 62h2M105 62h1M12 63h1M41 63h1M45 63h2M76 63h1M105 63h1M109 63h2M12 64h2M44 64h1M76 64h2M108 64h1M44 65h2M108 65h2M22 106h1M86 106h1M22 107h1M54 107h1M86 107h1M118 107h1M22 108h1M54 108h1M86 108h1M118 108h1M22 109h1M54 109h1M86 109h1M118 109h1M17 110h2M22 110h1M54 110h1M81 110h2M86 110h1M118 110h1M19 111h1M49 111h2M54 111h1M83 111h1M113 111h2M118 111h1M18 112h2M51 112h1M82 112h2M115 112h1M50 113h2M114 113h2" />
<path stroke="#aa7162" d="M9 14h1M14 14h1M18 14h1M23 14h1M73 14h1M78 14h1M82 14h1M87 14h1M41 15h1M46 15h1M50 15h1M55 15h1M105 15h1M110 15h1M114 15h1M119 15h1M10 16h1M22 16h1M74 16h1M86 16h1M42 17h1M54 17h1M106 17h1M118 17h1M11 18h1M21 18h1M75 18h1M85 18h1M12 19h1M20 19h1M43 19h1M53 19h1M76 19h1M84 19h1M107 19h1M117 19h1M15 20h3M44 20h1M52 20h1M79 20h3M108 20h1M116 20h1M47 21h3M111 21h3M9 63h1M73 63h1M9 64h1M18 64h1M41 64h1M73 64h1M82 64h1M105 64h1M18 65h1M41 65h1M50 65h1M82 65h1M105 65h1M114 65h1M18 66h1M50 66h1M82 66h1M114 66h1M17 67h1M50 67h1M81 67h1M114 67h1M14 68h1M49 68h1M78 68h1M113 68h1M46 69h1M110 69h1M16 79h1M80 79h1M17 80h2M81 80h2M115 80h1M116 81h3M22 111h1M86 111h1M13 112h1M22 112h1M54 112h1M77 112h1M86 112h1M118 112h1M13 113h1M45 113h1M54 113h1M77 113h1M109 113h1M118 113h1M13 114h1M45 114h1M77 114h1M109 114h1M14 115h1M45 115h1M78 115h1M109 115h1M17 116h1M46 116h1M81 116h1M110 116h1M49 117h1M113 117h1M15 127h1M79 127h1M13 128h2M77 128h2M108 128h1M105 129h3M39 172h1M121 172h1M57 174h1M103 174h1" />
<path stroke="#7c7e83" d="M12 15h1M20 15h1M76 15h1M84 15h1M44 16h1M52 16h1M108 16h1M116 16h1M14 63h1M78 63h1M46 64h1M110 64h1M17 111h1M81 111h1M49 112h1M113 112h1" />
<path stroke="#c5c5c5" d="M13 15h1M19 15h1M77 15h1M83 15h1M45 16h1M51 16h1M109 16h1M115 16h1M13 63h1M77 63h1M45 64h1M109 64h1M18 111h1M82 111h1M50 112h1M114 112h1" />
<path stroke="#cec8db" d="M12 16h1M20 16h1M76 16h1M84 16h1M12 17h1M20 17h1M44 17h1M52 17h1M76 17h1M84 17h1M108 17h1M116 17h1M44 18h1M52 18h1M108 18h1M116 18h1M14 64h1M78 64h1M14 65h1M46 65h1M78 65h1M110 65h1M46 66h1M110 66h1M17 112h1M81 112h1M17 113h1M49 113h1M81 113h1M113 113h1M49 114h1M113 114h1" />
<path stroke="#ffebce" d="M14 18h1M18 18h1M78 18h1M82 18h1M46 19h1M50 19h1M110 19h1M114 19h1M13 66h3M77 66h3M14 67h1M45 67h3M78 67h1M109 67h3M46 68h1M110 68h1M17 78h2M81 78h2M18 79h1M47 79h1M82 79h1M48 80h1M117 80h1M16 114h3M80 114h3M17 115h1M48 115h3M81 115h1M112 115h3M49 116h1M113 116h1M13 126h2M77 126h2M13 127h1M48 127h1M77 127h1M47 128h1M106 128h1" />
<path stroke="#3c3c3c" d="M15 18h1M17 18h1M79 18h1M81 18h1M14 19h1M18 19h1M47 19h1M49 19h1M78 19h1M82 19h1M111 19h1M113 19h1M46 20h1M50 20h1M110 20h1M114 20h1M11 21h2M20 21h2M43 21h1M54 21h1M75 21h2M84 21h2M106 21h1M117 21h1M8 22h1M10 22h1M12 22h2M19 22h2M22 22h1M24 22h1M52 22h1M72 22h1M74 22h1M76 22h2M83 22h2M86 22h1M88 22h1M108 22h1M9 23h1M12 23h3M18 23h3M23 23h1M52 23h1M55 23h1M73 23h1M76 23h3M82 23h3M87 23h1M105 23h1M108 23h1M14 24h1M18 24h1M20 24h1M44 24h3M53 24h1M78 24h1M82 24h1M84 24h1M107 24h1M114 24h3M11 25h1M21 25h1M43 25h1M45 25h2M75 25h1M85 25h1M114 25h2M117 25h1M13 26h1M19 26h1M43 26h1M50 26h1M77 26h1M83 26h1M110 26h1M117 26h1M12 27h1M14 27h1M16 27h1M18 27h1M20 27h1M45 27h1M76 27h1M78 27h1M80 27h1M82 27h1M84 27h1M115 27h1M13 28h1M15 28h1M17 28h1M19 28h1M44 28h2M47 28h1M49 28h1M77 28h1M79 28h1M81 28h1M83 28h1M111 28h1M113 28h1M115 28h2M12 66h1M76 66h1M44 67h1M108 67h1M17 69h1M81 69h1M15 70h1M18 70h1M49 70h1M79 70h1M82 70h1M113 70h2M12 71h4M49 71h2M76 71h4M111 71h2M115 71h1M16 72h2M44 72h2M47 72h1M50 72h1M80 72h2M108 72h2M111 72h1M16 73h2M48 73h1M80 73h2M111 73h1M114 73h1M15 74h2M79 74h2M111 74h1M113 74h2M15 75h2M52 75h1M79 75h2M111 75h1M14 76h3M44 76h2M52 76h1M78 76h3M111 76h2M13 77h3M44 77h2M52 77h1M77 77h3M108 77h5M12 78h4M45 78h1M76 78h4M19 114h1M83 114h1M51 115h1M115 115h1M14 117h1M78 117h1M13 118h1M16 118h1M46 118h1M77 118h1M80 118h1M109 118h2M16 119h4M45 119h2M80 119h4M108 119h1M111 119h2M14 120h2M45 120h1M48 120h1M50 120h2M78 120h2M112 120h1M114 120h2M14 121h2M47 121h1M78 121h2M109 121h1M112 121h1M15 122h2M79 122h2M109 122h2M112 122h1M15 123h2M43 123h1M79 123h2M112 123h1M15 124h3M43 124h1M50 124h2M79 124h3M111 124h2M16 125h3M43 125h1M50 125h2M80 125h3M111 125h5M16 126h4M50 126h1M80 126h4M10 164h1M22 164h1M74 164h1M86 164h1M11 165h2M20 165h2M41 165h1M75 165h2M84 165h2M119 165h1M8 166h1M10 166h1M12 166h2M19 166h2M22 166h1M24 166h1M42 166h3M52 166h2M72 166h1M74 166h1M76 166h2M83 166h2M86 166h1M88 166h1M107 166h2M116 166h3M9 167h1M12 167h9M23 167h1M44 167h2M52 167h1M73 167h1M76 167h9M87 167h1M108 167h1M115 167h2M14 168h5M43 168h7M53 168h2M78 168h5M106 168h2M111 168h7M11 169h1M21 169h1M44 169h1M47 169h4M75 169h1M85 169h1M110 169h4M116 169h1M13 170h1M19 170h1M49 170h2M77 170h1M83 170h1M110 170h2M12 171h1M14 171h1M16 171h1M18 171h1M20 171h1M44 171h1M49 171h2M76 171h1M78 171h1M80 171h1M82 171h1M84 171h1M110 171h2M116 171h1M12 172h2M15 172h1M17 172h1M19 172h2M44 172h2M49 172h2M76 172h2M79 172h1M81 172h1M83 172h2M110 172h2M115 172h2M13 173h7M44 173h8M77 173h7M109 173h8" />
<path stroke="#292929" d="M16 18h1M80 18h1M15 19h1M17 19h1M48 19h1M79 19h1M81 19h1M112 19h1M14 20h1M18 20h1M47 20h1M49 20h1M78 20h1M82 20h1M111 20h1M113 20h1M15 21h3M46 21h1M50 21h1M79 21h3M110 21h1M114 21h1M47 22h3M111 22h3M10 66h2M74 66h2M12 67h2M42 67h2M76 67h2M106 67h2M13 68h1M44 68h2M77 68h1M108 68h2M45 69h1M109 69h1M20 114h2M84 114h2M18 115h2M52 115h2M82 115h2M116 115h2M18 116h1M50 116h2M82 116h1M114 116h2M50 117h1M114 117h1" />
<path stroke="#181818" d="M10 19h1M22 19h1M74 19h1M86 19h1M9 20h1M12 20h1M20 20h1M23 20h1M73 20h1M76 20h1M84 20h1M87 20h1M8 21h1M13 21h1M19 21h1M24 21h1M42 21h1M44 21h1M53 21h1M72 21h1M77 21h1M83 21h1M88 21h1M107 21h1M116 21h1M118 21h1M11 22h1M14 22h5M21 22h1M42 22h3M51 22h1M55 22h1M75 22h1M78 22h5M85 22h1M105 22h1M109 22h1M116 22h3M10 23h1M22 23h1M43 23h3M74 23h1M86 23h1M115 23h3M11 24h1M21 24h1M43 24h1M50 24h1M52 24h1M55 24h1M75 24h1M85 24h1M105 24h1M108 24h1M110 24h1M117 24h1M50 25h2M109 25h2M11 26h1M21 26h1M51 26h1M75 26h1M85 26h1M109 26h1M11 27h1M21 27h1M43 27h2M51 27h1M75 27h1M85 27h1M109 27h1M116 27h2M11 28h2M20 28h2M42 28h2M51 28h1M75 28h2M84 28h2M109 28h1M117 28h2M14 29h5M43 29h9M78 29h5M109 29h9M14 69h3M18 69h2M78 69h3M82 69h2M13 70h2M19 70h1M46 70h3M50 70h2M77 70h2M83 70h1M111 70h2M115 70h1M20 71h1M45 71h3M51 71h1M84 71h1M110 71h1M116 71h2M15 72h1M18 72h3M46 72h1M51 72h2M79 72h1M82 72h3M107 72h1M110 72h1M116 72h1M15 73h1M46 73h1M50 73h3M79 73h1M115 73h1M46 74h1M52 74h2M112 74h1M46 75h1M112 75h1M43 76h1M46 76h1M53 76h1M11 77h1M43 77h1M46 77h1M53 77h1M75 77h1M113 77h1M11 78h1M43 78h2M52 78h1M75 78h1M108 78h6M12 79h4M45 79h1M51 79h1M76 79h4M12 117h2M15 117h3M76 117h2M79 117h3M12 118h1M17 118h2M44 118h2M47 118h3M76 118h1M81 118h2M108 118h1M111 118h2M11 119h1M44 119h1M48 119h3M75 119h1M106 119h2M113 119h1M11 120h3M16 120h1M43 120h2M49 120h1M75 120h3M80 120h1M107 120h1M113 120h1M116 120h1M16 121h1M43 121h3M49 121h1M80 121h1M108 121h1M42 122h2M49 122h1M111 122h1M49 123h1M111 123h1M42 124h1M49 124h1M52 124h1M20 125h1M42 125h1M49 125h1M52 125h1M84 125h1M110 125h1M20 126h1M43 126h1M51 126h2M84 126h1M110 126h6M16 127h4M44 127h1M50 127h1M80 127h4M9 164h1M12 164h1M20 164h1M23 164h1M73 164h1M76 164h1M84 164h1M87 164h1M8 165h1M13 165h7M24 165h1M42 165h1M44 165h1M52 165h2M72 165h1M77 165h7M88 165h1M107 165h2M116 165h1M118 165h1M11 166h1M14 166h5M21 166h1M45 166h7M54 166h1M75 166h1M78 166h5M85 166h1M106 166h1M109 166h7M10 167h1M22 167h1M43 167h1M46 167h5M55 167h1M74 167h1M86 167h1M105 167h1M110 167h5M117 167h1M11 168h1M21 168h1M50 168h1M52 168h1M75 168h1M85 168h1M108 168h1M110 168h1M11 170h1M21 170h1M51 170h2M75 170h1M85 170h1M108 170h2M11 171h1M21 171h1M51 171h2M75 171h1M85 171h1M108 171h2M11 172h1M21 172h1M51 172h2M75 172h1M85 172h1M108 172h2M11 173h2M20 173h2M52 173h1M75 173h2M84 173h2M108 173h1M14 174h5M44 174h8M78 174h5M109 174h8" />
<path stroke="#5b5b5b" d="M10 20h2M21 20h2M74 20h2M85 20h2M9 21h2M22 21h2M73 21h2M86 21h2M9 22h1M23 22h1M53 22h2M73 22h1M87 22h1M106 22h2M53 23h2M106 23h2M12 24h2M19 24h1M54 24h1M76 24h2M83 24h1M106 24h1M12 25h3M18 25h3M44 25h1M76 25h3M82 25h3M116 25h1M12 26h1M14 26h5M20 26h1M44 26h3M76 26h1M78 26h5M84 26h1M114 26h3M13 27h1M15 27h1M17 27h1M19 27h1M46 27h5M77 27h1M79 27h1M81 27h1M83 27h1M110 27h5M14 28h1M16 28h1M18 28h1M46 28h1M48 28h1M50 28h1M78 28h1M80 28h1M82 28h1M110 28h1M112 28h1M114 28h1M16 70h2M80 70h2M16 71h3M48 71h1M80 71h3M113 71h2M14 72h1M48 72h2M78 72h1M112 72h4M14 73h1M49 73h1M78 73h1M110 73h1M112 73h2M14 74h1M78 74h1M110 74h1M11 75h4M75 75h4M110 75h1M11 76h3M75 76h3M107 76h4M12 77h1M76 77h1M107 77h1M14 118h2M78 118h2M13 119h3M47 119h1M77 119h3M109 119h2M17 120h1M46 120h2M81 120h1M108 120h4M17 121h1M46 121h1M81 121h1M110 121h2M113 121h1M17 122h1M81 122h1M113 122h1M17 123h4M81 123h4M113 123h1M18 124h3M82 124h3M113 124h4M19 125h1M83 125h1M116 125h1M11 164h1M21 164h1M75 164h1M85 164h1M9 165h2M22 165h2M43 165h1M73 165h2M86 165h2M117 165h1M9 166h1M23 166h1M73 166h1M87 166h1M53 167h2M106 167h2M12 168h2M19 168h2M76 168h2M83 168h2M12 169h9M45 169h2M76 169h9M114 169h2M12 170h1M14 170h5M20 170h1M44 170h5M76 170h1M78 170h5M84 170h1M112 170h5M13 171h1M15 171h1M17 171h1M19 171h1M77 171h1M79 171h1M81 171h1M83 171h1M14 172h1M16 172h1M18 172h1M46 172h3M78 172h1M80 172h1M82 172h1M112 172h3" />
<path stroke="#7c513f" d="M13 20h1M19 20h1M77 20h1M83 20h1M45 21h1M51 21h1M109 21h1M115 21h1M5 28h1M27 28h1M38 28h1M69 28h1M91 28h1M122 28h1M5 29h1M27 29h1M39 29h2M69 29h1M91 29h1M120 29h2M6 30h2M25 30h2M70 30h2M89 30h2M54 31h1M57 31h1M103 31h1M106 31h1M54 32h3M104 32h3M9 66h1M73 66h1M10 67h1M41 67h1M74 67h1M105 67h1M15 68h1M42 68h1M79 68h1M106 68h1M47 69h1M111 69h1M16 77h1M80 77h1M16 78h1M20 78h1M46 78h1M80 78h1M84 78h1M20 79h1M46 79h1M84 79h1M119 79h1M19 80h2M46 80h1M50 80h1M83 80h2M119 80h1M47 81h3M22 114h1M86 114h1M21 115h1M54 115h1M85 115h1M118 115h1M16 116h1M53 116h1M80 116h1M117 116h1M48 117h1M112 117h1M15 125h1M79 125h1M11 126h1M15 126h1M49 126h1M75 126h1M79 126h1M11 127h1M49 127h1M75 127h1M104 127h1M11 128h2M45 128h1M49 128h1M75 128h2M104 128h1M46 129h3M38 172h1M122 172h1M5 173h1M27 173h1M39 173h3M69 173h1M91 173h1M119 173h3M6 174h2M25 174h2M54 174h1M58 174h1M70 174h2M89 174h2M102 174h1M106 174h1M55 175h3M103 175h3" />
<path stroke="#000000" d="M42 20h1M54 20h1M106 20h1M118 20h1M14 21h1M18 21h1M41 21h1M52 21h1M55 21h1M78 21h1M82 21h1M105 21h1M108 21h1M119 21h1M7 22h1M25 22h1M40 22h2M45 22h2M50 22h1M71 22h1M89 22h1M110 22h1M114 22h2M119 22h2M8 23h1M11 23h1M21 23h1M24 23h1M40 23h3M46 23h6M56 23h1M72 23h1M75 23h1M85 23h1M88 23h1M104 23h1M109 23h6M118 23h3M9 24h2M22 24h2M41 24h2M51 24h1M56 24h1M73 24h2M86 24h2M104 24h1M109 24h1M118 24h2M10 25h1M22 25h1M42 25h1M52 25h4M74 25h1M86 25h1M105 25h4M118 25h1M10 26h1M22 26h1M42 26h1M52 26h1M74 26h1M86 26h1M108 26h1M118 26h1M10 27h1M22 27h1M42 27h1M52 27h1M74 27h1M86 27h1M108 27h1M118 27h1M10 28h1M22 28h1M52 28h1M74 28h1M86 28h1M108 28h1M11 29h3M19 29h3M42 29h1M52 29h2M75 29h3M83 29h3M107 29h2M118 29h1M13 30h7M43 30h9M77 30h7M109 30h9M19 68h1M83 68h1M12 69h2M51 69h1M76 69h2M115 69h1M11 70h2M20 70h1M44 70h2M75 70h2M84 70h1M107 70h4M116 70h1M11 71h1M19 71h1M43 71h2M52 71h1M75 71h1M83 71h1M107 71h3M43 72h1M106 72h1M117 72h1M47 73h1M116 73h2M53 75h1M113 75h1M113 76h1M53 78h1M107 78h1M114 78h1M44 79h1M52 79h2M108 79h6M45 80h1M51 80h1M12 116h1M76 116h1M18 117h2M44 117h1M82 117h2M108 117h1M11 118h1M19 118h2M50 118h2M75 118h1M83 118h2M107 118h1M113 118h4M12 119h1M20 119h1M43 119h1M51 119h2M76 119h1M84 119h1M114 119h3M52 120h1M106 120h1M117 120h1M48 121h1M106 121h2M42 123h1M110 123h1M110 124h1M42 126h1M109 126h1M116 126h1M42 127h2M51 127h1M110 127h6M44 128h1M50 128h1M9 163h1M23 163h1M73 163h1M87 163h1M8 164h1M24 164h1M41 164h1M72 164h1M88 164h1M119 164h1M7 165h1M25 165h1M54 165h1M71 165h1M89 165h1M106 165h1M7 166h1M25 166h1M55 166h1M71 166h1M89 166h1M105 166h1M8 167h1M11 167h1M21 167h1M24 167h1M42 167h1M51 167h1M72 167h1M75 167h1M85 167h1M88 167h1M109 167h1M118 167h1M9 168h2M22 168h2M42 168h1M51 168h1M55 168h1M73 168h2M86 168h2M105 168h1M109 168h1M118 168h1M10 169h1M22 169h1M43 169h1M51 169h1M74 169h1M86 169h1M109 169h1M117 169h1M10 170h1M22 170h1M43 170h1M74 170h1M86 170h1M117 170h1M10 171h1M22 171h1M43 171h1M74 171h1M86 171h1M117 171h1M10 172h1M22 172h1M43 172h1M74 172h1M86 172h1M117 172h1M42 173h2M117 173h2M13 174h1M19 174h1M77 174h1M83 174h1" />
<path stroke="#3ea8a7" d="M15 23h1M17 23h1M79 23h1M81 23h1M47 24h1M49 24h1M111 24h1M113 24h1M15 25h1M17 25h1M79 25h1M81 25h1M47 26h1M49 26h1M111 26h1M113 26h1M11 72h1M13 72h1M75 72h1M77 72h1M43 73h1M45 73h1M107 73h1M109 73h1M11 74h1M13 74h1M75 74h1M77 74h1M43 75h1M45 75h1M107 75h1M109 75h1M18 120h1M20 120h1M82 120h1M84 120h1M50 121h1M52 121h1M114 121h1M116 121h1M18 122h1M20 122h1M82 122h1M84 122h1M50 123h1M52 123h1M114 123h1M116 123h1" />
<path stroke="#92d6d5" d="M16 23h1M80 23h1M15 24h1M17 24h1M48 24h1M79 24h1M81 24h1M112 24h1M16 25h1M47 25h1M49 25h1M80 25h1M111 25h1M113 25h1M48 26h1M112 26h1M12 72h1M76 72h1M11 73h1M13 73h1M44 73h1M75 73h1M77 73h1M108 73h1M12 74h1M43 74h1M45 74h1M76 74h1M107 74h1M109 74h1M44 75h1M108 75h1M19 120h1M83 120h1M18 121h1M20 121h1M51 121h1M82 121h1M84 121h1M115 121h1M19 122h1M50 122h1M52 122h1M83 122h1M114 122h1M116 122h1M51 123h1M115 123h1" />
<path stroke="#656565" d="M71 23h1M89 23h1M7 24h1M25 24h1M39 24h1M71 24h1M89 24h1M121 24h1M6 25h1M26 25h1M39 25h1M56 25h1M70 25h1M90 25h1M104 25h1M121 25h1M6 26h1M26 26h1M38 26h1M53 26h1M56 26h1M70 26h1M90 26h1M104 26h1M107 26h1M122 26h1M5 27h1M9 27h1M23 27h1M27 27h1M38 27h1M41 27h1M53 27h1M57 27h1M69 27h1M73 27h1M87 27h1M91 27h1M103 27h1M107 27h1M119 27h1M122 27h1M9 28h1M23 28h1M40 28h2M53 28h1M57 28h1M73 28h1M87 28h1M103 28h1M107 28h1M119 28h2M8 29h1M24 29h1M54 29h1M57 29h1M72 29h1M88 29h1M103 29h1M106 29h1M54 30h1M57 30h1M103 30h1M106 30h1M21 73h1M85 73h1M21 74h1M47 74h1M85 74h1M118 74h1M17 75h1M21 75h1M47 75h1M81 75h1M85 75h1M114 75h1M118 75h1M17 76h1M21 76h1M47 76h1M51 76h1M81 76h1M85 76h1M114 76h1M118 76h1M21 77h1M47 77h1M51 77h1M85 77h1M114 77h1M119 77h1M51 78h1M115 78h1M119 78h1M50 79h1M115 79h1M10 121h1M74 121h1M10 122h1M48 122h1M74 122h1M105 122h1M10 123h1M14 123h1M48 123h1M74 123h1M78 123h1M105 123h1M109 123h1M10 124h1M14 124h1M44 124h1M48 124h1M74 124h1M78 124h1M105 124h1M109 124h1M10 125h1M44 125h1M48 125h1M74 125h1M104 125h1M109 125h1M44 126h1M104 126h1M108 126h1M45 127h1M108 127h1M105 165h1M41 166h1M119 166h1M40 167h2M71 167h1M89 167h1M104 167h1M119 167h2M7 168h1M25 168h1M40 168h1M56 168h1M71 168h1M89 168h1M104 168h1M120 168h1M6 169h1M26 169h1M39 169h1M52 169h1M56 169h1M70 169h1M90 169h1M104 169h1M108 169h1M121 169h1M6 170h1M26 170h1M39 170h1M42 170h1M53 170h1M56 170h2M70 170h1M90 170h1M103 170h2M107 170h1M118 170h1M121 170h1M5 171h1M9 171h1M23 171h1M27 171h1M38 171h2M42 171h1M53 171h1M57 171h1M69 171h1M73 171h1M87 171h1M91 171h1M103 171h1M107 171h1M118 171h1M121 171h2M5 172h1M9 172h1M23 172h1M27 172h1M41 172h2M58 172h1M69 172h1M73 172h1M87 172h1M91 172h1M102 172h1M118 172h2M8 173h1M24 173h1M54 173h1M58 173h1M72 173h1M88 173h1M102 173h1M106 173h1" />
<path stroke="#adadad" d="M8 24h1M24 24h1M72 24h1M88 24h1M8 25h1M24 25h1M72 25h1M88 25h1M8 26h1M24 26h1M54 26h2M72 26h1M88 26h1M105 26h2M55 27h1M105 27h1M55 28h1M105 28h1M55 29h2M104 29h2M18 73h2M82 73h2M18 74h2M49 74h2M82 74h2M115 74h2M18 75h2M49 75h2M82 75h2M115 75h2M18 76h2M49 76h2M82 76h2M116 76h2M48 77h2M116 77h2M48 78h2M116 78h2M12 121h2M76 121h2M12 122h2M45 122h2M76 122h2M107 122h2M12 123h2M45 123h2M76 123h2M107 123h2M12 124h2M45 124h2M76 124h2M106 124h2M46 125h2M106 125h2M46 126h2M106 126h2M8 168h1M24 168h1M72 168h1M88 168h1M8 169h1M24 169h1M54 169h1M72 169h1M88 169h1M106 169h1M8 170h1M24 170h1M54 170h2M72 170h1M88 170h1M105 170h2M7 171h1M25 171h1M55 171h1M71 171h1M89 171h1M105 171h1M7 172h1M25 172h1M55 172h2M71 172h1M89 172h1M104 172h2" />
<path stroke="#d1efef" d="M16 24h1M80 24h1M48 25h1M112 25h1M12 73h1M76 73h1M44 74h1M108 74h1M19 121h1M83 121h1M51 122h1M115 122h1" />
<path stroke="#767676" d="M40 24h1M120 24h1M7 25h1M25 25h1M71 25h1M89 25h1M9 26h1M23 26h1M39 26h1M41 26h1M73 26h1M87 26h1M119 26h1M121 26h1M6 27h1M26 27h1M39 27h1M56 27h1M70 27h1M90 27h1M104 27h1M121 27h1M6 28h3M24 28h3M54 28h1M70 28h3M88 28h3M106 28h1M55 30h2M104 30h2M20 73h1M84 73h1M17 74h1M48 74h1M81 74h1M117 74h1M48 75h1M17 77h4M81 77h4M115 77h1M47 78h1M50 78h1M118 78h1M48 79h2M116 79h2M11 121h1M75 121h1M14 122h1M47 122h1M78 122h1M106 122h1M47 123h1M11 125h4M75 125h4M108 125h1M45 126h1M48 126h1M105 126h1M46 127h2M106 127h2M41 168h1M119 168h1M7 169h1M25 169h1M40 169h1M42 169h1M53 169h1M71 169h1M89 169h1M107 169h1M118 169h1M120 169h1M9 170h1M23 170h1M73 170h1M87 170h1M40 171h2M56 171h1M104 171h1M119 171h2M6 172h1M8 172h1M24 172h1M26 172h1M54 172h1M57 172h1M70 172h1M72 172h1M88 172h1M90 172h1M103 172h1M106 172h1M7 173h1M25 173h1M55 173h3M71 173h1M89 173h1M103 173h3" />
<path stroke="#909090" d="M9 25h1M23 25h1M40 25h2M73 25h1M87 25h1M119 25h2M7 26h1M25 26h1M40 26h1M71 26h1M89 26h1M120 26h1M7 27h2M24 27h2M40 27h1M54 27h1M71 27h2M88 27h2M106 27h1M120 27h1M56 28h1M104 28h1M43 33h1M117 33h1M20 74h1M51 74h1M84 74h1M20 75h1M51 75h1M84 75h1M117 75h1M20 76h1M48 76h1M84 76h1M115 76h1M50 77h1M118 77h1M11 122h1M44 122h1M75 122h1M11 123h1M44 123h1M75 123h1M106 123h1M11 124h1M47 124h1M75 124h1M108 124h1M45 125h1M105 125h1M9 169h1M23 169h1M41 169h1M55 169h1M73 169h1M87 169h1M105 169h1M119 169h1M7 170h1M25 170h1M40 170h2M71 170h1M89 170h1M119 170h2M6 171h1M8 171h1M24 171h1M26 171h1M54 171h1M70 171h1M72 171h1M88 171h1M90 171h1M106 171h1" />
<path stroke="#2b2c35" d="M10 29h1M22 29h1M74 29h1M86 29h1M10 30h1M22 30h1M42 30h1M53 30h1M74 30h1M86 30h1M118 30h1M10 31h2M15 31h1M17 31h1M21 31h2M42 31h1M44 31h1M48 31h1M50 31h1M74 31h2M79 31h1M81 31h1M85 31h2M110 31h1M112 31h1M116 31h1M118 31h1M14 32h5M42 32h1M44 32h1M48 32h1M50 32h1M53 32h1M78 32h5M107 32h1M110 32h1M112 32h1M116 32h1M118 32h1M15 33h3M48 33h1M50 33h2M54 33h1M79 33h3M106 33h1M109 33h2M112 33h1M10 34h1M16 34h1M22 34h1M42 34h1M49 34h2M54 34h1M74 34h1M80 34h1M86 34h1M106 34h1M110 34h2M118 34h1M10 35h1M22 35h1M42 35h1M49 35h3M53 35h2M74 35h1M86 35h1M106 35h2M109 35h3M118 35h1M10 36h1M16 36h1M22 36h1M42 36h1M49 36h1M54 36h1M74 36h1M80 36h1M86 36h1M106 36h1M111 36h1M118 36h1M10 37h1M16 37h1M22 37h1M49 37h3M54 37h1M74 37h1M80 37h1M86 37h1M106 37h1M109 37h3M10 38h1M15 38h3M22 38h1M49 38h1M53 38h2M74 38h1M79 38h3M86 38h1M106 38h2M111 38h1M10 39h1M16 39h1M22 39h1M49 39h5M74 39h1M80 39h1M86 39h1M107 39h5M10 40h1M16 40h1M22 40h1M48 40h2M74 40h1M80 40h1M86 40h1M111 40h2M10 41h1M15 41h1M17 41h1M22 41h1M49 41h1M74 41h1M79 41h1M81 41h1M86 41h1M111 41h1M11 42h4M18 42h4M43 42h1M48 42h1M75 42h4M82 42h4M112 42h1M117 42h1M44 43h4M113 43h4M21 78h1M85 78h1M11 79h1M21 79h1M43 79h1M54 79h1M75 79h1M85 79h1M11 80h1M13 80h1M21 80h1M43 80h1M54 80h1M75 80h1M77 80h1M85 80h1M12 81h2M21 81h1M54 81h1M76 81h2M85 81h1M107 81h1M115 81h1M119 81h1M12 82h3M19 82h3M45 82h1M55 82h1M76 82h3M83 82h3M107 82h1M115 82h1M119 82h1M13 83h2M21 83h1M44 83h1M46 83h2M55 83h1M77 83h2M85 83h1M107 83h1M115 83h1M119 83h1M13 84h2M21 84h1M43 84h3M48 84h1M55 84h1M77 84h2M85 84h1M107 84h1M115 84h1M120 84h1M13 85h3M21 85h1M43 85h4M49 85h1M56 85h1M77 85h3M85 85h1M107 85h1M114 85h1M121 85h1M13 86h3M21 86h1M42 86h6M49 86h1M56 86h1M77 86h3M85 86h1M107 86h1M114 86h1M12 87h4M21 87h1M42 87h4M47 87h1M50 87h1M57 87h1M76 87h4M85 87h1M107 87h1M114 87h1M11 88h4M21 88h1M41 88h5M50 88h1M57 88h1M75 88h4M85 88h1M11 89h4M20 89h2M41 89h4M51 89h1M56 89h2M75 89h4M84 89h2M113 89h1M11 90h4M21 90h1M51 90h1M54 90h3M75 90h4M85 90h1M113 90h1M18 91h3M82 91h3M110 91h3M16 93h1M52 93h1M80 93h1M108 93h1M10 126h1M74 126h1M10 127h1M20 127h1M41 127h1M52 127h1M74 127h1M84 127h1M10 128h1M18 128h1M20 128h1M41 128h1M52 128h1M74 128h1M82 128h1M84 128h1M10 129h1M18 129h2M41 129h1M74 129h1M82 129h2M104 129h1M108 129h1M116 129h1M10 130h3M17 130h3M40 130h1M50 130h1M74 130h3M81 130h3M104 130h1M108 130h1M116 130h1M10 131h1M17 131h2M40 131h1M48 131h2M51 131h1M74 131h1M81 131h2M104 131h1M108 131h1M116 131h1M10 132h1M17 132h2M40 132h1M47 132h1M50 132h3M74 132h1M81 132h2M103 132h1M108 132h1M116 132h1M10 133h1M16 133h3M39 133h1M46 133h1M49 133h4M74 133h1M80 133h3M102 133h1M109 133h1M116 133h1M10 134h1M16 134h3M39 134h1M46 134h1M48 134h6M74 134h1M80 134h3M109 134h1M116 134h1M10 135h1M16 135h4M38 135h1M45 135h1M48 135h1M50 135h4M74 135h1M80 135h4M109 135h1M116 135h1M10 136h1M17 136h4M38 136h1M45 136h1M50 136h5M74 136h1M81 136h4M10 137h2M17 137h4M38 137h2M44 137h1M51 137h4M74 137h2M81 137h4M110 137h1M10 138h1M17 138h4M39 138h3M44 138h1M74 138h1M81 138h4M110 138h1M11 139h3M75 139h3M111 139h3M15 141h1M43 141h1M79 141h1M115 141h1M45 171h4M112 171h4M53 172h1M107 172h1M10 173h1M22 173h1M74 173h1M86 173h1M10 174h1M22 174h1M42 174h1M74 174h1M86 174h1M118 174h1M10 175h1M16 175h1M22 175h1M42 175h1M48 175h1M54 175h1M74 175h1M80 175h1M86 175h1M106 175h1M112 175h1M118 175h1M10 176h1M22 176h1M42 176h1M49 176h1M54 176h1M74 176h1M86 176h1M106 176h1M111 176h1M118 176h1M10 177h1M14 177h5M22 177h1M42 177h1M49 177h1M54 177h1M74 177h1M78 177h5M86 177h1M106 177h1M111 177h1M118 177h1M10 178h1M16 178h1M22 178h1M42 178h1M47 178h4M54 178h1M74 178h1M80 178h1M86 178h1M106 178h1M110 178h4M118 178h1M10 179h1M16 179h1M22 179h1M42 179h1M48 179h2M54 179h1M74 179h1M80 179h1M86 179h1M106 179h1M111 179h2M118 179h1M10 180h1M16 180h1M22 180h1M42 180h1M49 180h1M53 180h2M74 180h1M80 180h1M86 180h1M106 180h2M111 180h1M118 180h1M10 181h1M16 181h1M22 181h1M42 181h1M49 181h1M53 181h2M74 181h1M80 181h1M86 181h1M106 181h2M111 181h1M118 181h1M10 182h1M15 182h3M22 182h1M42 182h1M48 182h3M53 182h2M74 182h1M79 182h3M86 182h1M106 182h2M110 182h3M118 182h1M10 183h1M16 183h1M22 183h1M42 183h1M48 183h6M74 183h1M80 183h1M86 183h1M107 183h6M118 183h1M10 184h1M16 184h1M22 184h1M42 184h1M48 184h2M74 184h1M80 184h1M86 184h1M111 184h2M118 184h1M10 185h1M22 185h1M42 185h1M49 185h1M74 185h1M86 185h1M111 185h1M118 185h1M11 186h4M18 186h4M49 186h1M75 186h4M82 186h4M111 186h1" />
<path stroke="#353749" d="M11 30h1M21 30h1M75 30h1M85 30h1M13 31h2M16 31h1M19 31h1M43 31h1M46 31h2M49 31h1M51 31h1M53 31h1M77 31h2M80 31h1M83 31h1M107 31h1M109 31h1M111 31h1M113 31h2M117 31h1M12 32h2M19 32h2M43 32h1M49 32h1M51 32h1M76 32h2M83 32h2M109 32h1M111 32h1M117 32h1M10 33h1M14 33h1M18 33h1M22 33h1M45 33h1M47 33h1M49 33h1M52 33h1M74 33h1M78 33h1M82 33h1M86 33h1M108 33h1M111 33h1M113 33h1M115 33h1M43 34h2M48 34h1M51 34h3M107 34h3M112 34h1M116 34h2M14 35h5M43 35h1M47 35h2M52 35h1M78 35h5M108 35h1M112 35h2M117 35h1M43 36h1M50 36h4M107 36h4M117 36h1M15 37h1M17 37h1M43 37h1M52 37h2M79 37h1M81 37h1M107 37h2M117 37h1M11 38h2M14 38h1M18 38h1M20 38h2M43 38h1M48 38h1M50 38h1M75 38h2M78 38h1M82 38h1M84 38h2M110 38h1M112 38h1M117 38h1M43 39h2M48 39h1M112 39h1M116 39h2M12 40h4M17 40h4M43 40h2M47 40h1M76 40h4M81 40h4M113 40h1M116 40h2M14 41h1M18 41h1M45 41h4M78 41h1M82 41h1M112 41h4M114 79h1M12 80h1M14 80h3M44 80h1M52 80h2M76 80h1M78 80h3M108 80h2M111 80h4M14 81h7M43 81h4M50 81h4M78 81h7M108 81h2M111 81h4M18 82h1M43 82h2M46 82h9M82 82h1M109 82h2M113 82h2M116 82h3M15 83h1M19 83h2M43 83h1M45 83h1M51 83h1M53 83h2M79 83h1M83 83h2M110 83h5M116 83h3M19 84h2M42 84h1M46 84h2M53 84h2M83 84h2M108 84h1M112 84h3M116 84h4M20 85h1M42 85h1M47 85h1M55 85h1M84 85h1M108 85h2M111 85h3M115 85h6M19 86h2M53 86h3M83 86h2M113 86h1M116 86h6M16 87h1M19 87h2M46 87h1M53 87h1M55 87h2M80 87h1M83 87h2M113 87h1M117 87h2M15 88h2M19 88h2M46 88h1M51 88h2M54 88h3M79 88h2M83 88h2M107 88h1M110 88h4M18 89h2M45 89h1M82 89h2M107 89h4M112 89h1M15 90h1M19 90h2M79 90h1M83 90h2M107 90h6M109 127h1M15 128h3M19 128h1M42 128h2M51 128h1M79 128h3M83 128h1M109 128h4M114 128h2M11 129h7M42 129h4M49 129h4M75 129h7M109 129h4M114 129h2M13 130h1M41 130h9M51 130h2M77 130h1M105 130h3M109 130h2M113 130h2M11 131h2M16 131h1M41 131h2M44 131h1M50 131h1M52 131h1M75 131h2M80 131h1M105 131h3M109 131h5M11 132h2M41 132h2M48 132h2M53 132h1M75 132h2M104 132h4M109 132h3M115 132h1M11 133h1M40 133h1M48 133h1M53 133h1M75 133h1M103 133h6M110 133h6M11 134h2M40 134h3M75 134h2M102 134h6M110 134h1M11 135h2M15 135h1M39 135h2M42 135h1M49 135h1M75 135h2M79 135h1M105 135h2M110 135h1M11 136h2M15 136h2M39 136h3M43 136h2M49 136h1M75 136h2M79 136h2M110 136h4M116 136h1M12 137h2M50 137h1M76 137h2M111 137h1M113 137h4M11 138h2M16 138h1M75 138h2M80 138h1M111 138h6M46 175h2M49 175h5M107 175h5M113 175h2M11 176h1M16 176h1M21 176h1M48 176h1M50 176h1M75 176h1M80 176h1M85 176h1M110 176h1M112 176h1M13 177h1M19 177h1M48 177h1M50 177h1M53 177h1M77 177h1M83 177h1M107 177h1M110 177h1M112 177h1M43 178h1M46 178h1M51 178h1M109 178h1M114 178h1M117 178h1M14 179h2M17 179h2M43 179h1M47 179h1M50 179h4M78 179h2M81 179h2M107 179h4M113 179h1M117 179h1M43 180h1M50 180h3M108 180h3M117 180h1M15 181h1M17 181h1M43 181h1M48 181h1M50 181h3M79 181h1M81 181h1M108 181h3M112 181h1M117 181h1M11 182h2M14 182h1M18 182h1M20 182h2M43 182h1M47 182h1M51 182h2M75 182h2M78 182h1M82 182h1M84 182h2M108 182h2M113 182h1M117 182h1M43 183h1M117 183h1M11 184h1M14 184h1M18 184h1M21 184h1M43 184h1M75 184h1M78 184h1M82 184h1M85 184h1M117 184h1M11 185h1M21 185h1M43 185h2M75 185h1M85 185h1M116 185h2" />
<path stroke="#5d64a7" d="M12 30h1M20 30h1M52 30h1M76 30h1M84 30h1M108 30h1M12 31h1M20 31h1M45 31h1M52 31h1M76 31h1M84 31h1M108 31h1M115 31h1M10 32h2M21 32h2M45 32h1M74 32h2M85 32h2M115 32h1M42 33h1M44 33h1M116 33h1M118 33h1M12 34h2M19 34h2M45 34h2M76 34h2M83 34h2M114 34h2M12 36h2M19 36h2M45 36h3M76 36h2M83 36h2M113 36h3M43 41h1M117 41h1M44 42h4M113 42h4M16 82h2M80 82h2M52 83h1M16 84h2M50 84h2M80 84h2M53 85h1M16 86h3M51 86h2M80 86h3M109 86h3M55 89h1M52 90h2M14 130h2M78 130h2M43 131h1M14 132h2M44 132h2M78 132h2M42 133h1M13 134h3M43 134h2M77 134h3M112 134h3M40 137h1M42 138h2M11 174h2M20 174h2M43 174h1M52 174h2M75 174h2M84 174h2M107 174h2M117 174h1M43 175h3M115 175h3M45 181h1M115 181h1M45 182h2M114 182h2M45 183h1M115 183h1M44 184h3M114 184h3" />
<path stroke="#4a4d6c" d="M107 30h1M18 31h1M82 31h1M46 32h2M52 32h1M108 32h1M113 32h2M12 33h2M19 33h2M46 33h1M53 33h1M76 33h2M83 33h2M107 33h1M114 33h1M11 34h1M21 34h1M47 34h1M75 34h1M85 34h1M113 34h1M13 35h1M19 35h1M45 35h2M77 35h1M83 35h1M114 35h2M11 36h1M21 36h1M44 36h1M75 36h1M85 36h1M116 36h1M13 37h2M18 37h2M44 37h4M77 37h2M82 37h2M113 37h4M13 38h1M19 38h1M45 38h3M51 38h2M77 38h1M83 38h1M108 38h2M113 38h3M11 39h5M17 39h5M45 39h3M75 39h5M81 39h5M113 39h3M11 40h1M21 40h1M45 40h2M75 40h1M85 40h1M114 40h2M12 41h2M19 41h2M44 41h1M76 41h2M83 41h2M116 41h1M15 82h1M79 82h1M16 83h3M48 83h3M80 83h3M15 84h1M18 84h1M49 84h1M52 84h1M79 84h1M82 84h1M16 85h4M50 85h3M54 85h1M80 85h4M110 85h1M50 86h1M108 86h1M112 86h1M17 87h2M51 87h2M54 87h1M81 87h2M108 87h5M17 88h2M53 88h1M81 88h2M108 88h2M15 89h3M52 89h3M79 89h3M111 89h1M16 90h3M80 90h3M16 130h1M80 130h1M13 131h3M45 131h3M77 131h3M13 132h1M16 132h1M43 132h1M46 132h1M77 132h1M80 132h1M12 133h4M41 133h1M43 133h3M76 133h4M45 134h1M111 134h1M115 134h1M13 135h2M41 135h1M43 135h2M77 135h2M111 135h5M13 136h2M42 136h1M77 136h2M114 136h2M14 137h3M41 137h3M78 137h3M112 137h1M13 138h3M77 138h3M53 173h1M107 173h1M12 175h4M17 175h4M76 175h4M81 175h4M13 176h3M17 176h3M44 176h4M51 176h2M77 176h3M81 176h3M108 176h2M113 176h4M43 177h5M51 177h2M108 177h2M113 177h5M11 178h3M19 178h3M75 178h3M83 178h3M12 179h2M19 179h2M45 179h2M76 179h2M83 179h2M114 179h2M11 180h3M19 180h3M44 180h1M46 180h1M75 180h3M83 180h3M114 180h1M116 180h1M13 181h2M18 181h2M47 181h1M77 181h2M82 181h2M113 181h1M13 182h1M19 182h1M44 182h1M77 182h1M83 182h1M116 182h1M11 183h4M18 183h4M47 183h1M75 183h4M82 183h4M113 183h1M12 184h2M19 184h2M76 184h2M83 184h2" />
<path stroke="#595e89" d="M11 33h1M21 33h1M75 33h1M85 33h1M14 34h2M17 34h2M78 34h2M81 34h2M11 35h2M20 35h2M44 35h1M75 35h2M84 35h2M116 35h1M14 36h2M17 36h2M48 36h1M78 36h2M81 36h2M112 36h1M11 37h1M21 37h1M48 37h1M75 37h1M85 37h1M112 37h1M44 38h1M116 38h1M11 175h1M21 175h1M75 175h1M85 175h1M12 176h1M20 176h1M43 176h1M53 176h1M76 176h1M84 176h1M107 176h1M117 176h1M11 177h2M20 177h2M75 177h2M84 177h2M14 178h2M17 178h2M44 178h2M52 178h2M78 178h2M81 178h2M107 178h2M115 178h2M11 179h1M21 179h1M44 179h1M75 179h1M85 179h1M116 179h1M14 180h2M17 180h2M47 180h2M78 180h2M81 180h2M112 180h2M11 181h1M21 181h1M44 181h1M75 181h1M85 181h1M116 181h1" />
<path stroke="#40425a" d="M12 37h1M20 37h1M76 37h1M84 37h1M11 41h1M21 41h1M75 41h1M85 41h1M12 181h1M20 181h1M76 181h1M84 181h1M15 183h1M17 183h1M79 183h1M81 183h1M15 184h1M17 184h1M79 184h1M81 184h1M12 185h4M17 185h4M45 185h4M76 185h4M81 185h4M112 185h4" />
<path stroke="#131313" d="M54 39h1M106 39h1M54 40h1M106 40h1M16 41h1M50 41h4M80 41h1M107 41h4M16 42h1M49 42h4M80 42h1M108 42h4M16 43h1M49 43h1M80 43h1M111 43h1M10 44h1M15 44h1M17 44h1M22 44h1M49 44h1M74 44h1M79 44h1M81 44h1M86 44h1M111 44h1M11 45h4M18 45h4M43 45h1M48 45h1M75 45h4M82 45h4M112 45h1M117 45h1M44 46h4M113 46h4M116 88h1M119 89h3M57 90h1M21 91h1M56 91h1M85 91h1M113 91h1M20 92h2M56 92h1M84 92h2M112 92h2M15 93h1M17 93h3M51 93h1M53 93h3M79 93h1M81 93h3M107 93h1M109 93h3M107 136h1M102 137h3M38 138h1M10 139h1M39 139h1M74 139h1M110 139h1M10 140h2M39 140h1M74 140h2M110 140h2M12 141h3M16 141h1M40 141h3M44 141h1M76 141h3M80 141h1M112 141h3M116 141h1M54 184h1M106 184h1M16 185h1M50 185h4M80 185h1M107 185h4M16 186h1M80 186h1M16 187h1M49 187h1M80 187h1M111 187h1M10 188h1M15 188h1M17 188h1M22 188h1M49 188h1M74 188h1M79 188h1M81 188h1M86 188h1M111 188h1M11 189h4M18 189h4M43 189h6M75 189h4M82 189h4M112 189h6" />
<path stroke="#373737" d="M50 40h3M108 40h3M12 43h2M19 43h2M43 43h1M48 43h1M76 43h2M83 43h2M112 43h1M117 43h1M119 87h3M117 88h5M40 89h1M116 89h3M40 90h5M14 91h1M16 91h2M50 91h1M52 91h4M78 91h1M80 91h2M106 91h1M108 91h2M14 92h1M50 92h1M78 92h1M106 92h1M111 92h1M102 135h3M102 136h5M55 137h1M105 137h3M51 138h5M14 139h2M17 139h1M40 139h4M45 139h1M78 139h2M81 139h1M114 139h2M117 139h1M17 140h1M45 140h1M81 140h1M112 140h1M117 140h1M54 183h1M106 183h1M50 184h4M107 184h4M10 186h1M15 186h1M17 186h1M22 186h1M43 186h1M48 186h1M74 186h1M79 186h1M81 186h1M86 186h1M112 186h1M117 186h1M10 187h1M12 187h2M15 187h1M17 187h1M19 187h2M22 187h1M43 187h1M45 187h2M74 187h1M76 187h2M79 187h1M81 187h1M83 187h2M86 187h1M114 187h2M117 187h1M43 188h6M112 188h6" />
<path stroke="#262626" d="M53 40h1M107 40h1M10 42h1M15 42h1M17 42h1M22 42h1M74 42h1M79 42h1M81 42h1M86 42h1M11 43h1M14 43h1M18 43h1M21 43h1M75 43h1M78 43h1M82 43h1M85 43h1M43 44h1M48 44h1M112 44h1M117 44h1M44 45h1M47 45h1M113 45h1M116 45h1M15 91h1M51 91h1M79 91h1M107 91h1M17 92h3M51 92h1M54 92h2M81 92h3M109 92h2M16 139h1M44 139h1M80 139h1M116 139h1M12 140h3M40 140h2M44 140h1M76 140h3M113 140h2M44 186h1M116 186h1M11 187h1M14 187h1M18 187h1M21 187h1M44 187h1M47 187h1M75 187h1M78 187h1M82 187h1M85 187h1M113 187h1M116 187h1" />
<path stroke="#484848" d="M10 43h1M15 43h1M17 43h1M22 43h1M74 43h1M79 43h1M81 43h1M86 43h1M11 44h4M18 44h4M44 44h4M75 44h4M82 44h4M113 44h4M45 45h2M114 45h2M15 92h2M52 92h2M79 92h2M107 92h2M15 140h2M42 140h2M79 140h2M115 140h2M45 186h3M113 186h3M48 187h1M112 187h1M11 188h4M18 188h4M75 188h4M82 188h4" />
<path stroke="#5c4766" d="M11 68h2M75 68h2M43 69h2M107 69h2M105 73h2M105 74h2M105 75h2M104 76h3M104 77h3M104 78h3M105 79h2M19 116h2M83 116h2M51 117h2M115 117h2M117 121h2M117 122h2M117 123h2M117 124h3M117 125h3M117 126h3M117 127h2" />
<path stroke="#505584" d="M110 80h1M110 81h1M108 82h1M111 82h2M108 83h2M109 84h3M113 128h1M113 129h1M111 130h2M115 130h1M114 131h2M112 132h3" />
<path stroke="#2c3052" d="M45 180h1M115 180h1M46 181h1M114 181h1M44 183h1M46 183h1M114 183h1M116 183h1M47 184h1M113 184h1" />
</svg>