<svg xmlns="http://www.w3.org/2000/svg" viewBox="0 -0.5 128 192" shape-rendering="crispEdges">
<metadata>Made with Pixels to Svg https://codepen.io/shshaw/pen/XbxvNj</metadata>
<path stroke="#928050" d="M14 0h5M78 0h5M12 1h2M19 1h2M46 1h5M76 1h2M83 1h2M110 1h5M10 2h2M21 2h2M44 2h2M51 2h2M74 2h2M85 2h2M108 2h2M115 2h2M9 3h1M23 3h1M42 3h2M53 3h2M73 3h1M87 3h1M106 3h2M117 3h2M41 4h1M55 4h1M105 4h1M119 4h1M8 5h1M18 5h2M24 5h1M72 5h1M82 5h2M88 5h1M40 6h1M50 6h2M56 6h1M104 6h1M114 6h2M120 6h1M8 8h1M23 8h1M72 8h1M87 8h1M40 9h1M55 9h1M104 9h1M119 9h1M13 10h2M18 10h2M77 10h2M82 10h2M45 11h2M50 11h2M109 11h2M114 11h2M9 14h1M23 14h1M73 14h1M87 14h1M10 15h1M22 15h1M41 15h1M55 15h1M74 15h1M86 15h1M105 15h1M119 15h1M9 16h1M23 16h1M42 16h1M54 16h1M57 16h1M73 16h1M75 16h1M87 16h1M103 16h1M106 16h1M118 16h1M9 17h1M11 17h1M21 17h1M23 17h1M41 17h1M55 17h1M57 17h1M73 17h1M75 17h1M85 17h1M87 17h1M103 17h1M105 17h1M119 17h1M10 18h1M14 18h1M18 18h1M22 18h1M41 18h1M43 18h1M53 18h1M55 18h1M57 18h1M74 18h1M78 18h1M82 18h1M86 18h1M103 18h1M105 18h1M107 18h1M117 18h1M119 18h1M11 19h1M21 19h1M42 19h1M46 19h1M50 19h1M54 19h1M75 19h1M85 19h1M106 19h1M110 19h1M114 19h1M118 19h1M43 20h1M53 20h1M107 20h1M117 20h1M14 48h1M78 48h1M10 49h4M18 49h1M46 49h1M74 49h4M82 49h1M110 49h1M8 50h2M20 50h1M42 50h4M50 50h1M72 50h2M84 50h1M106 50h4M114 50h1M7 51h1M21 51h1M40 51h2M52 51h1M71 51h1M85 51h1M104 51h2M116 51h1M7 52h2M14 52h3M22 52h1M39 52h1M53 52h1M71 52h2M78 52h3M86 52h1M103 52h1M117 52h1M7 53h1M15 53h3M39 53h2M46 53h3M54 53h1M71 53h1M79 53h3M103 53h2M110 53h3M118 53h1M7 54h1M23 54h1M39 54h1M47 54h3M71 54h1M87 54h1M103 54h1M111 54h3M17 55h1M23 55h1M39 55h1M55 55h1M81 55h1M87 55h1M103 55h1M119 55h1M17 56h1M23 56h1M81 56h1M87 56h1M119 56h1M19 57h1M23 57h1M56 57h1M83 57h1M87 57h1M119 57h1M17 58h1M23 58h1M51 58h1M56 58h1M81 58h1M87 58h1M113 58h1M115 58h1M16 59h1M20 59h1M23 59h2M49 59h1M55 59h1M80 59h1M84 59h1M87 59h2M113 59h1M24 60h1M48 60h1M52 60h1M55 60h1M57 60h1M88 60h1M113 60h1M116 60h1M24 61h1M49 61h1M56 61h1M88 61h1M119 61h1M16 62h1M18 62h1M21 62h1M24 62h1M49 62h1M56 62h1M80 62h1M82 62h1M85 62h1M88 62h1M119 62h1M16 63h1M18 63h1M21 63h1M23 63h2M50 63h1M53 63h2M80 63h1M82 63h1M85 63h1M87 63h2M112 63h1M114 63h1M117 63h1M15 64h1M22 64h1M50 64h1M53 64h2M57 64h1M79 64h1M86 64h1M112 64h3M117 64h1M15 65h1M22 65h1M48 65h1M55 65h1M79 65h1M86 65h1M111 65h1M14 66h1M22 66h1M48 66h1M54 66h1M56 66h1M78 66h1M86 66h1M111 66h1M114 66h1M46 67h2M54 67h2M110 67h2M113 67h1M17 96h1M81 96h1M13 97h1M18 97h4M49 97h1M77 97h1M82 97h4M113 97h1M11 98h1M22 98h2M45 98h1M50 98h4M75 98h1M86 98h2M109 98h1M114 98h4M10 99h1M24 99h1M43 99h1M54 99h2M74 99h1M88 99h1M107 99h1M118 99h2M9 100h1M15 100h3M23 100h2M42 100h1M56 100h1M73 100h1M79 100h3M87 100h2M106 100h1M120 100h1M14 101h3M24 101h1M41 101h1M47 101h3M55 101h2M78 101h3M88 101h1M105 101h1M111 101h3M119 101h2M8 102h1M24 102h1M46 102h3M56 102h1M72 102h1M88 102h1M110 102h3M120 102h1M8 103h1M14 103h1M40 103h1M56 103h1M72 103h1M78 103h1M104 103h1M120 103h1M8 104h1M14 104h1M72 104h1M78 104h1M104 104h1M8 105h1M12 105h1M39 105h1M72 105h1M76 105h1M104 105h1M8 106h1M14 106h1M39 106h1M44 106h1M72 106h1M78 106h1M108 106h1M110 106h1M7 107h2M11 107h1M15 107h1M40 107h1M46 107h1M71 107h2M75 107h1M79 107h1M110 107h1M7 108h1M38 108h1M40 108h1M43 108h1M47 108h1M71 108h1M107 108h1M110 108h1M7 109h1M39 109h1M46 109h1M71 109h1M104 109h1M7 110h1M10 110h1M13 110h1M15 110h1M39 110h1M46 110h1M71 110h1M74 110h1M77 110h1M79 110h1M104 110h1M7 111h2M10 111h1M13 111h1M15 111h1M41 111h2M45 111h1M71 111h2M74 111h1M77 111h1M79 111h1M106 111h1M109 111h1M111 111h1M9 112h1M16 112h1M38 112h1M41 112h2M45 112h1M73 112h1M80 112h1M106 112h1M109 112h3M9 113h1M16 113h1M40 113h1M47 113h1M73 113h1M80 113h1M112 113h1M9 114h1M17 114h1M39 114h1M41 114h1M47 114h1M73 114h1M81 114h1M109 114h1M112 114h1M40 115h2M48 115h2M110 115h1M112 115h2M14 145h1M18 145h1M78 145h1M82 145h1M11 146h3M19 146h3M46 146h1M50 146h1M75 146h3M83 146h3M110 146h1M114 146h1M10 147h1M22 147h1M43 147h3M51 147h3M74 147h1M86 147h1M107 147h3M115 147h3M42 148h1M54 148h1M106 148h1M118 148h1M9 149h1M23 149h1M73 149h1M87 149h1M41 150h1M55 150h1M105 150h1M119 150h1M11 153h1M21 153h1M75 153h1M85 153h1M9 154h1M11 154h1M21 154h1M23 154h1M43 154h1M53 154h1M73 154h1M75 154h1M87 154h1M107 154h1M117 154h1M13 155h1M19 155h1M41 155h1M43 155h1M55 155h1M77 155h1M105 155h1M107 155h1M119 155h1M10 156h1M13 156h1M15 156h1M17 156h1M19 156h1M22 156h1M45 156h1M74 156h1M77 156h1M79 156h1M83 156h1M109 156h1M10 157h1M13 157h3M17 157h3M22 157h1M42 157h1M45 157h1M47 157h1M51 157h1M55 157h1M74 157h1M77 157h3M83 157h1M87 157h1M106 157h1M109 157h1M111 157h1M115 157h1M118 157h1M9 158h2M13 158h3M17 158h3M22 158h2M41 158h2M45 158h3M51 158h1M55 158h1M73 158h2M77 158h3M83 158h1M87 158h1M105 158h2M109 158h3M115 158h1M118 158h1M9 159h2M13 159h3M17 159h3M22 159h2M41 159h2M45 159h3M51 159h1M55 159h1M73 159h2M77 159h3M83 159h1M87 159h1M105 159h2M109 159h3M115 159h1M118 159h1M10 160h1M13 160h3M17 160h3M22 160h1M41 160h2M45 160h3M51 160h1M55 160h1M74 160h1M77 160h3M83 160h1M86 160h1M105 160h1M108 160h3M114 160h2M10 161h2M13 161h1M15 161h1M17 161h1M19 161h1M21 161h2M41 161h1M43 161h1M46 161h2M51 161h1M55 161h1M74 161h2M77 161h1M79 161h1M85 161h2M105 161h1M108 161h3M114 161h1M117 161h1M11 162h1M13 162h1M15 162h1M17 162h1M19 162h1M21 162h1M41 162h1M43 162h1M46 162h2M51 162h2M55 162h1M75 162h1M77 162h1M79 162h1M82 162h1M84 162h2M105 162h1M107 162h4M114 162h1M116 162h1M12 163h2M15 163h1M17 163h1M19 163h2M42 163h1M44 163h1M46 163h2M51 163h1M53 163h1M55 163h1M76 163h2M79 163h1M82 163h1M84 163h1M107 163h1M109 163h1M113 163h3M16 164h1M45 164h2M48 164h1M51 164h1M53 164h2M78 164h1M80 164h2M106 164h2M109 164h1M112 164h1M114 164h1M49 165h2M108 165h1M110 165h2" />
<path stroke="#bdab7b" d="M14 1h5M78 1h5M12 2h1M20 2h1M46 2h5M76 2h1M84 2h1M110 2h5M10 3h1M22 3h1M44 3h1M52 3h1M74 3h1M86 3h1M108 3h1M116 3h1M9 4h1M11 4h1M13 4h1M15 4h1M17 4h1M19 4h1M21 4h1M23 4h1M42 4h1M54 4h1M73 4h1M75 4h1M77 4h1M79 4h1M81 4h1M83 4h1M85 4h1M87 4h1M106 4h1M118 4h1M10 5h2M13 5h2M22 5h1M41 5h1M43 5h1M45 5h1M47 5h1M49 5h1M51 5h1M53 5h1M55 5h1M74 5h2M77 5h2M86 5h1M105 5h1M107 5h1M109 5h1M111 5h1M113 5h1M115 5h1M117 5h1M119 5h1M8 6h1M21 6h1M24 6h1M42 6h2M45 6h2M54 6h1M72 6h1M85 6h1M88 6h1M106 6h2M109 6h2M118 6h1M8 7h1M24 7h1M40 7h1M53 7h1M56 7h1M72 7h1M88 7h1M104 7h1M117 7h1M120 7h1M24 8h1M40 8h1M56 8h1M88 8h1M104 8h1M120 8h1M56 9h1M120 9h1M9 15h1M23 15h1M73 15h1M87 15h1M10 16h1M12 16h1M20 16h1M22 16h1M41 16h1M55 16h1M74 16h1M76 16h1M84 16h1M86 16h1M105 16h1M119 16h1M10 17h1M12 17h1M16 17h1M20 17h1M22 17h1M42 17h1M44 17h1M52 17h1M54 17h1M74 17h1M76 17h1M80 17h1M84 17h1M86 17h1M106 17h1M108 17h1M116 17h1M118 17h1M11 18h1M15 18h3M21 18h1M42 18h1M44 18h1M48 18h1M52 18h1M54 18h1M75 18h1M79 18h3M85 18h1M106 18h1M108 18h1M112 18h1M116 18h1M118 18h1M43 19h1M47 19h3M53 19h1M107 19h1M111 19h3M117 19h1M14 49h4M78 49h4M10 50h1M14 50h1M19 50h1M46 50h4M74 50h1M78 50h1M83 50h1M110 50h4M9 51h1M11 51h1M42 51h1M46 51h1M51 51h1M73 51h1M75 51h1M106 51h1M110 51h1M115 51h1M11 52h1M21 52h1M41 52h1M43 52h1M75 52h1M85 52h1M105 52h1M107 52h1M9 53h2M18 53h3M22 53h1M43 53h1M53 53h1M73 53h2M82 53h3M86 53h1M107 53h1M117 53h1M17 54h2M21 54h2M41 54h2M50 54h3M54 54h1M81 54h2M85 54h2M105 54h2M114 54h3M118 54h1M20 55h2M49 55h2M53 55h1M84 55h2M113 55h2M117 55h2M51 56h3M55 56h1M116 56h2M18 57h1M49 57h3M55 57h1M82 57h1M13 58h2M50 58h1M77 58h2M114 58h1M45 59h2M56 59h1M109 59h2M22 61h1M57 61h1M86 61h1M22 62h1M57 62h1M86 62h1M17 63h1M55 63h1M81 63h1M16 64h1M80 64h1M10 65h1M12 65h2M49 65h1M74 65h1M76 65h2M13 66h1M42 66h1M44 66h2M55 66h1M77 66h1M106 66h1M108 66h2M113 66h1M45 67h1M109 67h1M112 67h1M14 97h4M78 97h4M12 98h1M17 98h1M21 98h1M46 98h4M76 98h1M81 98h1M85 98h1M110 98h4M20 99h1M22 99h1M44 99h1M49 99h1M53 99h1M84 99h1M86 99h1M108 99h1M113 99h1M117 99h1M10 100h1M20 100h1M52 100h1M54 100h1M74 100h1M84 100h1M116 100h1M118 100h1M9 101h1M11 101h3M21 101h2M42 101h1M52 101h1M73 101h1M75 101h3M85 101h2M106 101h1M116 101h1M9 102h2M13 102h2M41 102h1M43 102h3M53 102h2M73 102h2M77 102h2M105 102h1M107 102h3M117 102h2M10 103h2M42 103h1M45 103h2M74 103h2M105 103h2M109 103h2M40 104h1M42 104h3M106 104h2M13 105h1M40 105h1M44 105h3M77 105h1M17 106h2M45 106h1M81 106h2M109 106h1M39 107h1M49 107h2M113 107h2M9 109h1M38 109h1M73 109h1M9 110h1M38 110h1M73 110h1M14 111h1M40 111h1M78 111h1M15 112h1M79 112h1M18 113h2M21 113h1M46 113h1M82 113h2M85 113h1M18 114h1M40 114h1M50 114h2M53 114h1M82 114h1M110 114h1M114 114h2M117 114h1M50 115h1M111 115h1M114 115h1M15 145h3M79 145h3M14 146h1M18 146h1M47 146h3M78 146h1M82 146h1M111 146h3M46 147h1M50 147h1M110 147h1M114 147h1M10 148h1M22 148h1M74 148h1M86 148h1M11 149h1M16 149h1M21 149h1M42 149h1M54 149h1M75 149h1M80 149h1M85 149h1M106 149h1M118 149h1M11 150h3M19 150h3M43 150h1M48 150h1M53 150h1M75 150h3M83 150h3M107 150h1M112 150h1M117 150h1M10 151h1M12 151h1M14 151h5M20 151h1M22 151h1M43 151h3M51 151h3M74 151h1M76 151h1M78 151h5M84 151h1M86 151h1M107 151h3M115 151h3M10 152h1M15 152h1M17 152h1M22 152h1M42 152h1M44 152h1M46 152h5M52 152h1M54 152h1M74 152h1M79 152h1M81 152h1M86 152h1M106 152h1M108 152h1M110 152h5M116 152h1M118 152h1M12 153h1M15 153h3M20 153h1M42 153h1M47 153h1M49 153h1M54 153h1M76 153h1M79 153h2M83 153h1M106 153h1M111 153h1M113 153h1M118 153h1M13 154h2M18 154h2M44 154h1M47 154h2M51 154h1M77 154h2M81 154h2M108 154h1M111 154h2M115 154h1M45 155h2M49 155h2M109 155h2M113 155h2M11 158h1M21 158h1M75 158h1M85 158h1M11 159h2M16 159h1M20 159h2M43 159h2M53 159h1M75 159h2M80 159h1M82 159h1M84 159h2M107 159h1M116 159h2M12 160h1M16 160h1M20 160h1M44 160h1M48 160h1M50 160h1M52 160h3M76 160h1M80 160h3M84 160h1M106 160h2M111 160h1M113 160h1M116 160h1M45 161h1M48 161h1M50 161h1M53 161h1M81 161h1M107 161h1M111 161h3M115 161h1M49 162h1M112 162h1" />
<path stroke="#dfcd9d" d="M13 2h2M18 2h2M77 2h2M82 2h2M11 3h2M20 3h2M45 3h2M50 3h2M75 3h2M84 3h2M109 3h2M114 3h2M10 4h1M22 4h1M43 4h2M52 4h2M74 4h1M86 4h1M107 4h2M116 4h2M9 5h1M42 5h1M54 5h1M73 5h1M106 5h1M118 5h1M9 6h2M22 6h2M41 6h1M73 6h2M86 6h2M105 6h1M10 7h1M23 7h1M41 7h2M54 7h2M74 7h1M87 7h1M105 7h2M118 7h2M42 8h1M55 8h1M106 8h1M119 8h1M11 50h3M75 50h3M10 51h1M43 51h3M74 51h1M107 51h3M42 52h1M106 52h1M21 53h1M85 53h1M8 54h2M19 54h2M53 54h1M72 54h2M83 54h2M117 54h1M8 55h1M18 55h2M40 55h2M51 55h2M72 55h1M82 55h2M104 55h2M115 55h2M19 56h1M40 56h1M50 56h1M83 56h1M104 56h1M114 56h2M115 57h1M18 98h3M82 98h3M21 99h1M50 99h3M85 99h1M114 99h3M53 100h1M117 100h1M10 101h1M74 101h1M11 102h2M22 102h2M42 102h1M75 102h2M86 102h2M106 102h1M12 103h2M23 103h1M43 103h2M54 103h2M76 103h2M87 103h1M107 103h2M118 103h2M12 104h1M45 104h1M55 104h1M76 104h1M108 104h2M119 104h1M108 105h1M10 149h1M22 149h1M74 149h1M86 149h1M10 150h1M22 150h1M42 150h1M54 150h1M74 150h1M86 150h1M106 150h1M118 150h1M11 151h1M13 151h1M19 151h1M21 151h1M42 151h1M54 151h1M75 151h1M77 151h1M83 151h1M85 151h1M106 151h1M118 151h1M12 152h3M16 152h1M18 152h3M43 152h1M45 152h1M51 152h1M53 152h1M76 152h3M80 152h1M82 152h3M107 152h1M109 152h1M115 152h1M117 152h1M13 153h2M18 153h2M44 153h3M48 153h1M50 153h3M77 153h2M81 153h2M108 153h3M112 153h1M114 153h3M45 154h2M49 154h2M109 154h2M113 154h2" />
<path stroke="#ac9a6a" d="M15 2h3M79 2h3M13 3h7M47 3h3M77 3h7M111 3h3M12 4h1M14 4h1M16 4h1M18 4h1M20 4h1M45 4h7M76 4h1M78 4h1M80 4h1M82 4h1M84 4h1M109 4h7M12 5h1M20 5h2M23 5h1M44 5h1M46 5h1M48 5h1M50 5h1M52 5h1M76 5h1M84 5h2M87 5h1M108 5h1M110 5h1M112 5h1M114 5h1M116 5h1M11 6h1M44 6h1M52 6h2M55 6h1M75 6h1M108 6h1M116 6h2M119 6h1M9 7h1M22 7h1M43 7h1M73 7h1M86 7h1M107 7h1M9 8h1M41 8h1M54 8h1M73 8h1M105 8h1M118 8h1M9 9h1M24 9h1M41 9h1M73 9h1M88 9h1M105 9h1M9 10h1M11 10h2M20 10h2M41 10h1M56 10h1M73 10h1M75 10h2M84 10h2M105 10h1M120 10h1M14 11h1M18 11h1M41 11h1M43 11h2M52 11h2M78 11h1M82 11h1M105 11h1M107 11h2M116 11h2M46 12h1M50 12h1M110 12h1M114 12h1M11 15h1M21 15h1M75 15h1M85 15h1M13 16h1M19 16h1M43 16h1M53 16h1M77 16h1M83 16h1M107 16h1M117 16h1M13 17h3M17 17h3M45 17h1M51 17h1M77 17h3M81 17h3M109 17h1M115 17h1M45 18h3M49 18h3M109 18h3M113 18h3M15 50h4M79 50h4M8 51h1M12 51h9M47 51h4M72 51h1M76 51h9M111 51h4M9 52h2M12 52h2M17 52h4M40 52h1M44 52h9M73 52h2M76 52h2M81 52h4M104 52h1M108 52h9M41 53h2M44 53h2M49 53h4M105 53h2M108 53h2M113 53h4M7 55h1M22 55h1M54 55h1M71 55h1M86 55h1M8 56h1M20 56h3M39 56h1M54 56h1M72 56h1M84 56h3M103 56h1M118 56h1M17 57h1M20 57h3M40 57h1M48 57h1M52 57h3M81 57h1M84 57h3M104 57h1M116 57h3M12 58h1M15 58h1M18 58h1M20 58h3M49 58h1M52 58h4M76 58h1M79 58h1M82 58h1M84 58h3M116 58h4M21 59h2M44 59h1M47 59h1M50 59h1M52 59h3M85 59h2M108 59h1M111 59h1M114 59h1M116 59h4M17 60h1M21 60h2M53 60h2M56 60h1M81 60h1M85 60h2M117 60h1M119 60h1M17 61h1M21 61h1M53 61h2M81 61h1M85 61h1M113 61h1M117 61h1M17 62h1M53 62h2M81 62h1M113 62h1M117 62h1M22 63h1M49 63h1M57 63h1M86 63h1M113 63h1M9 64h1M17 64h1M23 64h1M49 64h1M55 64h1M73 64h1M81 64h1M87 64h1M11 65h1M14 65h1M16 65h1M23 65h1M41 65h1M56 65h1M75 65h1M78 65h1M80 65h1M87 65h1M105 65h1M112 65h1M11 66h2M15 66h1M23 66h1M43 66h1M46 66h2M75 66h2M79 66h1M87 66h1M107 66h1M110 66h1M112 66h1M43 67h2M107 67h2M13 98h4M77 98h4M11 99h9M23 99h1M45 99h4M75 99h9M87 99h1M109 99h4M11 100h4M18 100h2M21 100h2M43 100h9M55 100h1M75 100h4M82 100h2M85 100h2M107 100h9M119 100h1M43 101h4M50 101h2M53 101h2M107 101h4M114 101h2M117 101h2M9 103h1M24 103h1M41 103h1M73 103h1M88 103h1M9 104h3M23 104h1M41 104h1M56 104h1M73 104h3M87 104h1M105 104h1M120 104h1M9 105h3M14 105h1M41 105h3M47 105h1M55 105h1M73 105h3M78 105h1M105 105h3M119 105h1M9 106h3M13 106h1M16 106h1M19 106h1M40 106h4M46 106h1M73 106h3M77 106h1M80 106h1M83 106h1M104 106h4M9 107h2M41 107h3M45 107h1M48 107h1M51 107h1M73 107h2M104 107h4M109 107h1M112 107h1M115 107h1M9 108h2M14 108h1M39 108h1M41 108h2M73 108h2M78 108h1M104 108h1M106 108h1M10 109h1M14 109h1M41 109h2M74 109h1M78 109h1M106 109h1M110 109h1M14 110h1M41 110h2M78 110h1M106 110h1M110 110h1M9 111h1M38 111h1M46 111h1M73 111h1M110 111h1M8 112h1M14 112h1M22 112h1M40 112h1M46 112h1M72 112h1M78 112h1M86 112h1M8 113h1M15 113h1M17 113h1M20 113h1M39 113h1M54 113h1M72 113h1M79 113h1M81 113h1M84 113h1M111 113h1M118 113h1M8 114h1M16 114h1M19 114h2M48 114h2M52 114h1M72 114h1M80 114h1M83 114h2M111 114h1M113 114h1M116 114h1M51 115h2M115 115h2M15 146h3M79 146h3M11 147h11M47 147h3M75 147h11M111 147h3M11 148h11M43 148h11M75 148h11M107 148h11M12 149h4M17 149h4M43 149h11M76 149h4M81 149h4M107 149h11M9 150h1M14 150h5M23 150h1M44 150h4M49 150h4M73 150h1M78 150h5M87 150h1M108 150h4M113 150h4M9 151h1M23 151h1M41 151h1M46 151h5M55 151h1M73 151h1M87 151h1M105 151h1M110 151h5M119 151h1M9 152h1M11 152h1M21 152h1M23 152h1M41 152h1M55 152h1M73 152h1M75 152h1M85 152h1M87 152h1M105 152h1M119 152h1M9 153h2M22 153h2M41 153h1M43 153h1M53 153h1M55 153h1M73 153h2M84 153h1M86 153h2M105 153h1M107 153h1M117 153h1M119 153h1M10 154h1M12 154h1M15 154h3M20 154h1M22 154h1M41 154h2M52 154h1M54 154h2M74 154h1M76 154h1M79 154h2M83 154h4M105 154h2M116 154h1M118 154h2M9 155h4M14 155h5M20 155h4M42 155h1M44 155h1M47 155h2M51 155h4M73 155h4M78 155h10M106 155h1M108 155h1M111 155h2M115 155h4M9 156h1M11 156h2M14 156h1M16 156h1M18 156h1M20 156h2M23 156h1M41 156h4M46 156h10M73 156h1M75 156h2M78 156h1M80 156h3M84 156h3M105 156h4M110 156h10M9 157h1M11 157h2M16 157h1M20 157h2M23 157h1M41 157h1M43 157h2M46 157h1M48 157h3M52 157h3M73 157h1M75 157h2M80 157h3M84 157h3M105 157h1M107 157h2M110 157h1M112 157h3M116 157h2M12 158h1M16 158h1M20 158h1M43 158h2M48 158h3M52 158h3M76 158h1M80 158h3M84 158h1M86 158h1M107 158h2M112 158h3M116 158h2M48 159h3M52 159h1M54 159h1M81 159h1M86 159h1M108 159h1M112 159h3M11 160h1M21 160h1M43 160h1M49 160h1M75 160h1M85 160h1M112 160h1M117 160h1M12 161h1M16 161h1M20 161h1M44 161h1M49 161h1M52 161h1M54 161h1M76 161h1M80 161h1M82 161h1M84 161h1M106 161h1M116 161h1M12 162h1M16 162h1M20 162h1M44 162h2M48 162h1M50 162h1M53 162h2M76 162h1M80 162h2M106 162h1M111 162h1M113 162h1M115 162h1M16 163h1M45 163h1M48 163h3M54 163h1M80 163h2M106 163h1M110 163h3M49 164h2M110 164h2" />
<path stroke="#5f4d1d" d="M15 5h3M79 5h3M12 6h3M18 6h3M47 6h3M76 6h3M82 6h3M111 6h3M11 7h1M21 7h1M44 7h3M50 7h3M75 7h1M85 7h1M108 7h3M114 7h3M10 8h1M22 8h1M43 8h1M53 8h1M74 8h1M86 8h1M107 8h1M117 8h1M8 9h1M10 9h1M22 9h2M42 9h1M54 9h1M72 9h1M74 9h1M86 9h2M106 9h1M118 9h1M8 10h1M10 10h1M22 10h3M40 10h1M42 10h1M54 10h2M72 10h1M74 10h1M86 10h3M104 10h1M106 10h1M118 10h2M8 11h2M23 11h2M40 11h1M42 11h1M54 11h3M72 11h2M87 11h2M104 11h1M106 11h1M118 11h3M8 12h2M23 12h2M40 12h2M55 12h2M72 12h2M87 12h2M104 12h2M119 12h2M8 13h2M11 13h1M21 13h1M23 13h2M40 13h2M55 13h2M72 13h2M75 13h1M85 13h1M87 13h2M104 13h2M119 13h2M8 14h1M10 14h2M21 14h2M24 14h1M40 14h2M43 14h1M53 14h1M55 14h2M72 14h1M74 14h2M85 14h2M88 14h1M104 14h2M107 14h1M117 14h1M119 14h2M8 15h1M24 15h1M40 15h1M42 15h2M53 15h2M56 15h2M72 15h1M88 15h1M103 15h2M106 15h2M117 15h2M120 15h1M8 16h1M11 16h1M21 16h1M24 16h1M40 16h1M56 16h1M72 16h1M85 16h1M88 16h1M104 16h1M120 16h1M8 17h1M24 17h1M40 17h1M43 17h1M53 17h1M56 17h1M58 17h1M72 17h1M88 17h1M102 17h1M104 17h1M107 17h1M117 17h1M120 17h1M40 18h1M56 18h1M58 18h1M102 18h1M104 18h1M120 18h1M56 19h2M103 19h2M57 20h1M103 20h1M15 48h4M79 48h4M19 49h2M47 49h4M83 49h2M111 49h4M21 50h1M51 50h2M85 50h1M115 50h2M22 51h1M53 51h1M86 51h1M117 51h1M23 52h1M54 52h1M87 52h1M118 52h1M11 53h4M23 53h1M55 53h1M75 53h4M87 53h1M119 53h1M10 54h1M15 54h2M43 54h4M55 54h1M74 54h1M79 54h2M107 54h4M119 54h1M9 55h1M16 55h1M42 55h1M47 55h2M73 55h1M80 55h1M106 55h1M111 55h2M120 55h1M16 56h1M41 56h1M49 56h1M80 56h1M105 56h1M113 56h1M120 56h1M112 57h1M19 58h1M83 58h1M112 58h1M15 59h1M18 59h2M25 59h1M51 59h1M79 59h1M82 59h2M89 59h1M112 59h1M115 59h1M16 60h1M18 60h1M20 60h1M25 60h1M47 60h1M50 60h2M58 60h1M80 60h1M82 60h1M84 60h1M89 60h1M111 60h2M114 60h2M16 61h1M18 61h1M20 61h1M25 61h1M48 61h1M50 61h1M52 61h1M58 61h1M80 61h1M82 61h1M84 61h1M89 61h1M112 61h1M114 61h1M116 61h1M20 62h1M25 62h1M48 62h1M50 62h1M52 62h1M58 62h1M84 62h1M89 62h1M112 62h1M114 62h1M116 62h1M118 62h1M20 63h1M25 63h1M52 63h1M58 63h1M84 63h1M89 63h1M116 63h1M118 63h1M19 64h2M25 64h1M52 64h1M58 64h1M83 64h2M89 64h1M116 64h1M118 64h1M18 65h3M25 65h1M51 65h2M58 65h1M82 65h3M89 65h1M114 65h3M118 65h2M20 66h2M24 66h1M50 66h3M57 66h1M84 66h2M88 66h1M115 66h2M118 66h1M22 67h1M24 67h1M48 67h1M52 67h2M56 67h1M86 67h1M88 67h1M118 67h1M120 67h1M23 68h1M48 68h1M53 68h2M56 68h1M87 68h1M112 68h1M120 68h1M55 69h1M13 96h4M77 96h4M11 97h2M45 97h4M75 97h2M109 97h4M10 98h1M43 98h2M74 98h1M107 98h2M9 99h1M42 99h1M73 99h1M106 99h1M8 100h1M41 100h1M72 100h1M105 100h1M8 101h1M17 101h4M40 101h1M72 101h1M81 101h4M104 101h1M15 102h2M21 102h1M40 102h1M49 102h4M79 102h2M85 102h1M104 102h1M113 102h4M15 103h1M22 103h1M47 103h2M53 103h1M79 103h1M86 103h1M103 103h1M111 103h2M117 103h1M15 104h1M46 104h1M54 104h1M79 104h1M103 104h1M110 104h1M118 104h1M111 105h1M12 106h1M76 106h1M111 106h1M6 107h1M12 107h2M16 107h1M44 107h1M70 107h1M76 107h2M80 107h1M108 107h1M111 107h1M6 108h1M11 108h1M13 108h1M15 108h1M37 108h1M44 108h2M48 108h1M70 108h1M75 108h1M77 108h1M79 108h1M108 108h2M111 108h2M6 109h1M11 109h1M13 109h1M15 109h1M37 109h1M43 109h1M45 109h1M47 109h1M70 109h1M75 109h1M77 109h1M79 109h1M107 109h1M109 109h1M111 109h1M6 110h1M11 110h1M37 110h1M43 110h1M45 110h1M47 110h1M70 110h1M75 110h1M105 110h1M107 110h1M109 110h1M111 110h1M6 111h1M11 111h1M37 111h1M43 111h1M70 111h1M75 111h1M105 111h1M107 111h1M6 112h1M11 112h2M37 112h1M43 112h1M70 112h1M75 112h2M105 112h1M107 112h1M6 113h1M11 113h3M37 113h1M43 113h2M70 113h1M75 113h3M104 113h2M107 113h2M7 114h1M10 114h2M38 114h1M43 114h3M71 114h1M74 114h2M105 114h1M107 114h2M7 115h1M9 115h1M39 115h1M42 115h2M47 115h1M71 115h1M73 115h1M103 115h1M105 115h1M8 116h1M39 116h1M41 116h2M47 116h1M72 116h1M103 116h1M111 116h1M40 117h1M18 144h1M82 144h1M8 154h1M24 154h1M72 154h1M88 154h1M8 155h1M24 155h1M40 155h1M56 155h1M72 155h1M88 155h1M104 155h1M120 155h1M8 156h1M24 156h1M40 156h1M56 156h1M72 156h1M88 156h1M104 156h1M120 156h1M40 157h1M56 157h1M104 157h1M120 157h1M40 158h1M88 158h1M120 158h1M8 159h1M24 159h1M40 159h1M72 159h1M88 159h1M120 159h1M8 160h1M24 160h1M40 160h1M56 160h1M72 160h1M88 160h1M120 160h1M8 161h2M23 161h2M40 161h1M56 161h1M72 161h2M87 161h2M120 161h1M9 162h1M23 162h1M40 162h1M56 162h1M73 162h1M87 162h1M119 162h2M10 163h1M22 163h1M74 163h1M86 163h1M119 163h1M11 164h2M14 164h1M18 164h1M20 164h2M75 164h2M84 164h2M118 164h1M12 165h2M15 165h3M19 165h2M43 165h1M46 165h1M76 165h2M79 165h3M83 165h2M117 165h1M43 166h2M46 166h6M107 166h2M110 166h3M114 166h3" />
<path stroke="#aa7162" d="M15 6h1M17 6h1M79 6h1M81 6h1M12 7h1M20 7h1M47 7h1M49 7h1M76 7h1M84 7h1M111 7h1M113 7h1M44 8h1M52 8h1M108 8h1M116 8h1M40 20h1M120 20h1M42 24h1M118 24h1M53 25h2M106 25h2M39 27h1M121 27h1M39 28h1M42 28h1M118 28h1M121 28h1M39 29h1M42 29h1M58 29h1M102 29h1M118 29h1M121 29h1M58 30h1M102 30h1M57 31h1M103 31h1M11 54h1M14 54h1M75 54h1M78 54h1M10 55h1M43 55h1M46 55h1M74 55h1M107 55h1M110 55h1M9 56h1M42 56h1M48 56h1M73 56h1M106 56h1M112 56h1M9 57h1M41 57h1M73 57h1M105 57h1M113 57h1M41 58h1M105 58h1M9 60h1M73 60h1M41 61h1M105 61h1M16 71h1M80 71h1M113 71h1M17 72h1M81 72h1M113 72h1M114 73h1M114 74h1M16 78h1M80 78h1M17 79h2M81 79h2M115 79h1M116 80h2M17 102h1M20 102h1M81 102h1M84 102h1M21 103h1M49 103h1M52 103h1M85 103h1M113 103h1M116 103h1M22 104h1M47 104h1M53 104h1M86 104h1M111 104h1M117 104h1M22 105h1M54 105h1M86 105h1M110 105h1M118 105h1M54 106h1M118 106h1M22 108h1M86 108h1M54 109h1M118 109h1M15 119h1M79 119h1M110 119h1M14 120h1M78 120h1M110 120h1M109 121h1M109 122h1M15 126h1M79 126h1M13 127h2M77 127h2M108 127h1M106 128h2" />
<path stroke="#e8a08d" d="M16 6h1M80 6h1M13 7h2M18 7h2M48 7h1M77 7h2M82 7h2M112 7h1M11 8h1M21 8h1M45 8h2M50 8h2M75 8h1M85 8h1M109 8h2M114 8h2M11 9h1M21 9h1M43 9h1M53 9h1M75 9h1M85 9h1M107 9h1M117 9h1M43 10h1M53 10h1M107 10h1M117 10h1M12 15h1M20 15h1M76 15h1M84 15h1M44 16h1M52 16h1M108 16h1M116 16h1M41 19h1M119 19h1M10 21h1M22 21h1M55 21h1M74 21h1M86 21h1M105 21h1M42 22h1M118 22h1M9 23h2M22 23h2M41 23h2M56 23h1M73 23h2M86 23h2M104 23h1M118 23h2M53 24h1M56 24h2M103 24h2M107 24h1M55 25h1M105 25h1M40 28h1M120 28h1M5 29h1M27 29h1M40 29h2M69 29h1M91 29h1M119 29h2M12 54h2M76 54h2M11 55h1M15 55h1M44 55h2M75 55h1M79 55h1M108 55h2M43 56h1M47 56h1M107 56h1M111 56h1M10 58h1M74 58h1M10 59h1M42 59h1M74 59h1M106 59h1M19 60h1M42 60h1M83 60h1M106 60h1M9 61h1M51 61h1M73 61h1M115 61h1M9 62h1M19 62h1M41 62h1M73 62h1M83 62h1M105 62h1M15 63h1M41 63h1M51 63h1M79 63h1M105 63h1M115 63h1M11 64h1M47 64h1M75 64h1M111 64h1M43 65h1M107 65h1M17 71h1M81 71h1M18 72h1M20 72h1M48 72h1M82 72h1M84 72h1M114 72h1M19 73h1M48 73h1M83 73h1M115 73h1M49 74h2M50 75h2M19 78h1M83 78h1M49 79h1M118 79h1M18 102h2M82 102h2M16 103h1M20 103h1M50 103h2M80 103h1M84 103h1M114 103h2M48 104h1M52 104h1M112 104h1M116 104h1M21 106h1M85 106h1M21 107h1M53 107h1M85 107h1M117 107h1M12 108h1M53 108h1M76 108h1M117 108h1M22 109h1M44 109h1M86 109h1M108 109h1M12 110h1M22 110h1M54 110h1M76 110h1M86 110h1M118 110h1M16 111h1M44 111h1M54 111h1M80 111h1M108 111h1M118 111h1M20 112h1M48 112h1M84 112h1M112 112h1M52 113h1M116 113h1M14 119h1M78 119h1M11 120h1M13 120h1M48 120h1M75 120h1M77 120h1M109 120h1M12 121h1M48 121h1M76 121h1M108 121h1M46 122h2M45 123h2M12 126h1M76 126h1M47 127h1M105 127h1" />
<path stroke="#ffc89b" d="M15 7h1M17 7h1M79 7h1M81 7h1M12 8h1M20 8h1M47 8h1M49 8h1M76 8h1M84 8h1M111 8h1M113 8h1M44 9h1M52 9h1M108 9h1M116 9h1M13 15h1M19 15h1M77 15h1M83 15h1M14 16h5M45 16h1M51 16h1M78 16h5M109 16h1M115 16h1M46 17h5M110 17h5M8 20h1M24 20h1M41 20h1M72 20h1M88 20h1M119 20h1M7 21h1M9 21h1M23 21h1M25 21h1M40 21h2M71 21h1M73 21h1M87 21h1M89 21h1M119 21h2M9 22h2M22 22h2M40 22h2M55 22h1M73 22h2M86 22h2M105 22h1M119 22h2M53 23h1M55 23h1M105 23h1M107 23h1M54 24h2M105 24h2M7 27h1M25 27h1M40 27h1M71 27h1M89 27h1M120 27h1M5 28h1M7 28h1M25 28h1M27 28h1M41 28h1M69 28h1M71 28h1M89 28h1M91 28h1M119 28h1M55 29h1M105 29h1M55 30h1M57 30h1M103 30h1M105 30h1M12 55h3M76 55h3M10 56h1M15 56h1M44 56h3M74 56h1M79 56h1M108 56h3M10 57h1M42 57h1M47 57h1M74 57h1M106 57h1M111 57h1M42 58h1M106 58h1M10 60h1M74 60h1M42 61h1M106 61h1M15 62h1M79 62h1M10 63h1M47 63h1M74 63h1M111 63h1M12 64h3M42 64h1M76 64h3M106 64h1M44 65h3M108 65h3M17 70h1M81 70h1M18 71h1M20 71h1M82 71h1M84 71h1M114 71h1M19 72h1M49 72h1M83 72h1M115 72h1M18 73h1M20 73h1M49 73h2M82 73h1M84 73h1M116 73h1M48 74h1M51 74h1M115 74h1M17 78h1M81 78h1M118 78h1M47 79h1M116 79h1M17 103h3M81 103h3M16 104h1M21 104h1M49 104h3M80 104h1M85 104h1M113 104h3M21 105h1M48 105h1M53 105h1M85 105h1M112 105h1M117 105h1M53 106h1M117 106h1M21 108h1M85 108h1M53 109h1M117 109h1M16 110h1M80 110h1M21 111h1M48 111h1M85 111h1M112 111h1M17 112h3M53 112h1M81 112h3M117 112h1M49 113h3M113 113h3M14 118h1M78 118h1M11 119h1M13 119h1M75 119h1M77 119h1M109 119h1M12 120h1M47 120h1M76 120h1M108 120h1M11 121h1M13 121h1M46 121h2M75 121h1M77 121h1M107 121h1M45 122h1M48 122h1M108 122h1M14 126h1M78 126h1M105 126h1M49 127h1M107 127h1" />
<path stroke="#fffff3" d="M16 7h1M80 7h1M13 8h7M48 8h1M77 8h7M112 8h1M12 9h9M45 9h7M76 9h9M109 9h7M15 10h3M44 10h9M79 10h3M108 10h9M15 11h3M47 11h3M79 11h3M111 11h3M15 12h3M47 12h3M79 12h3M111 12h3M47 13h3M111 13h3M16 14h1M80 14h1M48 15h1M112 15h1M11 56h4M75 56h4M11 57h5M43 57h4M75 57h5M107 57h4M11 58h1M43 58h5M75 58h1M107 58h5M43 59h1M107 59h1M10 61h1M74 61h1M42 62h1M106 62h1M17 104h4M81 104h4M16 105h5M49 105h4M80 105h5M113 105h4M20 106h1M48 106h5M84 106h1M112 106h5M52 107h1M116 107h1M21 109h1M85 109h1M53 110h1M117 110h1" />
<path stroke="#493a17" d="M10 11h1M22 11h1M74 11h1M86 11h1M10 12h1M22 12h1M42 12h1M54 12h1M74 12h1M86 12h1M106 12h1M118 12h1M10 13h1M22 13h1M42 13h1M54 13h1M74 13h1M86 13h1M106 13h1M118 13h1M42 14h1M54 14h1M106 14h1M118 14h1" />
<path stroke="#7c6c44" d="M11 11h1M21 11h1M75 11h1M85 11h1M11 12h1M21 12h1M43 12h1M53 12h1M75 12h1M85 12h1M107 12h1M117 12h1M43 13h1M53 13h1M107 13h1M117 13h1M12 18h2M19 18h2M76 18h2M83 18h2M15 19h3M44 19h2M51 19h2M79 19h3M108 19h2M115 19h2M47 20h3M111 20h3M24 54h1M88 54h1M24 55h1M56 55h1M88 55h1M24 56h1M56 56h1M88 56h1M16 57h1M24 57h1M57 57h1M80 57h1M88 57h1M120 57h1M16 58h1M24 58h1M48 58h1M57 58h1M80 58h1M88 58h1M120 58h1M17 59h1M48 59h1M57 59h2M81 59h1M120 59h1M23 60h1M49 60h1M87 60h1M118 60h1M120 60h1M23 61h1M55 61h1M87 61h1M118 61h1M120 61h1M23 62h1M55 62h1M87 62h1M120 62h1M48 63h1M56 63h1M119 63h2M18 64h1M21 64h1M24 64h1M48 64h1M56 64h1M82 64h1M85 64h1M88 64h1M119 64h2M9 65h1M17 65h1M21 65h1M24 65h1M47 65h1M50 65h1M53 65h2M57 65h1M73 65h1M81 65h1M85 65h1M88 65h1M113 65h1M117 65h1M120 65h1M10 66h1M16 66h1M41 66h1M49 66h1M53 66h1M74 66h1M80 66h1M105 66h1M117 66h1M119 66h2M16 67h1M23 67h1M42 67h1M80 67h1M87 67h1M106 67h1M119 67h1M47 68h1M55 68h1M113 68h1M119 68h1M7 102h1M71 102h1M7 103h1M39 103h1M71 103h1M7 104h1M39 104h1M71 104h1M7 105h1M15 105h1M38 105h1M71 105h1M79 105h1M103 105h1M7 106h1M15 106h1M38 106h1M47 106h1M71 106h1M79 106h1M103 106h1M14 107h1M37 107h2M47 107h1M78 107h1M103 107h1M8 108h1M46 108h1M72 108h1M103 108h1M105 108h1M8 109h1M40 109h1M72 109h1M103 109h1M105 109h1M8 110h1M40 110h1M72 110h1M103 110h1M39 111h1M47 111h1M103 111h2M7 112h1M10 112h1M13 112h1M39 112h1M47 112h1M71 112h1M74 112h1M77 112h1M103 112h2M7 113h1M10 113h1M14 113h1M22 113h1M38 113h1M41 113h2M45 113h1M48 113h1M71 113h1M74 113h1M78 113h1M86 113h1M103 113h1M106 113h1M109 113h2M15 114h1M21 114h1M42 114h1M46 114h1M54 114h1M79 114h1M85 114h1M103 114h2M106 114h1M118 114h1M8 115h1M15 115h1M53 115h1M72 115h1M79 115h1M104 115h1M117 115h1M40 116h1M48 116h1M104 116h1M110 116h1M13 144h5M77 144h5M11 145h3M19 145h3M46 145h5M75 145h3M83 145h3M110 145h5M10 146h1M22 146h1M43 146h3M51 146h3M74 146h1M86 146h1M107 146h3M115 146h3M9 147h1M23 147h1M42 147h1M54 147h1M73 147h1M87 147h1M106 147h1M118 147h1M9 148h1M23 148h1M41 148h1M55 148h1M73 148h1M87 148h1M105 148h1M119 148h1M8 149h1M24 149h1M41 149h1M55 149h1M72 149h1M88 149h1M105 149h1M119 149h1M8 150h1M24 150h1M40 150h1M56 150h1M72 150h1M88 150h1M104 150h1M120 150h1M8 151h1M24 151h1M40 151h1M56 151h1M72 151h1M88 151h1M104 151h1M120 151h1M8 152h1M24 152h1M40 152h1M56 152h1M72 152h1M88 152h1M104 152h1M120 152h1M8 153h1M24 153h1M40 153h1M56 153h1M72 153h1M88 153h1M104 153h1M120 153h1M40 154h1M56 154h1M104 154h1M120 154h1M87 156h1M8 157h1M24 157h1M72 157h1M88 157h1M119 157h1M8 158h1M24 158h1M56 158h1M72 158h1M104 158h1M119 158h1M56 159h1M104 159h1M119 159h1M9 160h1M23 160h1M73 160h1M87 160h1M104 160h1M118 160h2M14 161h1M18 161h1M42 161h1M78 161h1M83 161h1M104 161h1M118 161h2M10 162h1M14 162h1M18 162h1M22 162h1M42 162h1M74 162h1M78 162h1M83 162h1M86 162h1M104 162h1M117 162h2M11 163h1M14 163h1M18 163h1M21 163h1M41 163h1M43 163h1M52 163h1M75 163h1M78 163h1M83 163h1M85 163h1M105 163h1M108 163h1M116 163h3M13 164h1M15 164h1M17 164h1M19 164h1M42 164h3M47 164h1M52 164h1M77 164h1M79 164h1M82 164h2M105 164h1M108 164h1M113 164h1M115 164h3M44 165h2M47 165h2M51 165h1M53 165h1M107 165h1M109 165h1M112 165h5" />
<path stroke="#493357" d="M12 11h2M19 11h2M76 11h2M83 11h2M14 12h1M18 12h1M44 12h2M51 12h2M78 12h1M82 12h1M108 12h2M115 12h2M13 13h2M18 13h2M46 13h1M50 13h1M77 13h2M82 13h2M110 13h1M114 13h1M45 14h2M50 14h2M109 14h2M114 14h2M13 59h2M77 59h2M12 60h1M45 60h2M76 60h1M109 60h2M12 61h2M44 61h1M76 61h2M108 61h1M44 62h2M108 62h2M17 107h2M81 107h2M19 108h1M49 108h2M83 108h1M113 108h2M18 109h2M51 109h1M82 109h2M115 109h1M50 110h2M114 110h2" />
<path stroke="#7b7b7b" d="M12 12h1M20 12h1M76 12h1M84 12h1M44 13h1M52 13h1M108 13h1M116 13h1M13 19h1M77 19h1M11 20h3M15 20h1M17 20h1M19 20h3M45 20h1M75 20h3M79 20h1M81 20h1M83 20h3M115 20h1M15 21h1M17 21h1M43 21h3M47 21h1M49 21h1M51 21h3M79 21h1M81 21h1M107 21h3M111 21h1M113 21h1M115 21h3M16 22h1M47 22h1M49 22h1M80 22h1M111 22h1M113 22h1M48 23h1M112 23h1M8 24h2M14 24h1M19 24h1M23 24h2M40 24h1M72 24h2M78 24h1M83 24h1M87 24h2M120 24h1M7 25h2M13 25h1M16 25h1M18 25h1M24 25h2M39 25h2M46 25h1M51 25h1M71 25h2M77 25h1M80 25h1M82 25h1M88 25h2M109 25h1M114 25h1M120 25h2M7 26h2M16 26h1M24 26h2M45 26h1M48 26h1M50 26h1M55 26h1M71 26h2M80 26h1M88 26h2M105 26h1M110 26h1M112 26h1M115 26h1M48 27h1M112 27h1M10 28h1M14 28h1M19 28h1M22 28h1M55 28h2M74 28h1M78 28h1M83 28h1M86 28h1M104 28h2M11 29h1M13 29h1M18 29h1M21 29h1M46 29h1M51 29h1M75 29h1M77 29h1M82 29h1M85 29h1M109 29h1M114 29h1M43 30h1M45 30h1M50 30h1M53 30h1M107 30h1M110 30h1M115 30h1M117 30h1M14 60h1M78 60h1M46 61h1M110 61h1M16 68h1M80 68h1M12 69h1M14 69h3M48 69h1M76 69h1M78 69h3M112 69h1M12 70h1M44 70h1M46 70h3M76 70h1M108 70h1M110 70h3M11 71h1M44 71h1M75 71h1M108 71h1M43 72h1M107 72h1M14 73h1M78 73h1M11 74h1M13 74h1M17 74h1M19 74h2M46 74h1M75 74h1M77 74h1M81 74h1M83 74h2M110 74h1M116 74h2M11 75h1M17 75h1M19 75h2M43 75h1M45 75h1M48 75h2M75 75h1M81 75h1M83 75h2M107 75h1M109 75h1M118 75h1M18 76h2M43 76h1M47 76h1M50 76h1M82 76h2M107 76h1M114 76h2M117 76h2M19 77h1M83 77h1M116 77h1M13 78h1M49 78h1M111 78h1M12 79h1M15 79h1M45 79h1M110 79h1M113 79h1M44 80h1M17 108h1M81 108h1M49 109h1M113 109h1M15 116h1M79 116h1M15 117h3M19 117h1M48 117h1M79 117h3M83 117h1M111 117h1M19 118h1M48 118h3M52 118h1M83 118h1M111 118h3M115 118h1M20 119h1M52 119h1M84 119h1M115 119h1M53 120h1M116 120h1M17 121h1M81 121h1M11 122h2M14 122h1M18 122h1M20 122h1M50 122h1M75 122h2M78 122h1M82 122h1M84 122h1M106 122h2M113 122h1M11 123h2M14 123h1M20 123h1M47 123h2M51 123h1M53 123h1M75 123h2M78 123h1M84 123h1M105 123h1M114 123h1M116 123h1M12 124h2M46 124h1M49 124h1M53 124h1M76 124h2M105 124h2M108 124h2M116 124h1M12 125h1M76 125h1M107 125h1M18 126h1M47 126h1M82 126h1M112 126h1M16 127h1M19 127h1M51 127h1M80 127h1M83 127h1M110 127h1M113 127h1M52 128h1" />
<path stroke="#c9c9c9" d="M13 12h1M19 12h1M77 12h1M83 12h1M45 13h1M51 13h1M109 13h1M115 13h1M13 60h1M77 60h1M45 61h1M109 61h1M18 108h1M82 108h1M50 109h1M114 109h1" />
<path stroke="#ccd4db" d="M12 13h1M20 13h1M76 13h1M84 13h1M12 14h1M20 14h1M44 14h1M52 14h1M76 14h1M84 14h1M108 14h1M116 14h1M44 15h1M52 15h1M108 15h1M116 15h1M14 61h1M78 61h1M14 62h1M46 62h1M78 62h1M110 62h1M46 63h1M110 63h1M17 109h1M81 109h1M17 110h1M49 110h1M81 110h1M113 110h1M49 111h1M113 111h1" />
<path stroke="#ffebce" d="M15 13h3M79 13h3M15 14h1M17 14h1M47 14h3M79 14h1M81 14h1M111 14h3M14 15h5M47 15h1M49 15h1M78 15h5M111 15h1M113 15h1M46 16h5M110 16h5M9 19h1M23 19h1M73 19h1M87 19h1M9 20h1M23 20h1M73 20h1M87 20h1M8 21h1M24 21h1M72 21h1M88 21h1M8 22h1M24 22h1M54 22h1M72 22h1M88 22h1M106 22h1M54 23h1M106 23h1M5 26h2M26 26h2M69 26h2M90 26h2M5 27h2M26 27h2M69 27h2M90 27h2M6 28h1M26 28h1M57 28h1M70 28h1M90 28h1M103 28h1M6 29h2M25 29h2M56 29h2M70 29h2M89 29h2M103 29h2M56 30h1M104 30h1M11 59h1M75 59h1M11 60h1M43 60h1M75 60h1M107 60h1M11 61h1M19 61h1M43 61h1M75 61h1M83 61h1M107 61h1M10 62h2M43 62h1M51 62h1M74 62h2M107 62h1M115 62h1M11 63h4M42 63h2M75 63h4M106 63h2M43 64h4M107 64h4M18 69h1M82 69h1M18 70h2M82 70h2M19 71h1M49 71h1M83 71h1M50 72h1M17 77h2M81 77h2M117 77h2M18 78h1M47 78h2M82 78h1M116 78h2M48 79h1M117 79h1M20 107h1M84 107h1M20 108h1M52 108h1M84 108h1M116 108h1M12 109h1M20 109h1M52 109h1M76 109h1M84 109h1M116 109h1M20 110h2M44 110h1M52 110h1M84 110h2M108 110h1M116 110h1M17 111h4M52 111h2M81 111h4M116 111h2M49 112h4M113 112h4M13 117h1M77 117h1M12 118h2M76 118h2M12 119h1M47 119h1M76 119h1M46 120h1M13 125h2M77 125h2M105 125h2M13 126h1M48 126h2M77 126h1M106 126h2M48 127h1M106 127h1" />
<path stroke="#79b4e1" d="M13 14h2M18 14h2M77 14h2M82 14h2M45 15h2M50 15h2M109 15h2M114 15h2M12 62h2M76 62h2M44 63h2M108 63h2M18 110h2M82 110h2M50 111h2M114 111h2" />
<path stroke="#501a1b" d="M7 17h1M25 17h1M71 17h1M89 17h1M6 18h1M26 18h1M39 18h1M70 18h1M90 18h1M121 18h1M6 19h1M26 19h1M38 19h1M58 19h1M70 19h1M90 19h1M102 19h1M122 19h1M5 20h1M27 20h1M37 20h1M58 20h1M69 20h1M91 20h1M102 20h1M123 20h1M5 21h1M27 21h1M37 21h1M69 21h1M91 21h1M123 21h1M4 22h1M28 22h1M37 22h1M68 22h1M92 22h1M123 22h1M4 23h1M28 23h1M36 23h1M59 23h1M68 23h1M92 23h1M101 23h1M124 23h1M4 24h1M28 24h1M36 24h1M59 24h1M68 24h1M92 24h1M101 24h1M124 24h1M36 25h1M60 25h1M100 25h1M124 25h1M36 26h1M60 26h1M100 26h1M124 26h1M60 27h1M100 27h1M60 28h1M100 28h1M60 29h1M100 29h1M38 30h1M60 30h1M100 30h1M122 30h1M6 31h1M26 31h1M38 31h3M58 31h1M70 31h1M90 31h1M102 31h1M120 31h3M6 32h1M26 32h1M37 32h3M58 32h1M70 32h1M90 32h1M102 32h1M121 32h3M6 33h1M26 33h1M37 33h3M58 33h1M70 33h1M90 33h1M102 33h1M121 33h3M6 34h1M26 34h1M37 34h3M58 34h1M70 34h1M90 34h1M102 34h1M121 34h3M6 35h1M26 35h1M37 35h2M58 35h1M70 35h1M90 35h1M102 35h1M122 35h2M5 36h1M27 36h1M37 36h2M58 36h1M69 36h1M91 36h1M102 36h1M122 36h2M3 37h1M5 37h1M27 37h1M29 37h1M35 37h1M67 37h1M69 37h1M91 37h1M93 37h1M125 37h1M3 38h1M5 38h2M26 38h2M29 38h1M35 38h1M58 38h1M67 38h1M69 38h2M90 38h2M93 38h1M102 38h1M125 38h1M3 39h1M5 39h1M27 39h1M29 39h1M35 39h1M59 39h1M61 39h1M67 39h1M69 39h1M91 39h1M93 39h1M99 39h1M101 39h1M125 39h1M3 40h1M5 40h1M27 40h1M29 40h1M36 40h1M59 40h1M61 40h1M67 40h1M69 40h1M91 40h1M93 40h1M99 40h1M101 40h1M124 40h1M4 41h1M28 41h1M59 41h1M61 41h1M68 41h1M92 41h1M99 41h1M101 41h1M59 42h1M61 42h1M99 42h1M101 42h1M60 43h1M100 43h1M24 68h1M88 68h1M24 69h1M56 69h1M88 69h1M120 69h1M25 70h1M56 70h1M89 70h1M121 70h1M25 71h1M57 71h1M89 71h1M121 71h1M25 72h1M57 72h1M89 72h1M122 72h1M26 73h1M57 73h1M90 73h1M122 73h1M21 74h1M26 74h1M58 74h1M85 74h1M90 74h1M118 74h1M123 74h1M21 75h1M26 75h1M58 75h1M85 75h1M90 75h1M119 75h2M123 75h1M21 76h1M26 76h1M59 76h1M85 76h1M90 76h1M120 76h1M122 76h2M21 77h1M26 77h1M59 77h1M85 77h1M90 77h1M120 77h1M123 77h1M22 78h1M26 78h1M59 78h1M86 78h1M90 78h1M123 78h1M22 79h1M27 79h1M53 79h1M60 79h1M86 79h1M91 79h1M121 79h1M123 79h1M27 80h1M53 80h1M60 80h1M91 80h1M119 80h1M121 80h1M123 80h1M23 81h1M27 81h1M54 81h1M60 81h1M87 81h1M91 81h1M121 81h1M124 81h1M23 82h1M27 82h1M61 82h1M87 82h1M91 82h1M122 82h1M124 82h1M27 83h1M55 83h1M61 83h1M91 83h1M122 83h1M124 83h1M27 84h1M61 84h1M91 84h1M122 84h1M124 84h1M27 85h1M60 85h1M91 85h1M122 85h1M124 85h1M26 86h1M60 86h1M90 86h1M122 86h2M26 87h1M59 87h1M90 87h1M122 87h2M25 88h1M57 88h2M89 88h1M122 88h1M7 116h1M71 116h1M7 117h1M71 117h1M103 117h1M6 118h1M40 118h1M70 118h1M102 118h1M6 119h1M39 119h1M70 119h1M102 119h1M6 120h1M39 120h1M70 120h1M101 120h1M5 121h1M39 121h1M69 121h1M101 121h1M5 122h1M10 122h1M38 122h1M69 122h1M74 122h1M100 122h1M105 122h1M5 123h1M10 123h1M38 123h1M69 123h1M74 123h1M100 123h1M103 123h2M5 124h1M10 124h1M37 124h1M69 124h1M74 124h1M100 124h2M103 124h1M5 125h1M10 125h1M37 125h1M69 125h1M74 125h1M100 125h1M103 125h1M5 126h1M9 126h1M37 126h1M69 126h1M73 126h1M100 126h1M4 127h1M9 127h1M36 127h1M43 127h1M68 127h1M73 127h1M100 127h1M102 127h1M4 128h1M36 128h1M43 128h1M68 128h1M100 128h1M102 128h1M104 128h1M4 129h1M8 129h1M36 129h1M42 129h1M68 129h1M72 129h1M99 129h1M102 129h1M4 130h1M8 130h1M35 130h1M68 130h1M72 130h1M99 130h1M101 130h1M4 131h1M35 131h1M41 131h1M68 131h1M99 131h1M101 131h1M4 132h1M35 132h1M68 132h1M99 132h1M101 132h1M4 133h1M36 133h1M68 133h1M99 133h1M101 133h1M5 134h1M36 134h1M69 134h1M100 134h2M5 135h1M37 135h1M69 135h1M100 135h2M6 136h1M38 136h2M70 136h1M101 136h1M7 160h1M25 160h1M71 160h1M89 160h1M6 161h1M26 161h1M39 161h1M57 161h1M70 161h1M90 161h1M103 161h1M121 161h1M6 162h1M26 162h1M38 162h1M58 162h1M70 162h1M90 162h1M102 162h1M122 162h1M5 163h1M27 163h1M58 163h1M69 163h1M91 163h1M102 163h1M5 164h1M27 164h1M37 164h1M58 164h1M69 164h1M91 164h1M123 164h1M4 165h1M28 165h1M37 165h1M59 165h1M68 165h1M92 165h1M101 165h1M123 165h1M4 166h1M24 166h1M28 166h1M59 166h1M68 166h1M88 166h1M92 166h1M101 166h1M121 166h1M4 167h1M22 167h2M28 167h1M36 167h1M56 167h1M59 167h1M68 167h1M86 167h2M92 167h1M101 167h1M104 167h1M120 167h1M124 167h1M4 168h1M20 168h2M28 168h1M36 168h1M54 168h2M59 168h1M68 168h1M84 168h2M92 168h1M101 168h1M105 168h2M119 168h1M124 168h1M36 169h1M51 169h2M108 169h2M124 169h1M60 170h1M100 170h1M60 171h1M100 171h1M60 172h1M100 172h1M3 174h1M61 174h1M67 174h1M99 174h1M3 175h1M29 175h1M35 175h1M61 175h1M67 175h1M93 175h1M99 175h1M125 175h1M3 176h1M29 176h1M35 176h1M61 176h1M67 176h1M93 176h1M99 176h1M125 176h1M3 177h1M29 177h1M35 177h1M61 177h1M67 177h1M93 177h1M99 177h1M125 177h1M29 178h1M93 178h1M61 182h1M99 182h1M3 183h1M29 183h1M35 183h1M59 183h2M67 183h1M93 183h1M100 183h2M125 183h1M4 184h2M27 184h2M36 184h2M57 184h2M68 184h2M91 184h2M102 184h2M123 184h2M6 185h2M25 185h2M38 185h1M53 185h4M70 185h2M89 185h2M104 185h4M122 185h1M8 186h5M20 186h5M40 186h5M50 186h2M72 186h5M84 186h5M109 186h2M117 186h4M14 187h5M46 187h4M78 187h5M111 187h1" />
<path stroke="#892d2f" d="M7 18h1M25 18h1M71 18h1M89 18h1M40 19h1M120 19h1M56 20h1M104 20h1M39 21h1M121 21h1M38 22h1M57 22h1M103 22h1M122 22h1M59 26h1M101 26h1M59 27h1M101 27h1M59 28h1M101 28h1M59 29h1M101 29h1M59 30h1M101 30h1M4 31h1M28 31h1M36 31h1M59 31h1M68 31h1M92 31h1M101 31h1M124 31h1M4 32h1M28 32h1M36 32h1M59 32h1M68 32h1M92 32h1M101 32h1M124 32h1M4 33h1M28 33h1M36 33h1M68 33h1M92 33h1M124 33h1M5 34h1M27 34h1M60 34h1M69 34h1M91 34h1M100 34h1M60 35h1M100 35h1M60 36h1M100 36h1M36 37h1M59 37h1M101 37h1M124 37h1M4 39h1M28 39h1M68 39h1M92 39h1M4 40h1M28 40h1M68 40h1M92 40h1M60 41h1M100 41h1M60 42h1M100 42h1M18 67h2M82 67h2M50 68h2M115 68h2M20 69h2M23 69h1M84 69h2M87 69h1M119 69h1M50 70h2M115 70h1M118 70h1M22 71h1M54 71h3M86 71h1M117 71h1M24 72h1M52 72h1M88 72h1M116 72h1M119 72h1M22 73h1M25 73h1M54 73h1M86 73h1M89 73h1M118 73h1M121 73h1M23 74h2M52 74h1M55 74h1M87 74h2M121 74h1M23 75h1M25 75h1M52 75h3M87 75h1M89 75h1M23 76h1M53 76h4M87 76h1M23 77h1M53 77h2M56 77h1M87 77h1M122 77h1M24 78h1M54 78h2M57 78h1M88 78h1M54 79h2M57 79h1M122 79h1M25 80h1M55 80h2M58 80h1M89 80h1M122 80h1M25 81h1M55 81h2M89 81h1M123 81h1M24 82h1M26 82h1M56 82h2M88 82h1M90 82h1M123 82h1M24 83h1M26 83h1M56 83h2M88 83h1M90 83h1M123 83h1M24 84h1M26 84h1M57 84h2M88 84h1M90 84h1M123 84h1M26 85h1M57 85h2M90 85h1M123 85h1M25 86h1M58 86h1M89 86h1M25 87h1M58 87h1M89 87h1M12 115h2M76 115h2M45 116h2M107 116h2M8 117h1M10 117h2M41 117h1M72 117h1M74 117h2M104 117h1M45 118h2M105 118h1M108 118h1M9 119h1M40 119h3M73 119h1M106 119h1M7 120h1M44 120h1M71 120h1M104 120h1M107 120h1M6 121h1M9 121h1M42 121h1M70 121h1M73 121h1M102 121h1M105 121h1M7 122h2M41 122h1M44 122h1M71 122h2M102 122h1M6 123h1M8 123h1M42 123h3M70 123h1M72 123h1M8 124h1M40 124h4M72 124h1M8 125h1M40 125h1M42 125h2M72 125h1M101 125h1M7 126h1M39 126h1M41 126h2M71 126h1M39 127h1M41 127h2M101 127h1M6 128h1M38 128h1M40 128h2M70 128h1M101 128h1M6 129h1M40 129h2M70 129h1M100 129h1M5 130h1M7 130h1M39 130h2M69 130h1M71 130h1M100 130h1M5 131h1M7 131h1M39 131h2M69 131h1M71 131h1M100 131h1M5 132h1M7 132h1M38 132h2M69 132h1M71 132h1M100 132h1M5 133h1M38 133h2M69 133h1M100 133h1M6 134h1M38 134h1M70 134h1M6 135h1M38 135h1M70 135h1M7 162h2M24 162h2M39 162h1M71 162h2M88 162h2M7 163h1M9 163h1M23 163h1M25 163h1M56 163h1M71 163h1M73 163h1M87 163h1M89 163h1M120 163h2M8 164h1M24 164h1M41 164h1M55 164h1M57 164h1M72 164h1M88 164h1M103 164h1M119 164h3M6 165h1M8 165h2M14 165h1M18 165h1M23 165h2M38 165h1M42 165h1M52 165h1M56 165h1M70 165h1M72 165h2M78 165h1M82 165h1M87 165h2M104 165h1M118 165h1M120 165h1M6 166h1M8 166h4M21 166h2M38 166h1M41 166h1M45 166h1M55 166h1M70 166h1M72 166h4M85 166h2M102 166h1M105 166h1M113 166h1M119 166h2M6 167h1M8 167h6M19 167h2M41 167h2M53 167h2M70 167h1M72 167h6M83 167h2M102 167h1M106 167h2M118 167h2M6 168h1M9 168h2M12 168h6M41 168h4M50 168h3M70 168h1M73 168h2M76 168h6M108 168h2M116 168h2M5 169h1M9 169h2M14 169h5M37 169h1M41 169h8M69 169h1M73 169h2M78 169h5M103 169h1M112 169h4M5 170h1M9 170h2M15 170h1M17 170h1M37 170h1M41 170h3M45 170h6M69 170h1M73 170h2M79 170h1M81 170h1M101 170h1M104 170h1M110 170h6M118 170h1M5 171h1M9 171h2M16 171h1M22 171h1M26 171h1M37 171h1M42 171h2M46 171h6M53 171h2M58 171h1M69 171h1M73 171h2M80 171h1M86 171h1M90 171h1M101 171h1M104 171h1M106 171h1M109 171h7M118 171h1M10 172h1M15 172h1M17 172h1M21 172h2M26 172h1M37 172h1M42 172h2M48 172h1M50 172h1M53 172h2M57 172h2M74 172h1M79 172h1M81 172h1M85 172h2M90 172h1M101 172h1M106 172h1M110 172h1M112 172h1M115 172h1M117 172h2M21 173h2M25 173h3M42 173h2M49 173h1M54 173h2M57 173h2M85 173h2M89 173h3M101 173h1M105 173h1M111 173h1M115 173h5M4 174h1M20 174h3M25 174h1M27 174h1M43 174h1M48 174h1M50 174h1M52 174h1M54 174h2M57 174h2M68 174h1M84 174h3M89 174h1M91 174h1M105 174h1M108 174h1M110 174h1M112 174h1M114 174h1M117 174h1M119 174h1M122 174h1M4 175h1M19 175h4M25 175h1M27 175h1M36 175h1M52 175h1M54 175h2M57 175h2M68 175h1M83 175h4M89 175h1M91 175h1M108 175h1M119 175h1M122 175h1M4 176h1M19 176h2M22 176h2M25 176h1M27 176h1M36 176h1M52 176h1M55 176h1M57 176h2M68 176h1M83 176h2M86 176h2M89 176h1M91 176h1M108 176h1M119 176h1M122 176h1M4 177h1M19 177h2M22 177h2M25 177h1M27 177h2M36 177h1M52 177h1M55 177h1M57 177h2M68 177h1M83 177h2M86 177h2M89 177h1M91 177h2M100 177h1M108 177h1M122 177h2M4 178h1M19 178h2M22 178h2M25 178h1M28 178h1M36 178h1M52 178h1M55 178h4M68 178h1M83 178h2M86 178h2M89 178h1M92 178h1M100 178h1M108 178h1M122 178h2M4 179h1M19 179h2M23 179h1M25 179h1M28 179h1M55 179h1M57 179h2M68 179h1M83 179h2M87 179h1M89 179h1M92 179h1M100 179h1M120 179h1M122 179h2M4 180h1M7 180h1M19 180h1M23 180h1M25 180h1M28 180h1M55 180h1M57 180h2M68 180h1M71 180h1M83 180h1M87 180h1M89 180h1M92 180h1M100 180h1M120 180h1M122 180h2M4 181h1M7 181h1M19 181h1M23 181h3M28 181h1M40 181h1M55 181h1M57 181h2M68 181h1M71 181h1M83 181h1M87 181h3M92 181h1M100 181h1M120 181h5M4 182h1M7 182h2M13 182h1M19 182h1M23 182h3M28 182h1M36 182h1M40 182h1M46 182h1M52 182h1M55 182h1M68 182h1M71 182h2M77 182h1M83 182h1M87 182h3M92 182h1M101 182h2M108 182h1M120 182h5M7 183h3M14 183h1M18 183h2M23 183h3M40 183h1M46 183h1M52 183h1M55 183h1M71 183h3M78 183h1M82 183h2M87 183h3M103 183h1M108 183h1M120 183h4M7 184h3M13 184h1M15 184h1M17 184h3M23 184h3M40 184h1M46 184h2M51 184h2M54 184h2M71 184h3M77 184h1M79 184h1M81 184h3M87 184h3M105 184h2M108 184h2M120 184h3M9 185h2M13 185h7M22 185h2M40 185h2M46 185h3M50 185h3M73 185h2M77 185h7M86 185h2M108 185h3M119 185h2M13 186h1M15 186h1M17 186h3M45 186h5M77 186h1M79 186h1M81 186h3M111 186h6" />
<path stroke="#9e2c2f" d="M8 18h1M24 18h1M72 18h1M88 18h1M7 19h1M25 19h1M39 19h1M71 19h1M89 19h1M121 19h1M37 23h1M58 23h1M102 23h1M123 23h1M5 31h1M27 31h1M69 31h1M91 31h1M5 32h1M27 32h1M69 32h1M91 32h1M5 33h1M27 33h1M59 33h1M69 33h1M91 33h1M101 33h1M4 34h1M28 34h1M36 34h1M59 34h1M68 34h1M92 34h1M101 34h1M124 34h1M4 35h1M28 35h1M36 35h1M59 35h1M68 35h1M92 35h1M101 35h1M124 35h1M4 36h1M28 36h1M36 36h1M59 36h1M68 36h1M92 36h1M101 36h1M124 36h1M4 37h1M28 37h1M60 37h1M68 37h1M92 37h1M100 37h1M4 38h1M28 38h1M60 38h1M68 38h1M92 38h1M100 38h1M60 39h1M100 39h1M60 40h1M100 40h1M114 67h3M21 68h2M85 68h2M22 69h1M51 69h4M86 69h1M114 69h2M118 69h1M52 70h4M114 70h1M21 71h1M85 71h1M116 71h1M23 72h1M51 72h1M87 72h1M118 72h1M53 73h1M120 73h1M54 74h1M55 75h1M121 77h1M122 78h1M24 79h1M88 79h1M24 80h1M88 80h1M24 81h1M88 81h1M25 82h1M89 82h1M25 83h1M89 83h1M25 84h1M89 84h1M25 85h1M89 85h1M44 115h1M107 115h3M9 116h2M73 116h2M9 117h1M42 117h4M73 117h1M105 117h1M108 117h2M41 118h4M109 118h1M10 119h1M74 119h1M107 119h1M8 120h1M45 120h1M72 120h1M105 120h1M43 121h1M103 121h1M42 122h1M41 123h1M102 125h1M101 126h1M7 127h1M71 127h1M7 128h1M71 128h1M7 129h1M71 129h1M6 130h1M70 130h1M6 131h1M70 131h1M6 132h1M70 132h1M6 133h1M70 133h1M8 163h1M24 163h1M39 163h2M72 163h1M88 163h1M104 163h1M7 164h1M9 164h2M22 164h2M39 164h2M56 164h1M71 164h1M73 164h2M86 164h2M104 164h1M7 165h1M10 165h2M21 165h2M39 165h3M54 165h2M71 165h1M74 165h2M85 165h2M105 165h2M119 165h1M12 166h1M15 166h6M40 166h1M42 166h1M52 166h3M76 166h1M79 166h6M106 166h1M109 166h1M117 166h2M14 167h1M18 167h1M38 167h1M40 167h1M43 167h1M46 167h7M78 167h1M82 167h1M108 167h1M114 167h4M8 168h1M11 168h1M38 168h1M40 168h1M45 168h1M49 168h1M72 168h1M75 168h1M102 168h1M114 168h2M6 169h1M12 169h2M38 169h1M70 169h1M76 169h2M102 169h1M6 170h1M11 170h1M13 170h2M16 170h1M18 170h1M38 170h1M44 170h1M70 170h1M75 170h1M77 170h2M80 170h1M82 170h1M103 170h1M7 171h1M14 171h2M17 171h2M38 171h1M41 171h1M45 171h1M71 171h1M78 171h2M81 171h2M107 171h1M5 172h1M9 172h1M11 172h1M13 172h2M16 172h1M18 172h1M38 172h1M44 172h1M46 172h2M49 172h1M51 172h1M69 172h1M73 172h1M75 172h1M77 172h2M80 172h1M82 172h1M104 172h1M107 172h1M109 172h1M111 172h1M113 172h2M5 173h1M7 173h1M9 173h2M14 173h5M37 173h2M40 173h1M47 173h2M50 173h2M53 173h1M69 173h1M71 173h1M73 173h2M78 173h5M104 173h1M106 173h2M109 173h2M112 173h3M5 174h1M10 174h2M13 174h1M15 174h4M26 174h1M37 174h2M42 174h1M44 174h1M46 174h2M49 174h1M51 174h1M53 174h1M69 174h1M74 174h2M77 174h1M79 174h4M90 174h1M101 174h1M106 174h2M109 174h1M111 174h1M113 174h1M115 174h2M118 174h1M5 175h1M7 175h1M10 175h1M14 175h5M26 175h1M37 175h2M40 175h1M42 175h2M47 175h5M53 175h1M69 175h1M71 175h1M74 175h1M78 175h5M90 175h1M101 175h1M105 175h2M109 175h10M8 176h1M11 176h1M13 176h1M15 176h4M21 176h1M26 176h1M37 176h2M43 176h1M46 176h1M48 176h4M53 176h2M72 176h1M75 176h1M77 176h1M79 176h4M85 176h1M90 176h1M101 176h1M105 176h1M107 176h1M109 176h7M117 176h2M5 177h1M7 177h1M13 177h6M21 177h1M26 177h1M37 177h1M41 177h1M45 177h2M48 177h4M53 177h2M69 177h1M71 177h1M77 177h6M85 177h1M90 177h1M101 177h1M106 177h1M109 177h7M117 177h3M8 178h1M11 178h1M13 178h1M15 178h1M17 178h2M21 178h1M26 178h2M37 178h2M40 178h1M46 178h6M53 178h2M72 178h1M75 178h1M77 178h1M79 178h1M81 178h2M85 178h1M90 178h2M101 178h1M107 178h1M109 178h6M118 178h2M5 179h1M7 179h1M13 179h2M16 179h3M21 179h2M26 179h2M36 179h2M41 179h1M45 179h2M48 179h1M50 179h5M69 179h1M71 179h1M77 179h2M80 179h3M85 179h2M90 179h2M101 179h1M106 179h1M108 179h3M112 179h4M117 179h3M6 180h1M8 180h1M13 180h1M15 180h1M17 180h2M20 180h3M26 180h2M36 180h3M40 180h1M46 180h2M49 180h6M70 180h1M72 180h1M77 180h1M79 180h1M81 180h2M84 180h3M90 180h2M101 180h1M107 180h5M113 180h2M118 180h2M5 181h1M8 181h1M13 181h2M16 181h3M20 181h3M26 181h2M36 181h2M39 181h1M41 181h1M45 181h2M48 181h1M50 181h5M69 181h1M72 181h1M77 181h2M80 181h3M84 181h3M90 181h2M101 181h1M106 181h1M108 181h3M112 181h1M114 181h2M117 181h1M119 181h1M6 182h1M9 182h1M14 182h2M17 182h2M20 182h3M26 182h2M37 182h2M41 182h1M47 182h1M49 182h3M53 182h2M70 182h1M73 182h1M78 182h2M81 182h2M84 182h3M90 182h2M107 182h1M109 182h3M113 182h2M118 182h2M5 183h2M13 183h1M15 183h3M20 183h3M26 183h2M37 183h1M39 183h1M41 183h1M45 183h1M47 183h2M50 183h2M53 183h2M69 183h2M77 183h1M79 183h3M84 183h3M90 183h2M104 183h1M106 183h1M109 183h2M112 183h2M115 183h1M119 183h1M10 184h1M14 184h1M16 184h1M20 184h3M38 184h2M41 184h1M48 184h3M53 184h1M74 184h1M78 184h1M80 184h1M84 184h3M107 184h1M110 184h3M114 184h1M118 184h2M11 185h2M20 185h2M45 185h1M49 185h1M75 185h2M84 185h2M111 185h1M14 186h1M16 186h1M78 186h1M80 186h1" />
<path stroke="#6f2123" d="M9 18h1M23 18h1M73 18h1M87 18h1M8 19h1M24 19h1M72 19h1M88 19h1M6 20h2M25 20h2M38 20h1M70 20h2M89 20h2M122 20h1M57 21h2M102 21h2M5 22h1M27 22h1M39 22h1M58 22h1M69 22h1M91 22h1M102 22h1M121 22h1M38 23h1M122 23h1M37 24h1M123 24h1M37 25h1M59 25h1M101 25h1M123 25h1M37 26h1M123 26h1M36 27h2M123 27h2M36 28h2M123 28h2M35 29h3M123 29h3M4 30h1M8 30h1M24 30h1M28 30h1M35 30h3M68 30h1M72 30h1M88 30h1M92 30h1M123 30h3M7 31h2M24 31h2M35 31h1M37 31h1M60 31h1M71 31h2M88 31h2M100 31h1M123 31h1M125 31h1M3 32h1M7 32h1M25 32h1M29 32h1M35 32h1M56 32h2M60 32h1M67 32h1M71 32h1M89 32h1M93 32h1M100 32h1M103 32h2M125 32h1M3 33h1M7 33h1M25 33h1M29 33h1M35 33h1M57 33h1M60 33h1M67 33h1M71 33h1M89 33h1M93 33h1M100 33h1M103 33h1M125 33h1M3 34h1M7 34h1M25 34h1M29 34h1M35 34h1M57 34h1M67 34h1M71 34h1M89 34h1M93 34h1M103 34h1M125 34h1M3 35h1M5 35h1M27 35h1M29 35h1M35 35h1M57 35h1M61 35h1M67 35h1M69 35h1M91 35h1M93 35h1M99 35h1M103 35h1M125 35h1M3 36h1M6 36h1M26 36h1M29 36h1M35 36h1M61 36h1M67 36h1M70 36h1M90 36h1M93 36h1M99 36h1M125 36h1M6 37h1M26 37h1M58 37h1M61 37h1M70 37h1M90 37h1M99 37h1M102 37h1M36 38h1M59 38h1M61 38h1M99 38h1M101 38h1M124 38h1M36 39h1M124 39h1M20 67h2M84 67h2M117 67h1M52 68h1M117 68h2M19 69h1M83 69h1M20 70h5M84 70h5M116 70h2M119 70h2M23 71h2M50 71h4M87 71h2M118 71h3M53 72h4M120 72h2M21 73h1M55 73h2M85 73h1M117 73h1M22 74h1M56 74h2M86 74h1M119 74h2M122 74h1M22 75h1M24 75h1M56 75h2M86 75h1M88 75h1M121 75h2M22 76h1M24 76h2M52 76h1M57 76h2M86 76h1M88 76h2M121 76h1M22 77h1M24 77h2M55 77h1M57 77h2M86 77h1M88 77h2M23 78h1M25 78h1M53 78h1M56 78h1M58 78h1M87 78h1M89 78h1M121 78h1M23 79h1M25 79h2M56 79h1M58 79h2M87 79h1M89 79h2M23 80h1M26 80h1M54 80h1M57 80h1M59 80h1M87 80h1M90 80h1M26 81h1M57 81h3M90 81h1M122 81h1M55 82h1M58 82h3M58 83h3M56 84h1M59 84h2M24 85h1M56 85h1M59 85h1M88 85h1M57 86h1M59 86h1M57 87h1M10 115h2M74 115h2M106 115h1M43 116h2M105 116h2M12 117h1M76 117h1M7 118h5M71 118h5M103 118h2M106 118h2M7 119h2M43 119h4M71 119h2M103 119h3M40 120h4M102 120h2M10 121h1M40 121h2M74 121h1M106 121h1M9 122h1M39 122h2M73 122h1M101 122h1M103 122h2M7 123h1M9 123h1M39 123h2M71 123h1M73 123h1M101 123h2M6 124h2M9 124h1M38 124h2M44 124h1M70 124h2M73 124h1M102 124h1M6 125h2M9 125h1M38 125h2M41 125h1M70 125h2M73 125h1M6 126h1M8 126h1M38 126h1M40 126h1M43 126h1M70 126h1M72 126h1M102 126h1M5 127h2M8 127h1M37 127h2M40 127h1M69 127h2M72 127h1M5 128h1M8 128h1M37 128h1M39 128h1M42 128h1M69 128h1M72 128h1M5 129h1M37 129h3M69 129h1M101 129h1M36 130h3M41 130h1M36 131h3M36 132h2M40 132h1M7 133h1M37 133h1M40 133h1M71 133h1M37 134h1M39 134h1M39 135h1M7 161h1M25 161h1M71 161h1M89 161h1M57 162h1M103 162h1M121 162h1M6 163h1M26 163h1M38 163h1M57 163h1M70 163h1M90 163h1M103 163h1M122 163h1M6 164h1M25 164h2M38 164h1M70 164h1M89 164h2M102 164h1M122 164h1M5 165h1M25 165h3M57 165h2M69 165h1M89 165h3M102 165h2M121 165h2M5 166h1M23 166h1M25 166h3M37 166h1M56 166h3M69 166h1M87 166h1M89 166h3M103 166h2M122 166h2M5 167h1M21 167h1M24 167h4M37 167h1M55 167h1M57 167h2M69 167h1M85 167h1M88 167h4M103 167h1M105 167h1M121 167h3M5 168h1M18 168h2M22 168h6M37 168h1M53 168h1M56 168h3M69 168h1M82 168h2M86 168h6M103 168h2M107 168h1M118 168h1M120 168h4M4 169h1M19 169h10M49 169h2M53 169h7M68 169h1M83 169h10M101 169h1M104 169h4M110 169h2M116 169h8M4 170h1M19 170h10M36 170h1M51 170h9M68 170h1M83 170h10M105 170h5M116 170h2M119 170h6M4 171h1M19 171h3M23 171h3M27 171h2M36 171h1M52 171h1M55 171h3M59 171h1M68 171h1M83 171h3M87 171h3M91 171h2M105 171h1M108 171h1M116 171h2M119 171h6M4 172h1M19 172h2M23 172h3M27 172h2M36 172h1M52 172h1M55 172h2M59 172h1M68 172h1M83 172h2M87 172h3M91 172h2M105 172h1M108 172h1M116 172h1M119 172h6M4 173h1M19 173h2M23 173h2M28 173h1M36 173h1M52 173h1M56 173h1M59 173h2M68 173h1M83 173h2M87 173h2M92 173h1M100 173h1M108 173h1M120 173h5M19 174h1M23 174h2M28 174h1M36 174h1M56 174h1M59 174h2M83 174h1M87 174h2M92 174h1M100 174h1M120 174h2M123 174h2M23 175h2M28 175h1M56 175h1M59 175h2M87 175h2M92 175h1M100 175h1M120 175h2M123 175h2M24 176h1M28 176h1M56 176h1M59 176h2M88 176h1M92 176h1M100 176h1M120 176h2M123 176h2M24 177h1M56 177h1M59 177h2M88 177h1M120 177h2M124 177h1M3 178h1M24 178h1M35 178h1M59 178h3M67 178h1M88 178h1M99 178h1M120 178h2M124 178h2M3 179h1M24 179h1M29 179h1M35 179h1M56 179h1M59 179h3M67 179h1M88 179h1M93 179h1M99 179h1M121 179h1M124 179h2M3 180h1M24 180h1M29 180h1M35 180h1M56 180h1M59 180h3M67 180h1M88 180h1M93 180h1M99 180h1M121 180h1M124 180h2M3 181h1M29 181h1M35 181h1M56 181h1M59 181h3M67 181h1M93 181h1M99 181h1M125 181h1M3 182h1M29 182h1M35 182h1M56 182h5M67 182h1M93 182h1M100 182h1M125 182h1M4 183h1M28 183h1M36 183h1M56 183h3M68 183h1M92 183h1M102 183h1M124 183h1M6 184h1M26 184h1M56 184h1M70 184h1M90 184h1M104 184h1M8 185h1M24 185h1M39 185h1M72 185h1M88 185h1M121 185h1" />
<path stroke="#2b2b2b" d="M10 19h1M18 19h1M74 19h1M82 19h1M10 20h1M16 20h1M18 20h1M42 20h1M50 20h1M74 20h1M80 20h1M82 20h1M110 20h1M118 20h1M14 21h1M16 21h1M42 21h1M48 21h1M50 21h1M78 21h1M80 21h1M110 21h1M112 21h1M118 21h1M6 22h1M14 22h1M26 22h1M46 22h1M48 22h1M70 22h1M78 22h1M90 22h1M112 22h1M114 22h1M5 23h1M13 23h2M18 23h2M27 23h1M46 23h1M69 23h1M77 23h2M82 23h2M91 23h1M114 23h1M5 24h1M12 24h1M15 24h1M17 24h1M20 24h1M27 24h1M38 24h1M45 24h2M50 24h2M69 24h1M76 24h1M79 24h1M81 24h1M84 24h1M91 24h1M109 24h2M114 24h2M122 24h1M4 25h1M10 25h1M12 25h1M17 25h1M22 25h1M28 25h1M42 25h1M44 25h1M47 25h1M49 25h1M52 25h1M58 25h1M68 25h1M74 25h1M76 25h1M81 25h1M86 25h1M92 25h1M102 25h1M108 25h1M111 25h1M113 25h1M116 25h1M118 25h1M9 26h1M15 26h1M17 26h1M23 26h1M42 26h1M44 26h1M49 26h1M53 26h1M58 26h1M73 26h1M79 26h1M81 26h1M87 26h1M102 26h1M107 26h1M111 26h1M116 26h1M118 26h1M9 27h1M13 27h2M16 27h1M18 27h2M23 27h1M41 27h2M47 27h1M49 27h1M53 27h1M58 27h1M73 27h1M77 27h2M80 27h1M82 27h2M87 27h1M102 27h1M107 27h1M111 27h1M113 27h1M118 27h2M12 28h1M15 28h1M17 28h1M20 28h1M45 28h2M48 28h1M50 28h2M53 28h1M76 28h1M79 28h1M81 28h1M84 28h1M107 28h1M109 28h2M112 28h1M114 28h2M12 29h1M17 29h1M44 29h1M47 29h1M49 29h1M52 29h1M76 29h1M81 29h1M108 29h1M111 29h1M113 29h1M116 29h1M44 30h1M49 30h1M111 30h1M116 30h1M15 39h1M17 39h1M48 39h1M79 39h1M81 39h1M112 39h1M11 40h1M14 40h1M18 40h1M21 40h1M44 40h1M47 40h1M53 40h1M75 40h1M78 40h1M82 40h1M85 40h1M107 40h1M113 40h1M116 40h1M13 41h1M19 41h1M46 41h1M51 41h2M77 41h1M83 41h1M108 41h2M114 41h1M11 42h4M18 42h4M44 42h4M75 42h4M82 42h4M113 42h4M10 43h1M14 43h1M18 43h1M22 43h1M43 43h1M47 43h1M74 43h1M78 43h1M82 43h1M86 43h1M113 43h1M117 43h1M13 67h1M77 67h1M12 68h2M45 68h1M76 68h2M109 68h1M11 69h1M13 69h1M44 69h2M75 69h1M77 69h1M108 69h2M11 70h1M43 70h1M45 70h1M75 70h1M107 70h1M109 70h1M10 71h1M43 71h1M74 71h1M107 71h1M10 72h1M13 72h2M42 72h1M74 72h1M77 72h2M106 72h1M10 73h1M12 73h1M15 73h2M42 73h1M45 73h2M74 73h1M76 73h1M79 73h2M105 73h2M109 73h2M10 74h1M12 74h1M16 74h1M42 74h1M44 74h1M47 74h1M74 74h1M76 74h1M80 74h1M104 74h3M108 74h1M111 74h1M10 75h1M12 75h1M16 75h1M42 75h1M44 75h1M74 75h1M76 75h1M80 75h1M105 75h2M108 75h1M114 75h2M11 76h1M16 76h1M42 76h1M44 76h1M51 76h1M75 76h1M80 76h1M106 76h1M108 76h1M12 77h2M43 77h1M50 77h2M107 77h1M110 77h2M114 77h2M11 78h1M14 78h1M44 78h2M50 78h1M109 78h1M112 78h1M11 79h1M43 79h1M109 79h1M43 80h1M42 86h1M116 86h1M13 87h1M42 87h2M77 87h1M116 87h3M12 88h1M14 88h1M21 88h1M40 88h4M56 88h1M76 88h1M78 88h1M85 88h1M111 88h1M116 88h3M11 89h2M20 89h1M41 89h2M55 89h1M75 89h2M84 89h1M110 89h1M115 89h3M16 90h3M52 90h3M80 90h3M107 90h2M14 91h1M19 91h2M50 91h1M55 91h1M78 91h1M83 91h2M105 91h1M109 91h2M17 92h3M53 92h3M81 92h3M108 92h2M18 115h1M82 115h1M18 116h2M51 116h1M82 116h2M114 116h1M18 117h1M20 117h1M51 117h2M82 117h1M84 117h1M114 117h2M20 118h1M51 118h1M53 118h1M84 118h1M114 118h1M116 118h1M21 119h1M53 119h1M85 119h1M116 119h1M17 120h2M21 120h1M54 120h1M81 120h2M85 120h1M117 120h1M15 121h2M19 121h1M21 121h1M50 121h2M54 121h1M79 121h2M83 121h1M85 121h1M113 121h2M117 121h2M15 122h1M19 122h1M21 122h1M49 122h1M52 122h1M54 122h1M79 122h1M83 122h1M85 122h1M112 122h1M115 122h1M117 122h3M15 123h1M19 123h1M21 123h1M52 123h1M54 123h1M79 123h1M83 123h1M85 123h1M108 123h2M115 123h1M117 123h2M15 124h1M20 124h1M45 124h1M52 124h1M54 124h1M79 124h1M84 124h1M115 124h1M117 124h1M18 125h2M45 125h2M53 125h1M82 125h2M108 125h2M112 125h2M116 125h1M17 126h1M20 126h1M46 126h1M51 126h2M81 126h1M84 126h1M111 126h1M114 126h1M20 127h1M53 127h1M84 127h1M114 127h1M53 128h1M54 134h1M107 134h1M18 135h1M53 135h2M82 135h1M105 135h3M10 136h1M17 136h1M19 136h1M40 136h1M53 136h4M74 136h1M81 136h1M83 136h1M105 136h3M112 136h1M11 137h1M19 137h2M41 137h1M54 137h2M75 137h1M83 137h2M106 137h3M113 137h1M13 138h3M42 138h3M77 138h3M115 138h2M11 139h2M17 139h1M41 139h1M46 139h1M75 139h2M81 139h1M113 139h2M118 139h1M12 140h3M41 140h3M76 140h3M114 140h2M12 188h2M19 188h2M76 188h2M83 188h2" />
<path stroke="#a4a4a4" d="M12 19h1M20 19h1M76 19h1M84 19h1M44 20h1M52 20h1M108 20h1M116 20h1M15 22h1M17 22h1M79 22h1M81 22h1M7 23h1M15 23h3M25 23h1M47 23h1M49 23h1M71 23h1M79 23h3M89 23h1M111 23h1M113 23h1M7 24h1M16 24h1M25 24h1M47 24h3M71 24h1M80 24h1M89 24h1M111 24h3M6 25h1M14 25h1M19 25h1M26 25h1M48 25h1M70 25h1M78 25h1M83 25h1M90 25h1M112 25h1M46 26h1M51 26h1M56 26h1M104 26h1M109 26h1M114 26h1M55 27h2M104 27h2M14 29h1M19 29h1M78 29h1M83 29h1M46 30h1M51 30h1M109 30h1M114 30h1M15 68h1M79 68h1M47 69h1M111 69h1M12 71h1M76 71h1M11 72h2M44 72h1M75 72h2M108 72h1M11 73h1M43 73h2M75 73h1M107 73h2M14 74h1M18 74h1M43 74h1M78 74h1M82 74h1M107 74h1M18 75h1M46 75h1M82 75h1M110 75h1M116 75h2M17 76h1M48 76h2M81 76h1M116 76h1M47 77h3M13 79h1M111 79h1M45 80h1M16 116h1M80 116h1M49 117h1M112 117h1M19 119h1M83 119h1M19 120h2M52 120h1M83 120h2M115 120h1M20 121h1M52 121h2M84 121h1M115 121h2M13 122h1M17 122h1M53 122h1M77 122h1M81 122h1M116 122h1M13 123h1M50 123h1M77 123h1M106 123h2M113 123h1M14 124h1M47 124h2M78 124h1M107 124h1M47 125h3M18 127h1M82 127h1M112 127h1M51 128h1" />
<path stroke="#606060" d="M14 19h1M19 19h1M22 19h1M78 19h1M83 19h1M86 19h1M14 20h1M22 20h1M46 20h1M51 20h1M54 20h1M78 20h1M86 20h1M106 20h1M109 20h1M114 20h1M11 21h3M18 21h4M46 21h1M54 21h1M75 21h3M82 21h4M106 21h1M114 21h1M7 22h1M18 22h1M25 22h1M43 22h3M50 22h4M71 22h1M82 22h1M89 22h1M107 22h4M115 22h3M6 23h1M8 23h1M24 23h1M26 23h1M39 23h2M50 23h1M70 23h1M72 23h1M88 23h1M90 23h1M110 23h1M120 23h2M6 24h1M10 24h1M13 24h1M18 24h1M22 24h1M26 24h1M39 24h1M41 24h1M70 24h1M74 24h1M77 24h1M82 24h1M86 24h1M90 24h1M119 24h1M121 24h1M5 25h1M9 25h1M15 25h1M20 25h1M23 25h1M27 25h1M38 25h1M41 25h1M45 25h1M50 25h1M56 25h2M69 25h1M73 25h1M79 25h1M84 25h1M87 25h1M91 25h1M103 25h2M110 25h1M115 25h1M119 25h1M122 25h1M13 26h2M18 26h2M39 26h3M47 26h1M52 26h1M54 26h1M57 26h1M77 26h2M82 26h2M103 26h1M106 26h1M108 26h1M113 26h1M119 26h3M8 27h1M24 27h1M45 27h2M50 27h2M54 27h1M57 27h1M72 27h1M88 27h1M103 27h1M106 27h1M109 27h2M114 27h2M13 28h1M18 28h1M77 28h1M82 28h1M15 29h1M20 29h1M45 29h1M50 29h1M79 29h1M84 29h1M110 29h1M115 29h1M13 30h2M18 30h2M47 30h1M52 30h1M77 30h2M82 30h2M108 30h1M113 30h1M45 31h2M50 31h2M109 31h2M114 31h2M14 67h2M17 67h1M78 67h2M81 67h1M14 68h1M17 68h1M46 68h1M49 68h1M78 68h1M81 68h1M110 68h2M17 69h1M46 69h1M49 69h1M81 69h1M110 69h1M113 69h1M13 70h4M49 70h1M77 70h4M113 70h1M13 71h1M45 71h4M77 71h1M109 71h4M45 72h1M109 72h1M13 73h1M17 73h1M77 73h1M81 73h1M15 74h1M45 74h1M79 74h1M109 74h1M13 75h2M47 75h1M77 75h2M111 75h1M20 76h1M45 76h2M84 76h1M109 76h2M20 77h1M46 77h1M84 77h1M12 78h1M110 78h1M14 79h1M44 79h1M112 79h1M12 80h2M110 80h2M44 81h2M14 115h1M16 115h2M78 115h1M80 115h2M14 116h1M17 116h1M49 116h2M78 116h1M81 116h1M112 116h2M14 117h1M47 117h1M50 117h1M78 117h1M110 117h1M113 117h1M15 118h4M47 118h1M79 118h4M110 118h1M18 119h1M48 119h4M82 119h1M111 119h4M51 120h1M114 120h1M14 121h1M18 121h1M78 121h1M82 121h1M16 122h1M51 122h1M80 122h1M114 122h1M17 123h2M49 123h1M81 123h2M112 123h1M11 124h1M50 124h2M75 124h1M113 124h2M11 125h1M50 125h1M75 125h1M19 126h1M83 126h1M113 126h1M17 127h1M52 127h1M81 127h1M111 127h1M18 128h2M82 128h2M112 128h2M51 129h2" />
<path stroke="#7c513f" d="M55 19h1M105 19h1M55 20h1M105 20h1M6 21h1M26 21h1M56 21h1M70 21h1M90 21h1M104 21h1M56 22h1M104 22h1M57 23h1M103 23h1M58 24h1M102 24h1M4 26h1M28 26h1M38 26h1M68 26h1M92 26h1M122 26h1M4 27h1M28 27h1M38 27h1M68 27h1M92 27h1M122 27h1M4 28h1M8 28h1M24 28h1M28 28h1M38 28h1M58 28h1M68 28h1M72 28h1M88 28h1M92 28h1M102 28h1M122 28h1M4 29h1M8 29h1M24 29h1M28 29h1M38 29h1M54 29h1M68 29h1M72 29h1M88 29h1M92 29h1M106 29h1M122 29h1M5 30h3M25 30h3M39 30h4M54 30h1M69 30h3M89 30h3M106 30h1M118 30h4M55 31h2M104 31h2M9 58h1M73 58h1M9 59h1M12 59h1M41 59h1M73 59h1M76 59h1M105 59h1M15 60h1M41 60h1M44 60h1M79 60h1M105 60h1M108 60h1M15 61h1M47 61h1M79 61h1M111 61h1M47 62h1M111 62h1M9 63h1M19 63h1M73 63h1M83 63h1M10 64h1M41 64h1M51 64h1M74 64h1M105 64h1M115 64h1M42 65h1M106 65h1M15 71h1M79 71h1M16 72h1M47 72h1M80 72h1M112 72h1M47 73h1M16 77h1M80 77h1M119 77h1M20 78h1M46 78h1M84 78h1M115 78h1M119 78h1M19 79h1M46 79h1M50 79h1M83 79h1M47 80h3M118 80h1M22 106h1M86 106h1M19 107h1M22 107h1M54 107h1M83 107h1M86 107h1M118 107h1M16 108h1M51 108h1M54 108h1M80 108h1M115 108h1M118 108h1M16 109h1M48 109h1M80 109h1M112 109h1M48 110h1M112 110h1M12 111h1M22 111h1M76 111h1M86 111h1M21 112h1M44 112h1M54 112h1M85 112h1M108 112h1M118 112h1M53 113h1M117 113h1M16 119h1M80 119h1M15 120h1M49 120h1M79 120h1M111 120h1M49 121h1M15 125h1M79 125h1M104 125h1M11 126h1M50 126h1M75 126h1M104 126h1M108 126h1M12 127h1M46 127h1M50 127h1M76 127h1M47 128h3M105 128h1" />
<path stroke="#c8383b" d="M39 20h1M121 20h1M38 21h1M122 21h1M18 66h2M82 66h2M49 67h3M18 68h3M82 68h3M114 68h1M50 69h1M116 69h2M115 71h1M21 72h2M85 72h2M117 72h1M23 73h2M51 73h2M87 73h2M119 73h1M25 74h1M53 74h1M89 74h1M12 114h2M76 114h2M45 115h2M11 116h3M75 116h3M109 116h1M46 117h1M106 117h2M108 119h1M9 120h2M73 120h2M106 120h1M7 121h2M44 121h2M71 121h2M104 121h1M6 122h1M43 122h1M70 122h1M7 166h1M13 166h2M39 166h1M71 166h1M77 166h2M7 167h1M15 167h3M39 167h1M44 167h2M71 167h1M79 167h3M109 167h5M7 168h1M39 168h1M46 168h3M71 168h1M110 168h4M7 169h2M11 169h1M39 169h2M71 169h2M75 169h1M7 170h2M12 170h1M39 170h2M71 170h2M76 170h1M102 170h1M6 171h1M8 171h1M11 171h3M39 171h2M44 171h1M70 171h1M72 171h1M75 171h3M102 171h2M6 172h3M12 172h1M39 172h3M45 172h1M70 172h3M76 172h1M102 172h2M6 173h1M8 173h1M11 173h3M39 173h1M41 173h1M44 173h3M70 173h1M72 173h1M75 173h3M102 173h2M6 174h4M12 174h1M14 174h1M39 174h3M45 174h1M70 174h4M76 174h1M78 174h1M102 174h3M6 175h1M8 175h2M11 175h3M39 175h1M41 175h1M44 175h3M70 175h1M72 175h2M75 175h3M102 175h3M107 175h1M5 176h3M9 176h2M12 176h1M14 176h1M39 176h4M44 176h2M47 176h1M69 176h3M73 176h2M76 176h1M78 176h1M102 176h3M106 176h1M116 176h1M6 177h1M8 177h5M38 177h3M42 177h3M47 177h1M70 177h1M72 177h5M102 177h4M107 177h1M116 177h1M5 178h3M9 178h2M12 178h1M14 178h1M16 178h1M39 178h1M41 178h5M69 178h3M73 178h2M76 178h1M78 178h1M80 178h1M102 178h5M115 178h3M6 179h1M8 179h5M15 179h1M38 179h3M42 179h3M47 179h1M49 179h1M70 179h1M72 179h5M79 179h1M102 179h4M107 179h1M111 179h1M116 179h1M5 180h1M9 180h4M14 180h1M16 180h1M39 180h1M41 180h5M48 180h1M69 180h1M73 180h4M78 180h1M80 180h1M102 180h5M112 180h1M115 180h3M6 181h1M9 181h4M15 181h1M38 181h1M42 181h3M47 181h1M49 181h1M70 181h1M73 181h4M79 181h1M102 181h4M107 181h1M111 181h1M113 181h1M116 181h1M118 181h1M5 182h1M10 182h3M16 182h1M39 182h1M42 182h4M48 182h1M69 182h1M74 182h3M80 182h1M103 182h4M112 182h1M115 182h3M10 183h3M38 183h1M42 183h3M49 183h1M74 183h3M105 183h1M107 183h1M111 183h1M114 183h1M116 183h3M11 184h2M42 184h4M75 184h2M113 184h1M115 184h3M42 185h3M112 185h7" />
<path stroke="#3b3b3b" d="M11 22h1M21 22h1M75 22h1M85 22h1M43 23h1M117 23h1M11 39h1M21 39h1M44 39h1M75 39h1M85 39h1M116 39h1M12 40h2M19 40h2M45 40h2M76 40h2M83 40h2M114 40h2M11 43h3M15 43h1M17 43h1M19 43h3M44 43h3M48 43h1M75 43h3M79 43h1M81 43h1M83 43h3M112 43h1M114 43h3M11 44h1M14 44h1M18 44h1M21 44h1M44 44h1M47 44h1M75 44h1M78 44h1M82 44h1M85 44h1M113 44h1M116 44h1M17 66h1M81 66h1M15 72h1M79 72h1M111 72h1M111 73h2M112 74h1M15 75h1M79 75h1M15 88h1M20 88h1M55 88h1M79 88h1M84 88h1M16 89h4M52 89h3M80 89h4M107 89h3M15 91h4M51 91h4M79 91h4M106 91h3M14 92h1M50 92h1M78 92h1M105 92h1M14 114h1M78 114h1M16 120h1M80 120h1M112 120h1M111 121h2M111 122h1M16 123h1M80 123h1M11 136h1M16 136h1M41 136h1M75 136h1M80 136h1M12 137h4M42 137h3M76 137h4M114 137h3M13 139h4M42 139h4M77 139h4M115 139h3M17 140h1M46 140h1M81 140h1M118 140h1" />
<path stroke="#585858" d="M12 22h2M19 22h2M76 22h2M83 22h2M12 23h1M20 23h1M44 23h2M76 23h1M84 23h1M115 23h2M12 44h2M19 44h2M45 44h2M76 44h2M83 44h2M114 44h2M14 71h1M78 71h1M110 72h1M15 92h2M51 92h2M79 92h2M106 92h2M17 119h1M81 119h1M113 120h1M15 140h2M44 140h2M79 140h2M116 140h2" />
<path stroke="#171717" d="M11 23h1M21 23h1M51 23h1M75 23h1M85 23h1M109 23h1M11 24h1M21 24h1M43 24h2M75 24h1M85 24h1M116 24h2M11 25h1M21 25h1M43 25h1M75 25h1M85 25h1M117 25h1M43 26h1M117 26h1M16 40h1M49 40h1M80 40h1M111 40h1M10 41h1M16 41h1M22 41h1M43 41h1M49 41h1M74 41h1M80 41h1M86 41h1M111 41h1M117 41h1M16 42h1M49 42h1M80 42h1M111 42h1M16 43h1M49 43h1M80 43h1M111 43h1M10 44h1M15 44h1M17 44h1M22 44h1M43 44h1M48 44h1M74 44h1M79 44h1M81 44h1M86 44h1M112 44h1M117 44h1M11 45h4M18 45h4M44 45h4M75 45h4M82 45h4M113 45h4M107 69h1M46 72h1M113 74h1M112 75h2M12 76h4M76 76h4M119 85h2M41 86h1M115 86h1M117 86h4M12 87h1M40 87h2M44 87h2M76 87h1M115 87h1M119 87h2M11 88h1M13 88h1M39 88h1M44 88h2M75 88h1M77 88h1M105 88h1M112 88h1M114 88h2M119 88h2M13 89h2M21 89h1M39 89h2M43 89h3M50 89h1M58 89h1M77 89h2M85 89h1M105 89h1M112 89h1M114 89h1M118 89h3M11 90h2M21 90h1M40 90h5M58 90h1M75 90h2M85 90h1M111 90h1M115 90h5M12 91h1M21 91h1M58 91h1M76 91h1M85 91h1M111 91h1M13 92h1M20 92h1M49 92h1M56 92h2M77 92h1M84 92h1M104 92h1M110 92h1M14 93h6M50 93h6M78 93h6M105 93h5M116 117h1M50 120h1M110 122h1M110 123h2M16 124h4M80 124h4M103 133h2M55 134h1M103 134h4M108 134h1M19 135h1M51 135h2M55 135h2M83 135h1M103 135h2M108 135h1M18 136h1M20 136h1M51 136h2M57 136h1M82 136h1M84 136h1M103 136h2M108 136h2M111 136h1M118 136h1M10 137h1M17 137h2M38 137h1M46 137h1M51 137h3M56 137h2M74 137h1M81 137h2M103 137h3M109 137h1M111 137h1M118 137h1M10 138h1M19 138h2M38 138h1M52 138h5M74 138h1M83 138h2M104 138h5M112 138h1M10 139h1M19 139h1M38 139h1M74 139h1M83 139h1M112 139h1M11 140h1M18 140h1M39 140h2M47 140h1M75 140h1M82 140h1M113 140h1M119 140h1M12 141h6M41 141h6M76 141h6M114 141h5M10 188h1M15 188h1M17 188h1M22 188h1M43 188h1M74 188h1M79 188h1M81 188h1M86 188h1M117 188h1M11 189h4M18 189h4M44 189h1M75 189h4M82 189h4M116 189h1" />
<path stroke="#000000" d="M52 23h1M108 23h1M52 24h1M108 24h1M11 26h2M20 26h2M75 26h2M84 26h2M12 27h1M15 27h1M17 27h1M20 27h1M43 27h2M52 27h1M76 27h1M79 27h1M81 27h1M84 27h1M108 27h1M116 27h2M44 28h1M47 28h1M49 28h1M52 28h1M108 28h1M111 28h1M113 28h1M116 28h1M16 34h1M80 34h1M16 35h1M49 35h1M80 35h1M111 35h1M16 36h1M49 36h1M80 36h1M111 36h1M16 37h1M49 37h1M80 37h1M111 37h1M16 38h1M80 38h1M49 44h1M111 44h1M48 45h1M112 45h1M11 67h2M75 67h2M11 68h1M43 68h2M75 68h1M107 68h2M43 69h1M106 69h1M113 73h1M111 76h3M11 77h1M44 77h2M75 77h3M108 77h1M43 78h1M76 78h2M108 78h1M42 79h1M76 79h2M42 80h1M76 80h2M12 81h2M42 81h2M46 81h1M76 81h2M115 81h5M12 82h2M21 82h1M42 82h5M76 82h2M85 82h1M115 82h5M12 83h2M21 83h1M42 83h5M76 83h2M85 83h1M115 83h4M12 84h2M21 84h1M42 84h5M76 84h2M85 84h1M115 84h2M13 85h1M21 85h1M41 85h6M48 85h1M77 85h1M85 85h1M113 85h2M43 86h4M48 86h1M113 86h1M46 87h1M49 87h1M113 87h1M121 87h1M46 88h1M121 88h1M39 90h1M103 92h1M111 92h1M56 93h1M104 93h1M110 93h1M19 115h2M83 115h2M20 116h1M52 116h2M84 116h1M115 116h2M53 117h1M117 117h1M110 121h1M110 124h3M20 125h1M51 125h2M84 125h1M115 125h1M53 126h1M115 126h1M54 127h1M54 128h1M18 129h2M50 129h1M53 129h2M82 129h2M104 129h5M10 130h1M18 130h2M50 130h5M74 130h1M82 130h2M104 130h5M10 131h1M18 131h2M50 131h5M74 131h1M82 131h2M105 131h4M10 132h1M18 132h2M50 132h5M74 132h1M82 132h2M107 132h2M10 133h1M18 133h1M48 133h1M50 133h6M74 133h1M82 133h1M109 133h2M48 134h1M50 134h4M110 134h1M47 135h1M50 135h1M102 135h1M110 135h1M50 136h1M102 136h1M57 138h1M112 140h1M120 140h1M40 141h1M113 141h1M119 141h1" />
<path stroke="#0e192f" d="M10 26h1M22 26h1M74 26h1M86 26h1M10 29h1M22 29h1M74 29h1M86 29h1M10 30h1M16 30h1M22 30h1M74 30h1M80 30h1M86 30h1M10 31h1M16 31h1M22 31h1M49 31h1M53 31h1M74 31h1M80 31h1M86 31h1M107 31h1M111 31h1M16 32h1M43 32h1M49 32h1M80 32h1M111 32h1M117 32h1M16 33h1M43 33h1M49 33h1M80 33h1M111 33h1M117 33h1M43 34h1M49 34h1M111 34h1M117 34h1M15 77h1M52 77h1M79 77h1M109 77h1M112 77h2M52 78h1M20 79h1M84 79h1M14 80h1M20 80h1M78 80h1M84 80h1M115 80h1M14 81h1M47 81h1M53 81h1M78 81h1M108 81h1M114 81h1M20 82h1M47 82h1M84 82h1M14 83h1M47 83h1M53 83h1M78 83h1M108 83h1M114 83h1M14 84h1M48 84h2M78 84h1M107 84h1M114 84h1M16 125h1M44 125h1M80 125h1M110 125h2M114 125h1M44 126h1M11 127h1M75 127h1M11 128h1M17 128h1M75 128h1M81 128h1M108 128h1M17 129h1M43 129h1M49 129h1M81 129h1M109 129h1M115 129h1M11 130h1M49 130h1M75 130h1M17 131h1M43 131h1M49 131h1M81 131h1M109 131h1M115 131h1M17 132h1M47 132h2M81 132h1M109 132h1M116 132h1" />
<path stroke="#4f4f4f" d="M10 27h1M22 27h1M74 27h1M86 27h1M11 28h1M16 28h1M21 28h1M54 28h1M75 28h1M80 28h1M85 28h1M106 28h1M16 29h1M43 29h1M48 29h1M53 29h1M80 29h1M107 29h1M112 29h1M117 29h1M48 30h1M112 30h1M15 78h1M113 78h2M114 79h1M46 80h1M16 126h1M80 126h1M109 126h2M109 127h1M50 128h1" />
<path stroke="#29344a" d="M11 27h1M21 27h1M75 27h1M85 27h1M11 30h1M21 30h1M75 30h1M85 30h1M11 31h1M21 31h1M44 31h1M75 31h1M85 31h1M116 31h1M11 32h1M21 32h1M44 32h1M47 32h1M75 32h1M85 32h1M113 32h1M116 32h1M12 33h1M14 33h1M18 33h1M20 33h1M47 33h1M52 33h1M76 33h1M78 33h1M82 33h1M84 33h1M108 33h1M113 33h1M11 34h2M14 34h1M18 34h1M20 34h2M47 34h1M52 34h1M75 34h2M78 34h1M82 34h1M84 34h2M108 34h1M113 34h1M12 35h3M18 35h3M45 35h3M51 35h2M76 35h3M82 35h3M108 35h2M113 35h3M11 36h2M20 36h2M44 36h2M75 36h2M84 36h2M115 36h2M11 37h2M14 37h1M18 37h1M20 37h2M44 37h2M47 37h1M75 37h2M78 37h1M82 37h1M84 37h2M113 37h1M115 37h2M14 39h1M18 39h1M45 39h3M78 39h1M82 39h1M113 39h3M14 77h1M78 77h1M51 79h2M79 79h1M15 80h1M17 80h2M51 80h2M79 80h1M81 80h2M109 80h1M112 80h2M16 81h3M50 81h3M80 81h3M109 81h4M15 82h5M50 82h3M79 82h5M110 82h3M15 83h4M50 83h3M79 83h4M109 83h4M15 84h4M50 84h3M79 84h4M108 84h5M15 85h5M50 85h3M54 85h1M79 85h5M110 85h2M16 86h4M52 86h4M80 86h4M108 86h4M15 87h5M50 87h2M54 87h2M79 87h5M107 87h6M16 88h4M51 88h4M80 88h4M106 88h5M17 125h1M81 125h1M44 127h2M13 128h2M16 128h1M44 128h2M77 128h2M80 128h1M110 128h2M114 128h1M13 129h3M44 129h3M77 129h3M111 129h4M12 130h5M44 130h3M76 130h5M111 130h3M13 131h4M44 131h3M77 131h4M111 131h4M13 132h4M44 132h3M77 132h4M111 132h5M12 133h5M42 133h1M44 133h3M76 133h5M112 133h2M12 134h4M41 134h4M76 134h4M112 134h4M12 135h5M41 135h2M45 135h2M76 135h5M111 135h6M12 136h4M42 136h4M76 136h4M113 136h5" />
<path stroke="#391314" d="M9 28h1M23 28h1M73 28h1M87 28h1M9 29h1M23 29h1M73 29h1M87 29h1M9 30h1M23 30h1M73 30h1M87 30h1M9 31h1M23 31h1M41 31h2M54 31h1M73 31h1M87 31h1M106 31h1M118 31h2M8 32h2M23 32h2M40 32h3M54 32h2M72 32h2M87 32h2M105 32h2M118 32h3M8 33h2M23 33h2M40 33h3M54 33h3M72 33h2M87 33h2M104 33h3M118 33h3M8 34h2M23 34h2M40 34h3M54 34h3M72 34h2M87 34h2M104 34h3M118 34h3M7 35h3M23 35h3M39 35h4M54 35h3M71 35h3M87 35h3M104 35h3M118 35h4M7 36h3M23 36h3M39 36h4M54 36h4M71 36h3M87 36h3M103 36h4M118 36h4M7 37h3M23 37h3M37 37h4M55 37h3M71 37h3M87 37h3M103 37h3M120 37h4M7 38h2M24 38h2M37 38h2M56 38h2M71 38h2M88 38h2M103 38h2M122 38h2M6 39h1M26 39h1M37 39h1M57 39h2M70 39h1M90 39h1M102 39h2M123 39h1M58 40h1M102 40h1M119 76h1M21 78h1M85 78h1M120 78h1M21 79h1M85 79h1M119 79h2M21 80h2M85 80h2M120 80h1M21 81h2M85 81h2M120 81h1M22 82h1M54 82h1M86 82h1M120 82h2M22 83h2M86 83h2M120 83h2M22 84h2M55 84h1M86 84h2M121 84h1M22 85h2M55 85h1M86 85h2M121 85h1M23 86h2M56 86h1M87 86h2M121 86h1M24 87h1M56 87h1M88 87h1M104 124h1M10 126h1M74 126h1M103 126h1M10 127h1M74 127h1M103 127h2M9 128h2M73 128h2M103 128h1M9 129h2M73 129h2M103 129h1M9 130h1M42 130h1M73 130h1M102 130h2M8 131h2M72 131h2M102 131h2M8 132h2M41 132h1M72 132h2M102 132h1M8 133h2M41 133h1M72 133h2M102 133h1M7 134h2M40 134h1M71 134h2M102 134h1M7 135h1M40 135h1M71 135h1M52 186h2M107 186h2M11 187h3M19 187h3M43 187h3M50 187h2M75 187h3M83 187h3M109 187h2M112 187h6" />
<path stroke="#152036" d="M43 28h1M117 28h1M15 30h1M17 30h1M79 30h1M81 30h1M15 31h1M17 31h1M43 31h1M47 31h2M52 31h1M79 31h1M81 31h1M108 31h1M112 31h2M117 31h1M10 32h1M15 32h1M17 32h1M22 32h1M48 32h1M50 32h4M74 32h1M79 32h1M81 32h1M86 32h1M107 32h4M112 32h1M10 33h2M15 33h1M17 33h1M21 33h2M44 33h1M48 33h1M50 33h2M53 33h1M74 33h2M79 33h1M81 33h1M85 33h2M107 33h1M109 33h2M112 33h1M116 33h1M10 34h1M15 34h1M17 34h1M22 34h1M44 34h1M48 34h1M50 34h2M53 34h1M74 34h1M79 34h1M81 34h1M86 34h1M107 34h1M109 34h2M112 34h1M116 34h1M10 35h2M15 35h1M17 35h1M21 35h2M43 35h2M48 35h1M50 35h1M53 35h1M74 35h2M79 35h1M81 35h1M85 35h2M107 35h1M110 35h1M112 35h1M116 35h2M10 36h1M14 36h2M17 36h2M22 36h1M43 36h1M47 36h2M50 36h3M74 36h1M78 36h2M81 36h2M86 36h1M108 36h3M112 36h2M117 36h1M10 37h1M15 37h1M17 37h1M22 37h1M43 37h1M48 37h1M50 37h2M74 37h1M79 37h1M81 37h1M86 37h1M109 37h2M112 37h1M117 37h1M10 38h2M14 38h2M17 38h2M21 38h2M43 38h2M47 38h2M74 38h2M78 38h2M81 38h2M85 38h2M112 38h2M116 38h2M51 78h1M78 78h2M78 79h1M19 80h1M83 80h1M108 80h1M114 80h1M15 81h1M19 81h2M48 81h2M79 81h1M83 81h2M113 81h1M14 82h1M48 82h2M53 82h1M78 82h1M113 82h2M19 83h2M48 83h2M54 83h1M83 83h2M113 83h1M119 83h1M19 84h2M47 84h1M53 84h2M83 84h2M113 84h1M117 84h4M14 85h1M20 85h1M49 85h1M53 85h1M78 85h1M84 85h1M107 85h1M112 85h1M116 85h3M14 86h2M20 86h2M49 86h1M78 86h2M84 86h2M107 86h1M112 86h1M14 87h1M20 87h2M78 87h1M84 87h2M106 87h1M50 88h1M103 91h1M45 126h1M12 128h1M76 128h1M109 128h1M115 128h1M11 129h2M16 129h1M47 129h2M75 129h2M80 129h1M110 129h1M17 130h1M43 130h1M47 130h2M81 130h1M109 130h2M11 131h2M42 131h1M47 131h2M75 131h2M104 131h1M110 131h1M11 132h2M42 132h2M49 132h1M75 132h2M103 132h4M110 132h1M11 133h1M17 133h1M43 133h1M47 133h1M75 133h1M81 133h1M105 133h3M111 133h1M116 133h1M10 134h2M16 134h2M47 134h1M74 134h2M80 134h2M111 134h1M116 134h1M10 135h2M17 135h1M74 135h2M81 135h1M117 135h1M46 136h1M120 139h1" />
<path stroke="#39445a" d="M12 30h1M20 30h1M76 30h1M84 30h1M12 31h3M18 31h3M76 31h3M82 31h3M12 32h3M18 32h3M45 32h2M76 32h3M82 32h3M114 32h2M13 33h1M19 33h1M45 33h2M77 33h1M83 33h1M114 33h2M13 34h1M19 34h1M45 34h2M77 34h1M83 34h1M114 34h2M13 36h1M19 36h1M46 36h1M77 36h1M83 36h1M114 36h1M13 37h1M19 37h1M46 37h1M77 37h1M83 37h1M114 37h1M12 38h2M19 38h2M45 38h2M76 38h2M83 38h2M114 38h2M12 39h2M19 39h2M76 39h2M83 39h2M16 79h1M80 79h1M16 80h1M50 80h1M80 80h1M108 82h2M108 85h2M50 86h2M52 87h2M15 127h1M79 127h1M15 128h1M46 128h1M79 128h1M114 130h2M114 133h2M45 134h2M43 135h2" />
<path stroke="#0d0d0d" d="M53 36h1M107 36h1M53 37h1M107 37h1M49 38h1M53 38h1M107 38h1M111 38h1M10 39h1M16 39h1M22 39h1M43 39h1M49 39h2M52 39h2M74 39h1M80 39h1M86 39h1M107 39h2M110 39h2M117 39h1M15 40h1M17 40h1M48 40h1M79 40h1M81 40h1M112 40h1M53 42h1M107 42h1M50 43h3M108 43h3M52 187h1M108 187h1M44 188h6M111 188h6M45 189h4M112 189h4" />
<path stroke="#202020" d="M52 37h1M108 37h1M50 38h3M108 38h3M51 39h1M109 39h1M10 40h1M22 40h1M43 40h1M50 40h3M74 40h1M86 40h1M108 40h3M117 40h1M11 41h2M14 41h2M17 41h2M20 41h2M44 41h2M47 41h2M50 41h1M53 41h1M75 41h2M78 41h2M81 41h2M84 41h2M107 41h1M110 41h1M112 41h2M115 41h2M10 42h1M15 42h1M17 42h1M22 42h1M43 42h1M48 42h1M50 42h3M74 42h1M79 42h1M81 42h1M86 42h1M108 42h3M112 42h1M117 42h1M15 89h1M51 89h1M56 89h2M79 89h1M106 89h1M111 89h1M13 90h3M19 90h2M49 90h3M55 90h3M77 90h3M83 90h2M104 90h3M109 90h2M13 91h1M49 91h1M56 91h2M77 91h1M104 91h1M16 137h1M39 137h2M45 137h1M80 137h1M112 137h1M117 137h1M11 138h2M16 138h3M39 138h3M45 138h3M75 138h2M80 138h3M113 138h2M117 138h3M18 139h1M39 139h2M47 139h1M82 139h1M119 139h1M10 187h1M22 187h1M74 187h1M86 187h1M11 188h1M14 188h1M18 188h1M21 188h1M75 188h1M78 188h1M82 188h1M85 188h1" />
<path stroke="#b8917c" d="M8 53h1M72 53h1M40 54h1M104 54h1M18 56h1M82 56h1M114 57h1M23 101h1M87 101h1M55 102h1M119 102h1M13 104h1M77 104h1M109 105h1" />
<path stroke="#5c4766" d="M105 70h2M105 71h2M105 72h1M104 73h1M104 75h1M105 76h1M117 118h2M117 119h2M118 120h1M119 121h1M119 123h1M118 124h1" />
<path stroke="#202b41" d="M13 86h1M77 86h1M18 134h1M82 134h1" />
</svg>