<svg xmlns="http://www.w3.org/2000/svg" viewBox="0 -0.5 128 192" shape-rendering="crispEdges">
<metadata>Made with Pixels to Svg https://codepen.io/shshaw/pen/XbxvNj</metadata>
<path stroke="#5f4838" d="M10 11h2M21 11h2M74 11h2M85 11h2M12 12h1M20 12h1M42 12h2M53 12h2M76 12h1M84 12h1M106 12h2M117 12h2M13 13h7M44 13h1M52 13h1M77 13h7M108 13h1M116 13h1M45 14h7M109 14h7M9 15h1M23 15h1M73 15h1M87 15h1M7 16h2M24 16h2M41 16h1M55 16h1M71 16h2M88 16h2M105 16h1M119 16h1M7 17h1M25 17h1M39 17h2M56 17h2M71 17h1M89 17h1M103 17h2M120 17h2M8 18h1M24 18h1M39 18h1M57 18h1M72 18h1M88 18h1M103 18h1M121 18h1M40 19h1M56 19h1M104 19h1M120 19h1M12 24h1M20 24h1M76 24h1M84 24h1M44 25h1M52 25h1M108 25h1M116 25h1M7 27h1M25 27h1M40 27h1M71 27h1M89 27h1M120 27h1M7 28h1M25 28h1M39 28h1M57 28h1M71 28h1M89 28h1M103 28h1M121 28h1M6 29h1M10 29h1M22 29h1M26 29h1M39 29h1M57 29h1M70 29h1M74 29h1M86 29h1M90 29h1M103 29h1M121 29h1M6 30h1M10 30h1M22 30h1M26 30h1M38 30h1M42 30h1M57 30h1M70 30h1M74 30h1M86 30h1M90 30h1M103 30h1M118 30h1M122 30h1M6 31h1M9 31h1M23 31h1M26 31h1M38 31h1M42 31h1M57 31h1M70 31h1M73 31h1M87 31h1M90 31h1M103 31h1M118 31h1M122 31h1M7 32h2M24 32h2M38 32h1M41 32h1M54 32h1M57 32h1M71 32h2M88 32h2M103 32h1M106 32h1M119 32h1M122 32h1M39 33h2M55 33h2M104 33h2M120 33h2M41 34h1M119 34h1M10 59h2M74 59h2M12 60h1M19 60h2M42 60h2M76 60h1M83 60h2M106 60h2M10 61h1M13 61h1M21 61h1M44 61h1M51 61h2M74 61h1M77 61h1M85 61h1M108 61h1M115 61h2M13 62h3M21 62h1M42 62h1M45 62h1M53 62h1M77 62h3M85 62h1M106 62h1M109 62h1M117 62h1M21 63h1M45 63h3M53 63h1M85 63h1M109 63h3M117 63h1M9 64h2M17 64h2M21 64h1M53 64h1M73 64h2M81 64h2M85 64h1M117 64h1M9 65h1M20 65h1M41 65h2M49 65h2M53 65h1M73 65h1M84 65h1M105 65h2M113 65h2M117 65h1M9 66h1M21 66h2M41 66h1M52 66h1M73 66h1M85 66h2M105 66h1M116 66h1M20 67h3M41 67h1M53 67h2M84 67h3M105 67h1M117 67h2M10 68h2M22 68h1M52 68h3M74 68h2M86 68h1M116 68h3M11 69h1M19 69h1M22 69h1M42 69h2M54 69h1M75 69h1M83 69h1M86 69h1M106 69h2M118 69h1M11 70h1M20 70h2M43 70h1M51 70h1M54 70h1M75 70h1M84 70h2M107 70h1M115 70h1M118 70h1M18 71h1M43 71h1M52 71h2M82 71h1M107 71h1M116 71h2M15 72h1M50 72h1M79 72h1M114 72h1M14 73h1M47 73h1M78 73h1M111 73h1M12 74h2M46 74h1M76 74h2M110 74h1M44 75h2M108 75h2M48 77h1M22 78h1M54 78h1M86 78h1M117 78h1M22 79h1M53 79h1M55 79h1M86 79h1M118 79h1M17 80h1M22 80h1M47 80h1M52 80h1M81 80h1M86 80h1M114 80h1M118 80h1M21 81h1M51 81h1M85 81h1M118 81h1M20 82h1M50 82h1M84 82h1M117 82h1M22 83h1M48 83h2M86 83h1M118 83h1M22 84h2M86 84h2M115 84h1M13 86h1M77 86h1M13 87h3M24 87h1M42 87h1M46 87h1M77 87h3M88 87h1M113 87h2M12 88h4M21 88h1M25 88h1M42 88h5M55 88h1M76 88h4M85 88h1M89 88h1M113 88h1M115 88h1M13 89h2M48 89h1M77 89h2M105 89h1M115 89h1M48 90h1M115 90h1M14 91h1M48 91h1M78 91h1M105 91h1M115 91h1M20 107h2M84 107h2M11 108h2M19 108h1M52 108h2M75 108h2M83 108h1M116 108h2M10 109h1M18 109h1M21 109h1M43 109h2M51 109h1M74 109h1M82 109h1M85 109h1M107 109h2M115 109h1M10 110h1M16 110h3M42 110h1M50 110h1M53 110h1M74 110h1M80 110h3M106 110h1M114 110h1M117 110h1M10 111h1M42 111h1M48 111h3M74 111h1M106 111h1M112 111h3M10 112h1M13 112h2M21 112h2M42 112h1M74 112h1M77 112h2M85 112h2M106 112h1M11 113h1M22 113h1M42 113h1M45 113h2M53 113h2M75 113h1M86 113h1M106 113h1M109 113h2M117 113h2M9 114h2M22 114h1M43 114h1M54 114h1M73 114h2M86 114h1M107 114h1M118 114h1M9 115h3M41 115h2M54 115h1M73 115h3M105 115h2M118 115h1M9 116h1M20 116h2M41 116h3M73 116h1M84 116h2M105 116h3M9 117h1M12 117h1M20 117h1M41 117h1M52 117h2M73 117h1M76 117h1M84 117h1M105 117h1M116 117h2M10 118h2M20 118h1M41 118h1M44 118h1M52 118h1M74 118h2M84 118h1M105 118h1M108 118h1M116 118h1M13 119h1M42 119h2M52 119h1M77 119h1M106 119h2M116 119h1M16 120h1M45 120h1M80 120h1M109 120h1M17 121h1M48 121h1M81 121h1M112 121h1M18 122h2M49 122h1M82 122h2M113 122h1M50 123h2M114 123h2M47 125h1M9 126h1M41 126h1M73 126h1M106 126h1M9 127h1M40 127h1M42 127h1M73 127h1M105 127h1M9 128h1M14 128h1M43 128h1M48 128h1M73 128h1M78 128h1M105 128h1M109 128h1M10 129h1M44 129h1M74 129h1M105 129h1M11 130h1M45 130h1M75 130h1M105 130h2M9 131h1M46 131h2M73 131h1M104 131h1M8 132h2M72 132h2M107 132h1M18 134h1M82 134h1M7 135h1M16 135h3M49 135h1M53 135h1M71 135h1M80 135h3M108 135h3M6 136h1M10 136h1M16 136h4M40 136h1M49 136h5M70 136h1M74 136h1M80 136h4M107 136h1M109 136h2M17 137h2M47 137h1M81 137h2M118 137h1M47 138h1M17 139h1M47 139h1M81 139h1M107 139h1M118 139h1M10 157h2M21 157h2M74 157h2M85 157h2M12 158h1M20 158h1M42 158h2M53 158h2M76 158h1M84 158h1M106 158h2M117 158h2M13 159h7M44 159h1M52 159h1M77 159h7M108 159h1M116 159h1M14 160h1M16 160h1M18 160h1M45 160h7M78 160h1M80 160h1M82 160h1M109 160h7M9 161h1M14 161h1M18 161h1M23 161h1M46 161h1M48 161h1M50 161h1M73 161h1M78 161h1M82 161h1M87 161h1M110 161h1M112 161h1M114 161h1M7 162h2M24 162h2M41 162h1M46 162h1M50 162h1M55 162h1M71 162h2M88 162h2M105 162h1M110 162h1M114 162h1M119 162h1M7 163h1M25 163h1M39 163h2M56 163h2M71 163h1M89 163h1M103 163h2M120 163h2M8 164h1M24 164h1M39 164h1M57 164h1M72 164h1M88 164h1M103 164h1M121 164h1M9 165h1M23 165h1M40 165h1M56 165h1M73 165h1M87 165h1M104 165h1M120 165h1M8 166h1M24 166h1M41 166h1M55 166h1M72 166h1M88 166h1M105 166h1M119 166h1M9 167h1M23 167h1M40 167h1M56 167h1M73 167h1M87 167h1M104 167h1M120 167h1M11 168h9M21 168h1M41 168h1M55 168h1M75 168h9M85 168h1M105 168h1M119 168h1M43 169h9M53 169h1M107 169h9M117 169h1M7 171h1M25 171h1M71 171h1M89 171h1M7 172h1M25 172h1M39 172h1M71 172h1M89 172h1M121 172h1M6 173h1M10 173h1M22 173h1M26 173h1M39 173h1M57 173h1M70 173h1M74 173h1M86 173h1M90 173h1M103 173h1M121 173h1M6 174h1M9 174h1M23 174h1M26 174h1M38 174h1M42 174h1M57 174h1M70 174h1M73 174h1M87 174h1M90 174h1M103 174h1M118 174h1M122 174h1M6 175h1M9 175h1M23 175h1M26 175h1M38 175h1M41 175h1M57 175h1M70 175h1M73 175h1M87 175h1M90 175h1M103 175h1M119 175h1M122 175h1M7 176h2M24 176h2M38 176h1M41 176h1M54 176h1M57 176h1M71 176h2M88 176h2M103 176h1M106 176h1M119 176h1M122 176h1M39 177h2M55 177h2M104 177h2M120 177h2M48 181h1M112 181h1M46 184h1M114 184h1M15 186h1M17 186h1M79 186h1M81 186h1M43 188h1M117 188h1M16 189h1M80 189h1" />
<path stroke="#452e1e" d="M9 12h1M23 12h1M73 12h1M87 12h1M41 13h1M55 13h1M105 13h1M119 13h1M8 15h1M24 15h1M72 15h1M88 15h1M40 16h1M56 16h1M104 16h1M120 16h1M12 25h1M20 25h1M76 25h1M84 25h1M12 26h1M20 26h1M44 26h1M52 26h1M76 26h1M84 26h1M108 26h1M116 26h1M44 27h1M52 27h1M108 27h1M116 27h1M41 33h1M119 33h1M40 41h2M119 41h2M20 69h2M84 69h2M52 70h2M116 70h2M19 71h2M83 71h2M16 72h3M51 72h2M80 72h3M115 72h2M48 73h3M112 73h3M119 84h1M115 85h1M115 86h1M56 87h1M115 87h1M118 87h1M24 88h1M27 88h1M88 88h1M91 88h1M114 88h1M118 88h1M113 89h2M114 90h1M26 91h1M90 91h1M114 91h1M116 91h1M115 92h1M10 117h2M74 117h2M42 118h2M106 118h2M11 119h2M75 119h2M13 120h3M43 120h2M77 120h3M107 120h2M45 121h3M109 121h3M103 132h1M39 135h1M104 135h1M107 135h1M4 136h1M7 136h1M68 136h1M71 136h1M104 136h1M108 136h1M5 139h1M69 139h1M106 139h1M108 139h1M107 140h1M9 158h1M23 158h1M73 158h1M87 158h1M41 159h1M55 159h1M105 159h1M119 159h1M8 161h1M24 161h1M72 161h1M88 161h1M40 162h1M56 162h1M104 162h1M120 162h1M8 165h1M24 165h1M72 165h1M88 165h1M7 166h1M25 166h1M40 166h1M56 166h1M71 166h1M89 166h1M104 166h1M120 166h1M39 167h1M57 167h1M103 167h1M121 167h1M10 168h1M20 168h1M22 168h1M74 168h1M84 168h1M86 168h1M42 169h1M52 169h1M54 169h1M106 169h1M116 169h1M118 169h1M13 181h1M19 181h1M43 181h1M77 181h1M83 181h1M117 181h1M13 182h1M19 182h1M77 182h1M83 182h1M47 184h1M113 184h1M46 185h2M113 185h2M42 188h1M44 188h1M116 188h1M118 188h1M15 189h1M17 189h1M42 189h2M79 189h1M81 189h1M117 189h2M16 190h1M80 190h1" />
<path stroke="#a38c7c" d="M10 12h1M22 12h1M74 12h1M86 12h1M42 13h1M54 13h1M106 13h1M118 13h1M12 14h1M14 14h1M18 14h1M20 14h1M76 14h1M78 14h1M82 14h1M84 14h1M12 15h1M14 15h1M18 15h1M20 15h1M44 15h1M46 15h1M50 15h1M52 15h1M76 15h1M78 15h1M82 15h1M84 15h1M108 15h1M110 15h1M114 15h1M116 15h1M11 16h2M14 16h2M17 16h2M20 16h2M44 16h1M46 16h1M50 16h1M52 16h1M75 16h2M78 16h2M81 16h2M84 16h2M108 16h1M110 16h1M114 16h1M116 16h1M10 17h1M12 17h9M22 17h1M43 17h2M46 17h2M49 17h2M52 17h2M74 17h1M76 17h9M86 17h1M107 17h2M110 17h2M113 17h2M116 17h2M14 18h5M42 18h1M44 18h9M54 18h1M78 18h5M106 18h1M108 18h9M118 18h1M15 19h3M46 19h5M79 19h3M110 19h5M15 20h3M47 20h3M79 20h3M111 20h3M15 21h3M47 21h3M79 21h3M111 21h3M47 22h3M111 22h3M42 34h1M118 34h1M11 60h1M75 60h1M43 61h1M107 61h1M11 62h1M75 62h1M10 63h1M43 63h1M74 63h1M107 63h1M14 64h1M42 64h1M78 64h1M106 64h1M14 65h1M18 65h1M46 65h1M78 65h1M82 65h1M110 65h1M17 66h2M46 66h1M50 66h1M81 66h2M110 66h1M114 66h1M19 67h1M49 67h2M83 67h1M113 67h2M9 68h1M17 68h1M51 68h1M73 68h1M81 68h1M115 68h1M41 69h1M49 69h1M105 69h1M113 69h1M16 70h2M80 70h2M48 71h2M112 71h2M23 79h1M87 79h1M23 80h1M54 80h1M87 80h1M24 83h1M55 83h1M88 83h1M116 83h1M24 84h1M55 84h1M88 84h1M116 84h1M26 87h1M90 87h1M26 88h1M90 88h1M20 108h1M84 108h1M52 109h1M116 109h1M20 110h1M84 110h1M21 111h1M52 111h1M85 111h1M116 111h1M17 112h1M53 112h1M81 112h1M117 112h1M13 113h1M17 113h1M49 113h1M77 113h1M81 113h1M113 113h1M13 114h2M45 114h1M49 114h1M77 114h2M109 114h1M113 114h1M12 115h1M45 115h2M76 115h1M109 115h2M14 116h1M22 116h1M44 116h1M78 116h1M86 116h1M108 116h1M46 117h1M54 117h1M110 117h1M118 117h1M14 118h2M78 118h2M46 119h2M110 119h2M8 127h1M72 127h1M8 128h1M41 128h1M72 128h1M7 131h1M40 131h1M71 131h1M106 131h1M7 132h1M40 132h1M71 132h1M106 132h1M5 135h1M69 135h1M5 136h1M69 136h1M11 160h2M20 160h2M75 160h2M84 160h2M10 161h2M21 161h2M43 161h2M52 161h2M74 161h2M85 161h2M107 161h2M116 161h2M13 162h3M17 162h3M42 162h2M53 162h2M77 162h3M81 162h3M106 162h2M117 162h2M16 163h1M45 163h3M49 163h3M80 163h1M109 163h3M113 163h3M48 164h1M112 164h1M47 176h1M113 176h1M47 177h1M113 177h1M16 178h1M80 178h1M45 180h2M114 180h2M15 181h3M45 181h2M79 181h3M114 181h2M15 182h3M79 182h3" />
<path stroke="#7c6555" d="M11 12h1M21 12h1M75 12h1M85 12h1M12 13h1M20 13h1M43 13h1M53 13h1M76 13h1M84 13h1M107 13h1M117 13h1M13 14h1M15 14h3M19 14h1M44 14h1M52 14h1M77 14h1M79 14h3M83 14h1M108 14h1M116 14h1M16 15h1M45 15h1M47 15h3M51 15h1M80 15h1M109 15h1M111 15h3M115 15h1M9 16h1M23 16h1M48 16h1M73 16h1M87 16h1M112 16h1M41 17h1M55 17h1M105 17h1M119 17h1M19 26h1M83 26h1M8 27h1M24 27h1M51 27h1M72 27h1M88 27h1M115 27h1M10 28h1M22 28h1M40 28h1M56 28h1M74 28h1M86 28h1M104 28h1M120 28h1M7 29h1M25 29h1M42 29h1M54 29h1M71 29h1M89 29h1M106 29h1M118 29h1M23 30h1M39 30h1M56 30h1M87 30h1M104 30h1M121 30h1M7 31h1M25 31h1M54 31h1M71 31h1M89 31h1M106 31h1M39 32h1M56 32h1M104 32h1M121 32h1M42 33h1M118 33h1M41 37h2M118 37h2M41 38h1M119 38h1M50 40h3M108 40h3M15 41h1M17 41h1M48 41h1M50 41h1M52 41h1M79 41h1M81 41h1M108 41h1M110 41h1M112 41h1M15 42h1M17 42h1M48 42h1M79 42h1M81 42h1M112 42h1M11 43h1M13 43h1M19 43h1M21 43h1M44 43h1M46 43h1M75 43h1M77 43h1M83 43h1M85 43h1M114 43h1M116 43h1M12 62h1M76 62h1M12 63h2M44 63h1M76 63h2M108 63h1M44 64h2M108 64h2M8 66h1M72 66h1M8 67h1M40 67h1M72 67h1M104 67h1M40 68h1M104 68h1M11 72h2M75 72h2M12 73h1M16 73h1M43 73h2M76 73h1M80 73h1M107 73h2M44 74h1M108 74h1M18 76h1M82 76h1M18 77h1M49 77h1M52 77h1M82 77h1M49 78h1M51 79h1M21 80h1M85 80h1M20 81h1M47 81h1M50 81h1M84 81h1M117 81h1M47 82h3M117 83h1M117 84h1M116 87h1M16 88h1M54 88h1M80 88h1M116 88h1M15 89h1M49 89h1M79 89h1M106 89h1M116 89h1M14 90h1M20 90h1M54 90h1M78 90h1M84 90h1M105 90h1M111 90h1M15 91h1M19 91h1M53 91h1M79 91h1M83 91h1M106 91h1M110 91h1M19 110h1M83 110h1M18 111h2M51 111h1M82 111h2M115 111h1M50 112h2M114 112h2M23 114h1M87 114h1M23 115h1M55 115h1M87 115h1M119 115h1M55 116h1M119 116h1M19 120h2M83 120h2M15 121h1M19 121h1M51 121h2M79 121h1M83 121h1M115 121h2M51 122h1M115 122h1M13 124h1M77 124h1M13 125h1M43 125h1M46 125h1M77 125h1M46 126h1M44 127h1M10 128h1M74 128h1M11 129h1M45 129h1M48 129h1M75 129h1M106 129h1M46 130h3M105 131h1M105 132h1M106 135h1M15 136h1M41 136h1M79 136h1M106 136h1M16 137h1M46 137h1M80 137h1M117 137h1M11 138h1M17 138h1M41 138h1M75 138h1M81 138h1M112 138h1M118 138h1M12 139h1M16 139h1M42 139h1M76 139h1M80 139h1M113 139h1M117 139h1M11 158h1M21 158h1M75 158h1M85 158h1M12 159h1M20 159h1M43 159h1M53 159h1M76 159h1M84 159h1M107 159h1M117 159h1M13 160h1M15 160h1M17 160h1M19 160h1M44 160h1M52 160h1M77 160h1M79 160h1M81 160h1M83 160h1M108 160h1M116 160h1M16 161h1M45 161h1M47 161h1M49 161h1M51 161h1M80 161h1M109 161h1M111 161h1M113 161h1M115 161h1M9 162h1M23 162h1M48 162h1M73 162h1M87 162h1M112 162h1M11 163h1M15 163h1M17 163h1M21 163h1M41 163h1M55 163h1M75 163h1M79 163h1M81 163h1M85 163h1M105 163h1M119 163h1M12 164h1M20 164h1M43 164h1M47 164h1M49 164h1M53 164h1M76 164h1M84 164h1M107 164h1M111 164h1M113 164h1M117 164h1M10 165h1M12 165h1M15 165h3M20 165h1M22 165h1M44 165h1M52 165h1M74 165h1M76 165h1M79 165h3M84 165h1M86 165h1M108 165h1M116 165h1M9 166h2M12 166h3M18 166h3M22 166h2M42 166h1M44 166h1M47 166h3M52 166h1M54 166h1M73 166h2M76 166h3M82 166h3M86 166h2M106 166h1M108 166h1M111 166h3M116 166h1M118 166h1M15 167h3M41 167h2M44 167h3M50 167h3M54 167h2M79 167h3M105 167h2M108 167h3M114 167h3M118 167h2M47 168h3M111 168h3M8 171h1M24 171h1M72 171h1M88 171h1M10 172h1M22 172h1M40 172h1M74 172h1M86 172h1M120 172h1M7 173h1M25 173h1M42 173h1M54 173h1M71 173h1M89 173h1M106 173h1M118 173h1M39 174h1M56 174h1M104 174h1M121 174h1M7 175h1M25 175h1M54 175h1M71 175h1M89 175h1M106 175h1M39 176h1M46 176h1M48 176h1M56 176h1M104 176h1M112 176h1M114 176h1M121 176h1M16 177h1M46 177h1M48 177h1M80 177h1M112 177h1M114 177h1M47 180h1M113 180h1M44 181h1M116 181h1M43 184h2M50 184h3M108 184h3M116 184h2M16 185h1M43 185h2M48 185h1M80 185h1M112 185h1M116 185h2M16 186h1M48 186h1M80 186h1M112 186h1M11 187h1M21 187h1M47 187h1M75 187h1M85 187h1M113 187h1" />
<path stroke="#382111" d="M13 12h7M77 12h7M45 13h7M109 13h7M110 29h2M113 29h2M40 37h1M120 37h1M40 38h1M120 38h1M14 61h3M78 61h3M10 62h1M16 62h1M46 62h3M74 62h1M80 62h1M110 62h3M9 63h1M42 63h1M48 63h1M73 63h1M106 63h1M112 63h1M41 64h1M105 64h1M23 87h1M87 87h1M23 88h1M87 88h1M25 91h1M89 91h1M26 92h1M90 92h1M15 109h3M79 109h3M15 110h1M21 110h1M47 110h3M79 110h1M85 110h1M111 110h3M22 111h1M47 111h1M53 111h1M86 111h1M111 111h1M117 111h1M54 112h1M118 112h1M25 119h2M89 119h2M23 120h4M57 120h2M87 120h4M121 120h2M24 121h1M26 121h1M55 121h4M88 121h1M90 121h1M119 121h4M25 122h1M56 122h1M58 122h1M89 122h1M120 122h1M122 122h1M57 123h1M121 123h1M8 135h1M72 135h1M8 136h1M72 136h1M6 139h1M70 139h1M5 140h1M69 140h1M13 158h7M77 158h7M45 159h7M109 159h7M42 184h1M14 185h1M18 185h1M42 185h1M78 185h1M82 185h1M14 186h1M18 186h1M78 186h1M82 186h1" />
<path stroke="#3e2717" d="M9 13h1M23 13h1M73 13h1M87 13h1M9 14h1M23 14h1M41 14h1M55 14h1M73 14h1M87 14h1M105 14h1M119 14h1M41 15h1M55 15h1M105 15h1M119 15h1M9 159h1M23 159h1M73 159h1M87 159h1M9 160h1M23 160h1M41 160h1M55 160h1M73 160h1M87 160h1M105 160h1M119 160h1M41 161h1M55 161h1M105 161h1M119 161h1M8 167h1M24 167h1M72 167h1M88 167h1M40 168h1M56 168h1M104 168h1M120 168h1" />
<path stroke="#8b7464" d="M10 13h1M22 13h1M74 13h1M86 13h1M11 14h1M21 14h1M42 14h1M54 14h1M75 14h1M85 14h1M106 14h1M118 14h1M11 15h1M13 15h1M15 15h1M17 15h1M19 15h1M21 15h1M43 15h1M53 15h1M75 15h1M77 15h1M79 15h1M81 15h1M83 15h1M85 15h1M107 15h1M117 15h1M10 16h1M16 16h1M22 16h1M43 16h1M45 16h1M47 16h1M49 16h1M51 16h1M53 16h1M74 16h1M80 16h1M86 16h1M107 16h1M109 16h1M111 16h1M113 16h1M115 16h1M117 16h1M9 17h1M11 17h1M21 17h1M23 17h1M42 17h1M48 17h1M54 17h1M73 17h1M75 17h1M85 17h1M87 17h1M106 17h1M112 17h1M118 17h1M41 18h1M43 18h1M53 18h1M55 18h1M105 18h1M107 18h1M117 18h1M119 18h1M15 22h1M17 22h1M79 22h1M81 22h1M14 23h1M18 23h1M47 23h1M49 23h1M78 23h1M82 23h1M111 23h1M113 23h1M13 24h2M18 24h2M46 24h1M50 24h1M77 24h2M82 24h2M110 24h1M114 24h1M13 25h1M19 25h1M45 25h2M50 25h2M77 25h1M83 25h1M109 25h2M114 25h2M45 26h1M51 26h1M109 26h1M115 26h1M54 28h1M106 28h1M9 29h1M23 29h1M73 29h1M87 29h1M7 30h3M24 30h2M41 30h1M54 30h1M71 30h3M88 30h2M106 30h1M119 30h1M8 31h1M24 31h1M39 31h3M55 31h2M72 31h1M88 31h1M104 31h2M119 31h3M40 32h1M55 32h1M105 32h1M120 32h1M12 43h1M20 43h1M45 43h1M76 43h1M84 43h1M115 43h1M12 61h1M18 61h1M76 61h1M82 61h1M17 62h1M19 62h2M44 62h1M50 62h1M81 62h1M83 62h2M108 62h1M114 62h1M11 63h1M14 63h3M18 63h1M20 63h1M49 63h1M51 63h2M75 63h1M78 63h3M82 63h1M84 63h1M113 63h1M115 63h2M11 64h3M19 64h2M43 64h1M46 64h3M50 64h1M52 64h1M75 64h3M83 64h2M107 64h1M110 64h3M114 64h1M116 64h1M10 65h3M43 65h3M51 65h2M74 65h3M107 65h3M115 65h2M10 66h2M20 66h1M42 66h3M74 66h2M84 66h1M106 66h3M10 67h1M18 67h1M42 67h2M52 67h1M74 67h1M82 67h1M106 67h2M116 67h1M8 68h1M19 68h1M42 68h1M50 68h1M72 68h1M83 68h1M106 68h1M114 68h1M10 69h1M17 69h1M40 69h1M51 69h1M74 69h1M81 69h1M104 69h1M115 69h1M14 70h2M18 70h1M42 70h1M49 70h1M78 70h2M82 70h1M106 70h1M113 70h1M13 71h3M46 71h2M50 71h1M77 71h3M110 71h2M114 71h1M45 72h3M109 72h3M51 77h1M116 77h1M21 78h1M51 78h1M85 78h1M116 78h1M21 79h1M85 79h1M117 79h1M18 80h1M48 80h1M50 80h1M82 80h1M115 80h1M18 81h1M48 81h1M82 81h1M115 81h1M25 83h1M89 83h1M25 84h1M89 84h1M52 88h2M18 89h3M50 89h5M82 89h3M109 89h1M16 91h1M80 91h1M107 91h1M13 109h1M19 109h1M77 109h1M83 109h1M11 110h2M14 110h1M45 110h1M51 110h1M75 110h2M78 110h1M109 110h1M115 110h1M11 111h1M13 111h1M15 111h3M20 111h1M43 111h2M46 111h1M75 111h1M77 111h1M79 111h3M84 111h1M107 111h2M110 111h1M11 112h2M18 112h3M43 112h1M45 112h1M47 112h3M52 112h1M75 112h2M82 112h3M107 112h1M109 112h1M111 112h3M116 112h1M19 113h3M43 113h2M50 113h3M83 113h3M107 113h2M114 113h3M11 114h1M20 114h2M51 114h3M75 114h1M84 114h2M115 114h3M13 115h1M21 115h1M43 115h1M52 115h2M77 115h1M85 115h1M107 115h1M116 115h2M12 116h1M23 116h1M45 116h1M53 116h1M76 116h1M87 116h1M109 116h1M117 116h1M14 117h1M21 117h1M44 117h1M55 117h1M78 117h1M85 117h1M108 117h1M119 117h1M13 118h1M16 118h2M46 118h1M53 118h1M77 118h1M80 118h2M110 118h1M117 118h1M16 119h3M45 119h1M48 119h2M80 119h3M109 119h1M112 119h2M48 120h3M112 120h3M44 125h1M107 125h1M10 126h1M44 126h1M74 126h1M107 126h1M10 127h1M74 127h1M106 127h1M13 128h1M45 128h1M47 128h1M77 128h1M108 128h1M13 129h1M47 129h1M77 129h1M108 129h1M6 131h1M70 131h1M6 132h1M70 132h1M42 136h2M11 137h3M41 137h5M75 137h3M114 137h1M15 139h1M79 139h1M116 139h1M13 161h1M15 161h1M17 161h1M19 161h1M77 161h1M79 161h1M81 161h1M83 161h1M16 162h1M45 162h1M47 162h1M49 162h1M51 162h1M80 162h1M109 162h1M111 162h1M113 162h1M115 162h1M9 163h1M13 163h2M18 163h2M23 163h1M48 163h1M73 163h1M77 163h2M82 163h2M87 163h1M112 163h1M10 164h1M15 164h1M17 164h1M22 164h1M41 164h1M45 164h2M50 164h2M55 164h1M74 164h1M79 164h1M81 164h1M86 164h1M105 164h1M109 164h2M114 164h2M119 164h1M11 165h1M13 165h2M18 165h2M21 165h1M42 165h1M47 165h1M49 165h1M54 165h1M75 165h1M77 165h2M82 165h2M85 165h1M106 165h1M111 165h1M113 165h1M118 165h1M11 166h1M21 166h1M43 166h1M45 166h2M50 166h2M53 166h1M75 166h1M85 166h1M107 166h1M109 166h2M114 166h2M117 166h1M11 167h1M21 167h1M43 167h1M53 167h1M75 167h1M85 167h1M107 167h1M117 167h1M43 168h1M53 168h1M107 168h1M117 168h1M9 173h1M23 173h1M73 173h1M87 173h1M7 174h1M25 174h1M41 174h1M54 174h1M71 174h1M89 174h1M106 174h1M119 174h1M8 175h1M24 175h1M39 175h1M55 175h2M72 175h1M88 175h1M104 175h2M121 175h1M40 176h1M55 176h1M105 176h1M120 176h1M11 186h3M19 186h3M47 186h1M75 186h3M83 186h3M113 186h1M12 187h2M19 187h2M46 187h1M76 187h2M83 187h2M114 187h1" />
<path stroke="#b29b8b" d="M11 13h1M21 13h1M75 13h1M85 13h1M10 14h1M22 14h1M43 14h1M53 14h1M74 14h1M86 14h1M107 14h1M117 14h1M42 15h1M54 15h1M106 15h1M118 15h1M13 16h1M19 16h1M77 16h1M83 16h1M45 17h1M51 17h1M109 17h1M115 17h1M9 27h1M23 27h1M73 27h1M87 27h1M8 28h2M23 28h2M41 28h1M55 28h1M72 28h2M87 28h2M105 28h1M119 28h1M8 29h1M24 29h1M40 29h2M55 29h2M72 29h1M88 29h1M104 29h2M119 29h2M40 30h1M55 30h1M105 30h1M120 30h1M11 42h4M18 42h4M44 42h4M75 42h4M82 42h4M113 42h4M14 43h1M18 43h1M47 43h1M78 43h1M82 43h1M113 43h1M10 60h1M74 60h1M11 61h1M19 61h2M42 61h1M75 61h1M83 61h2M106 61h1M18 62h1M43 62h1M51 62h2M82 62h1M107 62h1M115 62h2M17 63h1M19 63h1M50 63h1M81 63h1M83 63h1M114 63h1M15 64h2M49 64h1M51 64h1M79 64h2M113 64h1M115 64h1M13 65h1M15 65h3M19 65h1M47 65h2M77 65h1M79 65h3M83 65h1M111 65h2M16 66h1M45 66h1M47 66h3M51 66h1M80 66h1M109 66h1M111 66h3M115 66h1M9 67h1M48 67h1M73 67h1M112 67h1M41 68h1M105 68h1M19 76h2M50 76h2M83 76h2M19 77h2M50 77h1M83 77h2M114 77h2M19 78h2M50 78h1M83 78h2M114 78h2M19 79h2M49 79h2M83 79h2M115 79h2M19 80h2M49 80h1M83 80h2M116 80h2M19 81h1M49 81h1M83 81h1M116 81h1M16 89h2M80 89h2M107 89h2M15 90h5M49 90h5M79 90h5M106 90h5M17 91h2M49 91h4M81 91h2M108 91h2M21 108h1M85 108h1M11 109h2M20 109h1M53 109h1M75 109h2M84 109h1M117 109h1M13 110h1M43 110h2M52 110h1M77 110h1M107 110h2M116 110h1M12 111h1M14 111h1M45 111h1M76 111h1M78 111h1M109 111h1M15 112h2M44 112h1M46 112h1M79 112h2M108 112h1M110 112h1M12 113h1M14 113h3M18 113h1M47 113h2M76 113h1M78 113h3M82 113h1M111 113h2M15 114h1M44 114h1M46 114h3M50 114h1M79 114h1M108 114h1M110 114h3M114 114h1M22 115h1M47 115h1M86 115h1M111 115h1M54 116h1M118 116h1M11 124h2M44 124h2M75 124h2M11 125h2M45 125h1M75 125h2M108 125h2M11 126h2M45 126h1M75 126h2M108 126h2M11 127h2M45 127h2M75 127h2M107 127h2M11 128h2M46 128h1M75 128h2M106 128h2M12 129h1M46 129h1M76 129h1M107 129h1M14 137h2M78 137h2M115 137h2M12 138h5M42 138h5M76 138h5M113 138h5M13 139h2M43 139h4M77 139h2M114 139h2M10 158h1M22 158h1M74 158h1M86 158h1M10 159h2M21 159h2M42 159h1M54 159h1M74 159h2M85 159h2M106 159h1M118 159h1M10 160h1M22 160h1M42 160h2M53 160h2M74 160h1M86 160h1M106 160h2M117 160h2M42 161h1M54 161h1M106 161h1M118 161h1M9 171h1M23 171h1M73 171h1M87 171h1M8 172h2M23 172h2M72 172h2M87 172h2M8 173h1M24 173h1M40 173h2M55 173h2M72 173h1M88 173h1M104 173h2M119 173h2M8 174h1M24 174h1M40 174h1M55 174h1M72 174h1M88 174h1M105 174h1M120 174h1M40 175h1M120 175h1" />
<path stroke="#c9b2a2" d="M10 15h1M22 15h1M74 15h1M86 15h1M42 16h1M54 16h1M106 16h1M118 16h1" />
<path stroke="#6e5747" d="M8 17h1M24 17h1M72 17h1M88 17h1M9 18h1M23 18h1M40 18h1M56 18h1M73 18h1M87 18h1M104 18h1M120 18h1M41 19h1M55 19h1M105 19h1M119 19h1M42 38h1M118 38h1M53 39h1M107 39h1M53 40h1M107 40h1M10 41h1M22 41h1M43 41h1M51 41h1M74 41h1M86 41h1M109 41h1M117 41h1M10 42h1M22 42h1M43 42h1M74 42h1M86 42h1M117 42h1M21 65h1M85 65h1M53 66h1M117 66h1M17 67h1M81 67h1M20 68h2M49 68h1M84 68h2M113 68h1M18 69h1M52 69h2M82 69h1M116 69h2M19 70h1M50 70h1M83 70h1M114 70h1M11 71h2M16 71h2M51 71h1M75 71h2M80 71h2M115 71h1M13 72h2M43 72h2M48 72h2M77 72h2M107 72h2M112 72h2M13 73h1M45 73h2M77 73h1M109 73h2M45 74h1M109 74h1M18 78h1M23 78h1M48 78h1M52 78h1M82 78h1M87 78h1M113 78h1M18 79h1M24 79h1M48 79h1M52 79h1M54 79h1M82 79h1M88 79h1M114 79h1M24 80h1M51 80h1M55 80h1M88 80h1M17 81h1M81 81h1M114 81h1M18 82h2M46 82h1M82 82h2M115 82h2M23 83h1M26 83h1M54 83h1M56 83h1M87 83h1M90 83h1M115 83h1M26 84h1M56 84h1M90 84h1M118 84h1M25 87h1M27 87h1M43 87h3M55 87h1M89 87h1M91 87h1M117 87h1M117 88h1M116 90h1M10 113h1M74 113h1M42 114h1M106 114h1M14 115h1M78 115h1M10 116h2M46 116h1M74 116h2M110 116h1M13 117h1M42 117h2M77 117h1M106 117h2M12 118h1M45 118h1M76 118h1M109 118h1M14 119h2M19 119h2M44 119h1M78 119h2M83 119h2M108 119h1M17 120h2M46 120h2M51 120h2M81 120h2M110 120h2M115 120h2M18 121h1M49 121h2M82 121h1M113 121h2M50 122h1M114 122h1M8 126h1M13 126h1M43 126h1M47 126h1M72 126h1M77 126h1M110 126h1M7 127h1M13 127h1M41 127h1M43 127h1M47 127h1M71 127h1M77 127h1M109 127h1M7 128h1M40 128h1M44 128h1M71 128h1M14 129h1M78 129h1M109 129h1M12 130h2M49 130h1M76 130h2M107 130h2M5 131h1M8 131h1M39 131h1M41 131h1M69 131h1M72 131h1M107 131h1M5 132h1M39 132h1M69 132h1M104 132h1M4 135h1M6 135h1M40 135h1M50 135h3M68 135h1M70 135h1M105 135h1M105 136h1M8 163h1M24 163h1M72 163h1M88 163h1M9 164h1M16 164h1M23 164h1M40 164h1M56 164h1M73 164h1M80 164h1M87 164h1M104 164h1M120 164h1M41 165h1M48 165h1M55 165h1M105 165h1M112 165h1M119 165h1M15 166h3M79 166h3M10 167h1M12 167h3M18 167h3M22 167h1M47 167h3M74 167h1M76 167h3M82 167h3M86 167h1M111 167h3M42 168h1M44 168h3M50 168h3M54 168h1M106 168h1M108 168h3M114 168h3M118 168h1M14 169h5M78 169h5M46 170h5M110 170h5M15 177h1M17 177h1M45 177h1M79 177h1M81 177h1M115 177h1M14 178h2M17 178h2M78 178h2M81 178h2M44 180h1M48 180h1M112 180h1M116 180h1M14 181h1M18 181h1M47 181h1M78 181h1M82 181h1M113 181h1M14 182h1M18 182h1M78 182h1M82 182h1M53 183h1M107 183h1M45 184h1M115 184h1M10 185h1M15 185h1M17 185h1M22 185h1M45 185h1M74 185h1M79 185h1M81 185h1M86 185h1M115 185h1M10 186h1M22 186h1M74 186h1M86 186h1" />
<path stroke="#fff1d7" d="M10 18h1M22 18h1M74 18h1M86 18h1M42 19h1M54 19h1M106 19h1M118 19h1M14 20h1M18 20h1M78 20h1M82 20h1M46 21h1M50 21h1M110 21h1M114 21h1M16 22h1M80 22h1M15 23h3M48 23h1M79 23h3M112 23h1M47 24h3M111 24h3M15 66h1M79 66h1M15 67h1M47 67h1M79 67h1M111 67h1M15 68h1M47 68h1M79 68h1M111 68h1M8 69h2M47 69h1M72 69h2M111 69h1M8 70h2M40 70h2M72 70h2M104 70h2M40 71h2M104 71h2M16 114h1M80 114h1M16 115h1M48 115h1M80 115h1M112 115h1M16 116h1M48 116h1M80 116h1M112 116h1M22 117h2M48 117h1M86 117h2M112 117h1M22 118h2M54 118h2M86 118h2M118 118h2M54 119h2M118 119h2" />
<path stroke="#cfb489" d="M11 18h2M20 18h2M75 18h2M84 18h2M9 19h1M13 19h1M19 19h1M23 19h1M43 19h2M52 19h2M73 19h1M77 19h1M83 19h1M87 19h1M107 19h2M116 19h2M8 20h1M24 20h1M41 20h1M45 20h1M51 20h1M55 20h1M72 20h1M88 20h1M105 20h1M109 20h1M115 20h1M119 20h1M9 21h1M23 21h1M40 21h1M56 21h1M73 21h1M87 21h1M104 21h1M120 21h1M41 22h1M55 22h1M105 22h1M119 22h1M13 27h1M19 27h1M77 27h1M83 27h1M45 28h1M51 28h1M109 28h1M115 28h1M12 66h1M76 66h1M11 67h1M44 67h1M75 67h1M108 67h1M43 68h1M107 68h1M10 70h1M74 70h1M9 71h2M42 71h1M73 71h2M106 71h1M9 72h1M41 72h2M73 72h1M105 72h2M8 73h1M41 73h1M72 73h1M105 73h1M7 74h1M40 74h1M71 74h1M104 74h1M9 75h3M39 75h1M73 75h3M103 75h1M41 76h3M105 76h3M19 114h1M83 114h1M20 115h1M51 115h1M84 115h1M115 115h1M52 116h1M116 116h1M21 118h1M85 118h1M21 119h2M53 119h1M85 119h2M117 119h1M22 120h1M53 120h2M86 120h1M117 120h2M23 121h1M54 121h1M87 121h1M118 121h1M24 122h1M55 122h1M88 122h1M119 122h1M20 123h3M56 123h1M84 123h3M120 123h1M52 124h3M116 124h3" />
<path stroke="#c0a780" d="M13 18h1M19 18h1M77 18h1M83 18h1M8 19h1M11 19h1M14 19h1M18 19h1M21 19h1M24 19h1M45 19h1M51 19h1M72 19h1M75 19h1M78 19h1M82 19h1M85 19h1M88 19h1M109 19h1M115 19h1M7 20h1M25 20h1M40 20h1M43 20h1M46 20h1M50 20h1M53 20h1M56 20h1M71 20h1M89 20h1M104 20h1M107 20h1M110 20h1M114 20h1M117 20h1M120 20h1M39 21h1M57 21h1M103 21h1M121 21h1M13 66h1M77 66h1M12 67h1M45 67h1M76 67h1M109 67h1M44 68h1M108 68h1M18 114h1M82 114h1M19 115h1M50 115h1M83 115h1M114 115h1M51 116h1M115 116h1" />
<path stroke="#f7e5c7" d="M10 19h1M22 19h1M74 19h1M86 19h1M9 20h2M22 20h2M42 20h1M54 20h1M73 20h2M86 20h2M106 20h1M118 20h1M41 21h2M54 21h2M105 21h2M118 21h2M15 24h3M79 24h3M14 25h1M18 25h1M47 25h3M78 25h1M82 25h1M111 25h3M13 26h2M18 26h1M46 26h1M50 26h1M77 26h2M82 26h1M110 26h1M114 26h1M14 27h2M17 27h2M45 27h2M50 27h1M78 27h2M81 27h2M109 27h2M114 27h1M46 28h2M49 28h2M110 28h2M113 28h2M7 68h1M71 68h1M7 69h1M39 69h1M71 69h1M103 69h1M6 70h2M39 70h1M70 70h2M103 70h1M7 71h2M38 71h2M71 71h2M102 71h2M10 72h1M39 72h2M74 72h1M103 72h2M10 73h2M42 73h1M74 73h2M106 73h1M8 74h1M42 74h2M72 74h1M106 74h2M40 75h1M104 75h1M24 116h1M88 116h1M24 117h1M56 117h1M88 117h1M120 117h1M24 118h2M56 118h1M88 118h2M120 118h1M23 119h2M56 119h2M87 119h2M120 119h2M21 120h1M55 120h2M85 120h1M119 120h2M20 121h2M53 121h1M84 121h2M117 121h1M23 122h1M52 122h2M87 122h1M116 122h2M55 123h1M119 123h1" />
<path stroke="#000000" d="M12 19h1M20 19h1M76 19h1M84 19h1M11 20h1M13 20h1M19 20h1M21 20h1M44 20h1M52 20h1M75 20h1M77 20h1M83 20h1M85 20h1M108 20h1M116 20h1M43 21h1M45 21h1M51 21h1M53 21h1M107 21h1M109 21h1M115 21h1M117 21h1M10 22h1M13 22h1M19 22h1M22 22h1M74 22h1M77 22h1M83 22h1M86 22h1M11 23h1M21 23h1M42 23h1M45 23h1M51 23h1M54 23h1M75 23h1M85 23h1M106 23h1M109 23h1M115 23h1M118 23h1M43 24h1M53 24h1M107 24h1M117 24h1M6 25h1M15 25h3M26 25h1M70 25h1M79 25h3M90 25h1M7 26h2M15 26h3M24 26h2M40 26h1M47 26h3M71 26h2M79 26h3M88 26h2M111 26h3M120 26h1M10 27h1M16 27h1M22 27h1M41 27h1M43 27h1M47 27h3M56 27h2M74 27h1M80 27h1M86 27h1M103 27h2M111 27h3M117 27h1M119 27h1M42 28h2M48 28h1M53 28h1M107 28h1M112 28h1M117 28h2M40 36h1M120 36h1M40 39h1M120 39h1M40 40h1M42 40h1M118 40h1M120 40h1M13 67h1M77 67h1M12 68h1M45 68h1M76 68h1M109 68h1M12 69h2M44 69h1M76 69h2M108 69h1M12 70h1M44 70h2M76 70h1M108 70h2M5 71h2M44 71h1M69 71h2M108 71h1M5 72h4M37 72h2M69 72h4M101 72h2M5 73h3M22 73h1M37 73h4M69 73h3M86 73h1M101 73h4M6 74h1M23 74h1M37 74h3M54 74h1M70 74h1M87 74h1M101 74h3M16 75h1M23 75h1M38 75h1M47 75h1M54 75h2M80 75h1M87 75h1M102 75h1M111 75h1M16 76h1M22 76h2M47 76h2M52 76h1M54 76h2M80 76h1M86 76h2M111 76h1M116 76h2M16 77h2M21 77h2M53 77h2M80 77h2M85 77h2M117 77h1M53 78h1M22 85h1M56 85h1M86 85h1M119 85h1M22 86h2M56 86h1M86 86h2M119 86h1M24 89h2M27 89h1M88 89h2M91 89h1M25 90h2M89 90h2M117 90h1M18 115h1M82 115h1M19 116h1M50 116h1M83 116h1M114 116h1M18 117h2M51 117h1M82 117h2M115 117h1M19 118h1M50 118h2M83 118h1M114 118h2M51 119h1M115 119h1M9 121h1M73 121h1M8 122h1M41 122h1M72 122h1M8 123h1M15 123h1M40 123h2M48 123h1M72 123h1M79 123h1M112 123h1M8 124h2M15 124h1M40 124h2M43 124h1M47 124h2M72 124h2M79 124h1M106 124h2M112 124h1M9 125h2M14 125h2M41 125h2M73 125h2M78 125h2M106 125h1M42 126h1M9 133h1M39 133h1M73 133h1M103 133h1M107 133h1M8 134h2M39 134h1M72 134h2M103 134h1M107 134h1M4 137h1M6 137h2M68 137h1M70 137h2M108 137h2M5 138h2M69 138h2M105 138h1M108 138h1M7 167h1M25 167h1M71 167h1M89 167h1M6 168h1M26 168h1M70 168h1M90 168h1M6 169h1M26 169h1M70 169h1M90 169h1M7 170h2M12 170h1M20 170h1M24 170h2M39 170h1M43 170h1M71 170h2M76 170h1M84 170h1M88 170h2M117 170h1M121 170h1M10 171h1M22 171h1M40 171h1M42 171h2M51 171h1M74 171h1M86 171h1M109 171h1M117 171h2M120 171h1M41 172h2M51 172h1M55 172h2M104 172h2M109 172h1M118 172h2M52 173h1M108 173h1M48 182h1M112 182h1M13 183h1M19 183h1M77 183h1M83 183h1M13 184h1M19 184h1M77 184h1M83 184h1M42 186h1M46 186h1M114 186h1M118 186h1M14 187h1M18 187h1M42 187h1M45 187h1M78 187h1M82 187h1M115 187h1M118 187h1M15 188h1M17 188h1M79 188h1M81 188h1" />
<path stroke="#9c8c4d" d="M12 20h1M20 20h1M76 20h1M84 20h1M44 21h1M52 21h1M108 21h1M116 21h1" />
<path stroke="#845e4e" d="M8 21h1M24 21h1M72 21h1M88 21h1M40 22h1M56 22h1M104 22h1M120 22h1" />
<path stroke="#282828" d="M10 21h1M22 21h1M74 21h1M86 21h1M11 22h1M21 22h1M42 22h1M54 22h1M75 22h1M85 22h1M106 22h1M118 22h1M8 23h2M12 23h1M20 23h1M23 23h2M43 23h1M53 23h1M72 23h2M76 23h1M84 23h1M87 23h2M107 23h1M117 23h1M7 24h1M25 24h1M44 24h1M52 24h1M55 24h2M71 24h1M89 24h1M104 24h2M108 24h1M116 24h1M11 25h1M21 25h1M57 25h1M75 25h1M85 25h1M103 25h1M10 26h2M21 26h2M41 26h2M74 26h2M85 26h2M118 26h2M42 32h1M118 32h1M41 35h1M119 35h1M41 39h1M119 39h1M14 69h1M78 69h1M13 70h1M46 70h1M77 70h1M110 70h1M45 71h1M109 71h1M22 81h1M25 81h1M55 81h1M86 81h1M89 81h1M23 82h1M25 82h1M54 82h1M87 82h1M89 82h1M24 85h1M27 85h1M88 85h1M91 85h1M118 85h1M27 86h1M55 86h1M91 86h1M117 86h1M17 117h1M81 117h1M18 118h1M49 118h1M82 118h1M113 118h1M50 119h1M114 119h1M6 129h1M9 129h1M40 129h1M70 129h1M73 129h1M6 130h1M8 130h1M41 130h1M70 130h1M72 130h1M4 133h1M7 133h1M68 133h1M71 133h1M104 133h1M4 134h1M40 134h1M68 134h1M105 134h1M106 138h1M7 168h1M25 168h1M71 168h1M89 168h1M11 169h1M21 169h1M75 169h1M85 169h1M10 170h2M21 170h2M40 170h2M56 170h1M74 170h2M85 170h2M104 170h1M119 170h2M45 178h1M115 178h1M44 179h1M48 179h1M112 179h1M116 179h1M14 180h1M18 180h1M78 180h1M82 180h1M47 182h1M113 182h1M43 183h1M117 183h1M118 184h1M118 185h1M44 186h1M116 186h1M16 187h1M43 187h1M80 187h1M117 187h1" />
<path stroke="#1b1b1b" d="M11 21h1M21 21h1M75 21h1M85 21h1M12 22h1M20 22h1M43 22h1M53 22h1M76 22h1M84 22h1M107 22h1M117 22h1M44 23h1M52 23h1M108 23h1M116 23h1M42 39h1M118 39h1M41 40h1M119 40h1M22 82h1M56 82h1M86 82h1M118 82h1M23 85h1M87 85h1M24 86h1M88 86h1M118 86h1M26 89h1M90 89h1M117 89h1M9 130h1M39 130h1M73 130h1M104 130h1M8 133h1M72 133h1M7 134h1M71 134h1M104 134h1M5 137h1M69 137h1M105 137h1M107 137h1M107 138h1M44 178h1M116 178h1M14 179h1M18 179h1M78 179h1M82 179h1M13 180h1M19 180h1M77 180h1M83 180h1M43 182h1M117 182h1M14 183h1M18 183h1M47 183h1M78 183h1M82 183h1M113 183h1M14 184h1M18 184h1M78 184h1M82 184h1M45 186h1M115 186h1M15 187h1M17 187h1M44 187h1M79 187h1M81 187h1M116 187h1M16 188h1M80 188h1" />
<path stroke="#cdb234" d="M12 21h1M20 21h1M76 21h1M84 21h1M44 22h1M52 22h1M108 22h1M116 22h1M13 68h1M77 68h1M45 69h1M109 69h1M18 116h1M82 116h1M50 117h1M114 117h1" />
<path stroke="#827342" d="M13 21h1M19 21h1M77 21h1M83 21h1M45 22h1M51 22h1M109 22h1M115 22h1M14 68h1M78 68h1M46 69h1M110 69h1M17 116h1M81 116h1M49 117h1M113 117h1" />
<path stroke="#474747" d="M14 21h1M18 21h1M78 21h1M82 21h1M14 22h1M18 22h1M46 22h1M50 22h1M78 22h1M82 22h1M110 22h1M114 22h1M13 23h1M19 23h1M46 23h1M50 23h1M77 23h1M83 23h1M110 23h1M114 23h1M45 24h1M51 24h1M109 24h1M115 24h1M24 81h1M88 81h1M26 85h1M90 85h1M26 86h1M90 86h1M7 129h1M71 129h1M5 133h1M69 133h1M5 134h1M69 134h1" />
<path stroke="#301909" d="M8 22h2M23 22h2M72 22h2M87 22h2M40 23h2M55 23h2M104 23h2M119 23h2M11 24h1M21 24h1M75 24h1M85 24h1M43 25h1M53 25h1M107 25h1M117 25h1M17 61h1M81 61h1M49 62h1M113 62h1M15 73h1M79 73h1M47 74h1M111 74h1M12 75h1M76 75h1M44 76h1M108 76h1M14 109h1M78 109h1M46 110h1M110 110h1M16 121h1M25 121h1M80 121h1M89 121h1M48 122h1M57 122h1M112 122h1M121 122h1M19 123h1M83 123h1M51 124h1M115 124h1M8 168h2M23 168h2M72 168h2M87 168h2M40 169h2M55 169h2M104 169h2M119 169h2" />
<path stroke="#1a1a1a" d="M10 23h1M22 23h1M74 23h1M86 23h1M8 24h1M10 24h1M22 24h1M24 24h1M41 24h2M54 24h1M57 24h1M72 24h1M74 24h1M86 24h1M88 24h1M103 24h1M106 24h1M118 24h2M40 25h3M56 25h1M58 25h1M102 25h1M104 25h1M118 25h3M9 26h1M23 26h1M43 26h1M53 26h1M57 26h2M73 26h1M87 26h1M102 26h2M107 26h1M117 26h1M11 27h1M21 27h1M42 27h1M53 27h3M58 27h1M75 27h1M85 27h1M102 27h1M105 27h3M118 27h1M11 28h1M13 28h1M19 28h1M21 28h1M75 28h1M77 28h1M83 28h1M85 28h1M11 29h1M13 29h1M19 29h1M21 29h1M43 29h1M45 29h1M51 29h1M53 29h1M75 29h1M77 29h1M83 29h1M85 29h1M107 29h1M109 29h1M115 29h1M117 29h1M11 30h1M13 30h3M17 30h3M21 30h1M43 30h1M45 30h1M51 30h1M53 30h1M75 30h1M77 30h3M81 30h3M85 30h1M107 30h1M109 30h1M115 30h1M117 30h1M11 31h1M13 31h1M19 31h1M21 31h1M43 31h1M45 31h3M49 31h3M53 31h1M75 31h1M77 31h1M83 31h1M85 31h1M107 31h1M109 31h3M113 31h3M117 31h1M11 32h1M13 32h3M17 32h3M21 32h1M43 32h1M45 32h1M51 32h1M53 32h1M75 32h1M77 32h3M81 32h3M85 32h1M107 32h1M109 32h1M115 32h1M117 32h1M12 33h2M19 33h2M43 33h1M45 33h3M49 33h3M53 33h1M76 33h2M83 33h2M107 33h1M109 33h3M113 33h3M117 33h1M44 34h2M51 34h2M108 34h2M115 34h2M10 35h1M22 35h1M74 35h1M86 35h1M10 36h3M20 36h3M43 36h1M52 36h2M74 36h3M84 36h3M107 36h2M117 36h1M10 37h1M12 37h1M20 37h1M22 37h1M43 37h3M52 37h2M74 37h1M76 37h1M84 37h1M86 37h1M107 37h2M115 37h3M11 38h2M20 38h2M43 38h1M45 38h1M75 38h2M84 38h2M115 38h1M117 38h1M44 39h2M115 39h2M19 72h2M83 72h2M17 73h1M20 73h2M52 73h2M81 73h1M84 73h2M115 73h3M16 74h1M21 74h2M48 74h1M53 74h1M80 74h1M85 74h2M112 74h2M116 74h3M14 75h2M18 75h5M49 75h5M78 75h2M82 75h5M112 75h1M117 75h2M15 76h1M17 76h1M21 76h1M46 76h1M49 76h1M53 76h1M79 76h1M81 76h1M85 76h1M109 76h2M112 76h4M118 76h1M14 77h2M47 77h1M78 77h2M110 77h1M112 77h2M15 78h1M17 78h1M46 78h2M79 78h1M81 78h1M109 78h2M112 78h1M14 79h2M17 79h1M47 79h1M78 79h2M81 79h1M110 79h1M112 79h1M15 80h2M46 80h1M79 80h2M109 80h2M112 80h1M16 81h1M80 81h1M110 81h2M51 82h2M17 83h1M20 83h1M52 83h1M81 83h1M84 83h1M109 83h3M17 84h1M20 84h1M49 84h1M52 84h1M81 84h1M84 84h1M109 84h1M112 84h1M18 85h2M50 85h2M82 85h2M109 85h1M112 85h1M110 86h2M11 120h2M75 120h2M10 121h2M14 121h1M42 121h2M74 121h2M78 121h1M106 121h3M9 122h2M15 122h1M42 122h1M47 122h1M73 122h2M79 122h1M105 122h3M110 122h2M9 123h5M16 123h2M42 123h5M73 123h5M80 123h2M105 123h2M111 123h1M10 124h1M14 124h1M16 124h1M42 124h1M46 124h1M49 124h1M74 124h1M78 124h1M80 124h1M105 124h1M108 124h4M113 124h2M16 125h2M48 125h1M80 125h2M110 125h2M113 125h1M14 126h1M16 126h1M48 126h2M78 126h1M80 126h1M111 126h1M113 126h2M14 127h1M16 127h2M48 127h1M78 127h1M80 127h2M111 127h1M113 127h1M15 128h2M49 128h1M79 128h2M111 128h1M113 128h2M15 129h1M79 129h1M112 129h2M43 130h2M11 131h1M14 131h1M43 131h1M75 131h1M78 131h1M112 131h3M11 132h1M14 132h1M43 132h1M46 132h1M75 132h1M78 132h1M111 132h1M114 132h1M12 133h2M44 133h2M76 133h2M111 133h1M114 133h1M112 134h2M12 169h1M20 169h1M39 169h1M76 169h1M84 169h1M121 169h1M9 170h1M23 170h1M42 170h1M52 170h1M55 170h1M57 170h1M73 170h1M87 170h1M103 170h1M105 170h1M108 170h1M118 170h1M11 171h2M20 171h2M41 171h1M52 171h1M56 171h2M75 171h2M84 171h2M103 171h2M108 171h1M119 171h1M11 172h1M13 172h7M21 172h1M44 172h1M52 172h3M57 172h1M75 172h1M77 172h7M85 172h1M103 172h1M106 172h3M116 172h1M11 173h1M21 173h1M43 173h1M45 173h7M53 173h1M75 173h1M85 173h1M107 173h1M109 173h7M117 173h1M11 174h1M21 174h1M43 174h1M53 174h1M75 174h1M85 174h1M107 174h1M117 174h1M11 175h1M16 175h1M21 175h1M43 175h1M53 175h1M75 175h1M80 175h1M85 175h1M107 175h1M117 175h1M11 176h1M15 176h1M17 176h1M21 176h1M43 176h1M53 176h1M75 176h1M79 176h1M81 176h1M85 176h1M107 176h1M117 176h1M12 177h3M18 177h3M43 177h1M49 177h1M53 177h1M76 177h3M82 177h3M107 177h1M111 177h1M117 177h1M50 178h3M108 178h3M10 179h1M22 179h1M74 179h1M86 179h1M10 180h3M20 180h3M43 180h1M52 180h2M74 180h3M84 180h3M107 180h2M117 180h1M10 181h1M12 181h1M20 181h1M22 181h1M52 181h2M74 181h1M76 181h1M84 181h1M86 181h1M107 181h2M11 182h2M20 182h2M75 182h2M84 182h2" />
<path stroke="#3a3a3a" d="M9 24h1M23 24h1M73 24h1M87 24h1M7 25h1M10 25h1M22 25h1M25 25h1M54 25h2M71 25h1M74 25h1M86 25h1M89 25h1M105 25h2M41 36h2M118 36h2M18 73h2M51 73h1M82 73h2M17 74h1M20 74h1M52 74h1M81 74h1M84 74h1M114 74h2M17 75h1M48 75h1M81 75h1M113 75h1M116 75h1M117 85h1M12 121h2M44 121h1M76 121h2M11 122h1M14 122h1M43 122h1M75 122h1M78 122h1M108 122h2M14 123h1M47 123h1M78 123h1M107 123h1M110 123h1M105 133h1M106 137h1M7 169h1M10 169h1M22 169h1M25 169h1M71 169h1M74 169h1M86 169h1M89 169h1M53 170h2M106 170h2M48 178h1M112 178h1M15 179h1M17 179h1M45 179h1M79 179h1M81 179h1M115 179h1M15 180h1M17 180h1M79 180h1M81 180h1M46 182h1M114 182h1M15 183h1M17 183h1M46 183h1M79 183h1M81 183h1M114 183h1M15 184h1M17 184h1M79 184h1M81 184h1M43 186h1M117 186h1" />
<path stroke="#4d4d4d" d="M8 25h2M23 25h2M72 25h2M87 25h2M54 26h3M104 26h3M12 27h1M20 27h1M76 27h1M84 27h1M12 28h1M20 28h1M44 28h1M52 28h1M76 28h1M84 28h1M108 28h1M116 28h1M12 29h1M20 29h1M44 29h1M52 29h1M76 29h1M84 29h1M108 29h1M116 29h1M12 30h1M20 30h1M44 30h1M52 30h1M76 30h1M84 30h1M108 30h1M116 30h1M12 31h1M20 31h1M44 31h1M52 31h1M76 31h1M84 31h1M108 31h1M116 31h1M12 32h1M20 32h1M44 32h1M52 32h1M76 32h1M84 32h1M108 32h1M116 32h1M44 33h1M52 33h1M108 33h1M116 33h1M11 37h1M21 37h1M75 37h1M85 37h1M44 38h1M116 38h1M15 69h1M79 69h1M47 70h1M111 70h1M18 74h2M49 74h3M82 74h2M114 75h2M111 77h1M16 78h1M80 78h1M111 78h1M16 79h1M80 79h1M111 79h1M111 80h1M18 83h2M50 83h2M82 83h2M18 84h2M50 84h2M82 84h2M110 84h2M110 85h2M16 117h1M80 117h1M48 118h1M112 118h1M12 122h2M44 122h3M76 122h2M108 123h2M112 125h1M15 126h1M79 126h1M112 126h1M15 127h1M79 127h1M112 127h1M112 128h1M12 131h2M44 131h2M76 131h2M12 132h2M44 132h2M76 132h2M112 132h2M112 133h2M8 169h2M23 169h2M72 169h2M87 169h2M53 171h3M105 171h3M12 172h1M20 172h1M76 172h1M84 172h1M12 173h3M18 173h3M44 173h1M76 173h3M82 173h3M116 173h1M12 174h1M15 174h3M20 174h1M44 174h3M50 174h3M76 174h1M79 174h3M84 174h1M108 174h3M114 174h3M12 175h1M15 175h1M17 175h1M20 175h1M44 175h1M47 175h3M52 175h1M76 175h1M79 175h1M81 175h1M84 175h1M108 175h1M111 175h3M116 175h1M12 176h3M18 176h3M44 176h1M49 176h1M52 176h1M76 176h3M82 176h3M108 176h1M111 176h1M116 176h1M44 177h1M50 177h3M108 177h3M116 177h1M11 181h1M21 181h1M75 181h1M85 181h1" />
<path stroke="#af9875" d="M14 28h2M17 28h2M78 28h2M81 28h2M46 29h2M49 29h2M110 30h2M113 30h2M7 75h2M71 75h2M9 76h3M39 76h2M73 76h3M103 76h2M41 77h3M105 77h3M23 123h2M87 123h2M20 124h3M55 124h2M84 124h3M119 124h2M52 125h3M116 125h3" />
<path stroke="#f89d32" d="M16 28h1M80 28h1M15 29h3M48 29h1M79 29h3M112 29h1M47 30h3M112 30h1M14 31h1M18 31h1M78 31h1M82 31h1M46 32h1M50 32h1M110 32h1M114 32h1M13 34h1M19 34h1M46 34h1M77 34h1M83 34h1M114 34h1M11 35h1M13 35h2M18 35h2M21 35h1M44 35h1M46 35h2M75 35h1M77 35h2M82 35h2M85 35h1M113 35h2M116 35h1M14 36h1M18 36h1M44 36h1M47 36h1M78 36h1M82 36h1M113 36h1M116 36h1M14 37h1M18 37h1M47 37h1M78 37h1M82 37h1M113 37h1M14 38h1M18 38h1M47 38h1M78 38h1M82 38h1M113 38h1M12 39h2M19 39h2M46 39h1M76 39h2M83 39h2M114 39h1M11 40h3M19 40h3M44 40h3M75 40h3M83 40h3M114 40h3M15 74h1M79 74h1M13 75h1M77 75h1M110 75h1M13 76h1M45 76h1M77 76h1M45 77h1M108 77h1M112 81h1M16 82h1M80 82h1M110 82h5M16 83h1M80 83h1M112 83h2M16 84h1M80 84h1M113 84h1M20 85h1M52 85h1M84 85h1M18 86h2M50 86h3M82 86h2M17 87h3M51 87h1M81 87h3M108 87h3M110 88h2M16 122h1M80 122h1M18 123h1M82 123h1M113 123h1M18 124h1M50 124h1M82 124h1M50 125h1M115 125h1M111 129h1M15 130h1M79 130h1M109 130h5M15 131h1M79 131h1M110 131h2M15 132h1M79 132h1M110 132h1M11 133h1M43 133h1M75 133h1M12 134h2M43 134h3M76 134h2M12 135h3M44 135h1M76 135h3M113 135h3M112 136h2M13 170h1M15 170h3M19 170h1M44 170h1M77 170h1M79 170h3M83 170h1M116 170h1M13 171h1M19 171h1M44 171h2M47 171h3M77 171h1M83 171h1M111 171h3M115 171h2M45 172h1M115 172h1M12 178h2M19 178h2M76 178h2M83 178h2M11 179h2M20 179h2M75 179h2M84 179h2M12 183h1M20 183h1M76 183h1M84 183h1" />
<path stroke="#d6750c" d="M14 29h1M18 29h1M78 29h1M82 29h1M46 30h1M50 30h1M11 33h1M14 33h5M21 33h1M48 33h1M75 33h1M78 33h5M85 33h1M112 33h1M11 34h1M14 34h1M18 34h1M21 34h1M47 34h1M75 34h1M78 34h1M82 34h1M85 34h1M113 34h1M51 35h1M109 35h1M15 36h1M17 36h1M48 36h1M79 36h1M81 36h1M112 36h1M15 37h1M17 37h1M48 37h1M79 37h1M81 37h1M112 37h1M15 38h1M17 38h1M48 38h1M79 38h1M81 38h1M112 38h1M11 39h1M14 39h1M18 39h1M21 39h1M47 39h1M75 39h1M78 39h1M82 39h1M85 39h1M113 39h1M14 40h1M18 40h1M47 40h1M78 40h1M82 40h1M113 40h1M14 74h1M78 74h1M46 75h1M13 78h1M77 78h1M13 79h1M45 79h1M77 79h1M108 79h1M113 79h1M13 80h1M45 80h1M77 80h1M108 80h1M113 80h1M14 81h1M52 81h1M78 81h1M109 81h1M113 81h1M17 82h1M81 82h1M53 84h1M16 85h1M49 85h1M53 85h1M80 85h1M108 85h1M16 86h1M20 86h1M49 86h1M53 86h1M80 86h1M84 86h1M108 86h1M112 86h1M20 87h1M50 87h1M84 87h1M111 87h1M17 122h1M81 122h1M49 123h1M18 126h1M82 126h1M18 127h1M50 127h1M82 127h1M110 127h1M115 127h1M18 128h1M50 128h1M82 128h1M110 128h1M115 128h1M17 129h1M43 129h1M81 129h1M110 129h1M114 129h1M14 130h1M78 130h1M42 132h1M15 133h1M42 133h1M46 133h1M79 133h1M115 133h1M11 134h1M15 134h1M42 134h1M46 134h1M75 134h1M79 134h1M111 134h1M115 134h1M11 135h1M45 135h1M75 135h1M112 135h1M15 171h3M79 171h3M47 172h3M111 172h3M11 178h1M21 178h1M75 178h1M85 178h1M13 179h1M19 179h1M77 179h1M83 179h1M11 184h1M21 184h1M75 184h1M85 184h1" />
<path stroke="#f9b65f" d="M16 30h1M80 30h1M15 31h3M48 31h1M79 31h3M112 31h1M16 32h1M47 32h3M80 32h1M111 32h3M12 34h1M20 34h1M76 34h1M84 34h1M12 35h1M20 35h1M45 35h1M76 35h1M84 35h1M115 35h1M13 36h1M19 36h1M45 36h2M77 36h1M83 36h1M114 36h2M13 37h1M19 37h1M46 37h1M77 37h1M83 37h1M114 37h1M13 38h1M19 38h1M46 38h1M77 38h1M83 38h1M114 38h1M14 76h1M78 76h1M46 77h1M109 77h1M14 78h1M78 78h1M46 79h1M109 79h1M14 80h1M78 80h1M17 85h1M81 85h1M17 86h1M81 86h1M109 86h1M17 124h1M81 124h1M49 125h1M114 125h1M17 126h1M81 126h1M49 127h1M114 127h1M17 128h1M81 128h1M14 133h1M78 133h1M14 134h1M78 134h1M114 134h1M14 170h1M18 170h1M78 170h1M82 170h1M14 171h1M18 171h1M46 171h1M50 171h1M78 171h1M82 171h1M110 171h1M114 171h1M46 172h1M50 172h1M110 172h1M114 172h1M12 184h1M20 184h1M76 184h1M84 184h1" />
<path stroke="#884d2a" d="M10 32h1M22 32h1M74 32h1M86 32h1M10 33h1M22 33h1M74 33h1M86 33h1M10 34h1M22 34h1M43 34h1M74 34h1M86 34h1M117 34h1M43 35h1M53 35h1M107 35h1M117 35h1M16 37h1M49 37h1M80 37h1M111 37h1M53 38h1M107 38h1M10 39h1M22 39h1M43 39h1M74 39h1M86 39h1M117 39h1M10 40h1M22 40h1M43 40h1M74 40h1M86 40h1M117 40h1M12 78h1M76 78h1M12 79h1M44 79h1M76 79h1M107 79h1M12 80h1M44 80h1M53 80h1M76 80h1M107 80h1M12 81h1M44 81h1M46 81h1M53 81h1M76 81h1M107 81h1M13 82h1M21 82h1M44 82h1M53 82h1M77 82h1M85 82h1M107 82h1M13 83h1M21 83h1M44 83h1M46 83h1M77 83h1M85 83h1M114 83h1M13 84h1M21 84h1M46 84h1M54 84h1M77 84h1M85 84h1M114 84h1M14 85h1M43 85h1M54 85h1M78 85h1M114 85h1M21 86h1M43 86h1M47 86h2M54 86h1M85 86h1M113 86h2M21 87h1M48 87h1M54 87h1M85 87h1M106 87h1M112 87h1M48 88h1M106 88h1M112 88h1M19 126h1M83 126h1M19 127h1M51 127h1M83 127h1M116 127h1M19 128h1M42 128h1M51 128h1M83 128h1M116 128h1M19 129h1M42 129h1M49 129h1M51 129h1M83 129h1M116 129h1M10 130h1M18 130h1M42 130h1M51 130h1M74 130h1M82 130h1M116 130h1M10 131h1M18 131h1M49 131h1M51 131h1M74 131h1M82 131h1M108 131h2M10 132h1M18 132h1M41 132h1M49 132h1M74 132h1M82 132h1M108 132h2M17 133h1M41 133h1M52 133h1M81 133h1M108 133h2M10 134h1M41 134h1M47 134h2M52 134h1M74 134h1M108 134h3M10 135h1M41 135h1M47 135h1M74 135h1M111 135h1M117 135h1M47 136h1M111 136h1M117 136h1M13 169h1M19 169h1M77 169h1M83 169h1M45 170h1M51 170h1M109 170h1M115 170h1M10 176h1M22 176h1M74 176h1M86 176h1M10 177h1M22 177h1M74 177h1M86 177h1M10 178h1M22 178h1M43 178h1M53 178h1M74 178h1M86 178h1M107 178h1M117 178h1M43 179h1M53 179h1M107 179h1M117 179h1M50 180h1M110 180h1M49 181h2M110 181h2M50 182h1M53 182h1M107 182h1M110 182h1M50 183h3M108 183h3M10 184h1M22 184h1M74 184h1M86 184h1" />
<path stroke="#a45d31" d="M15 34h3M48 34h3M53 34h1M79 34h3M107 34h1M110 34h3M15 35h1M17 35h1M48 35h1M50 35h1M52 35h1M79 35h1M81 35h1M108 35h1M110 35h1M112 35h1M50 36h2M109 36h2M50 37h2M109 37h2M50 38h3M108 38h3M15 39h1M17 39h1M48 39h1M50 39h3M79 39h1M81 39h1M108 39h3M112 39h1M15 40h1M17 40h1M48 40h1M79 40h1M81 40h1M112 40h1M11 41h4M18 41h4M44 41h4M75 41h4M82 41h4M113 41h4M12 76h1M76 76h1M12 77h2M44 77h1M76 77h2M44 78h2M107 78h2M13 81h1M15 81h1M45 81h1M77 81h1M79 81h1M108 81h1M14 82h2M45 82h1M78 82h2M108 82h2M15 83h1M45 83h1M53 83h1M79 83h1M108 83h1M15 84h1M44 84h2M48 84h1M79 84h1M108 84h1M21 85h1M44 85h3M85 85h1M113 85h1M44 86h3M16 87h1M49 87h1M52 87h2M80 87h1M107 87h1M17 88h4M49 88h3M81 88h4M107 88h3M110 89h2M19 124h1M83 124h1M18 125h2M51 125h1M82 125h2M50 126h2M115 126h2M16 129h1M18 129h1M50 129h1M80 129h1M82 129h1M115 129h1M16 130h2M50 130h1M80 130h2M114 130h2M16 131h1M42 131h1M50 131h1M80 131h1M115 131h1M16 132h1M47 132h1M50 132h2M80 132h1M115 132h1M10 133h1M49 133h3M74 133h1M110 133h1M49 134h3M15 135h1M42 135h2M46 135h1M79 135h1M116 135h1M11 136h4M44 136h3M75 136h4M114 136h3M112 137h2M43 172h1M117 172h1M16 176h1M80 176h1M11 177h1M21 177h1M75 177h1M85 177h1M49 178h1M111 178h1M50 179h3M108 179h3M51 180h1M109 180h1M51 181h1M109 181h1M51 182h2M108 182h2M11 183h1M21 183h1M48 183h1M75 183h1M85 183h1M112 183h1M48 184h1M112 184h1M11 185h3M19 185h3M75 185h3M83 185h3" />
<path stroke="#6b3d21" d="M16 35h1M49 35h1M80 35h1M111 35h1M16 36h1M49 36h1M80 36h1M111 36h1M10 38h1M16 38h1M22 38h1M49 38h1M74 38h1M80 38h1M86 38h1M111 38h1M16 39h1M49 39h1M80 39h1M111 39h1M16 40h1M49 40h1M80 40h1M111 40h1M14 83h1M78 83h1M107 83h1M14 84h1M47 84h1M78 84h1M107 84h1M13 85h1M15 85h1M47 85h2M77 85h1M79 85h1M107 85h1M14 86h2M78 86h2M107 86h1M112 89h1M17 131h1M81 131h1M116 131h1M17 132h1M48 132h1M81 132h1M116 132h1M16 133h1M18 133h1M47 133h2M80 133h1M82 133h1M116 133h1M16 134h2M80 134h2M116 134h1M111 137h1M49 179h1M111 179h1M49 180h1M111 180h1M10 182h1M22 182h1M49 182h1M74 182h1M86 182h1M111 182h1M10 183h1M22 183h1M49 183h1M74 183h1M86 183h1M111 183h1M49 184h1M111 184h1" />
<path stroke="#5f5f5f" d="M42 35h1M118 35h1M23 81h1M54 81h1M87 81h1M24 82h1M55 82h1M88 82h1M25 85h1M55 85h1M89 85h1M116 85h1M25 86h1M89 86h1M116 86h1M8 129h1M41 129h1M72 129h1M7 130h1M40 130h1M71 130h1M6 133h1M40 133h1M70 133h1M106 133h1M6 134h1M70 134h1M106 134h1M46 178h2M113 178h2M16 179h1M46 179h2M80 179h1M113 179h2M16 180h1M80 180h1M44 182h2M115 182h2M16 183h1M44 183h2M80 183h1M115 183h2M16 184h1M80 184h1" />
<path stroke="#462f1f" d="M16 41h1M49 41h1M53 41h1M80 41h1M107 41h1M111 41h1M16 42h1M49 42h4M80 42h1M108 42h4M10 43h1M15 43h1M17 43h1M22 43h1M43 43h1M48 43h1M74 43h1M79 43h1M81 43h1M86 43h1M112 43h1M117 43h1M11 44h4M18 44h4M44 44h4M75 44h4M82 44h4M113 44h4M47 83h1M12 87h1M76 87h1M12 89h1M21 89h1M42 89h5M55 89h1M76 89h1M85 89h1M21 90h1M55 90h1M85 90h1M112 90h1M20 91h1M54 91h1M84 91h1M111 91h1M14 92h6M49 92h5M78 92h6M105 92h6M48 131h1M19 135h1M83 135h1M10 137h1M19 137h1M40 137h1M49 137h5M74 137h1M83 137h1M110 137h1M10 138h1M40 138h1M74 138h1M111 138h1M11 139h1M41 139h1M75 139h1M112 139h1M12 140h6M42 140h5M76 140h6M113 140h6M53 184h1M107 184h1M49 185h4M108 185h4M49 186h1M111 186h1M10 187h1M22 187h1M48 187h1M74 187h1M86 187h1M112 187h1M11 188h4M18 188h4M45 188h3M75 188h4M82 188h4M113 188h3" />
<path stroke="#705949" d="M8 65h1M72 65h1M40 66h1M104 66h1M23 113h1M87 113h1M55 114h1M119 114h1" />
<path stroke="#e2c89e" d="M14 66h1M78 66h1M14 67h1M46 67h1M78 67h1M110 67h1M46 68h1M110 68h1M9 73h1M73 73h1M9 74h3M41 74h1M73 74h3M105 74h1M41 75h3M105 75h3M17 114h1M81 114h1M17 115h1M49 115h1M81 115h1M113 115h1M49 116h1M113 116h1M22 121h1M86 121h1M20 122h3M54 122h1M84 122h3M118 122h1M52 123h3M116 123h3" />
<path stroke="#947d6d" d="M19 66h1M83 66h1M51 67h1M115 67h1M18 68h1M82 68h1M50 69h1M114 69h1M12 114h1M76 114h1M44 115h1M108 115h1M13 116h1M77 116h1M45 117h1M109 117h1M12 161h1M20 161h1M76 161h1M84 161h1M10 162h3M20 162h3M44 162h1M52 162h1M74 162h3M84 162h3M108 162h1M116 162h1M10 163h1M12 163h1M20 163h1M22 163h1M42 163h3M52 163h3M74 163h1M76 163h1M84 163h1M86 163h1M106 163h3M116 163h3M11 164h1M13 164h2M18 164h2M21 164h1M42 164h1M44 164h1M52 164h1M54 164h1M75 164h1M77 164h2M82 164h2M85 164h1M106 164h1M108 164h1M116 164h1M118 164h1M43 165h1M45 165h2M50 165h2M53 165h1M107 165h1M109 165h2M114 165h2M117 165h1" />
<path stroke="#fffff4" d="M16 67h1M80 67h1M48 68h1M112 68h1M15 115h1M79 115h1M47 116h1M111 116h1" />
<path stroke="#ffffff" d="M16 68h1M80 68h1M16 69h1M48 69h1M80 69h1M112 69h1M48 70h1M112 70h1M15 116h1M79 116h1M15 117h1M47 117h1M79 117h1M111 117h1M47 118h1M111 118h1" />
<path stroke="#787878" d="M15 173h3M79 173h3M13 174h2M18 174h2M47 174h3M77 174h2M82 174h2M111 174h3M13 175h2M18 175h2M45 175h2M50 175h2M77 175h2M82 175h2M109 175h2M114 175h2M45 176h1M50 176h2M109 176h2M115 176h1" />
</svg>