<svg xmlns="http://www.w3.org/2000/svg" viewBox="0 -0.5 128 192" shape-rendering="crispEdges">
<metadata>Made with Pixels to Svg https://codepen.io/shshaw/pen/XbxvNj</metadata>
<path stroke="#73191b" d="M14 2h5M78 2h5M11 3h3M19 3h3M46 3h5M75 3h3M83 3h3M110 3h5M10 4h1M22 4h1M43 4h3M51 4h3M74 4h1M86 4h1M107 4h3M115 4h3M9 5h1M23 5h1M42 5h1M54 5h1M73 5h1M87 5h1M106 5h1M118 5h1M9 6h1M23 6h1M41 6h1M55 6h1M73 6h1M87 6h1M105 6h1M119 6h1M8 7h1M24 7h1M41 7h1M55 7h1M72 7h1M88 7h1M105 7h1M119 7h1M8 8h1M24 8h1M40 8h1M56 8h1M72 8h1M88 8h1M104 8h1M120 8h1M8 9h1M24 9h1M40 9h1M56 9h1M72 9h1M88 9h1M104 9h1M120 9h1M40 10h1M56 10h1M104 10h1M120 10h1M9 12h2M22 12h2M73 12h2M86 12h2M10 13h1M22 13h1M41 13h2M54 13h2M74 13h1M86 13h1M105 13h2M118 13h2M10 14h1M22 14h1M42 14h1M54 14h1M74 14h1M86 14h1M106 14h1M118 14h1M42 15h1M54 15h1M106 15h1M118 15h1M11 17h1M21 17h1M75 17h1M85 17h1M43 18h1M53 18h1M76 18h1M84 18h1M107 18h1M117 18h1M15 19h3M79 19h3M47 20h3M111 20h3M53 25h1M107 25h1M40 27h1M120 27h1M13 29h1M19 29h1M77 29h1M83 29h1M15 30h3M51 30h1M79 30h3M109 30h1M15 31h1M17 31h1M47 31h4M79 31h1M81 31h1M110 31h4M48 32h1M50 32h1M110 32h1M112 32h1M43 33h1M48 33h1M112 33h1M117 33h1M50 34h1M52 34h1M108 34h1M110 34h1M43 35h1M50 35h3M108 35h3M117 35h1M11 36h1M21 36h1M50 36h3M75 36h1M85 36h1M108 36h3M11 37h1M21 37h1M48 37h1M50 37h3M75 37h1M85 37h1M108 37h3M112 37h1M11 38h1M15 38h1M17 38h1M21 38h1M48 38h1M50 38h3M75 38h1M79 38h1M81 38h1M85 38h1M108 38h3M112 38h1M15 39h1M17 39h1M43 39h1M48 39h1M50 39h3M79 39h1M81 39h1M108 39h3M112 39h1M117 39h1M15 40h1M17 40h1M43 40h1M48 40h1M53 40h1M79 40h1M81 40h1M107 40h1M112 40h1M117 40h1M10 42h1M22 42h1M43 42h1M74 42h1M86 42h1M117 42h1M10 43h1M22 43h1M43 43h1M74 43h1M86 43h1M117 43h1M14 50h6M78 50h6M12 51h2M20 51h2M46 51h6M76 51h2M84 51h2M110 51h6M11 52h1M22 52h1M44 52h2M52 52h2M75 52h1M86 52h1M108 52h2M116 52h2M10 53h1M23 53h1M43 53h1M54 53h1M74 53h1M87 53h1M107 53h1M118 53h1M9 54h1M24 54h1M42 54h1M55 54h1M73 54h1M88 54h1M106 54h1M119 54h1M9 55h1M24 55h1M41 55h1M56 55h1M73 55h1M88 55h1M105 55h1M120 55h1M8 56h1M41 56h1M56 56h1M72 56h1M105 56h1M120 56h1M8 57h1M40 57h1M72 57h1M104 57h1M8 58h1M40 58h1M72 58h1M104 58h1M9 59h1M24 59h1M40 59h1M73 59h1M88 59h1M104 59h1M24 60h1M41 60h1M56 60h1M88 60h1M105 60h1M120 60h1M56 61h1M120 61h1M9 62h1M23 62h1M73 62h1M87 62h1M22 63h1M41 63h1M55 63h1M86 63h1M105 63h1M119 63h1M20 64h2M54 64h1M84 64h2M118 64h1M20 65h1M52 65h2M84 65h1M116 65h2M17 66h1M52 66h1M116 66h1M13 67h2M77 67h2M13 68h2M45 68h2M77 68h2M109 68h2M12 69h1M45 69h2M76 69h1M109 69h2M11 70h1M44 70h1M75 70h1M11 71h1M43 71h1M75 71h1M11 72h1M43 72h1M75 72h1M11 73h2M43 73h1M47 73h1M75 73h2M43 74h1M108 74h2M114 74h1M17 75h1M51 75h2M81 75h1M47 76h1M12 77h1M51 77h1M76 77h1M108 77h1M12 78h1M14 78h1M44 78h1M76 78h1M78 78h1M80 78h1M108 78h1M13 79h2M44 79h1M77 79h2M81 79h2M115 79h1M14 80h1M44 80h3M78 80h1M109 80h1M116 80h2M14 81h1M43 81h4M48 81h1M78 81h1M108 81h1M43 82h4M48 82h1M108 82h1M43 83h4M48 83h1M108 83h1M20 84h1M43 84h4M84 84h1M114 84h1M15 85h1M43 85h4M79 85h1M108 85h1M43 86h3M16 87h1M43 87h2M80 87h1M113 87h1M16 88h1M50 88h1M80 88h1M107 88h1M50 89h1M12 98h6M76 98h6M10 99h2M18 99h2M44 99h6M74 99h2M82 99h2M108 99h6M9 100h1M20 100h1M42 100h2M50 100h2M73 100h1M84 100h1M106 100h2M114 100h2M8 101h1M21 101h1M41 101h1M52 101h1M72 101h1M85 101h1M105 101h1M116 101h1M7 102h1M22 102h1M40 102h1M53 102h1M71 102h1M86 102h1M104 102h1M117 102h1M7 103h1M22 103h1M39 103h1M54 103h1M71 103h1M86 103h1M103 103h1M118 103h1M23 104h1M39 104h1M54 104h1M87 104h1M103 104h1M118 104h1M23 105h1M55 105h1M87 105h1M119 105h1M23 106h1M55 106h1M87 106h1M119 106h1M7 107h1M22 107h1M55 107h1M71 107h1M86 107h1M119 107h1M7 108h1M39 108h1M54 108h1M71 108h1M103 108h1M118 108h1M39 109h1M103 109h1M8 110h1M22 110h1M72 110h1M86 110h1M9 111h1M40 111h1M54 111h1M73 111h1M104 111h1M118 111h1M10 112h2M41 112h1M74 112h2M105 112h1M11 113h1M42 113h2M75 113h1M106 113h2M43 114h1M107 114h1M17 115h2M81 115h2M17 116h2M49 116h2M81 116h2M113 116h1M19 117h1M48 117h3M83 117h1M113 117h2M20 118h1M51 118h1M84 118h1M20 119h1M52 119h1M84 119h1M20 120h1M52 120h1M84 120h1M19 121h2M48 121h1M52 121h1M83 121h2M52 122h1M109 122h1M114 122h2M14 123h1M43 123h2M78 123h1M48 124h1M19 125h1M44 125h1M83 125h1M115 125h1M15 126h1M17 126h1M19 126h1M51 126h1M79 126h1M81 126h1M83 126h1M115 126h1M13 127h2M17 127h2M51 127h1M77 127h2M81 127h2M108 127h1M17 128h1M49 128h3M81 128h1M106 128h2M114 128h1M17 129h1M47 129h1M49 129h4M81 129h1M115 129h1M47 130h1M49 130h3M115 130h1M47 131h1M49 131h4M41 132h1M49 132h4M109 132h1M46 133h1M49 133h4M50 134h3M15 135h1M51 135h2M79 135h1M110 135h1M15 136h1M45 136h1M79 136h1M116 136h1M45 137h1M14 146h5M78 146h5M11 147h3M19 147h3M46 147h5M75 147h3M83 147h3M110 147h5M10 148h1M22 148h1M43 148h3M51 148h3M74 148h1M86 148h1M107 148h3M115 148h3M9 149h1M23 149h1M42 149h1M54 149h1M73 149h1M87 149h1M106 149h1M118 149h1M9 150h1M23 150h1M41 150h1M55 150h1M73 150h1M87 150h1M105 150h1M119 150h1M8 151h1M24 151h1M41 151h1M55 151h1M72 151h1M88 151h1M105 151h1M119 151h1M8 152h1M24 152h1M40 152h1M56 152h1M72 152h1M88 152h1M104 152h1M120 152h1M8 153h1M24 153h1M40 153h1M56 153h1M72 153h1M88 153h1M104 153h1M120 153h1M40 154h1M56 154h1M104 154h1M120 154h1M9 158h1M23 158h1M73 158h1M87 158h1M41 159h1M55 159h1M105 159h1M119 159h1M10 160h1M22 160h1M74 160h1M86 160h1M11 161h1M21 161h1M42 161h1M54 161h1M75 161h1M85 161h1M106 161h1M118 161h1M13 162h1M19 162h1M43 162h1M53 162h1M77 162h1M83 162h1M107 162h1M117 162h1M15 163h1M17 163h1M45 163h1M51 163h1M79 163h1M81 163h1M109 163h1M115 163h1M47 164h1M49 164h1M111 164h1M113 164h1M42 169h1M118 169h1M39 170h1M121 170h1M39 171h1M41 171h1M119 171h1M121 171h1M16 173h1M57 173h1M80 173h1M103 173h1M16 174h1M49 174h1M80 174h1M111 174h1M15 175h1M17 175h1M49 175h1M52 175h1M79 175h1M81 175h1M108 175h1M111 175h1M47 176h2M50 176h4M107 176h4M112 176h2M50 177h3M108 177h3M50 179h3M108 179h3M50 180h3M108 180h3M11 181h1M21 181h1M51 181h2M75 181h1M85 181h1M108 181h2M11 182h1M15 182h1M17 182h1M21 182h1M51 182h2M75 182h1M79 182h1M81 182h1M85 182h1M108 182h2M15 183h1M17 183h1M53 183h1M79 183h1M81 183h1M107 183h1M50 184h2M53 184h1M107 184h1M109 184h2M44 185h1M116 185h1M10 186h1M22 186h1M43 186h1M74 186h1M86 186h1M117 186h1M10 187h1M22 187h1M43 187h1M46 187h3M74 187h1M86 187h1M112 187h3M117 187h1M45 188h4M112 188h4" />
<path stroke="#8a1e21" d="M14 3h1M18 3h1M78 3h1M82 3h1M11 4h1M21 4h1M46 4h1M50 4h1M75 4h1M85 4h1M110 4h1M114 4h1M10 5h1M22 5h1M43 5h1M53 5h1M74 5h1M86 5h1M107 5h1M117 5h1M42 6h1M54 6h1M106 6h1M118 6h1M9 7h1M23 7h1M73 7h1M87 7h1M9 8h1M23 8h1M41 8h1M55 8h1M73 8h1M87 8h1M105 8h1M119 8h1M41 9h1M55 9h1M105 9h1M119 9h1M10 10h2M21 10h2M74 10h2M85 10h2M9 11h1M23 11h1M42 11h1M54 11h1M73 11h1M87 11h1M106 11h1M118 11h1M41 12h1M55 12h1M105 12h1M119 12h1M9 14h1M23 14h1M73 14h1M87 14h1M41 15h1M55 15h1M105 15h1M119 15h1M13 18h1M19 18h1M77 18h1M83 18h1M45 19h1M51 19h1M109 19h1M115 19h1M15 20h3M78 20h5M47 21h3M111 21h3M8 22h1M24 22h1M72 22h1M88 22h1M10 23h1M22 23h1M42 23h1M74 23h1M86 23h1M118 23h1M14 24h1M18 24h1M41 25h1M49 25h2M110 25h2M119 25h1M56 26h1M104 26h1M39 27h1M54 27h1M106 27h1M121 27h1M6 28h1M26 28h1M70 28h1M90 28h1M14 29h5M78 29h5M14 30h1M18 30h1M46 30h5M55 30h2M78 30h1M82 30h1M104 30h2M110 30h5M46 31h1M51 31h2M108 31h2M114 31h1M15 32h1M17 32h1M47 32h1M51 32h2M79 32h1M81 32h1M108 32h2M113 32h1M15 33h1M17 33h1M79 33h1M51 34h1M109 34h1M11 35h1M21 35h1M48 35h1M75 35h1M85 35h1M112 35h1M15 36h1M17 36h1M48 36h1M79 36h1M81 36h1M112 36h1M15 37h1M17 37h1M44 37h1M79 37h1M81 37h1M116 37h1M44 38h1M116 38h1M11 39h1M14 39h1M18 39h1M21 39h1M44 39h1M75 39h1M78 39h1M82 39h1M85 39h1M116 39h1M14 40h1M18 40h1M44 40h1M78 40h1M82 40h1M116 40h1M14 41h1M18 41h1M50 41h3M78 41h1M82 41h1M108 41h3M15 42h1M17 42h1M79 42h1M81 42h1M15 43h1M17 43h1M79 43h1M81 43h1M11 44h1M21 44h1M44 44h1M75 44h1M85 44h1M116 44h1M14 51h1M19 51h1M78 51h1M83 51h1M12 52h1M21 52h1M46 52h1M51 52h1M76 52h1M85 52h1M110 52h1M115 52h1M22 53h1M44 53h1M53 53h1M86 53h1M108 53h1M117 53h1M23 54h1M54 54h1M87 54h1M118 54h1M55 55h1M119 55h1M9 56h1M24 56h1M73 56h1M88 56h1M9 57h1M24 57h1M41 57h1M56 57h1M73 57h1M88 57h1M105 57h1M120 57h1M9 58h1M24 58h1M41 58h1M56 58h1M73 58h1M88 58h1M105 58h1M120 58h1M41 59h1M56 59h1M105 59h1M120 59h1M10 60h1M23 60h1M74 60h1M87 60h1M10 61h1M23 61h1M42 61h1M55 61h1M74 61h1M87 61h1M106 61h1M119 61h1M18 62h5M42 62h1M55 62h1M82 62h5M106 62h1M119 62h1M9 63h1M18 63h4M50 63h5M73 63h1M82 63h4M114 63h5M9 64h1M18 64h2M41 64h1M50 64h4M73 64h1M82 64h2M105 64h1M114 64h4M17 65h1M41 65h1M50 65h2M105 65h1M114 65h2M11 66h1M16 66h1M75 66h1M80 66h1M43 67h1M48 67h1M107 67h1M112 67h1M79 68h1M13 69h1M77 69h1M111 69h1M45 70h1M109 70h1M13 73h2M17 73h1M48 73h1M77 73h1M81 73h1M109 73h1M117 73h1M48 74h1M110 74h1M45 75h2M12 76h1M46 76h1M76 76h1M115 76h1M44 77h1M50 77h1M13 78h1M19 78h1M45 78h1M77 78h1M83 78h1M45 79h1M49 79h1M53 79h1M109 79h1M118 79h1M115 80h1M19 81h1M109 81h1M115 81h1M19 82h1M83 82h1M115 82h1M109 83h1M114 83h1M49 84h1M20 85h1M54 85h1M84 85h1M16 86h1M20 86h1M50 86h1M54 86h1M80 86h1M84 86h1M108 86h1M113 86h1M20 87h1M50 87h1M54 87h1M84 87h1M108 87h1M17 88h1M51 88h1M81 88h1M108 88h1M112 88h1M51 89h1M112 89h1M15 90h1M79 90h1M106 90h1M14 91h1M20 91h1M55 91h1M78 91h1M84 91h1M111 91h1M15 92h1M19 92h1M54 92h1M79 92h1M83 92h1M106 92h1M110 92h1M12 99h1M17 99h1M76 99h1M81 99h1M10 100h1M19 100h1M44 100h1M49 100h1M74 100h1M83 100h1M108 100h1M113 100h1M9 101h1M42 101h1M51 101h1M73 101h1M106 101h1M115 101h1M8 102h1M41 102h1M72 102h1M105 102h1M40 103h1M104 103h1M7 104h1M22 104h1M71 104h1M86 104h1M7 105h1M22 105h1M39 105h1M54 105h1M71 105h1M86 105h1M103 105h1M118 105h1M7 106h1M22 106h1M39 106h1M54 106h1M71 106h1M86 106h1M103 106h1M118 106h1M39 107h1M54 107h1M103 107h1M118 107h1M8 108h1M21 108h1M72 108h1M85 108h1M8 109h1M21 109h1M40 109h1M53 109h1M72 109h1M85 109h1M104 109h1M117 109h1M9 110h5M40 110h1M53 110h1M73 110h5M104 110h1M117 110h1M10 111h4M22 111h1M41 111h5M74 111h4M86 111h1M105 111h5M12 112h2M22 112h1M42 112h4M54 112h1M76 112h2M86 112h1M106 112h4M118 112h1M44 113h2M54 113h1M108 113h2M118 113h1M15 114h1M20 114h1M79 114h1M84 114h1M47 115h1M52 115h1M111 115h1M116 115h1M16 116h1M80 116h1M18 117h1M82 117h1M112 117h1M49 118h2M114 118h1M14 121h1M18 121h1M47 121h1M78 121h1M82 121h1M106 121h1M114 121h1M47 122h1M113 122h1M49 123h2M19 124h1M49 124h1M83 124h1M108 124h1M45 125h1M51 125h1M12 126h1M18 126h1M50 126h1M76 126h1M82 126h1M46 127h1M50 127h1M105 127h1M114 127h1M108 128h1M108 129h1M114 129h1M12 130h1M76 130h1M108 130h1M109 131h1M114 131h2M16 132h1M46 132h1M80 132h1M11 133h1M75 133h1M11 134h1M15 134h1M41 134h1M75 134h1M79 134h1M115 134h1M11 135h1M41 135h1M45 135h1M75 135h1M115 135h1M14 136h1M44 136h1M78 136h1M111 136h1M115 136h1M44 137h1M111 137h1M16 138h1M80 138h1M117 138h1M11 139h1M17 139h1M40 139h1M75 139h1M81 139h1M112 139h1M12 140h1M16 140h1M41 140h1M76 140h1M80 140h1M113 140h1M117 140h1M14 147h1M18 147h1M78 147h1M82 147h1M11 148h1M21 148h1M46 148h1M50 148h1M75 148h1M85 148h1M110 148h1M114 148h1M10 149h1M22 149h1M43 149h1M53 149h1M74 149h1M86 149h1M107 149h1M117 149h1M42 150h1M54 150h1M106 150h1M118 150h1M9 151h1M23 151h1M73 151h1M87 151h1M9 152h1M23 152h1M41 152h1M55 152h1M73 152h1M87 152h1M105 152h1M119 152h1M41 153h1M55 153h1M105 153h1M119 153h1M9 157h1M23 157h1M73 157h1M87 157h1M41 158h1M55 158h1M105 158h1M119 158h1M10 159h1M22 159h1M74 159h1M86 159h1M42 160h1M54 160h1M106 160h1M118 160h1M12 161h1M20 161h1M76 161h1M84 161h1M14 162h1M18 162h1M44 162h1M52 162h1M78 162h1M82 162h1M108 162h1M116 162h1M16 163h1M46 163h1M50 163h1M80 163h1M110 163h1M114 163h1M48 164h1M112 164h1M47 165h1M113 165h1M15 166h1M17 166h1M79 166h1M81 166h1M15 167h1M17 167h1M41 167h1M47 167h1M49 167h1M79 167h1M81 167h1M111 167h1M113 167h1M119 167h1M14 168h1M18 168h1M40 168h1M47 168h1M49 168h1M53 168h1M107 168h1M111 168h1M113 168h1M120 168h1M16 169h1M46 169h1M48 169h1M50 169h1M80 169h1M110 169h1M112 169h1M114 169h1M16 170h1M48 170h1M56 170h1M80 170h1M104 170h1M112 170h1M40 171h1M120 171h1M6 172h1M26 172h1M70 172h1M90 172h1M55 173h1M105 173h1M15 174h1M17 174h1M48 174h1M79 174h1M81 174h1M112 174h1M13 175h2M18 175h2M47 175h2M51 175h1M77 175h2M82 175h2M109 175h1M112 175h2M15 176h1M17 176h1M46 176h1M79 176h1M81 176h1M114 176h1M11 177h1M15 177h1M17 177h1M21 177h1M48 177h1M75 177h1M79 177h1M81 177h1M85 177h1M112 177h1M48 178h1M112 178h1M11 179h1M15 179h1M17 179h1M21 179h1M75 179h1M79 179h1M81 179h1M85 179h1M11 180h1M15 180h1M17 180h1M21 180h1M44 180h1M48 180h1M75 180h1M79 180h1M81 180h1M85 180h1M112 180h1M116 180h1M15 181h1M17 181h1M44 181h1M48 181h1M79 181h1M81 181h1M112 181h1M116 181h1M44 182h1M116 182h1M11 183h1M21 183h1M44 183h1M75 183h1M85 183h1M116 183h1M45 184h1M52 184h1M108 184h1M115 184h1M11 185h1M15 185h1M17 185h1M21 185h1M50 185h3M75 185h1M79 185h1M81 185h1M85 185h1M108 185h3M11 186h1M15 186h1M17 186h1M21 186h1M44 186h1M48 186h1M75 186h1M79 186h1M81 186h1M85 186h1M112 186h1M116 186h1M15 187h1M17 187h1M79 187h1M81 187h1M11 188h1M14 188h1M18 188h1M21 188h1M44 188h1M75 188h1M78 188h1M82 188h1M85 188h1M116 188h1" />
<path stroke="#a72326" d="M15 3h3M79 3h3M12 4h1M20 4h1M47 4h3M76 4h1M84 4h1M111 4h3M11 5h1M21 5h1M44 5h1M52 5h1M75 5h1M85 5h1M108 5h1M116 5h1M10 6h1M22 6h1M43 6h1M53 6h1M74 6h1M86 6h1M107 6h1M117 6h1M42 7h1M54 7h1M106 7h1M118 7h1M10 8h1M22 8h1M74 8h1M86 8h1M9 9h3M21 9h3M42 9h1M54 9h1M73 9h3M85 9h3M106 9h1M118 9h1M9 10h1M23 10h1M41 10h3M53 10h3M73 10h1M87 10h1M105 10h3M117 10h3M10 11h1M22 11h1M41 11h1M55 11h1M74 11h1M86 11h1M105 11h1M119 11h1M42 12h1M54 12h1M106 12h1M118 12h1M9 13h1M11 13h1M21 13h1M23 13h1M73 13h1M75 13h1M85 13h1M87 13h1M41 14h1M43 14h1M53 14h1M55 14h1M105 14h1M107 14h1M117 14h1M119 14h1M11 16h1M21 16h1M75 16h1M85 16h1M12 17h1M20 17h1M43 17h1M53 17h1M76 17h1M84 17h1M107 17h1M117 17h1M14 18h5M44 18h1M52 18h1M78 18h5M108 18h1M116 18h1M46 19h5M110 19h5M16 21h1M80 21h1M48 22h1M112 22h1M16 23h1M80 23h1M9 24h1M15 24h3M23 24h1M40 24h1M48 24h1M73 24h1M79 24h3M87 24h1M112 24h1M120 24h1M7 25h1M14 25h5M25 25h1M46 25h3M71 25h1M78 25h5M89 25h1M112 25h3M8 26h1M16 26h1M24 26h1M39 26h2M48 26h1M50 26h1M72 26h1M80 26h1M88 26h1M110 26h1M112 26h1M120 26h2M6 27h2M25 27h2M47 27h3M56 27h1M70 27h2M89 27h2M104 27h1M111 27h3M7 28h1M25 28h1M71 28h1M89 28h1M55 29h1M105 29h1M13 30h1M19 30h1M77 30h1M83 30h1M13 31h2M18 31h2M77 31h2M82 31h2M11 32h1M14 32h1M18 32h1M21 32h1M78 32h1M82 32h1M11 33h1M14 33h1M18 33h1M21 33h1M44 33h1M47 33h1M75 33h1M78 33h1M81 33h2M85 33h1M113 33h1M116 33h1M14 34h1M18 34h1M44 34h1M47 34h1M78 34h1M82 34h1M113 34h1M116 34h1M15 35h1M17 35h1M79 35h1M81 35h1M14 36h1M18 36h1M44 36h1M47 36h1M78 36h1M82 36h1M113 36h1M116 36h1M12 37h1M14 37h1M18 37h1M20 37h1M45 37h1M47 37h1M76 37h1M78 37h1M82 37h1M84 37h1M113 37h1M115 37h1M12 38h3M18 38h3M45 38h1M47 38h1M76 38h3M82 38h3M113 38h1M115 38h1M12 39h2M19 39h2M45 39h3M76 39h2M83 39h2M113 39h3M11 40h3M19 40h3M45 40h3M75 40h3M83 40h3M113 40h3M12 41h2M19 41h2M44 41h4M76 41h2M83 41h2M113 41h4M11 42h1M21 42h1M48 42h1M75 42h1M85 42h1M112 42h1M12 44h3M18 44h3M76 44h3M82 44h3M15 51h4M79 51h4M13 52h1M19 52h2M47 52h4M77 52h1M83 52h2M111 52h4M11 53h1M21 53h1M45 53h1M51 53h2M75 53h1M85 53h1M109 53h1M115 53h2M10 54h1M22 54h1M43 54h1M53 54h1M74 54h1M86 54h1M107 54h1M117 54h1M22 55h2M42 55h1M54 55h1M86 55h2M106 55h1M118 55h1M22 56h2M54 56h2M86 56h2M118 56h2M21 57h3M54 57h2M85 57h3M118 57h2M18 58h6M53 58h3M82 58h6M117 58h3M10 59h1M17 59h7M50 59h6M74 59h1M81 59h7M114 59h6M17 60h6M42 60h1M49 60h7M82 60h5M106 60h1M113 60h7M15 61h1M17 61h6M50 61h5M79 61h1M82 61h5M114 61h5M10 62h1M17 62h1M47 62h1M50 62h5M74 62h1M111 62h1M114 62h5M17 63h1M42 63h1M106 63h1M15 64h1M17 64h1M79 64h1M10 65h1M47 65h1M74 65h1M81 65h1M111 65h1M12 66h1M15 66h1M42 66h1M49 66h1M76 66h1M79 66h1M106 66h1M113 66h1M44 67h1M47 67h1M108 67h1M111 67h1M78 69h1M12 70h1M76 70h1M44 71h1M109 71h1M12 72h1M76 72h1M20 73h1M84 73h1M44 74h3M51 74h1M111 74h1M117 74h1M20 75h1M84 75h1M118 76h1M13 77h2M19 77h1M77 77h2M83 77h1M17 78h1M49 78h1M81 78h1M109 78h1M118 78h1M15 79h1M47 79h1M116 79h1M15 80h1M53 80h1M79 80h1M15 81h1M49 81h1M53 81h1M79 81h1M110 81h1M114 81h1M15 82h1M17 82h2M49 82h2M53 82h1M79 82h1M109 82h1M111 82h4M15 83h1M49 83h1M53 83h1M79 83h1M110 83h1M113 83h1M19 84h1M83 84h1M113 84h1M16 85h1M19 85h1M53 85h1M80 85h1M83 85h1M18 86h2M51 86h3M82 86h2M109 86h1M112 86h1M17 87h3M51 87h3M81 87h3M110 87h3M18 88h1M52 88h3M82 88h1M111 88h1M19 89h2M83 89h2M111 89h1M18 90h3M52 90h4M82 90h3M107 90h1M16 92h1M80 92h1M107 92h1M13 99h4M77 99h4M11 100h2M18 100h1M45 100h4M75 100h2M82 100h1M109 100h4M10 101h1M20 101h1M43 101h2M50 101h1M74 101h1M84 101h1M107 101h2M114 101h1M9 102h1M21 102h1M42 102h1M52 102h1M73 102h1M85 102h1M106 102h1M116 102h1M8 103h2M41 103h1M53 103h1M72 103h2M105 103h1M117 103h1M8 104h2M40 104h2M72 104h2M104 104h2M8 105h3M40 105h2M72 105h3M104 105h2M8 106h6M40 106h3M72 106h6M104 106h3M8 107h7M21 107h1M40 107h6M72 107h7M85 107h1M104 107h6M9 108h5M40 108h7M53 108h1M73 108h5M104 108h7M117 108h1M9 109h5M16 109h1M41 109h5M73 109h5M80 109h1M105 109h5M21 110h1M41 110h5M48 110h1M85 110h1M105 110h5M112 110h1M53 111h1M117 111h1M16 112h1M80 112h1M14 113h1M21 113h1M48 113h1M78 113h1M85 113h1M112 113h1M16 114h1M19 114h1M46 114h1M53 114h1M80 114h1M83 114h1M110 114h1M117 114h1M48 115h1M51 115h1M112 115h1M115 115h1M17 117h1M81 117h1M19 118h1M83 118h1M51 119h1M114 119h1M19 120h1M83 120h1M11 121h1M75 121h1M44 122h1M50 122h2M106 122h1M112 122h1M11 123h1M75 123h1M105 124h1M12 125h1M17 125h2M76 125h1M81 125h2M14 126h1M46 126h1M78 126h1M105 126h1M114 126h1M48 127h1M107 127h1M16 128h1M42 128h1M80 128h1M16 129h1M42 129h1M46 129h1M80 129h1M109 129h1M113 129h1M16 130h1M42 130h1M46 130h1M80 130h1M109 130h4M114 130h1M12 131h2M16 131h1M42 131h1M46 131h1M76 131h2M80 131h1M110 131h1M113 131h1M110 132h1M114 132h1M12 133h1M45 133h1M76 133h1M110 133h2M12 134h2M42 134h3M76 134h2M114 134h1M12 135h3M42 135h3M76 135h3M111 135h3M13 136h1M41 136h3M77 136h1M112 136h1M11 137h2M75 137h2M112 137h1M11 138h3M40 138h4M75 138h3M116 138h1M15 140h1M79 140h1M116 140h1M15 147h3M79 147h3M12 148h1M20 148h1M47 148h3M76 148h1M84 148h1M111 148h3M11 149h1M21 149h1M44 149h1M52 149h1M75 149h1M85 149h1M108 149h1M116 149h1M10 150h1M22 150h1M43 150h1M53 150h1M74 150h1M86 150h1M107 150h1M117 150h1M22 151h1M42 151h1M54 151h1M86 151h1M106 151h1M118 151h1M22 152h1M54 152h1M86 152h1M118 152h1M9 153h1M22 153h2M54 153h1M73 153h1M86 153h2M118 153h1M9 154h2M21 154h3M41 154h1M54 154h2M73 154h2M85 154h3M105 154h1M118 154h2M9 155h3M20 155h4M41 155h2M53 155h3M73 155h3M84 155h4M105 155h2M117 155h3M9 156h6M18 156h6M41 156h3M52 156h4M73 156h6M82 156h6M105 156h3M116 156h4M10 157h13M41 157h6M50 157h6M74 157h13M105 157h6M114 157h6M10 158h13M42 158h13M74 158h13M106 158h13M11 159h11M42 159h13M75 159h11M106 159h13M11 160h11M43 160h11M75 160h11M107 160h11M13 161h7M43 161h11M77 161h7M107 161h11M15 162h3M45 162h7M79 162h3M109 162h7M47 163h3M111 163h3M15 164h3M78 164h4M15 165h3M48 165h2M79 165h3M111 165h2M16 166h1M47 166h3M80 166h1M111 166h3M16 167h1M42 167h1M48 167h1M80 167h1M112 167h1M118 167h1M9 168h1M15 168h3M23 168h1M48 168h1M55 168h1M73 168h1M79 168h3M87 168h1M105 168h1M112 168h1M7 169h1M14 169h2M17 169h2M25 169h1M40 169h2M47 169h1M49 169h1M71 169h1M78 169h2M81 169h2M89 169h1M111 169h1M113 169h1M119 169h2M8 170h1M14 170h2M17 170h2M24 170h1M46 170h2M49 170h2M54 170h1M72 170h1M78 170h2M81 170h2M88 170h1M106 170h1M110 170h2M113 170h2M6 171h1M26 171h1M46 171h5M70 171h1M90 171h1M110 171h5M7 172h1M25 172h1M55 172h1M57 172h1M71 172h1M89 172h1M103 172h1M105 172h1M15 173h1M17 173h1M56 173h1M79 173h1M81 173h1M104 173h1M13 174h2M18 174h2M47 174h1M77 174h2M82 174h2M113 174h1M12 175h1M20 175h1M46 175h1M50 175h1M110 175h1M114 175h1M11 176h4M18 176h4M76 176h3M82 176h3M12 177h3M18 177h3M44 177h1M47 177h1M76 177h3M82 177h3M113 177h1M116 177h1M12 178h3M18 178h3M47 178h1M76 178h3M82 178h3M113 178h1M44 179h1M116 179h1M12 180h3M18 180h3M76 180h3M82 180h3M12 181h3M18 181h3M76 181h3M82 181h3M12 182h1M14 182h1M18 182h1M20 182h1M45 182h1M48 182h1M76 182h1M78 182h1M82 182h1M84 182h1M112 182h1M115 182h1M45 183h1M48 183h1M112 183h1M115 183h1M47 184h2M112 184h2M13 186h1M19 186h1M45 186h1M77 186h1M83 186h1M115 186h1M11 187h4M18 187h4M44 187h1M75 187h4M82 187h4M116 187h1M12 188h2M19 188h2M76 188h2M83 188h2" />
<path stroke="#ce2b2e" d="M13 4h7M77 4h7M12 5h9M45 5h7M76 5h9M109 5h7M11 6h11M44 6h9M75 6h11M108 6h9M10 7h13M43 7h11M74 7h13M107 7h11M11 8h11M42 8h13M75 8h11M106 8h13M12 9h9M43 9h11M76 9h9M107 9h11M12 10h1M20 10h1M44 10h9M76 10h1M84 10h1M108 10h9M11 11h1M21 11h1M43 11h2M52 11h2M75 11h1M85 11h1M107 11h1M110 11h2M113 11h2M117 11h1M11 12h1M21 12h1M75 12h1M85 12h1M107 12h1M117 12h1M43 13h1M53 13h1M107 13h1M117 13h1M15 14h3M79 14h3M16 15h1M47 15h3M80 15h1M111 15h3M15 16h1M17 16h1M48 16h1M79 16h1M81 16h1M112 16h1M14 17h5M47 17h1M49 17h1M78 17h5M111 17h1M113 17h1M46 18h5M110 18h5M15 21h1M17 21h1M79 21h1M81 21h1M15 22h3M47 22h1M49 22h1M79 22h3M111 22h1M113 22h1M8 23h2M15 23h1M17 23h1M23 23h2M41 23h1M47 23h3M72 23h2M79 23h1M81 23h1M87 23h2M111 23h3M119 23h1M47 24h1M49 24h1M54 24h2M105 24h2M111 24h1M113 24h1M8 25h1M24 25h1M54 25h2M72 25h1M88 25h1M105 25h2M14 26h2M17 26h2M46 26h2M49 26h1M78 26h2M81 26h2M111 26h1M113 26h2M46 27h1M50 27h1M55 27h1M105 27h1M110 27h1M114 27h1M56 29h1M104 29h1M12 31h1M20 31h1M12 32h2M19 32h2M45 32h2M76 32h2M83 32h2M114 32h2M12 33h1M20 33h1M45 33h2M76 33h2M83 33h2M114 33h2M12 34h2M19 34h2M45 34h2M76 34h2M83 34h2M114 34h2M12 36h1M20 36h1M76 36h1M84 36h1M13 37h1M19 37h1M77 37h1M83 37h1M11 43h4M18 43h4M44 43h5M75 43h4M82 43h4M112 43h5M45 44h4M112 44h4M14 52h5M78 52h5M12 53h9M46 53h5M76 53h9M110 53h5M11 54h11M44 54h9M75 54h11M108 54h9M10 55h12M43 55h11M74 55h12M107 55h11M10 56h1M12 56h10M42 56h12M74 56h1M76 56h10M106 56h12M10 57h1M16 57h5M42 57h1M44 57h10M74 57h1M80 57h5M106 57h1M108 57h10M10 58h1M16 58h2M42 58h1M48 58h5M74 58h1M80 58h2M106 58h1M112 58h5M42 59h1M48 59h2M106 59h1M112 59h2M15 60h2M79 60h3M11 61h1M16 61h1M47 61h3M75 61h1M80 61h2M111 61h3M11 62h1M16 62h1M43 62h1M48 62h2M75 62h1M80 62h2M107 62h1M112 62h2M16 63h1M43 63h1M48 63h2M80 63h2M107 63h1M112 63h2M10 64h2M16 64h1M48 64h2M74 64h2M80 64h2M112 64h2M11 65h2M14 65h3M42 65h2M48 65h2M75 65h2M78 65h3M106 65h2M112 65h2M13 66h2M43 66h2M46 66h3M77 66h2M107 66h2M110 66h3M45 67h2M109 67h2M13 70h1M77 70h1M110 70h1M12 71h1M45 71h1M76 71h1M110 71h1M13 72h1M44 72h1M77 72h1M109 72h2M18 73h2M44 73h2M49 73h1M82 73h2M110 73h1M115 73h2M14 74h1M49 74h2M78 74h1M115 74h2M18 75h2M50 75h1M82 75h2M13 76h1M48 76h2M77 76h1M116 76h2M17 77h2M81 77h2M109 77h2M18 78h1M47 78h2M82 78h1M116 78h2M48 79h1M117 79h1M16 81h1M16 82h1M51 82h1M80 82h1M16 83h2M50 83h3M80 83h2M111 83h2M18 84h1M50 84h1M82 84h1M111 84h2M17 85h2M51 85h2M81 85h2M109 85h1M17 86h1M81 86h1M110 86h2M109 87h1M109 88h2M109 89h2M16 90h2M80 90h2M108 90h1M15 91h5M50 91h5M79 91h5M106 91h5M17 92h2M50 92h4M81 92h2M108 92h2M13 100h5M77 100h5M11 101h9M45 101h5M75 101h9M109 101h5M10 102h11M43 102h9M74 102h11M107 102h9M10 103h12M42 103h11M74 103h12M106 103h11M10 104h10M21 104h1M42 104h12M74 104h10M85 104h1M106 104h12M11 105h5M21 105h1M42 105h10M53 105h1M75 105h5M85 105h1M106 105h10M117 105h1M14 106h2M21 106h1M43 106h5M53 106h1M78 106h2M85 106h1M107 106h5M117 106h1M46 107h2M53 107h1M110 107h2M117 107h1M14 108h3M78 108h3M14 109h2M20 109h1M46 109h3M78 109h2M84 109h1M110 109h3M14 110h2M20 110h1M46 110h2M52 110h1M78 110h2M84 110h1M110 110h2M116 110h1M14 111h2M46 111h2M52 111h1M78 111h2M110 111h2M116 111h1M14 112h2M20 112h2M46 112h2M78 112h2M84 112h2M110 112h2M15 113h3M19 113h2M46 113h2M52 113h2M79 113h3M83 113h2M110 113h2M116 113h2M17 114h2M47 114h3M51 114h2M81 114h2M111 114h3M115 114h2M49 115h2M113 115h2M18 118h1M82 118h1M113 118h1M19 119h1M50 119h1M83 119h1M113 119h1M18 120h1M51 120h1M82 120h1M113 120h2M12 121h2M46 121h1M50 121h2M76 121h2M107 121h2M113 121h1M17 122h1M45 122h2M81 122h1M107 122h2M12 123h2M45 123h1M76 123h2M18 124h1M46 124h2M82 124h1M106 124h2M13 125h2M77 125h2M113 125h2M13 126h1M47 126h2M77 126h1M106 126h2M47 127h1M106 127h1M15 130h1M79 130h1M14 131h2M43 131h3M78 131h2M111 131h2M14 132h1M42 132h1M44 132h2M78 132h1M111 132h2M13 133h1M77 133h1M112 133h2M14 134h1M78 134h1M114 135h1M113 136h2M113 137h2M14 138h2M78 138h2M115 138h1M12 139h5M41 139h5M76 139h5M113 139h5M13 140h2M42 140h4M77 140h2M114 140h2M13 148h7M77 148h7M12 149h9M45 149h7M76 149h9M109 149h7M11 150h11M44 150h9M75 150h11M108 150h9M10 151h12M43 151h11M74 151h12M107 151h11M10 152h12M42 152h12M74 152h12M106 152h12M10 153h12M42 153h12M74 153h12M106 153h12M11 154h10M42 154h12M75 154h10M106 154h12M12 155h8M43 155h10M76 155h8M107 155h10M15 156h3M44 156h8M79 156h3M108 156h8M47 157h3M111 157h3M82 164h1M8 167h2M23 167h2M72 167h2M87 167h2M54 168h1M106 168h1M8 169h1M24 169h1M72 169h1M88 169h1M55 170h1M105 170h1M7 171h1M25 171h1M71 171h1M89 171h1M56 172h1M104 172h1M13 173h2M18 173h2M77 173h2M82 173h2M46 174h1M50 174h2M109 174h2M114 174h1M45 176h1M115 176h1M45 177h2M114 177h2M45 178h2M114 178h2M45 180h3M113 180h3M45 181h3M113 181h3M13 182h1M19 182h1M46 182h2M77 182h1M83 182h1M113 182h2M12 183h3M18 183h3M46 183h2M76 183h3M82 183h3M113 183h2M12 184h3M18 184h3M46 184h1M76 184h3M82 184h3M114 184h1M12 186h1M14 186h1M18 186h1M20 186h1M46 186h2M76 186h1M78 186h1M82 186h1M84 186h1M113 186h2M45 187h1M115 187h1" />
<path stroke="#571315" d="M8 10h1M24 10h1M72 10h1M88 10h1M8 11h1M24 11h1M40 11h1M56 11h1M72 11h1M88 11h1M104 11h1M120 11h1M40 12h1M56 12h1M104 12h1M120 12h1M11 14h1M21 14h1M75 14h1M85 14h1M11 15h1M21 15h1M43 15h1M53 15h1M75 15h1M85 15h1M107 15h1M117 15h1M43 16h1M53 16h1M107 16h1M117 16h1M10 18h2M21 18h2M74 18h2M85 18h2M14 19h1M18 19h1M42 19h1M53 19h2M77 19h2M82 19h2M106 19h2M118 19h1M46 20h1M50 20h1M110 20h1M114 20h1M7 22h1M25 22h1M40 22h1M71 22h1M89 22h1M120 22h1M7 23h1M25 23h1M71 23h1M89 23h1M6 24h1M10 24h1M22 24h1M26 24h1M39 24h1M56 24h1M70 24h1M74 24h1M86 24h1M90 24h1M104 24h1M121 24h1M6 25h1M26 25h1M42 25h1M70 25h1M90 25h1M118 25h1M5 26h1M9 26h1M23 26h1M27 26h1M38 26h1M57 26h1M69 26h1M73 26h1M87 26h1M91 26h1M103 26h1M122 26h1M5 27h1M27 27h1M38 27h1M41 27h1M69 27h1M91 27h1M119 27h1M122 27h1M5 28h1M8 28h1M24 28h1M27 28h1M39 28h2M57 28h1M69 28h1M72 28h1M88 28h1M91 28h1M103 28h1M120 28h2M6 29h2M25 29h2M54 29h1M57 29h1M70 29h2M89 29h2M103 29h1M106 29h1M54 30h1M57 30h1M103 30h1M106 30h1M54 31h3M104 31h3M53 32h1M107 32h1M10 33h1M16 33h1M22 33h1M53 33h1M107 33h1M10 34h1M16 34h1M22 34h1M42 34h1M53 34h1M74 34h1M80 34h1M86 34h1M107 34h1M118 34h1M10 35h1M16 35h1M22 35h1M49 35h1M53 35h1M74 35h1M80 35h1M86 35h1M107 35h1M111 35h1M16 36h1M43 36h1M49 36h1M53 36h1M80 36h1M107 36h1M111 36h1M117 36h1M43 37h1M53 37h1M107 37h1M117 37h1M43 38h1M53 38h1M107 38h1M117 38h1M10 39h1M22 39h1M74 39h1M86 39h1M10 40h1M22 40h1M74 40h1M86 40h1M10 41h1M22 41h1M74 41h1M86 41h1M11 51h1M75 51h1M10 52h1M43 52h1M74 52h1M107 52h1M9 53h1M42 53h1M73 53h1M106 53h1M41 54h1M105 54h1M8 55h1M72 55h1M40 56h1M104 56h1M15 62h1M79 62h1M15 63h1M47 63h1M79 63h1M111 63h1M22 64h1M47 64h1M86 64h1M111 64h1M9 65h1M18 65h2M21 65h1M54 65h1M73 65h1M82 65h2M85 65h1M118 65h1M10 66h1M18 66h3M41 66h1M50 66h2M53 66h1M74 66h1M81 66h4M105 66h1M114 66h2M117 66h1M15 67h1M18 67h2M42 67h1M49 67h4M79 67h5M106 67h1M113 67h4M47 68h1M49 68h3M111 68h2M114 68h2M51 69h1M108 69h1M21 73h1M53 73h1M85 73h1M118 73h1M47 74h1M52 74h2M118 74h1M21 75h1M85 75h1M114 75h1M11 76h1M16 76h1M75 76h1M119 76h1M11 77h1M16 77h1M20 77h1M43 77h1M46 77h1M75 77h1M80 77h1M84 77h1M107 77h1M11 78h1M20 78h1M43 78h1M46 78h1M75 78h1M84 78h1M115 78h1M119 78h1M12 79h1M20 79h1M43 79h1M46 79h1M54 79h1M76 79h1M83 79h2M108 79h1M119 79h1M12 80h1M20 80h1M43 80h1M47 80h3M54 80h1M76 80h1M84 80h1M108 80h1M118 80h1M12 81h1M20 81h1M54 81h1M76 81h1M84 81h1M116 81h3M13 82h1M20 82h1M42 82h1M54 82h1M77 82h1M84 82h1M116 82h3M12 83h2M42 83h1M54 83h1M76 83h2M115 83h4M12 84h2M42 84h1M76 84h2M115 84h4M13 85h1M21 85h1M42 85h1M55 85h1M77 85h1M85 85h1M115 85h5M13 86h1M21 86h1M42 86h1M55 86h1M77 86h1M85 86h1M114 86h1M116 86h4M13 87h3M21 87h1M41 87h2M45 87h1M49 87h1M55 87h1M77 87h3M85 87h1M116 87h4M12 88h4M40 88h6M49 88h1M55 88h1M76 88h4M113 88h1M115 88h5M11 89h5M21 89h1M40 89h5M49 89h1M56 89h1M75 89h5M85 89h1M106 89h1M113 89h1M13 90h2M49 90h1M77 90h2M105 90h1M49 91h1M105 91h1M14 92h1M49 92h1M78 92h1M105 92h1M20 99h1M84 99h1M21 100h1M52 100h1M85 100h1M116 100h1M22 101h1M53 101h1M86 101h1M117 101h1M54 102h1M118 102h1M23 103h1M87 103h1M55 104h1M119 104h1M16 110h1M80 110h1M16 111h1M48 111h1M80 111h1M112 111h1M9 112h1M48 112h1M73 112h1M112 112h1M10 113h1M12 113h2M22 113h1M41 113h1M74 113h1M76 113h2M86 113h1M105 113h1M11 114h4M21 114h1M42 114h1M44 114h2M54 114h1M75 114h4M85 114h1M106 114h1M108 114h2M118 114h1M12 115h5M43 115h4M53 115h1M76 115h5M107 115h4M117 115h1M44 116h5M108 116h2M111 116h2M114 116h1M44 117h1M115 117h1M10 121h1M42 121h1M74 121h1M105 121h1M42 122h2M48 122h1M105 122h1M10 123h1M74 123h1M109 123h1M20 124h1M84 124h1M104 124h1M116 124h1M11 125h1M15 125h1M20 125h1M49 125h1M52 125h1M75 125h1M79 125h1M84 125h1M116 125h1M11 126h1M20 126h1M49 126h1M52 126h1M75 126h1M84 126h1M104 126h1M108 126h1M11 127h2M19 127h1M41 127h1M45 127h1M49 127h1M52 127h1M75 127h2M83 127h1M104 127h1M115 127h1M11 128h1M19 128h1M41 128h1M46 128h3M52 128h1M75 128h1M83 128h1M105 128h1M115 128h1M11 129h1M19 129h1M41 129h1M75 129h1M83 129h1M105 129h3M11 130h1M18 130h1M41 130h1M52 130h2M75 130h1M82 130h1M105 130h3M11 131h1M18 131h2M41 131h1M53 131h1M75 131h1M82 131h2M105 131h4M18 132h2M53 132h1M82 132h2M105 132h4M10 133h1M18 133h1M40 133h1M53 133h1M74 133h1M82 133h1M104 133h6M10 134h1M18 134h1M40 134h1M53 134h1M74 134h1M82 134h1M104 134h4M10 135h1M16 135h3M40 135h1M46 135h1M50 135h1M53 135h2M74 135h1M80 135h3M104 135h4M16 136h4M40 136h1M46 136h1M50 136h6M80 136h4M104 136h5M110 136h1M10 137h1M16 137h5M39 137h1M46 137h1M51 137h5M74 137h1M80 137h5M110 137h1M117 137h1M17 138h2M46 138h1M81 138h2M118 138h1M46 139h1M118 139h1M17 140h1M46 140h1M81 140h1M118 140h1M8 154h1M24 154h1M72 154h1M88 154h1M8 155h1M24 155h1M40 155h1M56 155h1M72 155h1M88 155h1M104 155h1M120 155h1M40 156h1M56 156h1M104 156h1M120 156h1M10 162h2M21 162h2M74 162h3M84 162h3M14 163h1M18 163h1M42 163h1M53 163h2M77 163h2M82 163h2M106 163h2M118 163h1M46 164h1M50 164h1M110 164h1M114 164h1M7 166h1M25 166h1M40 166h1M71 166h1M89 166h1M120 166h1M7 167h1M25 167h1M56 167h1M71 167h1M89 167h1M104 167h1M6 168h1M10 168h1M22 168h1M26 168h1M39 168h1M56 168h1M70 168h1M74 168h1M86 168h1M90 168h1M104 168h1M121 168h1M6 169h1M10 169h1M22 169h1M26 169h1M57 169h1M70 169h1M74 169h1M86 169h1M90 169h1M103 169h1M5 170h1M9 170h1M23 170h1M27 170h1M38 170h1M53 170h1M57 170h1M69 170h1M73 170h1M87 170h1M91 170h1M103 170h1M107 170h1M122 170h1M5 171h1M9 171h1M23 171h1M27 171h1M38 171h1M53 171h1M58 171h1M69 171h1M73 171h1M87 171h1M91 171h1M102 171h1M107 171h1M122 171h1M5 172h1M8 172h1M24 172h1M27 172h1M39 172h3M54 172h1M58 172h1M69 172h1M72 172h1M88 172h1M91 172h1M102 172h1M106 172h1M119 172h3M6 173h2M25 173h2M54 173h1M58 173h1M70 173h2M89 173h2M102 173h1M106 173h1M54 174h4M103 174h4M54 175h1M106 175h1M54 176h1M106 176h1M10 177h1M16 177h1M22 177h1M43 177h1M49 177h1M53 177h1M80 177h1M107 177h1M111 177h1M117 177h1M10 178h1M16 178h1M22 178h1M43 178h1M53 178h1M74 178h1M80 178h1M86 178h1M107 178h1M117 178h1M10 179h1M16 179h1M22 179h1M43 179h1M49 179h1M53 179h1M74 179h1M80 179h1M86 179h1M107 179h1M111 179h1M117 179h1M16 180h1M49 180h1M53 180h1M80 180h1M107 180h1M111 180h1M50 181h1M53 181h1M107 181h1M110 181h1M50 182h1M53 182h1M107 182h1M110 182h1M10 183h1M22 183h1M43 183h1M74 183h1M86 183h1M117 183h1M10 184h1M22 184h1M43 184h1M74 184h1M86 184h1M117 184h1M10 185h1M22 185h1M43 185h1M74 185h1M86 185h1M117 185h1" />
<path stroke="#db5d60" d="M13 10h7M77 10h7M12 11h9M45 11h7M76 11h9M108 11h2M112 11h1M115 11h2M12 12h1M14 12h5M20 12h1M43 12h11M76 12h1M78 12h5M84 12h1M108 12h9M15 13h3M44 13h1M46 13h5M52 13h1M79 13h3M108 13h1M110 13h5M116 13h1M47 14h3M111 14h3M16 16h1M80 16h1M48 17h1M112 17h1M13 33h1M19 33h1M13 36h1M19 36h1M45 36h2M77 36h1M83 36h1M114 36h2M46 37h1M114 37h1M46 38h1M114 38h1M11 56h1M75 56h1M11 57h5M43 57h1M75 57h5M107 57h1M11 58h5M43 58h5M75 58h5M107 58h5M11 59h6M43 59h5M75 59h6M107 59h5M11 60h2M14 60h1M43 60h6M75 60h2M78 60h1M107 60h6M43 61h2M46 61h1M107 61h2M110 61h1M10 63h1M74 63h1M42 64h1M106 64h1M13 71h1M77 71h1M45 72h1M52 81h1M52 82h1M110 82h1M110 84h1M20 104h1M84 104h1M16 105h5M52 105h1M80 105h5M116 105h1M16 106h5M48 106h5M80 106h5M112 106h5M15 107h6M48 107h5M79 107h6M112 107h5M17 108h1M19 108h2M47 108h6M81 108h1M83 108h2M111 108h6M49 109h1M51 109h2M113 109h1M115 109h2M21 111h1M85 111h1M53 112h1M117 112h1M18 119h1M82 119h1M50 120h1M43 130h1M113 130h1M15 132h1M43 132h1M79 132h1M113 132h1" />
<path stroke="#461011" d="M8 12h1M24 12h1M72 12h1M88 12h1M8 13h1M24 13h1M40 13h1M56 13h1M72 13h1M88 13h1M104 13h1M120 13h1M8 14h1M24 14h1M40 14h1M56 14h1M72 14h1M88 14h1M104 14h1M120 14h1M9 15h2M22 15h2M40 15h1M56 15h1M73 15h2M86 15h2M104 15h1M120 15h1M10 16h1M22 16h1M41 16h2M54 16h2M74 16h1M86 16h1M105 16h2M118 16h2M10 17h1M22 17h1M42 17h1M54 17h1M74 17h1M86 17h1M106 17h1M118 17h1M42 18h1M54 18h1M106 18h1M118 18h1M16 31h1M80 31h1M16 32h1M49 32h1M80 32h1M111 32h1M49 33h1M80 33h1M111 33h1M49 34h1M111 34h1M10 36h1M22 36h1M74 36h1M86 36h1M10 37h1M16 37h1M22 37h1M49 37h1M74 37h1M80 37h1M86 37h1M111 37h1M10 38h1M16 38h1M22 38h1M49 38h1M74 38h1M80 38h1M86 38h1M111 38h1M16 39h1M49 39h1M80 39h1M111 39h1M16 40h1M49 40h1M80 40h1M111 40h1M16 41h1M49 41h1M53 41h1M80 41h1M107 41h1M111 41h1M16 42h1M49 42h4M80 42h1M108 42h4M16 43h1M49 43h1M80 43h1M111 43h1M10 44h1M15 44h1M17 44h1M22 44h1M43 44h1M49 44h1M74 44h1M79 44h1M81 44h1M86 44h1M111 44h1M117 44h1M11 45h4M18 45h4M44 45h5M75 45h4M82 45h4M112 45h5M25 56h1M89 56h1M25 57h1M57 57h1M89 57h1M121 57h1M25 58h1M57 58h1M89 58h1M121 58h1M25 59h1M57 59h1M89 59h1M121 59h1M9 60h1M25 60h1M57 60h1M73 60h1M89 60h1M121 60h1M9 61h1M24 61h1M41 61h1M57 61h1M73 61h1M88 61h1M105 61h1M121 61h1M24 62h1M41 62h1M56 62h1M88 62h1M105 62h1M120 62h1M23 63h1M56 63h1M87 63h1M120 63h1M23 64h1M55 64h1M87 64h1M119 64h1M22 65h1M55 65h1M86 65h1M119 65h1M21 66h1M54 66h1M85 66h1M118 66h1M11 67h2M20 67h1M53 67h1M75 67h2M84 67h1M117 67h1M43 68h2M52 68h1M107 68h2M116 68h1M106 70h1M106 71h1M105 72h2M105 73h2M105 74h2M104 75h3M104 76h3M104 77h3M105 78h2M13 80h1M77 80h1M13 81h1M47 81h1M77 81h1M12 82h1M14 82h1M47 82h1M76 82h1M78 82h1M14 83h1M47 83h1M78 83h1M14 84h1M47 84h2M78 84h1M14 85h1M48 85h1M78 85h1M14 86h2M46 86h1M48 86h2M78 86h2M120 86h1M12 87h1M46 87h1M76 87h1M120 87h1M11 88h1M46 88h1M75 88h1M120 88h1M45 89h1M115 89h5M11 90h2M21 90h1M40 90h5M56 90h1M75 90h2M85 90h1M21 91h1M56 91h1M85 91h1M112 91h1M20 92h1M55 92h1M84 92h1M111 92h1M14 93h6M50 93h5M78 93h6M106 93h5M6 104h1M70 104h1M6 105h1M38 105h1M70 105h1M102 105h1M6 106h1M38 106h1M70 106h1M102 106h1M6 107h1M38 107h1M70 107h1M102 107h1M6 108h1M22 108h1M38 108h1M70 108h1M86 108h1M102 108h1M7 109h1M22 109h1M38 109h1M54 109h1M71 109h1M86 109h1M102 109h1M118 109h1M7 110h1M39 110h1M54 110h1M71 110h1M103 110h1M118 110h1M8 111h1M39 111h1M72 111h1M103 111h1M8 112h1M40 112h1M72 112h1M104 112h1M9 113h1M40 113h1M73 113h1M104 113h1M10 114h1M41 114h1M74 114h1M105 114h1M11 115h1M19 115h2M42 115h1M75 115h1M83 115h2M106 115h1M43 116h1M51 116h2M107 116h1M115 116h2M117 118h1M117 119h1M117 120h2M117 121h2M117 122h2M117 123h3M117 124h3M117 125h3M117 126h2M18 128h1M82 128h1M18 129h1M48 129h1M82 129h1M17 130h1M19 130h1M48 130h1M81 130h1M83 130h1M17 131h1M48 131h1M81 131h1M17 132h1M47 132h2M81 132h1M17 133h1M47 133h1M81 133h1M16 134h2M47 134h1M49 134h1M80 134h2M103 134h1M19 135h1M49 135h1M83 135h1M103 135h1M20 136h1M49 136h1M84 136h1M103 136h1M50 137h1M104 137h5M10 138h1M19 138h2M39 138h1M51 138h5M74 138h1M83 138h2M10 139h1M39 139h1M74 139h1M111 139h1M11 140h1M40 140h1M75 140h1M112 140h1M12 141h6M41 141h5M76 141h6M113 141h5M8 156h1M24 156h1M72 156h1M88 156h1M8 157h1M24 157h1M40 157h1M56 157h1M72 157h1M88 157h1M104 157h1M120 157h1M8 158h1M24 158h1M40 158h1M56 158h1M72 158h1M88 158h1M104 158h1M120 158h1M9 159h1M23 159h1M40 159h1M56 159h1M73 159h1M87 159h1M104 159h1M120 159h1M9 160h1M23 160h1M41 160h1M55 160h1M73 160h1M87 160h1M105 160h1M119 160h1M10 161h1M22 161h1M41 161h1M55 161h1M74 161h1M86 161h1M105 161h1M119 161h1M42 162h1M54 162h1M106 162h1M118 162h1M16 175h1M80 175h1M16 176h1M49 176h1M80 176h1M111 176h1M10 180h1M22 180h1M43 180h1M74 180h1M86 180h1M117 180h1M10 181h1M16 181h1M22 181h1M43 181h1M49 181h1M74 181h1M80 181h1M86 181h1M111 181h1M117 181h1M10 182h1M16 182h1M22 182h1M43 182h1M49 182h1M74 182h1M80 182h1M86 182h1M111 182h1M117 182h1M16 183h1M49 183h1M80 183h1M111 183h1M16 184h1M80 184h1M16 185h1M49 185h1M53 185h1M80 185h1M107 185h1M111 185h1M16 186h1M49 186h4M80 186h1M108 186h4M16 187h1M49 187h1M80 187h1M111 187h1M10 188h1M15 188h1M17 188h1M22 188h1M43 188h1M49 188h1M74 188h1M79 188h1M81 188h1M86 188h1M111 188h1M117 188h1M11 189h4M18 189h4M44 189h5M75 189h4M82 189h4M112 189h5" />
<path stroke="#332a23" d="M13 12h1M19 12h1M77 12h1M83 12h1M12 13h3M18 13h3M45 13h1M51 13h1M76 13h3M82 13h3M109 13h1M115 13h1M12 14h3M18 14h3M44 14h3M50 14h3M76 14h3M82 14h3M108 14h3M114 14h3M12 15h1M15 15h1M17 15h1M20 15h1M44 15h3M50 15h3M76 15h1M79 15h1M81 15h1M84 15h1M108 15h3M114 15h3M12 16h3M18 16h3M44 16h1M47 16h1M49 16h1M52 16h1M76 16h3M82 16h3M108 16h1M111 16h1M113 16h1M116 16h1M13 17h1M19 17h1M44 17h3M50 17h3M77 17h1M83 17h1M108 17h3M114 17h3M45 18h1M51 18h1M109 18h1M115 18h1M10 26h3M20 26h3M74 26h3M84 26h3M10 27h2M14 27h1M18 27h1M21 27h2M42 27h2M52 27h2M74 27h2M78 27h1M82 27h1M85 27h2M107 27h2M117 27h2M13 28h1M19 28h1M42 28h1M44 28h3M51 28h1M53 28h1M77 28h1M83 28h1M107 28h1M109 28h1M114 28h1M116 28h1M118 28h1M44 29h2M50 29h2M109 29h2M115 29h2M13 60h1M77 60h1M12 61h3M45 61h1M76 61h3M109 61h1M12 62h3M44 62h3M76 62h3M108 62h3M11 63h1M14 63h1M44 63h3M75 63h1M78 63h1M108 63h3M12 64h3M43 64h1M46 64h1M76 64h3M107 64h1M110 64h1M13 65h1M44 65h3M77 65h1M108 65h3M45 66h1M109 66h1M13 74h1M77 74h1M107 74h1M53 75h1M110 75h4M14 76h1M45 76h1M52 76h1M78 76h1M109 76h1M113 76h1M45 77h1M52 77h1M18 108h1M82 108h1M17 109h3M50 109h1M81 109h3M114 109h1M17 110h3M49 110h3M81 110h3M113 110h3M17 111h1M20 111h1M49 111h3M81 111h1M84 111h1M113 111h3M17 112h3M49 112h1M52 112h1M81 112h3M113 112h1M116 112h1M18 113h1M49 113h3M82 113h1M113 113h3M50 114h1M114 114h1M18 122h1M82 122h1M116 122h1M42 123h1M110 123h4M17 124h1M43 124h1M50 124h1M81 124h1M110 124h1M43 125h1M50 125h1M11 170h2M20 170h2M75 170h2M84 170h2M11 171h1M14 171h5M21 171h1M42 171h2M52 171h1M75 171h1M78 171h5M85 171h1M108 171h1M117 171h2M13 172h1M19 172h1M42 172h1M44 172h5M51 172h1M77 172h1M83 172h1M109 172h1M111 172h4M116 172h1M118 172h1M44 173h2M50 173h2M109 173h2M115 173h2" />
<path stroke="#cfd7dd" d="M13 15h2M18 15h2M77 15h2M82 15h2M45 16h2M50 16h2M109 16h2M114 16h2M15 27h1M79 27h1M47 28h1M111 28h1M12 63h2M76 63h2M44 64h2M108 64h2M18 111h2M82 111h2M50 112h2M114 112h2" />
<path stroke="#282828" d="M12 18h1M20 18h1M10 19h1M22 19h1M44 19h1M74 19h1M76 19h1M84 19h1M86 19h1M116 19h1M9 20h1M23 20h1M42 20h1M53 20h1M73 20h1M87 20h1M107 20h1M118 20h1M41 21h1M43 21h1M117 21h1M119 21h1M12 22h1M20 22h1M12 23h2M19 23h2M52 23h1M76 23h1M84 23h1M108 23h1M12 24h1M20 24h1M45 24h1M51 24h1M76 24h2M83 24h2M109 24h1M115 24h1M44 25h2M51 25h1M76 25h1M84 25h1M109 25h1M115 25h2M44 26h1M116 26h1M11 28h2M20 28h2M11 29h1M21 29h1M43 29h1M52 29h1M75 29h2M84 29h2M108 29h1M117 29h1M43 30h1M75 30h1M85 30h1M117 30h1M18 68h1M48 68h1M82 68h1M19 69h1M47 69h1M49 69h2M83 69h1M115 69h1M48 70h1M107 70h1M113 70h1M116 70h1M16 71h1M51 71h1M80 71h1M107 71h1M113 71h1M50 72h2M107 72h1M16 73h1M112 73h1M16 74h1M80 74h1M80 75h1M15 77h1M79 77h1M114 77h1M16 78h1M79 78h1M110 78h1M19 79h1M80 79h1M83 80h1M13 116h1M77 116h1M12 117h1M45 117h3M76 117h1M108 117h1M47 118h2M107 118h1M110 118h1M116 118h1M15 119h1M44 119h1M79 119h1M110 119h1M116 119h1M44 120h2M116 120h1M111 121h1M15 122h1M79 122h1M15 123h1M79 123h1M16 125h1M80 125h1M109 125h1M16 126h1M80 126h1M113 126h1M15 127h1M79 127h1M12 128h1M76 128h1M12 162h1M20 162h1M76 163h1M84 163h1M9 164h1M23 164h1M54 164h1M73 164h1M87 164h1M106 164h1M42 165h1M118 165h1M11 166h1M21 166h1M43 166h1M75 166h1M85 166h1M117 166h1M12 167h1M20 167h1M44 167h1M46 167h1M114 167h1M116 167h1M12 168h1M20 168h1M44 168h1M76 168h1M84 168h1M116 168h1M44 169h1M52 169h1M76 169h1M84 169h1M108 169h1M116 169h1M44 170h1M116 170h1M11 173h1M21 173h1M52 173h1M108 173h1M75 174h1M85 174h1" />
<path stroke="#000000" d="M9 19h1M23 19h1M73 19h1M87 19h1M8 20h1M24 20h1M41 20h1M54 20h1M72 20h1M88 20h1M106 20h1M119 20h1M55 21h1M105 21h1M55 22h1M105 22h1M11 24h1M21 24h1M43 24h1M75 24h1M85 24h1M117 24h1M43 25h1M75 25h1M85 25h1M117 25h1M10 28h1M22 28h1M74 28h1M86 28h1M10 29h1M22 29h1M42 29h1M74 29h1M86 29h1M118 29h1M10 30h1M22 30h1M42 30h1M74 30h1M86 30h1M118 30h1M10 31h1M22 31h1M42 31h1M74 31h1M86 31h1M118 31h1M42 32h1M74 32h1M86 32h1M118 32h1M20 69h1M84 69h1M107 69h1M20 70h1M84 70h1M117 70h1M52 71h1M117 71h1M16 72h1M52 72h1M52 73h1M80 73h1M53 77h1M11 117h1M75 117h1M116 117h1M11 118h1M75 118h1M106 118h1M43 119h1M106 119h1M43 120h1M15 121h1M43 121h1M79 121h1M42 125h1M42 126h1M9 163h1M23 163h1M73 163h1M87 163h1M8 164h1M24 164h1M41 164h1M55 164h1M72 164h1M88 164h1M105 164h1M119 164h1M8 165h1M24 165h1M41 165h1M55 165h1M72 165h1M88 165h1M105 165h1M119 165h1M40 167h1M120 167h1M41 168h1M43 168h1M117 168h1M119 168h1M43 169h1M75 169h1M85 169h1M117 169h1M10 171h1M22 171h1M10 172h1M22 172h1M74 172h1M86 172h1M10 173h1M22 173h1M42 173h1M74 173h1M86 173h1M118 173h1M10 174h1M22 174h1M42 174h1M74 174h1M86 174h1M118 174h1M10 175h1M22 175h1M43 175h1M74 175h1M86 175h1M117 175h1M74 176h1M86 176h1" />
<path stroke="#3b3b3b" d="M11 19h3M19 19h3M43 19h1M75 19h1M85 19h1M117 19h1M43 20h3M51 20h1M76 20h2M83 20h2M109 20h1M115 20h3M44 21h1M52 21h3M106 21h3M116 21h1M52 22h1M108 22h1M44 23h1M116 23h1M13 24h1M19 24h1M13 25h1M19 25h1M77 25h1M83 25h1M45 26h1M51 26h1M77 26h1M83 26h1M109 26h1M115 26h1M11 30h1M21 30h1M44 30h2M115 30h2M44 31h1M75 31h1M85 31h1M116 31h1M12 35h3M18 35h3M44 35h4M76 35h3M82 35h3M113 35h4M12 42h3M18 42h3M44 42h4M76 42h3M82 42h3M113 42h4M16 67h2M80 68h2M113 68h1M114 69h1M16 70h1M19 70h1M49 70h1M80 70h1M83 70h1M15 71h1M48 71h1M50 71h1M116 71h1M15 72h1M79 72h1M108 72h1M112 72h1M114 72h1M15 73h1M79 73h1M79 74h1M111 77h3M111 78h4M17 79h2M50 79h1M110 79h5M17 80h2M50 80h1M81 80h2M111 80h3M81 81h2M18 83h2M82 83h2M16 84h2M51 84h3M80 84h2M109 84h1M50 85h1M110 85h3M19 88h2M83 88h2M17 89h2M52 89h3M81 89h2M108 89h1M51 90h1M109 90h3M14 116h2M78 116h2M110 116h1M109 117h1M12 118h1M15 118h1M46 118h1M76 118h1M79 118h1M45 119h1M47 119h1M107 119h1M16 120h1M80 120h1M109 120h1M111 120h1M115 120h1M16 121h1M80 121h1M16 122h1M80 122h1M110 125h3M43 126h1M109 126h4M44 127h1M109 127h5M13 128h2M45 128h1M77 128h2M110 128h3M13 129h2M45 129h1M77 129h2M12 132h2M76 132h2M14 133h2M42 133h3M78 133h2M114 133h1M45 134h1M111 134h3M11 136h2M75 136h2M13 137h2M41 137h3M77 137h2M115 137h1M44 138h1M112 138h3M10 163h2M21 163h2M43 163h2M52 163h1M74 163h2M85 163h2M108 163h1M116 163h2M43 164h2M52 164h1M108 164h1M116 164h2M11 165h1M20 165h2M43 165h2M54 165h1M75 165h1M85 165h1M106 165h1M116 165h2M10 166h1M12 166h3M18 166h3M22 166h1M44 166h1M74 166h1M84 166h1M86 166h1M116 166h1M13 167h1M19 167h1M45 167h1M51 167h1M76 167h3M82 167h3M109 167h1M115 167h1M13 168h1M19 168h1M45 168h1M51 168h1M77 168h1M83 168h1M109 168h1M115 168h1M13 169h1M19 169h1M45 169h1M51 169h1M77 169h1M83 169h1M109 169h1M115 169h1M45 170h1M51 170h1M77 170h1M83 170h1M109 170h1M115 170h1M12 172h1M20 172h1M76 172h1M84 172h1M12 173h1M20 173h1M76 173h1M84 173h1M11 174h1M21 174h1M44 174h1M76 174h1M84 174h1M116 174h1M44 175h1M75 175h1M85 175h1M116 175h1M12 179h3M18 179h3M45 179h4M76 179h3M82 179h3M112 179h4M12 185h3M18 185h3M45 185h4M76 185h3M82 185h3M112 185h4" />
<path stroke="#151515" d="M52 19h1M108 19h1M52 20h1M108 20h1M11 22h1M21 22h1M43 22h1M75 22h1M85 22h1M117 22h1M14 23h1M18 23h1M43 23h1M117 23h1M44 24h1M46 24h1M50 24h1M78 24h1M82 24h1M110 24h1M114 24h1M116 24h1M11 25h2M20 25h2M52 25h1M108 25h1M13 26h1M19 26h1M43 26h1M52 26h1M108 26h1M117 26h1M44 27h2M51 27h1M109 27h1M115 27h2M75 28h2M84 28h2M53 29h1M107 29h1M12 30h1M20 30h1M52 30h2M107 30h2M11 31h1M21 31h1M43 31h1M45 31h1M53 31h1M76 31h1M84 31h1M107 31h1M115 31h1M117 31h1M10 32h1M22 32h1M43 32h2M75 32h1M85 32h1M116 32h2M42 33h1M74 33h1M86 33h1M118 33h1M17 68h1M19 68h1M83 68h1M16 69h1M48 69h1M116 69h1M47 70h1M51 70h1M20 71h1M47 71h1M84 71h1M14 72h1M80 72h1M113 72h1M46 73h1M78 73h1M107 73h2M111 73h1M15 74h1M112 74h2M16 75h1M80 76h1M114 76h1M15 78h1M53 78h1M79 79h1M16 80h1M19 80h1M52 80h1M110 80h1M114 80h1M17 81h2M50 81h2M80 81h1M83 81h1M111 81h3M81 82h2M12 116h1M76 116h1M107 117h1M44 118h1M11 119h1M48 119h1M75 119h1M15 120h1M79 120h1M110 120h1M17 121h1M81 121h1M112 121h1M115 121h2M49 122h1M110 122h2M15 124h1M79 124h1M109 124h1M16 127h1M42 127h1M80 127h1M109 128h1M113 128h1M12 129h1M15 129h1M43 129h1M76 129h1M79 129h1M110 129h3M13 130h2M44 130h2M77 130h2M42 164h1M118 164h1M55 166h1M105 166h1M11 167h1M14 167h1M18 167h1M21 167h1M75 167h1M85 167h1M46 168h1M50 168h1M52 168h1M78 168h1M82 168h1M108 168h1M110 168h1M114 168h1M11 169h2M20 169h2M13 170h1M19 170h1M43 170h1M52 170h1M108 170h1M117 170h1M44 171h2M51 171h1M109 171h1M115 171h2M11 172h1M21 172h1M53 172h1M75 172h1M85 172h1M107 172h1M43 173h1M53 173h1M75 173h1M85 173h1M107 173h1M117 173h1M12 174h1M20 174h1M43 174h1M52 174h2M107 174h2M117 174h1M11 175h1M21 175h1M42 175h1M45 175h1M53 175h1M76 175h1M84 175h1M107 175h1M115 175h1M118 175h1M10 176h1M22 176h1M42 176h3M75 176h1M85 176h1M116 176h3M42 177h1M74 177h1M86 177h1M118 177h1" />
<path stroke="#4f4f4f" d="M10 20h5M18 20h5M74 20h2M85 20h2M9 21h6M18 21h6M42 21h1M45 21h2M50 21h2M73 21h6M82 21h6M109 21h2M114 21h2M118 21h1M13 22h2M18 22h2M44 22h3M50 22h2M53 22h2M76 22h3M82 22h3M106 22h2M109 22h2M114 22h3M45 23h2M50 23h2M53 23h1M77 23h2M82 23h2M107 23h1M109 23h2M114 23h2M12 29h1M20 29h1M76 30h1M84 30h1M15 68h2M14 69h2M17 69h2M79 69h4M112 69h2M14 70h2M17 70h2M46 70h1M50 70h1M78 70h2M81 70h2M108 70h1M111 70h2M114 70h2M14 71h1M17 71h3M46 71h1M49 71h1M78 71h2M81 71h3M108 71h1M111 71h2M114 71h2M46 72h1M78 72h1M111 72h1M52 78h1M16 79h1M51 79h2M51 80h1M80 80h1M13 117h4M77 117h4M110 117h2M13 118h2M16 118h2M45 118h1M77 118h2M80 118h2M108 118h2M111 118h2M115 118h1M12 119h3M16 119h2M46 119h1M49 119h1M76 119h3M80 119h2M108 119h2M111 119h2M115 119h1M17 120h1M49 120h1M81 120h1M112 120h1M49 121h1M43 127h1M15 128h1M43 128h2M79 128h1M44 129h1M12 163h2M19 163h2M10 164h5M18 164h5M45 164h1M51 164h1M53 164h1M74 164h4M83 164h4M107 164h1M109 164h1M115 164h1M9 165h2M12 165h3M18 165h2M22 165h2M45 165h2M50 165h4M73 165h2M76 165h3M82 165h3M86 165h2M107 165h4M114 165h2M45 166h2M50 166h5M76 166h3M82 166h2M106 166h5M114 166h2M50 167h1M110 167h1M45 174h1M115 174h1" />
<path stroke="#141817" d="M8 21h1M24 21h1M40 21h1M72 21h1M88 21h1M120 21h1M9 22h2M22 22h2M41 22h2M73 22h2M86 22h2M118 22h2M11 23h1M21 23h1M39 23h2M54 23h3M75 23h1M85 23h1M104 23h3M120 23h2M7 24h2M24 24h2M41 24h2M52 24h2M71 24h2M88 24h2M107 24h2M118 24h2M9 25h2M22 25h2M38 25h3M56 25h1M73 25h2M86 25h2M104 25h1M120 25h3M6 26h2M25 26h2M41 26h2M53 26h3M70 26h2M89 26h2M105 26h3M118 26h2M8 27h2M23 27h2M57 27h1M72 27h2M87 27h2M103 27h1M54 28h3M104 28h3M50 33h3M108 33h3M11 34h1M15 34h1M17 34h1M21 34h1M43 34h1M48 34h1M75 34h1M79 34h1M81 34h1M85 34h1M112 34h1M117 34h1M53 39h1M107 39h1M50 40h3M108 40h3M11 41h1M15 41h1M17 41h1M21 41h1M43 41h1M48 41h1M75 41h1M79 41h1M81 41h1M85 41h1M112 41h1M117 41h1M17 72h5M47 72h3M81 72h5M115 72h3M50 73h2M113 73h2M17 74h5M81 74h5M47 75h3M115 75h5M17 76h5M50 76h2M81 76h5M47 77h3M115 77h5M50 78h2M20 83h1M84 83h1M15 84h1M54 84h1M79 84h1M108 84h1M49 85h1M113 85h2M21 88h1M85 88h1M16 89h1M55 89h1M80 89h1M107 89h1M50 90h1M112 90h2M10 120h5M46 120h3M74 120h5M106 120h3M44 121h2M109 121h2M10 122h5M74 122h5M46 123h3M104 123h5M10 124h5M44 124h2M74 124h5M46 125h3M104 125h5M44 126h2M11 132h1M75 132h1M16 133h1M41 133h1M80 133h1M115 133h1M46 134h1M109 134h2M10 136h1M74 136h1M15 137h1M40 137h1M79 137h1M116 137h1M45 138h1M110 138h2M7 165h1M25 165h1M71 165h1M89 165h1M8 166h2M23 166h2M41 166h2M56 166h1M72 166h2M87 166h2M104 166h1M118 166h2M10 167h1M22 167h1M43 167h1M52 167h4M74 167h1M86 167h1M105 167h4M117 167h1M7 168h2M11 168h1M21 168h1M24 168h2M42 168h1M71 168h2M75 168h1M85 168h1M88 168h2M118 168h1M9 169h1M23 169h1M39 169h1M53 169h4M73 169h1M87 169h1M104 169h4M121 169h1M6 170h2M25 170h2M40 170h3M70 170h2M89 170h2M118 170h3M8 171h1M24 171h1M54 171h4M72 171h1M88 171h1M103 171h4M11 178h1M15 178h1M17 178h1M21 178h1M44 178h1M49 178h4M75 178h1M79 178h1M81 178h1M85 178h1M108 178h4M116 178h1M50 183h3M108 183h3M11 184h1M15 184h1M17 184h1M21 184h1M44 184h1M49 184h1M75 184h1M79 184h1M81 184h1M85 184h1M111 184h1M116 184h1" />
<path stroke="#4d3d31" d="M12 27h2M19 27h2M76 27h2M83 27h2M14 28h1M18 28h1M43 28h1M50 28h1M52 28h1M78 28h1M82 28h1M108 28h1M110 28h1M115 28h1M117 28h1M46 29h1M114 29h1M13 75h3M77 75h3M109 75h1M15 76h1M53 76h1M79 76h1M110 76h3M16 123h3M80 123h3M116 123h1M16 124h1M42 124h1M80 124h1M111 124h3M12 171h2M19 171h2M76 171h2M83 171h2M14 172h5M43 172h1M49 172h2M52 172h1M78 172h5M108 172h1M110 172h1M115 172h1M117 172h1M46 173h4M111 173h4" />
<path stroke="#c5c5c5" d="M16 27h1M80 27h1M15 28h1M48 28h1M79 28h1M112 28h1M47 29h1M111 29h1M12 75h1M76 75h1M44 76h1M108 76h1M19 123h1M83 123h1M51 124h1M114 124h1" />
<path stroke="#ababab" d="M17 27h1M81 27h1M16 28h1M49 28h1M80 28h1M113 28h1M48 29h1M112 29h1M12 74h1M76 74h1M44 75h1M108 75h1M19 122h1M83 122h1M51 123h1M114 123h1" />
<path stroke="#878787" d="M17 28h1M81 28h1M49 29h1M113 29h1M11 74h1M75 74h1M11 75h1M43 75h1M75 75h1M107 75h1M43 76h1M107 76h1M20 122h1M84 122h1M20 123h1M52 123h1M84 123h1M115 123h1M52 124h1M115 124h1" />
<path stroke="#7b7b82" d="M12 68h1M76 68h1M11 69h1M44 69h1M75 69h1M43 70h1M19 116h1M83 116h1M20 117h1M51 117h1M84 117h1M52 118h1" />
</svg>