<svg xmlns="http://www.w3.org/2000/svg" viewBox="0 -0.5 128 192" shape-rendering="crispEdges">
<metadata>Made with Pixels to Svg https://codepen.io/shshaw/pen/XbxvNj</metadata>
<path stroke="#1d365b" d="M14 1h5M78 1h5M11 2h3M19 2h3M46 2h5M75 2h3M83 2h3M110 2h5M10 3h1M22 3h1M43 3h3M51 3h3M74 3h1M86 3h1M107 3h3M115 3h3M9 4h1M23 4h1M42 4h1M54 4h1M73 4h1M87 4h1M106 4h1M118 4h1M9 5h1M23 5h1M41 5h1M55 5h1M73 5h1M87 5h1M105 5h1M119 5h1M8 6h1M24 6h1M41 6h1M55 6h1M72 6h1M88 6h1M105 6h1M119 6h1M8 7h1M24 7h1M40 7h1M56 7h1M72 7h1M88 7h1M104 7h1M120 7h1M8 8h1M24 8h1M40 8h1M56 8h1M72 8h1M88 8h1M104 8h1M120 8h1M40 9h1M56 9h1M104 9h1M120 9h1M11 16h1M21 16h1M75 16h1M85 16h1M12 17h1M20 17h1M43 17h1M53 17h1M76 17h1M84 17h1M107 17h1M117 17h1M12 18h1M20 18h1M44 18h1M52 18h1M76 18h1M84 18h1M108 18h1M116 18h1M15 19h3M44 19h1M52 19h1M79 19h3M108 19h1M116 19h1M47 20h3M52 20h1M111 20h3M21 22h1M85 22h1M21 23h1M85 23h1M117 23h1M117 24h1M52 25h2M116 25h1M50 31h1M50 32h1M117 32h1M50 33h1M52 33h1M117 33h1M48 34h1M50 34h1M52 34h1M112 34h1M117 34h1M117 35h1M11 36h1M21 36h1M75 36h1M85 36h1M14 49h6M78 49h6M12 50h2M20 50h2M46 50h6M76 50h2M84 50h2M110 50h6M11 51h1M22 51h1M44 51h2M52 51h2M75 51h1M86 51h1M108 51h2M116 51h2M10 52h1M23 52h1M43 52h1M54 52h1M74 52h1M87 52h1M107 52h1M118 52h1M9 53h1M24 53h1M42 53h1M55 53h1M73 53h1M88 53h1M106 53h1M119 53h1M9 54h1M24 54h1M41 54h1M56 54h1M73 54h1M88 54h1M105 54h1M120 54h1M8 55h1M41 55h1M56 55h1M72 55h1M105 55h1M120 55h1M8 56h1M40 56h1M72 56h1M104 56h1M8 57h1M40 57h1M72 57h1M104 57h1M9 58h1M24 58h1M40 58h1M73 58h1M88 58h1M104 58h1M24 59h1M41 59h1M56 59h1M88 59h1M105 59h1M120 59h1M56 60h1M120 60h1M9 61h1M23 61h1M73 61h1M87 61h1M22 62h1M41 62h1M55 62h1M86 62h1M105 62h1M119 62h1M20 63h2M54 63h1M84 63h2M118 63h1M20 64h1M52 64h2M84 64h1M116 64h2M17 65h1M52 65h1M81 65h1M116 65h1M49 66h1M113 66h1M13 67h2M77 67h2M13 68h2M19 68h1M45 68h2M77 68h2M83 68h1M110 68h1M12 69h1M45 69h3M76 69h1M109 69h2M116 69h1M11 70h1M44 70h1M51 70h1M75 70h1M11 71h1M20 71h1M43 71h1M75 71h1M84 71h1M43 72h1M47 72h1M80 72h1M113 72h1M117 72h1M47 73h1M113 73h1M17 74h1M81 74h1M114 74h1M51 75h2M118 75h1M51 76h1M12 77h1M76 77h1M12 78h1M14 78h1M44 78h1M76 78h1M78 78h1M108 78h1M13 79h2M44 79h1M77 79h2M14 80h1M44 80h1M78 80h1M109 80h1M14 81h1M43 81h3M78 81h1M108 81h1M45 82h2M108 82h1M48 83h1M20 84h1M54 84h1M84 84h1M108 84h1M114 84h1M49 85h1M108 85h1M12 97h6M76 97h6M10 98h2M18 98h2M44 98h6M74 98h2M82 98h2M108 98h6M9 99h1M20 99h1M42 99h2M50 99h2M73 99h1M84 99h1M106 99h2M114 99h2M8 100h1M21 100h1M41 100h1M52 100h1M72 100h1M85 100h1M105 100h1M116 100h1M7 101h1M22 101h1M40 101h1M53 101h1M71 101h1M86 101h1M104 101h1M117 101h1M7 102h1M22 102h1M39 102h1M54 102h1M71 102h1M86 102h1M103 102h1M118 102h1M23 103h1M39 103h1M54 103h1M87 103h1M103 103h1M118 103h1M23 104h1M55 104h1M87 104h1M119 104h1M23 105h1M55 105h1M87 105h1M119 105h1M7 106h1M22 106h1M55 106h1M71 106h1M86 106h1M119 106h1M7 107h1M39 107h1M54 107h1M71 107h1M103 107h1M118 107h1M39 108h1M103 108h1M8 109h1M22 109h1M72 109h1M86 109h1M9 110h1M40 110h1M54 110h1M73 110h1M104 110h1M118 110h1M10 111h2M41 111h1M74 111h2M105 111h1M11 112h1M42 112h2M75 112h1M106 112h2M14 113h1M43 113h1M78 113h1M107 113h1M46 114h1M110 114h1M17 115h2M81 115h2M12 116h1M17 116h2M49 116h2M76 116h1M81 116h2M113 116h1M19 117h1M48 117h3M83 117h1M107 117h1M113 117h2M20 118h1M44 118h1M51 118h1M84 118h1M11 119h1M20 119h1M52 119h1M75 119h1M84 119h1M106 120h1M43 123h2M105 123h1M44 124h1M11 132h1M41 132h1M75 132h1M109 132h1M115 132h1M46 133h1M115 133h1M14 145h5M78 145h5M11 146h3M19 146h3M46 146h5M75 146h3M83 146h3M110 146h5M10 147h1M22 147h1M43 147h3M51 147h3M74 147h1M86 147h1M107 147h3M115 147h3M9 148h1M23 148h1M42 148h1M54 148h1M73 148h1M87 148h1M106 148h1M118 148h1M9 149h1M23 149h1M41 149h1M55 149h1M73 149h1M87 149h1M105 149h1M119 149h1M8 150h1M24 150h1M41 150h1M55 150h1M72 150h1M88 150h1M105 150h1M119 150h1M8 151h1M24 151h1M40 151h1M56 151h1M72 151h1M88 151h1M104 151h1M120 151h1M8 152h1M24 152h1M40 152h1M56 152h1M72 152h1M88 152h1M104 152h1M120 152h1M40 153h1M56 153h1M104 153h1M120 153h1M9 157h1M23 157h1M73 157h1M87 157h1M41 158h1M55 158h1M105 158h1M119 158h1M10 159h1M22 159h1M74 159h1M86 159h1M11 160h1M21 160h1M42 160h1M54 160h1M75 160h1M85 160h1M106 160h1M118 160h1M13 161h1M19 161h1M43 161h1M53 161h1M77 161h1M83 161h1M107 161h1M117 161h1M12 162h1M15 162h1M17 162h1M20 162h1M45 162h1M51 162h1M76 162h1M79 162h1M81 162h1M84 162h1M109 162h1M115 162h1M14 163h5M23 163h1M44 163h1M47 163h1M49 163h1M52 163h1M78 163h5M87 163h1M108 163h1M111 163h1M113 163h1M116 163h1M42 164h1M46 164h5M110 164h5M118 164h1M41 166h1M55 166h1M105 166h1M119 166h1M11 167h1M21 167h1M43 167h1M52 167h1M75 167h1M85 167h1M108 167h1M117 167h1M43 168h1M52 168h1M108 168h1M117 168h1M42 169h1M52 169h1M56 169h1M104 169h1M108 169h1M118 169h1M11 173h1M21 173h1M53 173h1M75 173h1M85 173h1M107 173h1M16 174h1M43 174h1M53 174h1M80 174h1M107 174h1M117 174h1M15 175h1M17 175h1M43 175h1M49 175h1M52 175h2M79 175h1M81 175h1M107 175h2M111 175h1M117 175h1M47 176h2M50 176h4M107 176h4M112 176h2M50 177h3M108 177h3M50 178h3M108 178h3" />
<path stroke="#264574" d="M14 2h1M18 2h1M78 2h1M82 2h1M11 3h1M21 3h1M46 3h1M50 3h1M75 3h1M85 3h1M110 3h1M114 3h1M10 4h1M22 4h1M43 4h1M53 4h1M74 4h1M86 4h1M107 4h1M117 4h1M42 5h1M54 5h1M106 5h1M118 5h1M9 6h1M23 6h1M73 6h1M87 6h1M9 7h1M23 7h1M41 7h1M55 7h1M73 7h1M87 7h1M105 7h1M119 7h1M41 8h1M55 8h1M105 8h1M119 8h1M9 13h1M23 13h1M73 13h1M87 13h1M41 14h1M55 14h1M105 14h1M119 14h1M15 15h3M79 15h3M13 16h2M18 16h2M47 16h3M77 16h2M82 16h2M111 16h3M45 17h2M50 17h2M109 17h2M114 17h2M20 19h1M22 19h1M84 19h1M86 19h1M17 20h2M23 20h1M53 20h1M81 20h2M87 20h1M116 20h1M118 20h1M49 21h2M113 21h2M119 21h1M24 22h1M88 22h1M117 22h1M20 23h1M22 23h1M52 23h1M84 23h1M86 23h1M118 23h1M19 24h2M52 24h1M83 24h2M51 25h1M115 25h1M20 29h2M84 29h2M18 30h1M21 30h1M52 30h1M82 30h1M85 30h1M117 30h1M51 31h2M114 31h1M117 31h1M17 32h1M51 32h2M81 32h1M17 33h1M51 33h1M17 34h1M21 34h1M51 34h1M81 34h1M85 34h1M11 35h1M21 35h1M48 35h1M75 35h1M85 35h1M112 35h1M14 50h1M19 50h1M78 50h1M83 50h1M12 51h1M21 51h1M46 51h1M51 51h1M76 51h1M85 51h1M110 51h1M115 51h1M22 52h1M44 52h1M53 52h1M86 52h1M108 52h1M117 52h1M23 53h1M54 53h1M87 53h1M118 53h1M55 54h1M119 54h1M24 55h1M88 55h1M24 56h1M56 56h1M88 56h1M120 56h1M24 57h1M56 57h1M88 57h1M120 57h1M56 58h1M120 58h1M10 59h1M23 59h1M74 59h1M87 59h1M10 60h1M23 60h1M42 60h1M55 60h1M74 60h1M87 60h1M106 60h1M119 60h1M20 61h3M42 61h1M55 61h1M84 61h3M106 61h1M119 61h1M9 62h1M18 62h4M52 62h3M73 62h1M82 62h4M116 62h3M9 63h3M18 63h2M41 63h1M50 63h4M73 63h3M82 63h2M105 63h1M114 63h4M12 64h4M17 64h1M41 64h3M50 64h2M76 64h4M81 64h1M105 64h3M114 64h2M16 65h1M44 65h4M49 65h1M80 65h1M108 65h4M113 65h1M48 66h1M112 66h1M15 68h1M18 68h1M79 68h1M82 68h1M19 69h1M48 69h1M50 69h1M83 69h1M111 69h1M115 69h1M46 70h2M116 70h1M16 71h1M47 71h1M51 71h1M80 71h1M107 71h1M113 71h1M17 72h1M20 72h1M51 72h1M81 72h1M84 72h1M107 72h1M17 73h1M48 73h1M81 73h1M114 73h1M117 73h1M48 74h1M52 76h1M13 78h1M77 78h1M53 79h1M109 79h2M19 81h1M83 81h1M109 81h1M19 82h1M83 82h1M115 82h1M109 83h1M114 83h1M15 84h1M49 84h1M79 84h1M12 98h1M17 98h1M76 98h1M81 98h1M10 99h1M19 99h1M44 99h1M49 99h1M74 99h1M83 99h1M108 99h1M113 99h1M9 100h1M42 100h1M51 100h1M73 100h1M106 100h1M115 100h1M8 101h1M41 101h1M72 101h1M105 101h1M40 102h1M104 102h1M7 103h1M71 103h1M7 104h1M39 104h1M71 104h1M103 104h1M7 105h1M39 105h1M71 105h1M103 105h1M39 106h1M103 106h1M8 107h1M21 107h1M72 107h1M85 107h1M8 108h1M21 108h1M40 108h1M53 108h1M72 108h1M85 108h1M104 108h1M117 108h1M9 109h3M40 109h1M53 109h1M73 109h3M104 109h1M117 109h1M10 110h4M22 110h1M41 110h3M74 110h4M86 110h1M105 110h3M12 111h2M20 111h3M42 111h4M54 111h1M76 111h2M84 111h3M106 111h4M118 111h1M14 112h1M16 112h4M44 112h2M52 112h3M78 112h1M80 112h4M108 112h2M116 112h3M15 113h1M46 113h1M48 113h4M79 113h1M110 113h1M112 113h4M47 114h1M111 114h1M13 116h1M16 116h1M77 116h1M80 116h1M12 117h1M45 117h1M47 117h1M76 117h1M108 117h1M112 117h1M48 118h1M107 118h1M44 119h1M116 119h1M11 120h1M44 120h1M75 120h1M116 120h1M106 121h1M43 124h1M42 127h1M12 129h1M76 129h1M12 130h1M76 130h1M115 131h1M46 132h1M14 146h1M18 146h1M78 146h1M82 146h1M11 147h1M21 147h1M46 147h1M50 147h1M75 147h1M85 147h1M110 147h1M114 147h1M10 148h1M22 148h1M43 148h1M53 148h1M74 148h1M86 148h1M107 148h1M117 148h1M42 149h1M54 149h1M106 149h1M118 149h1M9 150h1M23 150h1M73 150h1M87 150h1M9 151h1M23 151h1M41 151h1M55 151h1M73 151h1M87 151h1M105 151h1M119 151h1M41 152h1M55 152h1M105 152h1M119 152h1M10 158h1M22 158h1M74 158h1M86 158h1M42 159h1M54 159h1M106 159h1M118 159h1M12 160h1M20 160h1M76 160h1M84 160h1M14 161h1M18 161h1M44 161h1M52 161h1M78 161h1M82 161h1M108 161h1M116 161h1M16 162h1M46 162h1M50 162h1M80 162h1M110 162h1M114 162h1M12 163h2M19 163h2M48 163h1M76 163h2M83 163h2M112 163h1M9 164h1M45 164h1M51 164h1M54 164h1M73 164h1M106 164h1M109 164h1M115 164h1M42 165h1M47 165h1M113 165h1M118 165h1M8 166h1M11 166h1M21 166h1M24 166h1M43 166h1M72 166h1M75 166h1M85 166h1M88 166h1M117 166h1M10 167h1M22 167h1M41 167h1M55 167h1M74 167h1M86 167h1M105 167h1M119 167h1M12 168h1M20 168h1M42 168h1M44 168h1M53 168h1M76 168h1M84 168h1M107 168h1M116 168h1M118 168h1M44 169h1M116 169h1M11 174h1M15 174h1M17 174h1M21 174h1M52 174h1M75 174h1M79 174h1M81 174h1M85 174h1M108 174h1M13 175h2M18 175h2M47 175h2M51 175h1M77 175h2M82 175h2M109 175h1M112 175h2M15 176h1M17 176h1M46 176h1M79 176h1M81 176h1M114 176h1M11 177h1M15 177h1M17 177h1M21 177h1M48 177h1M75 177h1M79 177h1M81 177h1M85 177h1M112 177h1M11 178h1M15 178h1M17 178h1M21 178h1M48 178h1M75 178h1M79 178h1M81 178h1M85 178h1M112 178h1M11 179h1M15 179h1M17 179h1M21 179h1M48 179h1M75 179h1M79 179h1M81 179h1M85 179h1M112 179h1M11 180h1M21 180h1M44 180h1M48 180h1M75 180h1M85 180h1M112 180h1M116 180h1M48 181h1M112 181h1" />
<path stroke="#325fa2" d="M15 2h3M79 2h3M12 3h1M20 3h1M47 3h3M76 3h1M84 3h1M111 3h3M11 4h1M21 4h1M44 4h1M52 4h1M75 4h1M85 4h1M108 4h1M116 4h1M10 5h1M22 5h1M43 5h1M53 5h1M74 5h1M86 5h1M107 5h1M117 5h1M42 6h1M54 6h1M106 6h1M118 6h1M10 7h1M22 7h1M74 7h1M86 7h1M9 8h3M21 8h3M42 8h1M54 8h1M73 8h3M85 8h3M106 8h1M118 8h1M9 9h3M21 9h3M41 9h3M53 9h3M73 9h3M85 9h3M105 9h3M117 9h3M10 10h1M22 10h1M41 10h3M53 10h3M74 10h1M86 10h1M105 10h3M117 10h3M10 11h1M22 11h1M42 11h1M54 11h1M74 11h1M86 11h1M106 11h1M118 11h1M11 12h4M18 12h4M42 12h1M54 12h1M75 12h4M82 12h4M106 12h1M118 12h1M10 13h2M21 13h2M43 13h4M50 13h4M74 13h2M85 13h2M107 13h4M114 13h4M11 14h1M15 14h3M21 14h1M42 14h2M53 14h2M75 14h1M79 14h3M85 14h1M106 14h2M117 14h2M11 15h1M21 15h1M43 15h1M47 15h3M53 15h1M75 15h1M85 15h1M107 15h1M111 15h3M117 15h1M12 16h1M20 16h1M43 16h1M53 16h1M76 16h1M84 16h1M107 16h1M117 16h1M44 17h1M52 17h1M108 17h1M116 17h1M21 19h1M85 19h1M19 20h2M83 20h2M117 20h1M51 21h4M115 21h3M22 22h1M52 22h1M86 22h1M116 22h1M118 22h1M18 23h2M55 23h1M82 23h2M23 24h1M50 24h2M53 24h1M87 24h1M114 24h3M19 30h1M83 30h1M18 31h2M21 31h1M82 31h2M85 31h1M115 31h2M18 32h1M21 32h1M82 32h1M85 32h1M116 32h1M18 33h1M21 33h1M81 33h2M85 33h1M113 33h1M116 33h1M14 34h2M18 34h1M78 34h2M82 34h1M113 34h1M116 34h1M14 35h2M17 35h2M47 35h1M78 35h2M81 35h2M113 35h1M116 35h1M14 36h1M18 36h1M78 36h1M82 36h1M15 50h4M79 50h4M13 51h1M19 51h2M47 51h4M77 51h1M83 51h2M111 51h4M11 52h1M21 52h1M45 52h1M51 52h2M75 52h1M85 52h1M109 52h1M115 52h2M22 53h1M43 53h1M53 53h1M86 53h1M107 53h1M117 53h1M22 54h2M54 54h1M86 54h2M118 54h1M22 55h2M54 55h2M86 55h2M118 55h2M21 56h3M54 56h2M85 56h3M118 56h2M18 57h6M53 57h3M82 57h6M117 57h3M10 58h1M17 58h2M22 58h2M50 58h6M74 58h1M81 58h2M86 58h2M114 58h6M17 59h1M22 59h1M42 59h1M49 59h2M54 59h2M81 59h1M86 59h1M106 59h1M113 59h2M118 59h2M12 60h3M17 60h1M21 60h2M49 60h1M54 60h1M76 60h3M81 60h1M85 60h2M113 60h1M118 60h1M10 61h2M15 61h1M44 61h3M49 61h1M53 61h2M74 61h2M79 61h1M108 61h3M113 61h1M117 61h2M10 62h2M15 62h1M17 62h1M42 62h2M47 62h1M74 62h2M79 62h1M81 62h1M106 62h2M111 62h1M15 63h1M17 63h1M42 63h2M47 63h1M49 63h1M79 63h1M81 63h1M106 63h2M111 63h1M113 63h1M16 64h1M47 64h1M49 64h1M80 64h1M111 64h1M113 64h1M48 65h1M112 65h1M16 68h2M80 68h2M14 69h1M49 69h1M78 69h1M112 69h3M16 70h1M19 70h1M48 70h1M80 70h1M83 70h1M108 70h1M48 71h1M50 71h1M116 71h1M14 72h2M48 72h1M78 72h2M111 72h2M114 72h1M20 73h1M46 73h1M51 73h1M84 73h1M20 74h1M51 74h1M84 74h1M117 74h1M48 75h1M115 75h1M13 77h1M77 77h1M109 78h1M111 78h3M51 79h1M111 79h3M15 80h1M53 80h1M79 80h1M110 80h4M15 81h1M50 81h1M53 81h1M79 81h1M110 81h5M15 82h1M17 82h2M49 82h2M53 82h1M79 82h1M81 82h2M109 82h1M111 82h4M15 83h1M18 83h2M49 83h1M53 83h1M79 83h1M82 83h2M110 83h1M113 83h1M19 84h1M83 84h1M109 84h1M113 84h1M16 85h1M19 85h1M50 85h1M53 85h1M80 85h1M83 85h1M112 85h2M112 86h1M13 98h4M77 98h4M11 99h2M18 99h1M45 99h4M75 99h2M82 99h1M109 99h4M10 100h1M20 100h1M43 100h2M50 100h1M74 100h1M84 100h1M107 100h2M114 100h1M9 101h1M42 101h1M52 101h1M73 101h1M106 101h1M116 101h1M8 102h2M41 102h1M72 102h2M105 102h1M8 103h2M40 103h2M72 103h2M104 103h2M8 104h3M40 104h2M72 104h3M104 104h2M8 105h6M40 105h3M72 105h6M104 105h3M8 106h2M13 106h2M21 106h1M40 106h6M72 106h2M77 106h2M85 106h1M104 106h6M9 107h1M14 107h1M40 107h2M45 107h2M53 107h1M73 107h1M78 107h1M104 107h2M109 107h2M117 107h1M9 108h2M14 108h1M17 108h3M41 108h1M46 108h1M73 108h2M78 108h1M81 108h3M105 108h1M110 108h1M16 109h1M20 109h2M41 109h2M46 109h1M49 109h3M80 109h1M84 109h2M105 109h2M110 109h1M113 109h3M14 110h1M16 110h1M20 110h2M48 110h1M52 110h2M78 110h1M80 110h1M84 110h2M112 110h1M116 110h2M14 111h1M16 111h1M46 111h1M48 111h1M52 111h2M78 111h1M80 111h1M110 111h1M112 111h1M116 111h2M15 112h1M46 112h1M48 112h1M79 112h1M110 112h1M112 112h1M47 113h1M111 113h1M14 116h2M78 116h2M46 117h1M109 117h3M12 118h1M47 118h1M76 118h1M113 118h1M115 118h1M45 119h1M47 119h1M107 119h1M11 121h1M44 121h1M75 121h1M11 122h1M44 122h1M75 122h1M106 122h1M44 127h1M42 128h1M42 129h1M45 129h1M13 130h1M42 130h1M45 130h1M77 130h1M12 131h2M42 131h1M46 131h1M76 131h2M12 132h1M76 132h1M114 132h1M12 133h1M15 133h1M42 133h1M45 133h1M76 133h1M79 133h1M110 133h1M111 134h1M15 146h3M79 146h3M12 147h1M20 147h1M47 147h3M76 147h1M84 147h1M111 147h3M11 148h1M21 148h1M44 148h1M52 148h1M75 148h1M85 148h1M108 148h1M116 148h1M10 149h1M22 149h1M43 149h1M53 149h1M74 149h1M86 149h1M107 149h1M117 149h1M22 150h1M42 150h1M54 150h1M86 150h1M106 150h1M118 150h1M22 151h1M54 151h1M86 151h1M118 151h1M9 152h1M22 152h2M54 152h1M73 152h1M86 152h2M118 152h1M9 153h2M21 153h3M41 153h1M54 153h2M73 153h2M85 153h3M105 153h1M118 153h2M11 154h1M20 154h2M41 154h2M53 154h3M75 154h1M84 154h2M105 154h2M117 154h3M11 155h4M18 155h4M43 155h1M52 155h2M75 155h4M82 155h4M107 155h1M116 155h2M10 156h13M43 156h4M50 156h4M74 156h13M107 156h4M114 156h4M10 157h13M42 157h13M74 157h13M106 157h13M11 158h11M42 158h13M75 158h11M106 158h13M11 159h11M43 159h11M75 159h11M107 159h11M13 160h7M43 160h11M77 160h7M107 160h11M15 161h3M45 161h7M79 161h3M109 161h7M47 162h3M111 162h3M10 163h2M21 163h2M74 163h2M85 163h2M14 164h4M23 164h1M43 164h2M52 164h1M78 164h4M87 164h1M108 164h1M116 164h2M11 165h1M15 165h3M21 165h1M43 165h2M46 165h1M48 165h3M54 165h1M75 165h1M79 165h3M85 165h1M106 165h1M110 165h3M114 165h1M116 165h2M10 166h1M15 166h3M20 166h1M22 166h1M42 166h1M44 166h1M47 166h3M74 166h1M79 166h3M84 166h1M86 166h1M111 166h3M116 166h1M118 166h1M12 167h9M42 167h1M44 167h1M47 167h3M53 167h1M76 167h9M107 167h1M111 167h3M116 167h1M118 167h1M9 168h1M13 168h7M23 168h1M41 168h1M45 168h5M51 168h1M55 168h1M73 168h1M77 168h7M87 168h1M105 168h1M109 168h1M111 168h5M119 168h1M14 169h5M45 169h7M78 169h5M109 169h7M45 170h6M110 170h6M12 173h1M20 173h1M76 173h1M84 173h1M12 174h3M18 174h3M76 174h3M82 174h3M11 175h2M20 175h2M44 175h1M46 175h1M50 175h1M75 175h2M84 175h2M110 175h1M114 175h1M116 175h1M11 176h4M18 176h4M44 176h1M75 176h4M82 176h4M116 176h1M12 177h3M18 177h3M44 177h1M47 177h1M76 177h3M82 177h3M113 177h1M116 177h1M12 178h3M18 178h3M44 178h1M47 178h1M76 178h3M82 178h3M113 178h1M116 178h1M12 179h3M18 179h3M44 179h1M47 179h1M76 179h3M82 179h3M113 179h1M116 179h1M12 180h3M18 180h3M76 180h3M82 180h3" />
<path stroke="#3f75c5" d="M13 3h7M77 3h7M12 4h4M17 4h4M45 4h7M76 4h4M81 4h4M109 4h7M11 5h4M18 5h4M44 5h4M49 5h4M75 5h4M82 5h4M108 5h4M113 5h4M10 6h4M19 6h4M43 6h4M50 6h4M74 6h4M83 6h4M107 6h4M114 6h4M11 7h3M16 7h1M19 7h3M42 7h4M51 7h4M75 7h3M80 7h1M83 7h3M106 7h4M115 7h4M12 8h2M19 8h2M43 8h3M48 8h1M51 8h3M76 8h2M83 8h2M107 8h3M112 8h1M115 8h3M12 9h1M20 9h1M44 9h2M51 9h2M76 9h1M84 9h1M108 9h2M115 9h2M11 10h1M21 10h1M44 10h1M52 10h1M75 10h1M85 10h1M108 10h1M116 10h1M11 11h4M18 11h4M43 11h1M53 11h1M75 11h4M82 11h4M107 11h1M117 11h1M15 12h1M17 12h1M43 12h4M50 12h4M79 12h1M81 12h1M107 12h4M114 12h4M15 13h3M47 13h1M49 13h1M79 13h3M111 13h1M113 13h1M47 14h3M111 14h3M21 20h2M85 20h2M18 21h6M82 21h6M118 21h1M19 22h2M23 22h1M50 22h2M53 22h2M83 22h2M87 22h1M114 22h2M119 22h1M23 23h2M51 23h1M53 23h2M87 23h2M115 23h2M24 24h1M54 24h2M88 24h1M54 25h2M20 30h1M84 30h1M20 31h1M84 31h1M19 32h2M83 32h2M114 32h2M19 33h2M83 33h2M114 33h2M19 34h2M83 34h2M114 34h2M12 35h2M19 35h2M46 35h1M76 35h2M83 35h2M114 35h2M12 36h2M19 36h2M76 36h2M83 36h2M14 51h5M78 51h5M12 52h9M46 52h5M76 52h9M110 52h5M12 53h10M44 53h9M76 53h10M108 53h9M13 54h9M44 54h10M77 54h9M108 54h10M10 55h1M13 55h9M45 55h9M74 55h1M77 55h9M109 55h9M16 56h5M42 56h1M45 56h9M80 56h5M106 56h1M109 56h9M16 57h2M48 57h5M80 57h2M112 57h5M48 58h2M112 58h2M15 59h2M79 59h2M11 60h1M15 60h2M47 60h2M75 60h1M79 60h2M111 60h2M16 61h1M43 61h1M47 61h2M80 61h1M107 61h1M111 61h2M16 62h1M48 62h1M80 62h1M112 62h1M16 63h1M48 63h1M80 63h1M112 63h1M48 64h1M112 64h1M15 69h4M79 69h4M15 70h1M17 70h2M49 70h2M79 70h1M81 70h2M110 70h6M14 71h2M17 71h3M49 71h1M78 71h2M81 71h3M111 71h2M114 71h2M18 72h2M46 72h1M49 72h2M82 72h2M115 72h2M18 73h2M49 73h2M82 73h2M115 73h2M18 74h2M49 74h2M82 74h2M115 74h2M49 75h2M116 75h2M110 78h1M52 79h1M51 80h2M16 81h1M51 81h2M80 81h1M16 82h1M51 82h2M80 82h1M110 82h1M16 83h2M50 83h3M80 83h2M111 83h2M16 84h3M50 84h4M80 84h3M110 84h3M17 85h2M51 85h2M81 85h2M109 85h3M111 86h1M13 99h5M77 99h5M11 100h9M45 100h5M75 100h9M109 100h5M10 101h10M43 101h9M74 101h10M107 101h9M10 102h9M42 102h10M74 102h9M106 102h10M10 103h9M21 103h1M42 103h9M74 103h9M85 103h1M106 103h9M11 104h5M42 104h9M53 104h1M75 104h5M106 104h9M117 104h1M14 105h2M43 105h5M78 105h2M107 105h5M46 106h2M110 106h2M15 107h2M79 107h2M15 108h2M20 108h1M47 108h2M79 108h2M84 108h1M111 108h2M15 109h1M47 109h2M52 109h1M79 109h1M111 109h2M116 109h1M15 110h1M47 110h1M79 110h1M111 110h1M15 111h1M47 111h1M79 111h1M111 111h1M47 112h1M111 112h1M13 117h3M77 117h3M13 118h2M45 118h2M77 118h2M108 118h3M12 119h2M46 119h1M76 119h2M108 119h2M12 120h1M45 120h2M76 120h1M107 120h2M12 121h1M45 121h1M76 121h1M107 121h1M45 122h1M107 122h1M106 123h1M43 127h1M43 128h2M43 129h2M43 130h2M14 131h1M43 131h3M78 131h1M13 132h3M42 132h4M77 132h3M13 133h2M43 133h2M77 133h2M113 133h2M112 134h1M13 147h7M77 147h7M12 148h9M45 148h7M76 148h9M109 148h7M11 149h11M44 149h9M75 149h11M108 149h9M10 150h12M43 150h11M74 150h12M107 150h11M10 151h12M42 151h12M74 151h12M106 151h12M10 152h12M42 152h12M74 152h12M106 152h12M11 153h10M42 153h12M75 153h10M106 153h12M12 154h8M43 154h10M76 154h8M107 154h10M15 155h3M44 155h8M79 155h3M108 155h8M47 156h3M111 156h3M10 164h4M18 164h5M53 164h1M74 164h4M82 164h5M107 164h1M9 165h2M12 165h3M18 165h3M22 165h2M45 165h1M51 165h3M73 165h2M76 165h3M82 165h3M86 165h2M107 165h3M115 165h1M9 166h1M12 166h3M18 166h2M23 166h1M45 166h2M50 166h5M73 166h1M76 166h3M82 166h2M87 166h1M106 166h5M114 166h2M8 167h2M23 167h2M45 167h2M50 167h2M54 167h1M72 167h2M87 167h2M106 167h1M109 167h2M114 167h2M8 168h1M24 168h1M50 168h1M54 168h1M72 168h1M88 168h1M106 168h1M110 168h1M54 169h2M105 169h2M45 175h1M115 175h1M45 176h1M115 176h1M45 177h2M114 177h2M45 178h2M114 178h2M45 179h2M114 179h2M47 180h1M113 180h1" />
<path stroke="#89a5cf" d="M16 4h1M80 4h1M15 5h1M17 5h1M48 5h1M79 5h1M81 5h1M112 5h1M14 6h1M16 6h1M18 6h1M47 6h1M49 6h1M78 6h1M80 6h1M82 6h1M111 6h1M113 6h1M15 7h1M17 7h1M46 7h1M48 7h1M50 7h1M79 7h1M81 7h1M110 7h1M112 7h1M114 7h1M47 8h1M49 8h1M111 8h1M113 8h1M15 9h3M79 9h3M47 10h3M111 10h3M9 12h1M23 12h1M73 12h1M87 12h1M41 13h1M55 13h1M105 13h1M119 13h1M11 53h1M75 53h1M10 54h1M12 54h1M43 54h1M74 54h1M76 54h1M107 54h1M9 55h1M11 55h1M42 55h1M44 55h1M73 55h1M75 55h1M106 55h1M108 55h1M41 56h1M43 56h1M105 56h1M107 56h1M9 57h3M73 57h3M41 58h3M105 58h3M19 59h3M83 59h3M51 60h3M115 60h3M18 61h2M82 61h2M50 62h2M114 62h2M20 101h1M84 101h1M19 102h1M21 102h1M52 102h1M83 102h1M85 102h1M116 102h1M20 103h1M22 103h1M51 103h1M53 103h1M84 103h1M86 103h1M115 103h1M117 103h1M52 104h1M54 104h1M116 104h1M118 104h1M20 105h3M84 105h3M52 106h3M116 106h3M10 107h3M74 107h3M42 108h3M106 108h3M12 109h2M76 109h2M44 110h2M108 110h2M9 155h2M22 155h2M73 155h2M86 155h2M41 156h2M54 156h2M105 156h2M118 156h2" />
<path stroke="#d5d6d8" d="M16 5h1M80 5h1M15 6h1M17 6h1M48 6h1M79 6h1M81 6h1M112 6h1M14 7h1M18 7h1M47 7h1M49 7h1M78 7h1M82 7h1M111 7h1M113 7h1M14 8h5M46 8h1M50 8h1M78 8h5M110 8h1M114 8h1M14 9h1M18 9h1M46 9h5M78 9h1M82 9h1M110 9h5M9 10h1M23 10h1M46 10h1M50 10h1M73 10h1M87 10h1M110 10h1M114 10h1M9 11h1M23 11h1M41 11h1M55 11h1M73 11h1M87 11h1M105 11h1M119 11h1M10 12h1M22 12h1M41 12h1M55 12h1M74 12h1M86 12h1M105 12h1M119 12h1M42 13h1M54 13h1M106 13h1M118 13h1M11 22h3M75 22h3M13 23h1M43 23h3M77 23h1M107 23h3M45 24h1M109 24h1M6 27h1M70 27h1M6 28h1M38 28h1M70 28h1M102 28h1M6 29h2M38 29h1M70 29h2M102 29h1M38 30h2M102 30h2M10 53h1M74 53h1M11 54h1M42 54h1M75 54h1M106 54h1M12 55h1M43 55h1M76 55h1M107 55h1M9 56h4M44 56h1M73 56h4M108 56h1M12 57h1M41 57h4M76 57h1M105 57h4M19 58h3M44 58h1M83 58h3M108 58h1M18 59h1M51 59h3M82 59h1M115 59h3M18 60h3M50 60h1M82 60h3M114 60h1M17 61h1M50 61h3M81 61h1M114 61h3M49 62h1M113 62h1M12 70h2M76 70h2M13 71h1M44 71h2M77 71h1M108 71h2M45 72h1M109 72h1M21 101h1M85 101h1M20 102h1M53 102h1M84 102h1M117 102h1M19 103h1M52 103h1M83 103h1M116 103h1M19 104h4M51 104h1M83 104h4M115 104h1M19 105h1M51 105h4M83 105h1M115 105h4M10 106h3M51 106h1M74 106h3M115 106h1M13 107h1M42 107h3M77 107h1M106 107h3M11 108h3M45 108h1M75 108h3M109 108h1M14 109h1M43 109h3M78 109h1M107 109h3M46 110h1M110 110h1M19 118h1M83 118h1M114 119h2M16 120h2M80 120h2M49 121h2M111 121h2M15 125h1M79 125h1M15 126h1M48 126h1M79 126h1M110 126h1M15 127h1M48 127h1M79 127h1M110 127h1M48 128h1M110 128h1M9 154h2M22 154h2M73 154h2M86 154h2M41 155h2M54 155h2M105 155h2M118 155h2M9 156h1M23 156h1M73 156h1M87 156h1M41 157h1M55 157h1M105 157h1M119 157h1" />
<path stroke="#162946" d="M8 9h1M24 9h1M72 9h1M88 9h1M8 10h1M24 10h1M40 10h1M56 10h1M72 10h1M88 10h1M104 10h1M120 10h1M8 11h1M24 11h1M40 11h1M56 11h1M72 11h1M88 11h1M104 11h1M120 11h1M8 12h1M24 12h1M40 12h1M56 12h1M72 12h1M88 12h1M104 12h1M120 12h1M8 13h1M24 13h1M40 13h1M56 13h1M72 13h1M88 13h1M104 13h1M120 13h1M9 14h2M22 14h2M40 14h1M56 14h1M73 14h2M86 14h2M104 14h1M120 14h1M10 15h1M22 15h1M41 15h2M54 15h2M74 15h1M86 15h1M105 15h2M118 15h2M10 16h1M22 16h1M42 16h1M54 16h1M74 16h1M86 16h1M106 16h1M118 16h1M11 17h1M21 17h1M42 17h1M54 17h1M75 17h1M85 17h1M106 17h1M118 17h1M10 18h2M21 18h2M43 18h1M53 18h1M74 18h2M85 18h2M107 18h1M117 18h1M14 19h1M18 19h2M23 19h1M42 19h2M53 19h2M78 19h1M82 19h2M87 19h1M106 19h2M117 19h2M24 20h1M46 20h1M50 20h2M54 20h1M88 20h1M110 20h1M114 20h2M119 20h1M24 21h1M55 21h1M88 21h1M120 21h1M25 22h1M55 22h1M89 22h1M25 23h1M56 23h1M89 23h1M21 24h2M56 24h1M85 24h2M21 25h1M56 25h1M85 25h1M19 28h2M83 28h2M22 29h1M52 29h1M86 29h1M115 29h1M117 29h1M22 30h1M86 30h1M118 30h1M22 31h1M86 31h1M118 31h1M22 32h1M86 32h1M118 32h1M16 33h1M22 33h1M49 33h1M53 33h1M80 33h1M86 33h1M118 33h1M16 34h1M22 34h1M49 34h1M53 34h1M80 34h1M86 34h1M118 34h1M10 35h1M16 35h1M22 35h1M74 35h1M80 35h1M86 35h1M25 55h1M89 55h1M25 56h1M57 56h1M89 56h1M121 56h1M25 57h1M57 57h1M89 57h1M121 57h1M25 58h1M57 58h1M89 58h1M121 58h1M9 59h1M25 59h1M57 59h1M73 59h1M89 59h1M121 59h1M9 60h1M24 60h1M41 60h1M57 60h1M73 60h1M88 60h1M105 60h1M121 60h1M24 61h1M41 61h1M56 61h1M88 61h1M105 61h1M120 61h1M23 62h1M56 62h1M87 62h1M120 62h1M22 63h2M55 63h1M86 63h2M119 63h1M9 64h1M18 64h2M21 64h2M54 64h2M73 64h1M82 64h2M85 64h2M118 64h2M18 65h4M41 65h1M50 65h2M53 65h2M82 65h4M105 65h1M114 65h2M117 65h2M17 66h4M50 66h4M81 66h4M114 66h4M12 67h1M15 67h5M49 67h4M76 67h1M79 67h5M113 67h4M44 68h1M47 68h5M107 68h3M111 68h5M20 69h1M51 69h1M84 69h1M107 69h2M20 70h1M84 70h1M107 70h1M117 70h1M52 71h1M117 71h1M21 72h1M52 72h1M85 72h1M21 73h1M52 73h2M80 73h1M85 73h1M118 73h1M47 74h1M52 74h2M113 74h1M118 74h1M53 75h1M114 75h1M13 76h3M77 76h3M107 76h1M109 76h1M119 76h1M11 77h1M15 77h1M53 77h1M75 77h1M79 77h1M107 77h1M110 77h3M11 78h1M43 78h1M53 78h1M75 78h1M12 79h1M43 79h1M54 79h1M76 79h1M108 79h1M12 80h2M20 80h1M43 80h1M54 80h1M76 80h2M84 80h1M108 80h1M12 81h2M20 81h1M54 81h1M76 81h2M84 81h1M118 81h1M12 82h3M20 82h1M54 82h1M76 82h3M84 82h1M116 82h2M12 83h3M20 83h1M47 83h1M54 83h1M76 83h3M84 83h1M115 83h1M12 84h3M47 84h2M76 84h3M48 85h1M114 85h1M48 86h2M114 86h1M56 90h1M56 91h1M55 92h1M54 93h1M6 103h1M70 103h1M6 104h1M38 104h1M70 104h1M102 104h1M6 105h1M38 105h1M70 105h1M102 105h1M6 106h1M38 106h1M70 106h1M102 106h1M6 107h1M22 107h1M38 107h1M70 107h1M86 107h1M102 107h1M7 108h1M22 108h1M38 108h1M54 108h1M71 108h1M86 108h1M102 108h1M118 108h1M7 109h1M39 109h1M54 109h1M71 109h1M103 109h1M118 109h1M8 110h1M39 110h1M72 110h1M103 110h1M8 111h2M40 111h1M72 111h2M104 111h1M9 112h2M12 112h2M22 112h1M40 112h2M73 112h2M76 112h2M86 112h1M104 112h2M10 113h4M41 113h2M44 113h2M54 113h1M74 113h4M105 113h2M108 113h2M118 113h1M11 114h4M42 114h4M75 114h4M106 114h4M12 115h5M19 115h1M43 115h4M76 115h5M83 115h1M107 115h4M44 116h5M51 116h1M108 116h5M114 116h3M11 117h1M44 117h1M75 117h1M115 117h2M11 118h1M75 118h1M106 118h1M116 118h2M43 119h1M106 119h1M117 119h1M10 120h1M43 120h1M74 120h1M117 120h2M10 121h1M42 121h2M74 121h1M105 121h1M117 121h2M42 122h2M105 122h1M117 122h2M42 123h1M117 123h3M104 124h1M117 124h3M42 125h1M117 125h3M42 126h1M117 126h2M41 127h1M11 128h1M41 128h1M75 128h1M11 129h1M41 129h1M75 129h1M105 129h1M11 130h1M41 130h1M75 130h1M106 130h2M11 131h1M19 131h1M41 131h1M75 131h1M83 131h1M108 131h1M18 132h2M47 132h1M82 132h2M47 133h1M109 133h1M46 134h2M109 134h1M8 153h1M24 153h1M72 153h1M88 153h1M8 154h1M24 154h1M40 154h1M56 154h1M72 154h1M88 154h1M104 154h1M120 154h1M8 155h1M24 155h1M40 155h1M56 155h1M72 155h1M88 155h1M104 155h1M120 155h1M8 156h1M24 156h1M40 156h1M56 156h1M72 156h1M88 156h1M104 156h1M120 156h1M8 157h1M24 157h1M40 157h1M56 157h1M72 157h1M88 157h1M104 157h1M120 157h1M9 158h1M23 158h1M40 158h1M56 158h1M73 158h1M87 158h1M104 158h1M120 158h1M9 159h1M23 159h1M41 159h1M55 159h1M73 159h1M87 159h1M105 159h1M119 159h1M10 160h1M22 160h1M41 160h1M55 160h1M74 160h1M86 160h1M105 160h1M119 160h1M11 161h2M20 161h2M42 161h1M54 161h1M75 161h2M84 161h2M106 161h1M118 161h1M10 162h2M13 162h2M18 162h2M21 162h2M43 162h2M52 162h2M74 162h2M77 162h2M82 162h2M85 162h2M107 162h2M116 162h2M9 163h1M42 163h2M45 163h2M50 163h2M53 163h2M73 163h1M106 163h2M109 163h2M114 163h2M117 163h2M8 164h1M24 164h1M41 164h1M55 164h1M72 164h1M88 164h1M105 164h1M119 164h1M8 165h1M24 165h1M41 165h1M55 165h1M72 165h1M88 165h1M105 165h1M119 165h1M7 166h1M25 166h1M40 166h1M56 166h1M71 166h1M89 166h1M104 166h1M120 166h1M7 167h1M25 167h1M40 167h1M56 167h1M71 167h1M89 167h1M104 167h1M120 167h1M10 168h2M21 168h2M56 168h1M74 168h2M85 168h2M104 168h1M21 169h1M43 169h1M53 169h1M85 169h1M107 169h1M117 169h1M12 172h2M19 172h2M53 172h1M76 172h2M83 172h2M107 172h1M10 173h1M14 173h5M22 173h1M43 173h1M49 173h2M52 173h1M74 173h1M78 173h5M86 173h1M108 173h1M110 173h1M115 173h1M117 173h1M10 174h1M22 174h1M42 174h1M46 174h4M74 174h1M86 174h1M111 174h4M118 174h1M10 175h1M16 175h1M22 175h1M42 175h1M74 175h1M80 175h1M86 175h1M118 175h1M10 176h1M16 176h1M22 176h1M43 176h1M49 176h1M74 176h1M80 176h1M86 176h1M111 176h1M117 176h1M10 177h1M16 177h1M22 177h1M43 177h1M49 177h1M53 177h1M74 177h1M80 177h1M86 177h1M107 177h1M111 177h1M117 177h1M10 178h1M16 178h1M22 178h1M43 178h1M49 178h1M74 178h1M80 178h1M86 178h1M111 178h1M117 178h1M10 179h1M16 179h1M22 179h1M43 179h1M74 179h1M80 179h1M86 179h1M117 179h1M43 180h1M117 180h1M43 181h1M117 181h1" />
<path stroke="#6691d2" d="M13 9h1M19 9h1M77 9h1M83 9h1M12 10h9M45 10h1M51 10h1M76 10h9M109 10h1M115 10h1M15 11h3M44 11h9M79 11h3M108 11h9M16 12h1M47 12h3M80 12h1M111 12h3M48 13h1M112 13h1M13 56h3M77 56h3M13 57h3M45 57h3M77 57h3M109 57h3M11 58h6M45 58h3M75 58h6M109 58h3M11 59h4M43 59h6M75 59h4M107 59h6M43 60h4M107 60h4M16 104h3M80 104h3M16 105h3M48 105h3M80 105h3M112 105h3M15 106h6M48 106h3M79 106h6M112 106h3M17 107h4M47 107h6M81 107h4M111 107h6M49 108h4M113 108h4" />
<path stroke="#7b7b82" d="M12 13h1M20 13h1M76 13h1M84 13h1M44 14h1M52 14h1M108 14h1M116 14h1M14 61h1M78 61h1M46 62h1M110 62h1M12 68h1M76 68h1M11 69h1M44 69h1M75 69h1M43 70h1M17 109h1M81 109h1M49 110h1M113 110h1M19 116h1M83 116h1M20 117h1M51 117h1M84 117h1M52 118h1" />
<path stroke="#c9c9c9" d="M13 13h1M19 13h1M77 13h1M83 13h1M45 14h1M51 14h1M109 14h1M115 14h1M13 61h1M77 61h1M45 62h1M109 62h1M18 109h1M82 109h1M50 110h1M114 110h1" />
<path stroke="#493357" d="M14 13h1M18 13h1M78 13h1M82 13h1M13 14h2M18 14h2M46 14h1M50 14h1M77 14h2M82 14h2M110 14h1M114 14h1M45 15h2M50 15h2M109 15h2M114 15h2M12 61h1M76 61h1M12 62h2M44 62h1M76 62h2M108 62h1M44 63h2M108 63h2M19 109h1M83 109h1M18 110h2M51 110h1M82 110h2M115 110h1M50 111h2M114 111h2" />
<path stroke="#ced7dd" d="M12 14h1M20 14h1M76 14h1M84 14h1M12 15h1M20 15h1M44 15h1M52 15h1M76 15h1M84 15h1M108 15h1M116 15h1M44 16h1M52 16h1M108 16h1M116 16h1M14 62h1M78 62h1M14 63h1M46 63h1M78 63h1M110 63h1M46 64h1M110 64h1M17 110h1M81 110h1M17 111h1M49 111h1M81 111h1M113 111h1M49 112h1M113 112h1" />
<path stroke="#4e67c1" d="M13 15h2M18 15h2M77 15h2M82 15h2M45 16h2M50 16h2M109 16h2M114 16h2M12 63h2M76 63h2M44 64h2M108 64h2M18 111h2M82 111h2M50 112h2M114 112h2" />
<path stroke="#ffebce" d="M15 16h3M79 16h3M47 17h3M111 17h3M11 64h1M75 64h1M13 65h2M43 65h1M77 65h2M107 65h1M45 66h2M109 66h2M20 112h1M84 112h1M17 113h2M52 113h1M81 113h2M116 113h1M49 114h2M113 114h2" />
<path stroke="#e8a08d" d="M13 17h1M19 17h1M77 17h1M83 17h1M45 18h1M51 18h1M109 18h1M115 18h1M11 65h1M75 65h1M43 66h1M107 66h1M20 113h1M84 113h1M52 114h1M116 114h1" />
<path stroke="#ffc89b" d="M14 17h5M78 17h5M46 18h5M110 18h5M10 64h1M74 64h1M12 65h1M15 65h1M42 65h1M76 65h1M79 65h1M106 65h1M44 66h1M47 66h1M108 66h1M111 66h1M21 112h1M85 112h1M16 113h1M19 113h1M53 113h1M80 113h1M83 113h1M117 113h1M48 114h1M51 114h1M112 114h1M115 114h1" />
<path stroke="#7c513f" d="M13 18h2M18 18h2M77 18h2M82 18h2M45 19h2M50 19h2M109 19h2M114 19h2M10 65h1M74 65h1M15 66h2M42 66h1M79 66h2M106 66h1M47 67h2M111 67h2M21 113h1M85 113h1M15 114h2M53 114h1M79 114h2M117 114h1M47 115h2M111 115h2M114 115h1" />
<path stroke="#aa7162" d="M15 18h3M79 18h3M47 19h3M111 19h3M13 66h2M77 66h2M45 67h2M109 67h2M17 114h2M81 114h2M49 115h2M113 115h1" />
<path stroke="#510b0d" d="M8 19h6M72 19h6M14 20h2M40 20h6M78 20h2M104 20h6M16 21h1M46 21h2M80 21h1M110 21h2M17 22h1M48 22h1M81 22h1M112 22h1M17 23h1M49 23h1M81 23h1M113 23h1M3 24h1M49 24h1M67 24h1M113 24h1M3 25h1M35 25h1M67 25h1M99 25h1M3 26h1M17 26h1M35 26h1M67 26h1M81 26h1M99 26h1M3 27h1M13 27h1M35 27h1M49 27h1M67 27h1M77 27h1M99 27h1M113 27h1M3 28h1M13 28h1M17 28h1M35 28h1M45 28h1M67 28h1M77 28h1M81 28h1M99 28h1M109 28h1M3 29h1M11 29h2M17 29h1M35 29h1M45 29h1M49 29h1M67 29h1M75 29h2M81 29h1M99 29h1M109 29h1M113 29h1M35 30h1M43 30h2M49 30h1M99 30h1M107 30h2M113 30h1M5 31h1M16 31h1M69 31h1M80 31h1M6 32h1M15 32h1M37 32h1M48 32h1M70 32h1M79 32h1M101 32h1M112 32h1M9 33h5M38 33h1M47 33h1M73 33h5M102 33h1M111 33h1M41 34h5M105 34h5M75 67h1M10 68h1M74 68h1M9 69h1M42 69h2M73 69h1M106 69h1M8 70h1M41 70h1M72 70h1M105 70h1M8 71h1M40 71h1M72 71h1M104 71h1M16 72h1M40 72h1M104 72h1M16 73h1M8 74h1M16 74h1M72 74h1M16 75h1M40 75h1M104 75h1M8 76h1M16 76h1M72 76h1M8 77h1M16 77h1M40 77h1M72 77h1M104 77h1M40 78h1M104 78h1M107 78h1M9 79h1M73 79h1M10 80h1M41 80h1M74 80h1M105 80h1M11 81h1M75 81h1M106 81h1M107 82h1M16 117h2M80 117h2M18 118h1M49 118h2M82 118h1M111 118h2M19 119h1M51 119h1M83 119h1M113 119h1M20 120h1M52 120h1M84 120h1M114 120h1M20 121h1M53 121h1M84 121h1M115 121h1M12 122h1M17 122h1M53 122h1M76 122h1M81 122h1M115 122h1M12 123h1M45 123h1M50 123h1M76 123h1M107 123h1M112 123h1M12 124h1M20 124h1M45 124h1M76 124h1M84 124h1M107 124h1M12 125h1M45 125h1M53 125h1M76 125h1M107 125h1M115 125h1M12 126h1M20 126h1M45 126h1M76 126h1M84 126h1M107 126h1M12 127h1M16 127h2M20 127h1M45 127h1M53 127h1M76 127h1M80 127h2M84 127h1M107 127h1M115 127h1M45 128h1M49 128h2M53 128h1M107 128h1M111 128h2M115 128h1M14 129h1M19 129h1M78 129h1M83 129h1M15 130h1M18 130h1M47 130h1M52 130h1M79 130h1M82 130h1M109 130h1M114 130h1M16 131h2M48 131h1M51 131h1M80 131h2M110 131h1M113 131h1M49 132h2M111 132h2" />
<path stroke="#841215" d="M6 20h2M70 20h2M5 21h1M15 21h1M38 21h2M69 21h1M79 21h1M102 21h2M4 22h1M16 22h1M37 22h1M47 22h1M68 22h1M80 22h1M101 22h1M111 22h1M4 23h1M16 23h1M36 23h1M48 23h1M68 23h1M80 23h1M100 23h1M112 23h1M11 24h2M17 24h1M36 24h1M48 24h1M75 24h2M81 24h1M100 24h1M112 24h1M12 25h2M17 25h1M43 25h2M49 25h1M76 25h2M81 25h1M107 25h2M113 25h1M13 26h1M44 26h2M49 26h1M77 26h1M108 26h2M113 26h1M8 27h1M17 27h1M45 27h1M72 27h1M81 27h1M109 27h1M4 28h1M8 28h2M12 28h1M40 28h1M49 28h1M68 28h1M72 28h2M76 28h1M104 28h1M113 28h1M4 29h1M9 29h2M36 29h1M40 29h2M44 29h1M68 29h1M73 29h2M100 29h1M104 29h2M108 29h1M5 30h1M16 30h1M36 30h1M41 30h2M69 30h1M80 30h1M100 30h1M105 30h2M6 31h1M15 31h1M37 31h1M48 31h1M70 31h1M79 31h1M101 31h1M112 31h1M7 32h1M14 32h1M38 32h1M47 32h1M71 32h1M78 32h1M102 32h1M111 32h1M8 33h1M39 33h1M46 33h1M72 33h1M103 33h1M110 33h1M40 34h1M104 34h1M10 69h1M74 69h1M9 70h1M42 70h1M73 70h1M106 70h1M9 71h1M41 71h1M73 71h1M105 71h1M8 72h1M41 72h1M72 72h1M105 72h1M8 73h1M40 73h1M72 73h1M104 73h1M40 74h1M104 74h1M8 75h1M72 75h1M40 76h1M104 76h1M9 78h1M73 78h1M10 79h1M41 79h1M74 79h1M105 79h1M42 80h1M106 80h1M15 118h1M79 118h1M14 119h1M18 119h1M48 119h1M78 119h1M82 119h1M110 119h1M13 120h1M19 120h1M47 120h1M51 120h1M77 120h1M83 120h1M109 120h1M113 120h1M13 121h1M19 121h1M46 121h1M52 121h1M77 121h1M83 121h1M108 121h1M114 121h1M16 122h1M20 122h1M46 122h1M52 122h1M80 122h1M84 122h1M108 122h1M114 122h1M16 123h1M20 123h1M49 123h1M53 123h1M80 123h1M84 123h1M111 123h1M115 123h1M16 124h1M49 124h1M53 124h1M80 124h1M111 124h1M115 124h1M16 125h1M20 125h1M49 125h1M80 125h1M84 125h1M111 125h1M13 126h1M16 126h1M49 126h1M53 126h1M77 126h1M80 126h1M111 126h1M115 126h1M13 127h1M46 127h1M49 127h1M77 127h1M108 127h1M111 127h1M14 128h1M19 128h1M46 128h1M78 128h1M83 128h1M108 128h1M15 129h1M18 129h1M47 129h1M52 129h1M79 129h1M82 129h1M109 129h1M114 129h1M48 130h1M51 130h1M110 130h1M113 130h1" />
<path stroke="#a9171a" d="M8 20h6M72 20h6M6 21h2M14 21h1M40 21h6M70 21h2M78 21h1M104 21h6M5 22h2M15 22h1M38 22h2M46 22h1M69 22h2M79 22h1M102 22h2M110 22h1M5 23h1M37 23h2M47 23h1M69 23h1M101 23h2M111 23h1M4 24h1M9 24h2M37 24h1M68 24h1M73 24h2M101 24h1M4 25h1M8 25h2M36 25h1M41 25h2M68 25h1M72 25h2M100 25h1M105 25h2M4 26h1M8 26h1M36 26h1M40 26h2M68 26h1M72 26h1M100 26h1M104 26h2M4 27h1M36 27h1M40 27h1M68 27h1M100 27h1M104 27h1M36 28h1M100 28h1M11 68h1M75 68h1M10 70h1M74 70h1M42 71h1M106 71h1M16 118h2M80 118h2M15 119h1M49 119h2M79 119h1M111 119h2M14 120h2M18 120h1M48 120h1M78 120h2M82 120h1M110 120h1M14 121h1M47 121h2M51 121h1M78 121h1M109 121h2M113 121h1M13 122h1M47 122h1M77 122h1M109 122h1M13 123h1M46 123h1M77 123h1M108 123h1M13 124h1M46 124h1M77 124h1M108 124h1M13 125h1M46 125h1M77 125h1M108 125h1M46 126h1M108 126h1" />
<path stroke="#abbbd3" d="M16 20h1M80 20h1M17 21h1M48 21h1M81 21h1M112 21h1M18 22h1M49 22h1M82 22h1M113 22h1M50 23h1M114 23h1M13 69h1M77 69h1M14 70h1M45 70h1M78 70h1M109 70h1M12 71h1M46 71h1M76 71h1M110 71h1M44 72h1M108 72h1M18 117h1M82 117h1M114 118h1M115 120h1" />
<path stroke="#717171" d="M8 21h2M72 21h2M7 22h1M40 22h2M71 22h1M104 22h2M6 23h1M39 23h1M70 23h1M103 23h1M5 24h1M38 24h1M69 24h1M102 24h1M5 25h1M11 25h1M37 25h1M69 25h1M75 25h1M101 25h1M14 26h1M37 26h1M43 26h1M78 26h1M101 26h1M107 26h1M9 27h1M11 27h1M14 27h1M46 27h1M73 27h1M75 27h1M78 27h1M110 27h1M41 28h1M43 28h1M46 28h1M105 28h1M107 28h1M110 28h1M14 29h1M78 29h1M10 30h1M13 30h1M46 30h1M74 30h1M77 30h1M110 30h1M42 31h1M45 31h1M106 31h1M109 31h1M107 79h1M15 121h1M79 121h1M14 122h1M48 122h1M78 122h1M110 122h1M14 123h1M47 123h1M78 123h1M109 123h1M47 124h1M109 124h1M17 128h1M81 128h1M50 129h1M112 129h1M25 165h1M89 165h1M120 165h1M121 166h2M26 167h1M90 167h1M122 167h1M57 168h1M123 168h1M123 169h1M123 170h1M123 171h1M123 172h1M123 173h1M122 174h1M23 175h1M87 175h1M121 175h2M118 176h3" />
<path stroke="#5e5e5e" d="M10 21h4M74 21h4M14 22h1M42 22h4M78 22h1M106 22h4M15 23h1M46 23h1M79 23h1M110 23h1M16 24h1M47 24h1M80 24h1M111 24h1M16 25h1M48 25h1M80 25h1M112 25h1M5 26h1M12 26h1M48 26h1M69 26h1M76 26h1M112 26h1M5 27h1M12 27h1M37 27h1M44 27h1M69 27h1M76 27h1M101 27h1M108 27h1M5 28h1M10 28h2M14 28h1M37 28h1M44 28h1M69 28h1M74 28h2M78 28h1M101 28h1M108 28h1M5 29h1M13 29h1M37 29h1M42 29h2M46 29h1M69 29h1M77 29h1M101 29h1M106 29h2M110 29h1M6 30h1M11 30h2M37 30h1M45 30h1M70 30h1M75 30h2M101 30h1M109 30h1M38 31h1M43 31h2M102 31h1M107 31h2M10 71h1M74 71h1M9 72h1M42 72h1M73 72h1M106 72h1M9 73h1M41 73h1M73 73h1M105 73h1M41 74h1M105 74h1M16 119h2M80 119h2M49 120h2M111 120h2M18 121h1M82 121h1M19 122h1M51 122h1M83 122h1M113 122h1M19 123h1M52 123h1M83 123h1M114 123h1M14 124h1M52 124h1M78 124h1M114 124h1M14 125h1M47 125h1M78 125h1M109 125h1M14 126h1M17 126h1M47 126h1M78 126h1M81 126h1M109 126h1M14 127h1M47 127h1M50 127h1M78 127h1M109 127h1M112 127h1M15 128h2M47 128h1M79 128h2M109 128h1M48 129h2M110 129h2M25 164h1M89 164h1M120 164h1M26 165h1M56 165h1M90 165h1M121 165h2M26 166h1M57 166h1M90 166h1M123 166h1M27 167h1M57 167h1M91 167h1M123 167h1M27 168h1M58 168h1M91 168h1M124 168h1M58 169h1M124 169h1M58 170h1M124 170h1M27 171h1M91 171h1M124 171h1M124 172h1M124 173h1M123 174h1M24 175h2M88 175h2M123 175h1M23 176h1M87 176h1M121 176h2M54 177h1M118 177h3" />
<path stroke="#fdfffd" d="M8 22h3M72 22h3M7 23h2M40 23h3M71 23h2M104 23h3M6 24h2M39 24h2M70 24h2M103 24h2M6 25h1M38 25h2M70 25h1M102 25h2M6 26h1M38 26h1M70 26h1M102 26h1M38 27h1M102 27h1M12 74h2M76 74h2M109 74h2M43 75h2M15 122h1M79 122h1M15 123h1M48 123h1M79 123h1M110 123h1M15 124h1M48 124h1M79 124h1M110 124h1M48 125h1M110 125h1" />
<path stroke="#3b0710" d="M120 22h1M119 23h2M18 24h1M26 24h1M82 24h1M90 24h1M119 24h1M121 24h1M18 25h1M22 25h1M50 25h1M82 25h1M86 25h1M114 25h1M121 25h1M18 26h1M22 26h1M50 26h1M57 26h1M82 26h1M86 26h1M114 26h1M117 26h1M119 26h2M18 27h1M50 27h1M56 27h2M82 27h1M114 27h1M119 27h1M18 28h1M23 28h1M50 28h1M82 28h1M87 28h1M114 28h1M121 28h1M18 29h1M50 29h1M82 29h1M114 29h1M119 29h2M4 30h1M17 30h1M24 30h3M50 30h1M53 30h1M68 30h1M81 30h1M88 30h3M114 30h1M4 31h1M17 31h1M36 31h1M49 31h1M53 31h1M68 31h1M81 31h1M100 31h1M113 31h1M5 32h1M16 32h1M36 32h1M49 32h1M53 32h3M69 32h1M80 32h1M100 32h1M113 32h1M6 33h2M14 33h2M37 33h1M48 33h1M70 33h2M78 33h2M101 33h1M112 33h1M8 34h6M38 34h2M46 34h2M72 34h6M102 34h2M110 34h2M40 35h6M104 35h6M54 38h1M106 38h1M54 39h1M106 39h1M10 40h1M15 40h1M17 40h1M22 40h1M43 40h1M48 40h1M50 40h4M74 40h1M79 40h1M81 40h1M86 40h1M107 40h4M112 40h1M117 40h1M10 41h1M15 41h1M17 41h1M22 41h1M43 41h1M48 41h1M74 41h1M79 41h1M81 41h1M86 41h1M112 41h1M117 41h1M16 42h1M42 42h1M80 42h1M118 42h1M16 43h1M42 43h1M80 43h1M118 43h1M10 44h1M15 44h1M17 44h1M22 44h1M42 44h1M49 44h1M74 44h1M79 44h1M81 44h1M86 44h1M111 44h1M118 44h1M11 45h4M18 45h4M43 45h6M75 45h4M82 45h4M112 45h6M7 72h1M71 72h1M7 73h1M39 73h1M71 73h1M103 73h1M7 74h1M39 74h1M71 74h1M103 74h1M7 75h1M17 75h2M39 75h1M71 75h1M81 75h2M103 75h1M7 76h1M18 76h3M39 76h1M48 76h1M71 76h1M82 76h3M103 76h1M114 76h2M7 77h1M20 77h1M39 77h1M48 77h4M71 77h1M84 77h1M103 77h1M116 77h3M8 78h1M15 78h1M18 78h2M39 78h1M50 78h1M72 78h1M79 78h1M82 78h2M103 78h1M118 78h1M8 79h1M15 79h1M19 79h1M40 79h1M45 79h1M48 79h2M72 79h1M79 79h1M83 79h1M104 79h1M114 79h1M118 79h1M9 80h1M16 80h1M40 80h1M45 80h1M49 80h1M73 80h1M80 80h1M104 80h1M114 80h1M117 80h1M10 81h1M17 81h1M41 81h1M46 81h1M74 81h1M81 81h1M105 81h1M11 82h1M47 82h1M75 82h1M106 82h1M107 83h2M21 86h1M55 86h1M85 86h1M21 87h1M55 87h1M85 87h1M15 88h1M21 88h1M49 88h1M56 88h1M79 88h1M85 88h1M15 89h1M21 89h1M49 89h1M56 89h1M79 89h1M85 89h1M21 90h1M55 90h1M85 90h1M55 91h1M54 92h1M52 93h2M21 122h1M85 122h1M21 123h1M54 123h1M85 123h1M116 123h1M11 124h1M21 124h1M54 124h1M75 124h1M85 124h1M116 124h1M11 125h1M21 125h1M44 125h1M54 125h1M75 125h1M85 125h1M105 125h2M116 125h1M21 126h1M54 126h1M85 126h1M105 126h1M116 126h1M21 127h1M54 127h1M85 127h1M105 127h1M116 127h1M13 128h1M20 128h1M54 128h1M77 128h1M84 128h1M106 128h1M116 128h1M13 129h1M20 129h1M46 129h1M53 129h1M77 129h1M84 129h1M108 129h1M115 129h1M14 130h1M19 130h1M46 130h1M53 130h1M78 130h1M83 130h1M108 130h1M115 130h1M15 131h1M18 131h1M47 131h1M52 131h1M79 131h1M82 131h1M109 131h1M114 131h1M16 132h2M48 132h1M51 132h1M80 132h2M110 132h1M113 132h1M49 133h2M111 133h2M10 134h1M40 134h1M74 134h1M10 135h1M40 135h1M74 135h1M10 136h1M16 136h1M39 136h1M46 136h1M74 136h1M80 136h1M10 137h1M16 137h1M39 137h1M46 137h1M74 137h1M80 137h1M10 138h1M40 138h1M74 138h1M40 139h1M41 140h1M42 141h2M39 167h1M121 167h1M6 168h1M26 168h1M39 168h2M70 168h1M90 168h1M120 168h2M10 169h1M22 169h1M38 169h1M40 169h1M74 169h1M86 169h1M120 169h1M122 169h1M10 170h1M22 170h1M38 170h1M74 170h1M86 170h1M122 170h1M39 171h2M42 171h1M57 171h2M102 171h2M118 171h1M120 171h2M9 172h1M23 172h1M40 172h1M54 172h1M73 172h1M87 172h1M106 172h1M120 172h1M38 173h1M54 173h1M106 173h1M122 173h1M6 174h3M24 174h3M39 174h2M54 174h1M70 174h3M88 174h3M106 174h1M120 174h2M54 175h1M106 175h1M54 176h3M104 176h3M10 184h1M15 184h1M17 184h1M22 184h1M43 184h1M48 184h1M74 184h1M79 184h1M81 184h1M86 184h1M112 184h1M117 184h1M10 185h1M15 185h1M17 185h1M22 185h1M43 185h1M48 185h1M53 185h1M74 185h1M79 185h1M81 185h1M86 185h1M107 185h1M112 185h1M117 185h1M16 186h1M48 186h1M50 186h4M80 186h1M107 186h4M112 186h1M16 187h1M80 187h1M10 188h1M15 188h1M17 188h1M22 188h1M74 188h1M79 188h1M81 188h1M86 188h1M11 189h4M18 189h4M75 189h4M82 189h4" />
<path stroke="#acaeac" d="M9 23h1M14 23h1M73 23h1M78 23h1M8 24h1M14 24h2M41 24h1M46 24h1M72 24h1M78 24h2M105 24h1M110 24h1M7 25h1M15 25h1M40 25h1M46 25h2M71 25h1M79 25h1M104 25h1M110 25h2M7 26h1M10 26h1M15 26h1M39 26h1M47 26h1M71 26h1M74 26h1M79 26h1M103 26h1M111 26h1M39 27h1M42 27h1M47 27h1M103 27h1M106 27h1M111 27h1M7 30h2M71 30h2M8 31h3M39 31h2M72 31h3M103 31h2M40 32h3M104 32h3M10 72h1M74 72h1M10 73h1M42 73h1M74 73h1M106 73h1M10 74h1M42 74h1M74 74h1M106 74h1M42 75h1M106 75h1M18 122h1M82 122h1M18 123h1M51 123h1M82 123h1M113 123h1M17 124h2M51 124h1M81 124h2M113 124h1M50 125h2M112 125h2M119 174h1" />
<path stroke="#848684" d="M10 23h3M74 23h3M13 24h1M42 24h3M77 24h1M106 24h3M10 25h1M14 25h1M45 25h1M74 25h1M78 25h1M109 25h1M9 26h1M11 26h1M42 26h1M46 26h1M73 26h1M75 26h1M106 26h1M110 26h1M7 27h1M10 27h1M15 27h1M41 27h1M43 27h1M71 27h1M74 27h1M79 27h1M105 27h1M107 27h1M7 28h1M15 28h1M39 28h1M42 28h1M47 28h1M71 28h1M79 28h1M103 28h1M106 28h1M111 28h1M8 29h1M15 29h1M39 29h1M47 29h1M72 29h1M79 29h1M103 29h1M111 29h1M9 30h1M14 30h1M40 30h1M47 30h1M73 30h1M78 30h1M104 30h1M111 30h1M11 31h3M41 31h1M46 31h1M75 31h3M105 31h1M110 31h1M43 32h3M107 32h3M10 75h1M74 75h1M10 76h1M42 76h1M74 76h1M106 76h1M10 77h1M42 77h1M74 77h1M106 77h1M42 78h1M106 78h1M11 79h1M75 79h1M107 80h1M16 121h2M80 121h2M49 122h2M111 122h2M17 123h1M81 123h1M50 124h1M112 124h1M17 125h2M81 125h2M18 126h1M50 126h2M82 126h1M112 126h2M18 127h1M51 127h1M82 127h1M113 127h1M51 128h1M113 128h1M16 129h2M80 129h2M49 130h2M111 130h2M122 168h1M23 174h1M87 174h1M119 175h2" />
<path stroke="#22040b" d="M25 24h1M89 24h1M118 24h1M23 25h2M57 25h1M87 25h2M117 25h1M21 26h1M53 26h4M85 26h1M121 26h1M53 27h1M117 27h2M121 27h1M23 29h1M87 29h1M57 30h1M57 31h1M56 32h1M49 35h1M111 35h1M16 36h1M49 36h1M80 36h1M111 36h1M16 37h1M49 37h1M80 37h1M111 37h1M16 38h1M49 38h1M80 38h1M111 38h1M16 39h1M49 39h1M80 39h1M111 39h1M16 40h1M49 40h1M80 40h1M111 40h1M16 41h1M49 41h1M80 41h1M111 41h1M21 74h1M80 74h1M85 74h1M19 75h3M47 75h1M80 75h1M83 75h3M21 76h1M47 76h1M49 76h2M80 76h1M85 76h1M116 76h3M21 77h1M46 77h1M80 77h1M85 77h1M119 77h1M20 78h1M46 78h1M51 78h1M84 78h1M119 78h1M20 79h1M50 79h1M84 79h1M119 79h1M19 80h1M50 80h1M83 80h1M118 80h1M18 81h1M42 81h1M49 81h1M82 81h1M115 81h3M42 82h3M48 82h1M118 82h2M42 83h5M116 83h5M42 84h5M115 84h4M120 84h1M13 85h2M41 85h1M43 85h4M77 85h2M115 85h3M120 85h1M13 86h2M45 86h2M77 86h2M121 86h1M12 87h3M40 87h2M76 87h3M115 87h4M121 87h1M11 88h4M39 88h1M43 88h1M75 88h4M115 88h1M121 88h1M11 89h4M39 89h1M44 89h3M75 89h4M115 89h1M121 89h1M11 90h3M39 90h6M75 90h3M115 90h6M21 91h1M85 91h1M13 92h1M20 92h1M48 92h1M77 92h1M84 92h1M104 92h1M14 93h6M49 93h3M78 93h6M105 93h6M10 122h1M74 122h1M10 123h2M74 123h2M10 124h1M74 124h1M105 124h2M10 125h1M74 125h1M104 125h1M11 126h1M44 126h1M75 126h1M104 126h1M11 127h1M75 127h1M104 127h1M12 128h1M76 128h1M105 128h1M106 129h2M104 130h2M53 131h1M103 131h5M52 132h2M103 132h1M105 132h4M17 133h2M51 133h2M54 133h1M81 133h2M103 133h1M106 133h3M17 134h2M49 134h2M81 134h2M102 134h1M17 135h3M54 135h2M81 135h3M102 135h1M105 135h4M17 136h4M52 136h1M56 136h1M81 136h4M102 136h1M108 136h1M17 137h4M49 137h3M56 137h1M81 137h4M102 137h1M108 137h1M18 138h3M51 138h6M82 138h3M103 138h6M10 139h1M74 139h1M11 140h1M18 140h1M47 140h1M75 140h1M82 140h1M119 140h1M12 141h6M44 141h3M76 141h6M113 141h6M7 168h1M25 168h1M71 168h1M89 168h1M8 169h2M11 169h1M23 169h2M41 169h1M57 169h1M72 169h2M75 169h1M87 169h2M103 169h1M119 169h1M11 170h1M21 170h1M42 170h1M53 170h5M75 170h1M85 170h1M103 170h5M118 170h1M10 171h1M22 171h1M38 171h1M53 171h1M74 171h1M86 171h1M107 171h1M122 171h1M10 172h1M22 172h1M38 172h1M41 172h1M74 172h1M86 172h1M119 172h1M122 172h1M9 173h1M23 173h1M41 173h1M73 173h1M87 173h1M119 173h1M58 174h1M102 174h1M58 175h1M102 175h1M57 176h1M103 176h1M49 179h1M111 179h1M16 180h1M49 180h1M80 180h1M111 180h1M16 181h1M49 181h1M80 181h1M111 181h1M16 182h1M49 182h1M53 182h1M80 182h1M107 182h1M111 182h1M16 183h1M49 183h1M53 183h1M80 183h1M107 183h1M111 183h1M16 184h1M49 184h1M53 184h1M80 184h1M107 184h1M111 184h1M16 185h1M49 185h1M80 185h1M111 185h1M43 186h1M49 186h1M111 186h1M117 186h1M43 187h1M45 187h5M111 187h5M117 187h1M43 188h6M112 188h6M44 189h4M113 189h4" />
<path stroke="#730f27" d="M120 24h1M119 25h1M23 26h1M87 26h1M24 28h1M88 28h1M24 29h2M88 29h2M50 37h1M53 37h1M107 37h1M110 37h1M44 38h1M47 38h1M51 38h3M107 38h3M113 38h1M116 38h1M11 39h4M18 39h4M44 39h4M50 39h1M53 39h1M75 39h4M82 39h4M107 39h1M110 39h1M113 39h4M12 40h2M19 40h2M45 40h2M76 40h2M83 40h2M114 40h2M11 41h4M18 41h4M44 41h4M75 41h4M82 41h4M113 41h4M10 42h1M12 42h2M15 42h1M17 42h1M19 42h2M22 42h1M74 42h1M76 42h2M79 42h1M81 42h1M83 42h2M86 42h1M17 76h1M81 76h1M19 77h1M47 77h1M83 77h1M114 77h1M16 78h2M49 78h1M80 78h2M115 78h1M16 79h1M46 79h2M80 79h1M116 79h1M46 80h1M119 84h1M42 85h1M118 85h2M41 86h4M115 86h6M42 87h5M119 87h2M17 88h2M40 88h3M44 88h3M51 88h1M81 88h2M107 88h3M116 88h5M16 89h4M40 89h4M50 89h4M80 89h4M107 89h4M116 89h5M17 90h2M52 90h2M81 90h2M108 90h2M104 132h1M53 133h1M104 133h2M51 134h4M103 134h6M49 135h5M103 135h2M13 136h2M44 136h1M49 136h3M53 136h3M77 136h2M103 136h5M114 136h3M12 137h4M42 137h4M52 137h4M76 137h4M103 137h5M113 137h4M13 138h2M42 138h2M77 138h2M114 138h2M39 169h1M121 169h1M9 170h1M23 170h1M40 170h1M73 170h1M87 170h1M120 170h1M8 172h1M24 172h1M72 172h1M88 172h1M7 173h2M24 173h2M71 173h2M88 173h2M45 182h2M114 182h2M11 183h4M18 183h4M44 183h4M75 183h4M82 183h4M113 183h4M12 184h2M19 184h2M45 184h2M76 184h2M83 184h2M114 184h2M12 185h2M19 185h2M45 185h2M76 185h2M83 185h2M114 185h2M12 186h2M19 186h2M76 186h2M83 186h2M11 187h4M18 187h4M75 187h4M82 187h4" />
<path stroke="#83171a" d="M19 25h2M83 25h2M20 26h1M51 26h2M84 26h1M115 26h2M52 27h1M116 27h1M116 28h1M11 72h1M75 72h1M14 73h2M45 73h1M78 73h2M107 73h1M111 73h2M15 74h1M46 74h1M79 74h1M107 74h1M112 74h1M112 75h1M116 121h1M116 122h1M12 169h1M19 169h2M76 169h1M83 169h2M12 170h1M15 170h2M20 170h1M43 170h1M51 170h1M76 170h1M79 170h2M84 170h1M108 170h1M116 170h1M43 171h1M46 171h2M50 171h1M108 171h1M111 171h2M115 171h1M116 172h1" />
<path stroke="#5b0b1e" d="M25 25h1M27 25h1M89 25h1M91 25h1M118 25h1M120 25h1M27 26h1M91 26h1M118 26h1M23 27h2M26 27h1M54 27h2M87 27h2M90 27h1M120 27h1M27 28h1M57 28h1M91 28h1M119 28h2M27 29h1M54 29h2M91 29h1M56 30h1M56 31h1M54 34h1M50 35h5M110 35h1M10 36h1M15 36h1M17 36h1M22 36h1M43 36h6M53 36h1M74 36h1M79 36h1M81 36h1M86 36h1M107 36h1M112 36h6M11 37h4M18 37h4M51 37h2M75 37h4M82 37h4M108 37h2M10 38h1M15 38h1M17 38h1M22 38h1M43 38h1M48 38h1M74 38h1M79 38h1M81 38h1M86 38h1M112 38h1M117 38h1M10 39h1M15 39h1M17 39h1M22 39h1M43 39h1M48 39h1M74 39h1M79 39h1M81 39h1M86 39h1M112 39h1M117 39h1M11 40h1M14 40h1M18 40h1M21 40h1M44 40h1M47 40h1M75 40h1M78 40h1M82 40h1M85 40h1M113 40h1M116 40h1M43 42h1M48 42h2M111 42h2M117 42h1M10 43h1M15 43h1M17 43h1M22 43h1M49 43h1M74 43h1M79 43h1M81 43h1M86 43h1M111 43h1M114 78h1M117 79h1M15 85h1M20 85h2M54 85h2M79 85h1M84 85h2M107 85h1M16 86h3M50 86h3M80 86h3M109 86h2M113 86h1M15 87h1M19 87h2M49 87h1M54 87h1M79 87h1M83 87h2M107 87h1M113 87h1M16 88h1M19 88h2M50 88h1M52 88h4M80 88h1M83 88h2M106 88h1M110 88h4M20 89h1M54 89h2M84 89h1M106 89h1M111 89h3M14 90h1M16 90h1M19 90h2M49 90h1M51 90h1M54 90h1M78 90h1M80 90h1M83 90h2M105 90h1M107 90h1M110 90h3M13 91h1M17 91h2M20 91h1M48 91h1M52 91h3M77 91h1M81 91h2M84 91h1M104 91h1M108 91h2M111 91h2M19 92h1M83 92h1M110 92h3M106 127h1M10 133h2M16 133h1M40 133h2M74 133h2M80 133h1M116 133h1M13 134h3M43 134h3M77 134h3M110 134h1M113 134h2M11 135h2M16 135h1M41 135h1M46 135h1M75 135h2M80 135h1M110 135h1M116 135h1M11 136h2M15 136h1M40 136h4M45 136h1M75 136h2M79 136h1M110 136h4M117 136h1M11 137h1M40 137h2M75 137h1M110 137h3M117 137h1M11 138h2M15 138h1M17 138h1M41 138h1M44 138h1M46 138h1M75 138h2M79 138h1M81 138h1M111 138h3M116 138h1M118 138h1M11 139h1M13 139h2M18 139h1M41 139h3M47 139h1M75 139h1M77 139h2M82 139h1M111 139h2M114 139h2M119 139h1M12 140h1M76 140h1M111 140h3M5 169h1M7 169h1M25 169h1M27 169h1M69 169h1M71 169h1M89 169h1M91 169h1M5 170h1M27 170h1M39 170h1M41 170h1M69 170h1M91 170h1M119 170h1M121 170h1M6 171h1M8 171h2M23 171h2M26 171h1M41 171h1M54 171h3M70 171h1M72 171h2M87 171h2M90 171h1M104 171h3M119 171h1M5 172h1M27 172h1M39 172h1M58 172h1M69 172h1M91 172h1M102 172h1M121 172h1M5 173h1M27 173h1M39 173h2M55 173h2M58 173h1M69 173h1M91 173h1M102 173h1M104 173h2M120 173h2M57 174h1M103 174h1M57 175h1M103 175h1M53 178h1M107 178h1M50 179h3M108 179h3M10 180h1M15 180h1M17 180h1M22 180h1M45 180h2M53 180h1M74 180h1M79 180h1M81 180h1M86 180h1M107 180h1M114 180h2M11 181h4M18 181h4M44 181h1M47 181h1M50 181h4M75 181h4M82 181h4M107 181h4M113 181h1M116 181h1M10 182h1M15 182h1M17 182h1M22 182h1M43 182h2M47 182h2M50 182h3M74 182h1M79 182h1M81 182h1M86 182h1M108 182h3M112 182h2M116 182h2M10 183h1M15 183h1M17 183h1M22 183h1M43 183h1M48 183h1M50 183h3M74 183h1M79 183h1M81 183h1M86 183h1M108 183h3M112 183h1M117 183h1M11 184h1M14 184h1M18 184h1M21 184h1M44 184h1M47 184h1M50 184h3M75 184h1M78 184h1M82 184h1M85 184h1M108 184h3M113 184h1M116 184h1M11 185h1M14 185h1M18 185h1M21 185h1M44 185h1M47 185h1M50 185h3M75 185h1M78 185h1M82 185h1M85 185h1M108 185h3M113 185h1M116 185h1M10 186h2M14 186h2M17 186h2M21 186h2M44 186h4M74 186h2M78 186h2M81 186h2M85 186h2M113 186h4M10 187h1M15 187h1M17 187h1M22 187h1M44 187h1M74 187h1M79 187h1M81 187h1M86 187h1M116 187h1" />
<path stroke="#bb1d42" d="M26 25h1M90 25h1M25 26h1M89 26h1M25 28h1M55 28h2M89 28h1M44 37h4M113 37h4M12 38h2M19 38h2M76 38h2M83 38h2M45 42h2M114 42h2M11 43h1M14 43h1M18 43h1M21 43h1M44 43h4M75 43h1M78 43h1M82 43h1M85 43h1M113 43h4M12 44h2M19 44h2M76 44h2M83 44h2M17 77h2M81 77h2M47 78h2M116 78h2M17 79h1M81 79h1M47 80h1M53 86h1M17 87h2M51 87h2M81 87h2M109 87h2M14 91h1M49 91h1M78 91h1M105 91h1M15 92h2M50 92h2M79 92h2M106 92h2M106 126h1M42 134h1M13 135h2M43 135h2M77 135h2M113 135h2M17 139h1M46 139h1M81 139h1M118 139h1M15 140h2M44 140h2M79 140h2M116 140h2M6 169h1M26 169h1M70 169h1M90 169h1M7 170h1M25 170h1M71 170h1M89 170h1M7 172h1M25 172h1M56 172h2M71 172h1M89 172h1M103 172h2M12 182h2M19 182h2M76 182h2M83 182h2M12 188h2M19 188h2M76 188h2M83 188h2" />
<path stroke="#434343" d="M16 26h1M80 26h1M16 27h1M48 27h1M80 27h1M112 27h1M16 28h1M48 28h1M80 28h1M112 28h1M16 29h1M48 29h1M80 29h1M112 29h1M15 30h1M48 30h1M79 30h1M112 30h1M7 31h1M14 31h1M47 31h1M71 31h1M78 31h1M111 31h1M8 32h6M39 32h1M46 32h1M72 32h6M103 32h1M110 32h1M40 33h6M104 33h6M9 74h1M73 74h1M9 75h1M41 75h1M73 75h1M105 75h1M9 76h1M41 76h1M73 76h1M105 76h1M9 77h1M41 77h1M73 77h1M105 77h1M10 78h1M41 78h1M74 78h1M105 78h1M42 79h1M106 79h1M11 80h1M75 80h1M107 81h1M19 124h1M83 124h1M19 125h1M52 125h1M83 125h1M114 125h1M19 126h1M52 126h1M83 126h1M114 126h1M19 127h1M52 127h1M83 127h1M114 127h1M18 128h1M52 128h1M82 128h1M114 128h1M51 129h1M113 129h1M16 130h2M80 130h2M49 131h2M111 131h2M23 162h1M87 162h1M24 163h2M88 163h2M119 163h2M26 164h1M56 164h1M90 164h1M121 164h2M27 165h1M57 165h1M91 165h1M123 165h1M27 166h1M58 166h1M91 166h1M124 166h1M28 167h1M58 167h1M92 167h1M124 167h1M28 168h1M59 168h1M92 168h1M125 168h1M28 169h1M59 169h1M92 169h1M125 169h1M28 170h1M59 170h1M92 170h1M125 170h1M28 171h1M59 171h1M92 171h1M125 171h1M28 172h1M59 172h1M92 172h1M125 172h1M59 173h1M125 173h1M27 174h1M91 174h1M124 174h1M26 175h1M90 175h1M124 175h1M24 176h2M88 176h2M123 176h1M23 177h1M55 177h2M87 177h1M121 177h2M54 178h1M118 178h3" />
<path stroke="#b42024" d="M19 26h1M83 26h1M19 27h1M51 27h1M83 27h1M115 27h1M51 28h1M115 28h1M11 73h1M75 73h1M108 73h1M14 74h1M45 74h1M78 74h1M111 74h1M14 75h1M46 75h1M78 75h1M108 75h1M111 75h1M45 76h2M19 170h1M83 170h1M15 171h2M19 171h1M51 171h1M79 171h2M83 171h1M116 171h1M46 172h2M50 172h2M111 172h2M115 172h1" />
<path stroke="#9d1535" d="M24 26h1M26 26h1M88 26h1M90 26h1M25 27h1M89 27h1M26 28h1M54 28h1M90 28h1M26 29h1M56 29h1M90 29h1M54 30h2M54 31h2M50 36h3M108 36h3M10 37h1M15 37h1M17 37h1M22 37h1M43 37h1M48 37h1M74 37h1M79 37h1M81 37h1M86 37h1M112 37h1M117 37h1M11 38h1M14 38h1M18 38h1M21 38h1M45 38h2M50 38h1M75 38h1M78 38h1M82 38h1M85 38h1M110 38h1M114 38h2M51 39h2M108 39h2M11 42h1M14 42h1M18 42h1M21 42h1M44 42h1M47 42h1M75 42h1M78 42h1M82 42h1M85 42h1M113 42h1M116 42h1M12 43h2M19 43h2M43 43h1M48 43h1M76 43h2M83 43h2M112 43h1M117 43h1M11 44h1M14 44h1M18 44h1M21 44h1M43 44h6M75 44h1M78 44h1M82 44h1M85 44h1M112 44h6M115 77h1M18 79h1M82 79h1M115 79h1M17 80h2M48 80h1M81 80h2M115 80h2M47 81h2M15 86h1M19 86h2M54 86h1M79 86h1M83 86h2M107 86h2M16 87h1M50 87h1M53 87h1M80 87h1M108 87h1M111 87h2M15 90h1M50 90h1M79 90h1M106 90h1M15 91h2M19 91h1M50 91h2M79 91h2M83 91h1M106 91h2M110 91h1M14 92h1M17 92h2M49 92h1M52 92h2M78 92h1M81 92h2M105 92h1M108 92h2M11 134h2M16 134h1M41 134h1M75 134h2M80 134h1M115 134h2M15 135h1M42 135h1M45 135h1M79 135h1M111 135h2M115 135h1M16 138h1M45 138h1M80 138h1M117 138h1M12 139h1M15 139h2M44 139h2M76 139h1M79 139h2M113 139h1M116 139h2M13 140h2M17 140h1M42 140h2M46 140h1M77 140h2M81 140h1M114 140h2M118 140h1M6 170h1M8 170h1M24 170h1M26 170h1M70 170h1M72 170h1M88 170h1M90 170h1M7 171h1M25 171h1M71 171h1M89 171h1M6 172h1M26 172h1M55 172h1M70 172h1M90 172h1M105 172h1M6 173h1M26 173h1M57 173h1M70 173h1M90 173h1M103 173h1M55 174h2M104 174h2M55 175h2M104 175h2M53 179h1M107 179h1M50 180h3M108 180h3M10 181h1M15 181h1M17 181h1M22 181h1M45 181h2M74 181h1M79 181h1M81 181h1M86 181h1M114 181h2M11 182h1M14 182h1M18 182h1M21 182h1M75 182h1M78 182h1M82 182h1M85 182h1M11 188h1M14 188h1M18 188h1M21 188h1M75 188h1M78 188h1M82 188h1M85 188h1" />
<path stroke="#101e34" d="M20 27h3M84 27h3M21 28h2M52 28h2M85 28h2M117 28h2M19 29h1M51 29h1M53 29h1M83 29h1M116 29h1M118 29h1M51 30h1M115 30h2M11 75h3M75 75h3M107 75h1M11 76h2M43 76h2M53 76h1M75 76h2M108 76h1M110 76h4M14 77h1M43 77h3M52 77h1M78 77h1M108 77h2M113 77h1M45 78h1M52 78h1M42 124h1M43 125h1M43 126h1M11 171h2M20 171h2M75 171h2M84 171h2M11 172h1M14 172h5M21 172h1M42 172h2M52 172h1M75 172h1M78 172h5M85 172h1M108 172h1M117 172h2M13 173h1M19 173h1M42 173h1M44 173h5M51 173h1M77 173h1M83 173h1M109 173h1M111 173h4M116 173h1M118 173h1M44 174h2M50 174h2M109 174h2M115 174h2" />
<path stroke="#5c4766" d="M11 66h2M75 66h2M43 67h2M107 67h2M19 114h2M83 114h2M51 115h2M115 115h2" />
<path stroke="#959595" d="M12 72h2M76 72h2M110 72h1M43 73h2M113 75h1M13 169h1M77 169h1M14 170h1M17 170h2M44 170h1M52 170h1M78 170h1M81 170h2M109 170h1M117 170h1M45 171h1M48 171h2M52 171h1M110 171h1M113 171h2M117 171h1M44 172h1" />
<path stroke="#c5c5c5" d="M12 73h2M76 73h2M109 73h2M43 74h2M109 75h2M13 170h1M77 170h1M13 171h2M17 171h2M44 171h1M77 171h2M81 171h2M109 171h1M45 172h1M48 172h2M109 172h2M113 172h2" />
<path stroke="#de4246" d="M11 74h1M75 74h1M108 74h1M15 75h1M45 75h1M79 75h1" />
</svg>