<svg xmlns="http://www.w3.org/2000/svg" viewBox="0 -0.5 128 192" shape-rendering="crispEdges">
<metadata>Made with Pixels to Svg https://codepen.io/shshaw/pen/XbxvNj</metadata>
<path stroke="#1d1d1d" d="M12 1h2M19 1h2M76 1h2M83 1h2M10 2h2M21 2h2M44 2h2M51 2h2M74 2h2M85 2h2M108 2h2M115 2h2M9 3h1M23 3h1M42 3h2M53 3h2M73 3h1M87 3h1M106 3h2M117 3h2M9 4h1M23 4h1M41 4h1M55 4h1M73 4h1M87 4h1M105 4h1M119 4h1M8 5h1M24 5h1M40 5h1M55 5h1M72 5h1M88 5h1M105 5h1M120 5h1M8 6h1M24 6h1M40 6h1M56 6h1M72 6h1M88 6h1M104 6h1M120 6h1M7 7h1M25 7h1M39 7h1M56 7h1M71 7h1M89 7h1M104 7h1M121 7h1M7 8h1M25 8h1M39 8h1M56 8h1M71 8h1M89 8h1M104 8h1M121 8h1M7 9h1M9 9h1M23 9h1M25 9h1M39 9h1M57 9h1M71 9h1M73 9h1M87 9h1M89 9h1M103 9h1M121 9h1M7 10h1M9 10h1M23 10h1M25 10h1M38 10h1M41 10h1M55 10h1M57 10h1M71 10h1M73 10h1M87 10h1M89 10h1M103 10h1M105 10h1M119 10h1M122 10h1M7 11h1M25 11h1M38 11h1M41 11h1M55 11h3M71 11h1M89 11h1M103 11h3M119 11h1M122 11h1M7 12h1M25 12h1M38 12h1M56 12h2M71 12h1M89 12h1M103 12h2M122 12h1M7 13h1M25 13h1M37 13h1M56 13h2M71 13h1M89 13h1M103 13h2M123 13h1M7 14h2M10 14h1M22 14h1M24 14h2M37 14h1M39 14h1M56 14h1M71 14h2M74 14h1M86 14h1M88 14h2M104 14h1M121 14h1M123 14h1M8 15h1M24 15h1M37 15h1M39 15h1M42 15h1M54 15h1M56 15h1M72 15h1M88 15h1M104 15h1M106 15h1M118 15h1M121 15h1M123 15h1M8 16h1M24 16h1M37 16h1M39 16h1M72 16h1M88 16h1M121 16h1M123 16h1M11 17h1M21 17h2M24 17h1M37 17h2M75 17h1M85 17h2M88 17h1M122 17h2M12 18h1M20 18h2M24 18h1M37 18h2M54 18h1M76 18h1M84 18h2M88 18h1M117 18h2M122 18h2M13 19h9M77 19h9M116 19h2M46 20h6M109 20h6M9 22h1M23 22h1M73 22h1M87 22h1M9 23h1M23 23h1M73 23h1M87 23h1M9 24h1M23 24h1M41 24h1M73 24h1M87 24h1M119 24h1M52 26h1M108 26h1M53 27h1M107 27h1M13 29h1M19 29h1M77 29h1M83 29h1M13 30h1M19 30h1M40 30h1M45 30h1M50 30h1M53 30h1M77 30h1M83 30h1M107 30h1M110 30h1M115 30h1M120 30h1M8 31h1M13 31h1M19 31h1M24 31h1M40 31h1M45 31h1M50 31h1M52 31h2M72 31h1M77 31h1M83 31h1M88 31h1M107 31h2M110 31h1M115 31h1M120 31h1M8 32h1M13 32h1M19 32h1M24 32h1M40 32h1M45 32h1M53 32h2M72 32h1M77 32h1M83 32h1M88 32h1M106 32h2M115 32h1M120 32h1M7 33h1M13 33h1M19 33h1M25 33h1M40 33h1M45 33h1M52 33h1M54 33h3M71 33h1M77 33h1M83 33h1M89 33h1M104 33h3M108 33h1M115 33h1M120 33h1M7 34h1M12 34h1M20 34h1M25 34h1M39 34h1M45 34h1M47 34h1M53 34h1M55 34h2M71 34h1M76 34h1M84 34h1M89 34h1M104 34h2M107 34h1M115 34h1M121 34h1M7 35h1M11 35h1M21 35h1M25 35h1M39 35h1M45 35h1M48 35h1M53 35h1M55 35h2M71 35h1M75 35h1M85 35h1M89 35h1M104 35h2M107 35h1M110 35h1M112 35h1M115 35h1M121 35h1M6 36h1M11 36h1M15 36h1M17 36h1M21 36h1M26 36h1M39 36h1M44 36h1M48 36h1M55 36h2M70 36h1M75 36h1M79 36h1M81 36h1M85 36h1M90 36h1M104 36h2M110 36h1M112 36h1M116 36h1M121 36h1M6 37h1M10 37h1M15 37h1M17 37h1M22 37h1M26 37h1M39 37h1M44 37h1M48 37h1M50 37h1M54 37h1M56 37h1M70 37h1M74 37h1M79 37h1M81 37h1M86 37h1M90 37h1M104 37h1M106 37h1M109 37h2M112 37h1M116 37h1M121 37h1M6 38h1M10 38h2M15 38h1M17 38h1M21 38h2M26 38h1M39 38h1M43 38h2M48 38h1M50 38h3M70 38h1M74 38h2M79 38h1M81 38h1M85 38h2M90 38h1M108 38h3M112 38h1M116 38h2M121 38h1M6 39h1M9 39h1M23 39h1M26 39h1M39 39h1M43 39h1M51 39h1M55 39h1M70 39h1M73 39h1M87 39h1M90 39h1M105 39h1M109 39h1M117 39h1M121 39h1M6 40h1M9 40h2M22 40h2M26 40h1M39 40h1M43 40h1M50 40h3M70 40h1M73 40h2M86 40h2M90 40h1M108 40h3M117 40h1M121 40h1M7 41h3M11 41h2M14 41h2M17 41h2M20 41h2M23 41h3M40 41h3M44 41h2M47 41h2M50 41h1M53 41h1M71 41h3M75 41h2M78 41h2M81 41h2M84 41h2M87 41h3M107 41h1M110 41h1M112 41h2M115 41h2M118 41h3M10 42h1M15 42h1M17 42h1M22 42h1M43 42h1M48 42h1M50 42h3M74 42h1M79 42h1M81 42h1M86 42h1M108 42h3M112 42h1M117 42h1M18 49h2M82 49h2M20 50h2M50 50h2M84 50h2M114 50h2M22 51h1M52 51h2M86 51h1M116 51h2M23 52h1M54 52h1M87 52h1M118 52h1M23 53h1M55 53h1M87 53h1M119 53h1M24 54h1M55 54h1M88 54h1M119 54h1M24 55h1M88 55h1M120 55h1M24 56h1M56 56h1M88 56h1M120 56h1M25 57h1M56 57h1M89 57h1M121 57h1M56 58h2M121 58h1M23 59h1M25 59h1M56 59h1M87 59h1M89 59h1M20 60h1M24 60h2M55 60h1M57 60h1M84 60h1M88 60h2M119 60h1M121 60h1M20 61h2M24 61h1M52 61h1M56 61h2M84 61h2M88 61h1M116 61h1M120 61h2M20 62h1M22 62h1M25 62h1M52 62h2M56 62h1M84 62h1M86 62h1M89 62h1M116 62h2M120 62h1M20 63h1M23 63h1M52 63h1M54 63h1M84 63h1M87 63h1M116 63h1M118 63h1M23 64h1M52 64h1M55 64h1M87 64h1M116 64h1M119 64h1M18 65h2M22 65h2M55 65h2M82 65h2M86 65h2M119 65h1M17 66h2M50 66h2M54 66h3M81 66h2M114 66h2M118 66h1M12 67h5M19 67h1M51 67h1M56 67h1M76 67h5M83 67h1M115 67h1M20 68h1M44 68h2M49 68h2M84 68h1M107 68h6M45 69h1M51 69h1M107 69h1M112 69h1M117 69h1M21 70h1M45 70h1M85 70h1M118 70h1M21 71h1M42 71h1M45 71h1M85 71h1M105 71h1M118 71h1M42 72h1M45 72h1M104 72h2M42 73h1M52 73h1M105 73h1M119 73h1M42 74h1M52 74h1M119 74h1M42 75h1M103 75h1M41 76h2M102 76h5M14 77h1M22 77h1M41 77h2M44 77h1M52 77h1M78 77h1M86 77h1M102 77h4M113 77h1M14 78h1M23 78h1M40 78h3M53 78h1M78 78h1M87 78h1M103 78h3M110 78h1M113 78h1M120 78h1M14 79h1M24 79h1M40 79h3M44 79h1M54 79h1M78 79h1M88 79h1M110 79h1M113 79h1M120 79h2M14 80h1M24 80h1M39 80h3M44 80h2M55 80h1M78 80h1M88 80h1M104 80h1M110 80h1M114 80h1M120 80h2M15 81h1M25 81h1M39 81h2M43 81h1M46 81h1M56 81h1M79 81h1M89 81h1M104 81h1M110 81h1M114 81h2M119 81h4M15 82h1M25 82h1M39 82h1M43 82h2M47 82h1M57 82h1M79 82h1M89 82h1M104 82h1M110 82h1M117 82h2M120 82h3M14 83h1M16 83h1M25 83h1M38 83h2M43 83h3M48 83h1M58 83h1M78 83h1M80 83h1M89 83h1M110 83h1M119 83h5M9 84h1M13 84h1M16 84h1M26 84h1M38 84h2M43 84h4M49 84h1M59 84h1M73 84h1M77 84h1M80 84h1M90 84h1M110 84h1M119 84h2M123 84h1M9 85h1M13 85h1M17 85h1M27 85h1M38 85h2M43 85h4M50 85h1M60 85h1M73 85h1M77 85h1M81 85h1M91 85h1M108 85h1M110 85h1M124 85h1M9 86h1M12 86h2M17 86h1M27 86h1M43 86h4M51 86h1M60 86h1M73 86h1M76 86h2M81 86h1M91 86h1M107 86h1M111 86h1M124 86h1M15 87h1M18 87h1M26 87h1M50 87h2M53 87h1M59 87h1M79 87h1M82 87h1M90 87h1M111 87h1M122 87h2M16 88h1M18 88h1M25 88h1M54 88h3M58 88h1M80 88h1M82 88h1M89 88h1M109 88h1M111 88h1M120 88h3M15 89h1M19 89h1M23 89h2M51 89h1M56 89h2M79 89h1M83 89h1M87 89h2M107 89h1M111 89h1M117 89h6M13 90h3M19 90h4M49 90h3M55 90h3M77 90h3M83 90h4M105 90h3M110 90h12M13 91h1M49 91h1M56 91h2M77 91h1M105 91h1M12 97h2M76 97h2M10 98h2M44 98h2M74 98h2M108 98h2M9 99h1M42 99h2M73 99h1M106 99h2M8 100h1M41 100h1M72 100h1M105 100h1M8 101h1M40 101h1M72 101h1M104 101h1M7 102h1M40 102h1M71 102h1M104 102h1M7 103h1M71 103h1M103 103h1M7 104h1M39 104h1M71 104h1M103 104h1M6 105h1M39 105h1M70 105h1M102 105h1M38 106h2M102 106h1M6 107h1M8 107h1M39 107h1M70 107h1M72 107h1M6 108h2M11 108h1M38 108h1M40 108h1M70 108h2M75 108h1M102 108h1M104 108h1M7 109h1M10 109h2M38 109h2M43 109h1M71 109h1M74 109h2M102 109h2M107 109h1M6 110h1M9 110h1M11 110h1M39 110h1M42 110h2M70 110h1M73 110h1M75 110h1M103 110h1M106 110h2M8 111h1M11 111h1M41 111h1M43 111h1M72 111h1M75 111h1M105 111h1M107 111h1M8 112h1M40 112h1M43 112h1M72 112h1M104 112h1M107 112h1M8 113h2M12 113h2M39 113h2M72 113h2M76 113h2M104 113h1M14 114h1M39 114h3M78 114h1M105 114h1M109 114h1M16 115h4M39 115h1M80 115h4M50 116h2M112 116h5M50 117h1M50 118h1M50 119h1M53 119h1M118 119h1M50 120h1M53 120h1M118 120h2M43 121h1M53 121h1M104 121h1M118 121h1M43 122h1M53 122h1M104 122h1M53 123h1M120 123h1M53 124h2M117 124h5M9 125h1M17 125h1M43 125h1M51 125h1M53 125h2M73 125h1M81 125h1M110 125h1M118 125h4M8 126h1M17 126h1M42 126h1M53 126h3M72 126h1M81 126h1M103 126h1M110 126h1M113 126h1M118 126h3M7 127h1M17 127h1M41 127h1M51 127h1M53 127h3M71 127h1M81 127h1M102 127h2M110 127h1M113 127h1M7 128h1M17 128h1M40 128h1M50 128h2M54 128h3M71 128h1M81 128h1M102 128h2M109 128h1M113 128h1M119 128h1M6 129h1M16 129h1M39 129h1M49 129h1M52 129h1M55 129h2M70 129h1M80 129h1M101 129h4M108 129h2M113 129h1M119 129h1M6 130h1M16 130h1M38 130h1M48 130h1M51 130h2M56 130h1M70 130h1M80 130h1M101 130h3M105 130h2M113 130h1M119 130h1M6 131h1M15 131h1M17 131h1M37 131h1M47 131h1M50 131h3M56 131h2M70 131h1M79 131h1M81 131h1M100 131h5M113 131h1M5 132h1M15 132h1M18 132h1M22 132h1M36 132h1M46 132h1M49 132h4M56 132h2M69 132h1M79 132h1M82 132h1M86 132h1M100 132h1M103 132h2M113 132h1M4 133h1M14 133h1M18 133h1M22 133h1M35 133h1M45 133h1M49 133h4M56 133h2M68 133h1M78 133h1M82 133h1M86 133h1M99 133h1M113 133h1M115 133h1M4 134h1M14 134h1M18 134h2M22 134h1M35 134h1M44 134h1M49 134h4M68 134h1M78 134h1M82 134h2M86 134h1M99 134h1M112 134h1M116 134h1M5 135h1M13 135h1M16 135h1M36 135h1M42 135h1M44 135h2M69 135h1M77 135h1M80 135h1M100 135h2M112 135h1M6 136h1M13 136h1M15 136h1M37 136h1M39 136h3M70 136h1M77 136h1M79 136h1M101 136h3M112 136h1M114 136h1M7 137h2M12 137h1M16 137h1M38 137h2M44 137h1M71 137h2M76 137h1M80 137h1M101 137h6M112 137h1M116 137h1M9 138h4M16 138h3M38 138h3M44 138h3M73 138h4M80 138h3M102 138h12M116 138h3M18 139h1M38 139h2M46 139h1M82 139h1M118 139h1M12 145h2M19 145h2M76 145h2M83 145h2M10 146h2M21 146h2M44 146h2M51 146h2M74 146h2M85 146h2M108 146h2M115 146h2M9 147h1M23 147h1M42 147h2M53 147h2M73 147h1M87 147h1M106 147h2M117 147h2M9 148h1M23 148h1M41 148h1M55 148h1M73 148h1M87 148h1M105 148h1M119 148h1M8 149h1M24 149h1M41 149h1M55 149h1M72 149h1M88 149h1M105 149h1M119 149h1M8 150h1M24 150h1M40 150h1M56 150h1M72 150h1M88 150h1M104 150h1M120 150h1M7 151h1M25 151h1M40 151h1M56 151h1M71 151h1M89 151h1M104 151h1M120 151h1M7 152h1M25 152h1M39 152h1M57 152h1M71 152h1M89 152h1M103 152h1M121 152h1M7 153h1M25 153h1M39 153h1M57 153h1M71 153h1M89 153h1M103 153h1M121 153h1M7 154h1M25 154h1M39 154h1M57 154h1M71 154h1M89 154h1M103 154h1M121 154h1M39 155h1M57 155h1M103 155h1M121 155h1M12 156h1M20 156h1M76 156h1M84 156h1M12 157h1M20 157h1M38 157h1M44 157h1M52 157h1M76 157h1M84 157h1M108 157h1M116 157h1M122 157h1M8 158h1M12 158h1M20 158h1M43 158h1M51 158h1M72 158h1M76 158h1M84 158h1M109 158h1M117 158h1M8 159h1M12 159h1M20 159h1M39 159h1M43 159h1M51 159h1M72 159h1M76 159h1M84 159h1M105 159h1M109 159h1M117 159h1M8 160h1M12 160h1M20 160h1M39 160h1M43 160h1M51 160h1M72 160h1M76 160h1M84 160h1M105 160h1M109 160h1M117 160h1M9 161h1M11 161h2M15 161h3M20 161h2M23 161h1M38 161h1M42 161h1M50 161h1M73 161h1M75 161h2M79 161h3M84 161h2M87 161h1M106 161h1M110 161h1M118 161h1M7 162h1M9 162h1M12 162h1M15 162h3M20 162h1M23 162h1M25 162h1M39 162h1M41 162h2M45 162h3M50 162h2M53 162h1M71 162h1M73 162h1M76 162h1M79 162h3M84 162h1M87 162h1M89 162h1M107 162h1M109 162h2M113 162h3M118 162h2M121 162h1M10 163h1M12 163h1M15 163h2M20 163h1M22 163h1M37 163h1M39 163h1M42 163h1M45 163h3M50 163h1M53 163h1M55 163h1M74 163h1M76 163h1M79 163h2M84 163h1M86 163h1M105 163h1M107 163h1M110 163h1M113 163h3M118 163h1M121 163h1M123 163h1M10 164h1M12 164h1M14 164h3M18 164h1M20 164h1M22 164h1M40 164h1M42 164h1M45 164h2M50 164h1M52 164h1M74 164h1M76 164h1M78 164h3M82 164h1M84 164h1M86 164h1M108 164h1M110 164h1M113 164h2M118 164h1M120 164h1M11 165h1M14 165h3M18 165h1M21 165h1M40 165h1M42 165h1M44 165h3M48 165h1M50 165h1M52 165h1M75 165h1M78 165h3M82 165h1M85 165h1M108 165h1M110 165h1M112 165h3M116 165h1M118 165h1M120 165h1M9 166h1M13 166h1M16 166h1M19 166h1M23 166h1M41 166h1M44 166h3M48 166h1M51 166h1M73 166h1M77 166h1M80 166h1M83 166h1M87 166h1M109 166h1M112 166h3M116 166h1M119 166h1M9 167h1M23 167h1M41 167h1M43 167h1M46 167h1M49 167h4M73 167h1M87 167h1M108 167h4M114 167h1M117 167h1M119 167h1M9 168h1M23 168h1M41 168h1M45 168h1M47 168h1M49 168h5M73 168h1M87 168h1M107 168h5M113 168h1M115 168h1M119 168h1M41 169h1M45 169h9M107 169h9M119 169h1M48 170h5M108 170h5M48 171h5M108 171h5M49 172h4M108 172h4M50 173h3M108 173h3M8 174h1M24 174h1M41 174h1M50 174h2M72 174h1M88 174h1M109 174h2M119 174h1M8 175h1M24 175h1M40 175h1M50 175h1M54 175h1M72 175h1M88 175h1M106 175h1M110 175h1M120 175h1M8 176h1M24 176h1M40 176h1M50 176h1M72 176h1M88 176h1M110 176h1M120 176h1M7 177h1M25 177h1M40 177h1M50 177h1M56 177h1M71 177h1M89 177h1M104 177h1M110 177h1M120 177h1M7 178h1M25 178h1M40 178h1M50 178h1M56 178h1M71 178h1M89 178h1M104 178h1M110 178h1M120 178h1M7 179h1M25 179h1M39 179h1M50 179h1M56 179h2M71 179h1M89 179h1M103 179h2M110 179h1M121 179h1M6 180h1M26 180h1M39 180h1M49 180h2M54 180h2M57 180h1M70 180h1M90 180h1M103 180h1M105 180h2M110 180h2M121 180h1M6 181h1M26 181h1M39 181h1M49 181h2M52 181h3M56 181h2M70 181h1M90 181h1M103 181h2M106 181h3M110 181h2M121 181h1M6 182h2M25 182h2M39 182h2M49 182h3M57 182h1M70 182h2M89 182h2M103 182h1M109 182h3M120 182h2M6 183h1M26 183h1M39 183h1M56 183h1M70 183h1M90 183h1M104 183h1M121 183h1M6 184h1M26 184h1M39 184h1M54 184h2M70 184h1M90 184h1M105 184h2M121 184h1M7 185h3M23 185h3M40 185h4M47 185h2M71 185h3M87 185h3M112 185h2M117 185h4M10 186h2M14 186h2M17 186h2M21 186h2M43 186h1M45 186h1M74 186h2M78 186h2M81 186h2M85 186h2M115 186h1M117 186h1M10 187h1M15 187h1M17 187h1M22 187h1M43 187h2M74 187h1M79 187h1M81 187h1M86 187h1M116 187h2M11 188h1M14 188h1M18 188h1M21 188h1M75 188h1M78 188h1M82 188h1M85 188h1" />
<path stroke="#303030" d="M14 1h5M78 1h5M46 2h5M110 2h5M10 6h1M16 6h1M22 6h1M74 6h1M80 6h1M86 6h1M10 7h2M16 7h1M21 7h2M42 7h1M48 7h1M54 7h1M74 7h2M80 7h1M85 7h2M106 7h1M112 7h1M118 7h1M42 8h2M48 8h1M53 8h2M106 8h2M112 8h1M117 8h2M10 9h1M22 9h1M74 9h1M86 9h1M42 10h1M54 10h1M106 10h1M118 10h1M13 11h2M18 11h2M77 11h2M82 11h2M45 12h2M50 12h2M109 12h2M114 12h2M10 16h1M22 16h1M74 16h1M86 16h1M42 17h1M54 17h1M106 17h1M118 17h1M52 19h1M14 20h5M21 20h1M52 20h1M78 20h5M85 20h1M117 20h1M46 21h4M52 21h1M111 21h4M10 22h1M22 22h1M74 22h1M86 22h1M10 23h1M22 23h1M74 23h1M86 23h1M10 24h1M22 24h1M42 24h1M74 24h1M86 24h1M118 24h1M10 25h2M21 25h2M43 25h1M74 25h2M85 25h2M117 25h1M10 26h2M21 26h2M43 26h1M74 26h2M85 26h2M117 26h1M10 27h2M21 27h2M43 27h1M52 27h1M74 27h2M85 27h2M108 27h1M117 27h1M10 28h1M12 28h1M15 28h1M20 28h1M22 28h1M44 28h1M46 28h1M52 28h1M74 28h1M76 28h1M79 28h1M84 28h1M86 28h1M108 28h1M114 28h1M116 28h1M10 29h1M22 29h1M45 29h1M51 29h2M74 29h1M86 29h1M108 29h2M115 29h1M9 30h2M22 30h2M41 30h1M46 30h2M51 30h2M73 30h2M86 30h2M108 30h2M111 30h4M119 30h1M9 31h1M12 31h1M14 31h1M20 31h1M23 31h1M41 31h2M46 31h1M51 31h1M73 31h1M76 31h1M78 31h1M84 31h1M87 31h1M109 31h1M111 31h1M118 31h2M9 32h1M11 32h2M15 32h1M20 32h2M23 32h1M41 32h2M47 32h1M51 32h2M73 32h1M75 32h2M79 32h1M84 32h2M87 32h1M108 32h3M112 32h1M118 32h2M8 33h2M11 33h2M14 33h1M16 33h1M20 33h2M23 33h2M41 33h2M44 33h1M46 33h1M48 33h1M53 33h1M72 33h2M75 33h2M78 33h1M80 33h1M84 33h2M87 33h2M107 33h1M110 33h1M112 33h1M116 33h1M118 33h2M8 34h4M15 34h1M17 34h1M21 34h4M40 34h5M49 34h1M54 34h1M72 34h4M79 34h1M81 34h1M85 34h4M106 34h1M109 34h1M113 34h1M116 34h5M8 35h3M14 35h1M18 35h1M22 35h3M40 35h5M47 35h1M50 35h1M54 35h1M72 35h3M78 35h1M82 35h1M86 35h3M106 35h1M108 35h1M114 35h1M116 35h5M7 36h4M12 36h2M19 36h2M22 36h4M40 36h4M47 36h1M51 36h2M54 36h1M71 36h4M76 36h2M83 36h2M86 36h4M106 36h1M108 36h1M115 36h1M117 36h4M7 37h3M23 37h3M40 37h4M47 37h1M55 37h1M71 37h3M87 37h3M105 37h1M113 37h1M117 37h4M7 38h3M12 38h1M14 38h1M18 38h1M20 38h1M23 38h3M40 38h3M47 38h1M55 38h2M71 38h3M76 38h1M78 38h1M82 38h1M84 38h1M87 38h3M104 38h2M113 38h1M118 38h3M7 39h2M12 39h3M18 39h3M24 39h2M40 39h3M45 39h3M71 39h2M76 39h3M82 39h3M88 39h2M113 39h3M118 39h3M7 40h2M24 40h2M40 40h3M71 40h2M88 40h2M118 40h3M12 49h6M76 49h6M10 50h2M17 50h2M44 50h6M74 50h2M81 50h2M108 50h6M9 51h1M42 51h2M49 51h2M73 51h1M106 51h2M113 51h2M41 52h1M105 52h1M7 53h1M71 53h1M7 54h1M17 54h3M39 54h1M71 54h1M81 54h3M103 54h1M7 55h1M39 55h1M49 55h3M55 55h1M71 55h1M103 55h1M113 55h3M19 56h1M39 56h1M83 56h1M103 56h1M51 57h1M115 57h1M25 58h1M89 58h1M22 59h1M57 59h1M86 59h1M121 59h1M22 60h2M54 60h1M86 60h2M118 60h1M22 61h2M54 61h2M86 61h2M118 61h2M21 62h1M23 62h1M54 62h2M85 62h1M87 62h1M118 62h2M21 63h2M53 63h1M55 63h1M85 63h2M117 63h1M119 63h1M18 64h1M21 64h2M53 64h2M82 64h1M85 64h2M117 64h2M21 65h1M50 65h1M53 65h2M85 65h1M114 65h1M117 65h2M53 66h1M117 66h1M113 67h1M13 68h1M46 68h2M77 68h1M109 69h1M106 70h1M108 70h2M117 70h1M10 71h1M74 71h1M106 71h1M10 72h1M74 72h1M106 72h1M118 72h1M10 73h1M74 73h1M106 73h2M10 74h1M74 74h1M106 74h2M10 75h1M74 75h1M76 75h1M106 75h2M11 76h1M15 76h1M43 76h1M51 76h1M75 76h1M79 76h1M107 76h1M112 76h1M15 77h1M79 77h1M108 77h1M111 77h2M9 78h1M11 78h2M15 78h1M22 78h1M52 78h1M73 78h1M75 78h2M79 78h1M86 78h1M111 78h2M10 79h1M12 79h1M15 79h1M21 79h3M51 79h3M74 79h1M76 79h1M79 79h1M85 79h3M108 79h2M111 79h2M9 80h1M13 80h1M15 80h2M20 80h4M51 80h4M73 80h1M77 80h1M79 80h2M84 80h4M106 80h1M109 80h1M111 80h3M12 81h1M14 81h1M16 81h9M45 81h1M50 81h6M76 81h1M78 81h1M80 81h9M106 81h1M111 81h3M9 82h1M12 82h1M16 82h4M22 82h3M41 82h1M46 82h1M48 82h9M73 82h1M76 82h1M80 82h4M86 82h3M106 82h1M109 82h1M111 82h6M119 82h1M10 83h1M12 83h1M17 83h2M21 83h1M23 83h2M47 83h1M49 83h1M52 83h6M74 83h1M76 83h1M81 83h2M85 83h1M87 83h2M106 83h1M109 83h1M111 83h2M115 83h4M17 84h3M22 84h1M24 84h2M48 84h1M50 84h1M54 84h5M81 84h3M86 84h1M88 84h2M107 84h1M109 84h1M111 84h3M117 84h2M121 84h2M18 85h2M23 85h4M49 85h1M51 85h1M56 85h4M82 85h2M87 85h4M111 85h4M118 85h6M15 86h1M18 86h3M24 86h3M52 86h1M57 86h3M79 86h1M82 86h3M88 86h3M108 86h1M112 86h4M121 86h3M9 87h1M16 87h2M19 87h3M23 87h3M52 87h1M54 87h5M73 87h1M80 87h2M83 87h3M87 87h3M108 87h3M112 87h4M119 87h3M10 88h1M17 88h1M19 88h6M57 88h1M74 88h1M81 88h1M83 88h6M110 88h1M112 88h8M20 89h3M84 89h3M112 89h5M14 97h6M78 97h6M13 98h2M20 98h2M46 98h6M77 98h2M84 98h2M110 98h6M22 99h1M45 99h2M52 99h2M86 99h1M109 99h2M116 99h2M54 100h1M118 100h1M24 101h1M88 101h1M12 102h3M24 102h1M56 102h1M76 102h3M88 102h1M120 102h1M24 103h1M40 103h1M44 103h3M56 103h1M88 103h1M108 103h3M120 103h1M12 104h1M56 104h1M76 104h1M120 104h1M44 105h1M108 105h1M6 106h1M70 106h1M9 107h1M38 107h1M73 107h1M102 107h1M8 108h2M41 108h1M72 108h2M105 108h1M8 109h2M40 109h2M72 109h2M104 109h2M8 110h1M10 110h1M40 110h2M72 110h1M74 110h1M104 110h2M9 111h2M40 111h1M42 111h1M73 111h2M104 111h1M106 111h1M9 112h2M13 112h1M41 112h2M73 112h2M77 112h1M105 112h2M10 113h1M41 113h2M45 113h1M74 113h1M105 113h2M109 113h1M42 114h1M106 114h1M110 115h1M18 116h1M82 116h1M114 117h1M114 118h2M117 118h1M21 119h1M85 119h1M116 119h2M21 120h1M85 120h1M105 120h1M116 120h2M21 121h1M85 121h1M116 121h2M21 122h1M85 122h1M116 122h2M21 123h1M85 123h1M116 123h2M20 124h1M44 124h1M52 124h1M84 124h1M111 124h1M116 124h1M111 125h2M115 125h1M9 126h2M19 126h2M22 126h1M43 126h1M73 126h2M83 126h2M86 126h1M111 126h2M8 127h4M19 127h1M21 127h1M42 127h3M72 127h4M83 127h1M85 127h1M111 127h2M114 127h2M8 128h5M16 128h1M18 128h1M22 128h1M41 128h4M72 128h5M80 128h1M82 128h1M86 128h1M110 128h3M114 128h1M117 128h1M7 129h9M17 129h1M19 129h1M40 129h6M50 129h1M71 129h9M81 129h1M83 129h1M110 129h3M117 129h1M7 130h3M12 130h4M19 130h1M22 130h1M39 130h9M49 130h1M54 130h1M71 130h3M76 130h4M83 130h1M86 130h1M104 130h1M107 130h6M114 130h1M117 130h1M7 131h2M10 131h1M13 131h2M19 131h1M21 131h1M38 131h6M46 131h1M48 131h1M71 131h2M74 131h1M77 131h2M83 131h1M85 131h1M105 131h4M111 131h2M114 131h1M117 131h1M6 132h2M9 132h1M12 132h3M37 132h5M45 132h1M47 132h1M70 132h2M73 132h1M76 132h3M101 132h2M105 132h2M110 132h3M114 132h1M116 132h1M5 133h4M12 133h2M36 133h4M44 133h1M46 133h1M69 133h4M76 133h2M100 133h6M109 133h4M5 134h3M11 134h3M16 134h1M36 134h3M43 134h1M69 134h3M75 134h3M80 134h1M100 134h3M108 134h4M115 134h1M6 135h3M10 135h3M14 135h2M22 135h1M37 135h5M43 135h1M70 135h3M74 135h3M78 135h2M86 135h1M102 135h3M108 135h4M113 135h3M7 136h6M14 136h1M21 136h1M38 136h1M71 136h6M78 136h1M85 136h1M104 136h8M113 136h1M9 137h3M73 137h3M107 137h5M14 145h5M78 145h5M46 146h5M110 146h5M23 152h1M41 152h1M87 152h1M24 153h1M40 153h1M55 153h1M88 153h1M119 153h2M8 154h1M24 154h1M40 154h1M56 154h1M72 154h1M88 154h1M120 154h1M7 155h1M12 155h1M20 155h1M22 155h2M25 155h1M56 155h1M71 155h1M76 155h1M84 155h1M86 155h2M89 155h1M104 155h1M120 155h1M7 156h1M9 156h1M11 156h1M14 156h1M18 156h2M21 156h5M39 156h1M44 156h1M52 156h1M54 156h2M57 156h1M71 156h1M73 156h1M75 156h1M78 156h1M82 156h2M85 156h5M103 156h1M108 156h1M116 156h1M118 156h2M121 156h1M7 157h1M9 157h1M11 157h1M14 157h1M18 157h2M21 157h5M39 157h1M41 157h1M43 157h1M46 157h1M50 157h2M53 157h5M71 157h1M73 157h1M75 157h1M78 157h1M82 157h2M85 157h5M103 157h1M105 157h1M107 157h1M110 157h1M114 157h2M117 157h5M7 158h1M9 158h1M11 158h1M14 158h2M18 158h2M21 158h5M38 158h1M40 158h1M42 158h1M45 158h1M49 158h2M52 158h5M71 158h1M73 158h1M75 158h1M78 158h2M82 158h2M85 158h5M104 158h1M106 158h1M108 158h1M111 158h1M115 158h2M118 158h5M7 159h1M9 159h1M11 159h1M14 159h2M17 159h3M21 159h5M38 159h1M40 159h1M42 159h1M45 159h2M49 159h2M52 159h5M71 159h1M73 159h1M75 159h1M78 159h2M81 159h3M85 159h5M104 159h1M106 159h1M108 159h1M111 159h2M115 159h2M118 159h5M7 160h1M9 160h1M11 160h1M14 160h2M17 160h3M21 160h5M38 160h1M40 160h1M42 160h1M45 160h2M48 160h3M52 160h5M71 160h1M73 160h1M75 160h1M78 160h2M81 160h3M85 160h5M104 160h1M106 160h1M108 160h1M111 160h2M114 160h3M118 160h5M7 161h1M14 161h1M18 161h2M22 161h1M25 161h1M37 161h1M39 161h1M41 161h1M44 161h2M47 161h3M51 161h5M71 161h1M78 161h1M82 161h2M86 161h1M89 161h1M105 161h1M107 161h1M109 161h1M112 161h2M115 161h3M119 161h5M10 162h1M13 162h2M18 162h2M22 162h1M37 162h1M44 162h1M48 162h2M52 162h1M55 162h1M74 162h1M77 162h2M82 162h2M86 162h1M105 162h1M112 162h1M116 162h2M120 162h1M123 162h1M13 163h2M18 163h2M40 163h1M43 163h2M48 163h2M52 163h1M77 163h2M82 163h2M108 163h1M111 163h2M116 163h2M120 163h1M13 164h1M19 164h1M43 164h2M48 164h2M77 164h1M83 164h1M111 164h2M116 164h2M13 165h1M19 165h1M43 165h1M49 165h1M77 165h1M83 165h1M111 165h1M117 165h1M10 166h3M20 166h3M43 166h1M49 166h1M74 166h3M84 166h3M111 166h1M117 166h1M10 167h4M15 167h1M17 167h1M19 167h4M42 167h1M74 167h4M79 167h1M81 167h1M83 167h4M118 167h1M10 168h13M42 168h2M74 168h13M117 168h2M10 169h13M42 169h3M74 169h13M116 169h3M10 170h13M42 170h6M74 170h13M113 170h6M10 171h13M42 171h6M74 171h13M113 171h6M10 172h13M42 172h7M74 172h13M112 172h7M11 173h12M42 173h8M75 173h12M111 173h8M9 174h1M12 174h12M42 174h8M52 174h2M73 174h1M76 174h12M107 174h2M111 174h8M13 175h10M41 175h1M44 175h6M51 175h3M77 175h10M107 175h3M111 175h6M119 175h1M14 176h10M41 176h1M46 176h4M51 176h4M78 176h10M106 176h4M111 176h4M119 176h1M8 177h1M15 177h8M24 177h1M41 177h1M48 177h2M51 177h5M72 177h1M79 177h8M88 177h1M105 177h5M111 177h2M119 177h1M8 178h1M15 178h3M19 178h5M43 178h1M49 178h1M51 178h5M72 178h1M79 178h3M83 178h5M105 178h5M111 178h1M117 178h1M16 179h2M20 179h3M24 179h1M40 179h1M43 179h1M49 179h1M51 179h5M80 179h2M84 179h3M88 179h1M105 179h5M111 179h1M117 179h1M120 179h1M7 180h1M19 180h1M21 180h3M25 180h1M40 180h1M43 180h1M51 180h3M56 180h1M71 180h1M83 180h1M85 180h3M89 180h1M104 180h1M107 180h3M117 180h1M120 180h1M7 181h1M10 181h1M20 181h6M40 181h1M43 181h1M51 181h1M55 181h1M71 181h1M74 181h1M84 181h6M105 181h1M109 181h1M117 181h1M120 181h1M9 182h3M19 182h1M21 182h3M42 182h2M46 182h3M52 182h5M73 182h3M83 182h1M85 182h3M104 182h5M112 182h3M117 182h2M7 183h5M16 183h1M18 183h1M20 183h6M40 183h16M71 183h5M80 183h1M82 183h1M84 183h6M105 183h16M7 184h7M16 184h1M19 184h1M21 184h5M40 184h4M48 184h6M71 184h7M80 184h1M83 184h1M85 184h5M107 184h6M117 184h4M10 185h13M74 185h13" />
<path stroke="#3f3f3f" d="M12 2h1M15 2h3M20 2h1M76 2h1M79 2h3M84 2h1M10 3h1M16 3h1M22 3h1M44 3h1M47 3h3M52 3h1M74 3h1M80 3h1M86 3h1M108 3h1M111 3h3M116 3h1M42 4h1M48 4h1M54 4h1M106 4h1M112 4h1M118 4h1M12 5h1M14 5h1M16 5h1M18 5h1M20 5h1M41 5h1M52 5h1M76 5h1M78 5h1M80 5h1M82 5h1M84 5h1M108 5h1M119 5h1M44 6h1M46 6h1M48 6h1M50 6h1M52 6h1M55 6h1M105 6h1M108 6h1M110 6h1M112 6h1M114 6h1M116 6h1M8 7h1M24 7h1M40 7h1M72 7h1M88 7h1M120 7h1M8 8h2M23 8h2M72 8h2M87 8h2M8 9h1M24 9h1M41 9h1M55 9h2M72 9h1M88 9h1M104 9h2M119 9h1M8 10h1M24 10h1M39 10h1M56 10h1M72 10h1M88 10h1M104 10h1M121 10h1M39 11h2M120 11h2M39 12h1M121 12h1M38 13h2M121 13h2M38 14h1M122 14h1M38 15h1M122 15h1M38 16h1M122 16h1M12 50h1M16 50h1M19 50h1M76 50h1M80 50h1M83 50h1M10 51h1M15 51h1M21 51h1M44 51h1M48 51h1M51 51h1M74 51h1M79 51h1M85 51h1M108 51h1M112 51h1M115 51h1M8 52h1M12 52h4M22 52h1M42 52h1M47 52h1M53 52h1M72 52h1M76 52h4M86 52h1M106 52h1M111 52h1M117 52h1M40 53h1M44 53h4M54 53h1M104 53h1M108 53h4M118 53h1M23 54h1M87 54h1M20 55h1M84 55h1M119 55h1M21 56h1M52 56h1M55 56h1M85 56h1M116 56h1M21 57h1M24 57h1M53 57h1M85 57h1M88 57h1M117 57h1M120 57h1M22 58h1M24 58h1M53 58h1M86 58h1M88 58h1M117 58h2M120 58h1M20 59h2M24 59h1M53 59h2M84 59h2M88 59h1M118 59h3M21 60h1M52 60h2M56 60h1M85 60h1M116 60h2M120 60h1M53 61h1M117 61h1M12 98h1M15 98h1M19 98h1M76 98h1M79 98h1M83 98h1M10 99h1M16 99h1M21 99h1M44 99h1M47 99h1M51 99h1M74 99h1M80 99h1M85 99h1M108 99h1M111 99h1M115 99h1M9 100h1M16 100h4M23 100h1M42 100h1M48 100h1M53 100h1M73 100h1M80 100h4M87 100h1M106 100h1M112 100h1M117 100h1M41 101h1M48 101h4M55 101h1M105 101h1M112 101h4M119 101h1M8 102h1M72 102h1M11 103h1M75 103h1M104 103h1M10 104h1M40 104h1M43 104h1M74 104h1M107 104h1M7 105h1M10 105h1M42 105h1M71 105h1M74 105h1M103 105h1M106 105h1M7 106h1M9 106h1M42 106h1M71 106h1M73 106h1M103 106h1M105 106h2M7 107h1M10 107h2M41 107h2M71 107h1M74 107h2M103 107h3M10 108h1M39 108h1M42 108h2M74 108h1M103 108h1M106 108h2M42 109h1M106 109h1M12 146h1M15 146h3M20 146h1M76 146h1M79 146h3M84 146h1M10 147h1M14 147h1M16 147h1M18 147h1M22 147h1M44 147h1M47 147h3M52 147h1M74 147h1M78 147h1M80 147h1M82 147h1M86 147h1M108 147h1M111 147h3M116 147h1M42 148h1M46 148h1M48 148h1M50 148h1M54 148h1M106 148h1M110 148h1M112 148h1M114 148h1M118 148h1M10 150h1M22 150h1M74 150h1M86 150h1M8 151h1M23 151h2M42 151h1M54 151h1M72 151h1M87 151h2M106 151h1M118 151h1M8 152h2M19 152h1M24 152h1M40 152h1M55 152h2M72 152h2M83 152h1M88 152h1M104 152h1M119 152h2M8 153h1M19 153h2M22 153h2M41 153h1M51 153h1M56 153h1M72 153h1M83 153h2M86 153h2M104 153h2M115 153h1M10 154h1M12 154h1M14 154h1M18 154h3M22 154h2M51 154h2M54 154h2M74 154h1M76 154h1M78 154h1M82 154h3M86 154h2M104 154h1M115 154h2M118 154h2M9 155h3M14 155h2M17 155h3M21 155h1M24 155h1M40 155h1M42 155h1M44 155h1M46 155h1M50 155h3M54 155h2M73 155h3M78 155h2M81 155h3M85 155h1M88 155h1M106 155h1M108 155h1M110 155h1M114 155h3M118 155h2M10 156h1M15 156h3M41 156h3M46 156h2M49 156h3M53 156h1M56 156h1M74 156h1M79 156h3M105 156h3M110 156h2M113 156h3M117 156h1M120 156h1M10 157h1M15 157h3M42 157h1M47 157h3M74 157h1M79 157h3M106 157h1M111 157h3M10 158h1M13 158h1M16 158h2M41 158h1M46 158h3M74 158h1M77 158h1M80 158h2M107 158h1M112 158h3M10 159h1M13 159h1M16 159h1M41 159h1M44 159h1M47 159h2M74 159h1M77 159h1M80 159h1M107 159h1M110 159h1M113 159h2M10 160h1M13 160h1M16 160h1M41 160h1M44 160h1M47 160h1M74 160h1M77 160h1M80 160h1M107 160h1M110 160h1M113 160h1M10 161h1M13 161h1M40 161h1M43 161h1M46 161h1M74 161h1M77 161h1M108 161h1M111 161h1M114 161h1M40 162h1M43 162h1M108 162h1M111 162h1" />
<path stroke="#474747" d="M13 2h2M18 2h2M77 2h2M82 2h2M14 3h2M17 3h2M45 3h2M50 3h2M78 3h2M81 3h2M109 3h2M114 3h2M12 4h9M46 4h2M49 4h2M76 4h9M110 4h2M113 4h2M9 5h1M11 5h1M13 5h1M15 5h1M17 5h1M19 5h1M21 5h1M23 5h1M44 5h8M73 5h1M75 5h1M77 5h1M79 5h1M81 5h1M83 5h1M85 5h1M87 5h1M109 5h8M11 6h1M15 6h1M17 6h1M21 6h1M41 6h1M43 6h1M45 6h1M47 6h1M49 6h1M51 6h1M53 6h1M75 6h1M79 6h1M81 6h1M85 6h1M107 6h1M109 6h1M111 6h1M113 6h1M115 6h1M117 6h1M119 6h1M9 7h1M23 7h1M43 7h1M47 7h1M49 7h1M53 7h1M73 7h1M87 7h1M107 7h1M111 7h1M113 7h1M117 7h1M40 8h2M55 8h1M105 8h1M119 8h2M40 9h1M120 9h1M40 10h1M120 10h1M12 11h1M20 11h1M76 11h1M84 11h1M44 12h1M52 12h1M108 12h1M116 12h1M15 21h4M79 21h4M16 22h3M47 22h3M80 22h3M111 22h4M48 23h2M112 23h3M14 25h1M18 25h1M42 25h1M78 25h1M82 25h1M118 25h1M14 26h2M18 26h1M42 26h1M46 26h1M49 26h1M78 26h2M82 26h1M114 26h1M118 26h1M15 27h2M42 27h1M46 27h2M79 27h2M111 27h1M118 27h1M11 28h1M21 28h1M42 28h2M75 28h1M85 28h1M117 28h2M11 29h2M20 29h2M42 29h3M75 29h2M84 29h2M116 29h3M11 30h2M14 30h5M20 30h2M42 30h3M48 30h2M75 30h2M78 30h5M84 30h2M116 30h3M10 31h2M15 31h1M21 31h2M43 31h2M47 31h2M74 31h2M79 31h1M85 31h2M112 31h3M116 31h2M10 32h1M16 32h1M22 32h1M43 32h2M48 32h2M74 32h1M80 32h1M86 32h1M113 32h2M116 32h2M10 33h1M17 33h1M22 33h1M43 33h1M49 33h2M74 33h1M81 33h1M86 33h1M109 33h1M113 33h2M117 33h1M14 34h1M18 34h1M50 34h3M78 34h1M82 34h1M108 34h1M114 34h1M12 35h2M19 35h2M51 35h2M76 35h2M83 35h2M15 50h1M79 50h1M13 51h2M16 51h1M20 51h1M47 51h1M77 51h2M80 51h1M84 51h1M111 51h1M9 52h1M11 52h1M16 52h3M45 52h2M48 52h1M52 52h1M73 52h1M75 52h1M80 52h3M109 52h2M112 52h1M116 52h1M9 53h1M15 53h1M19 53h1M41 53h1M43 53h1M48 53h3M73 53h1M79 53h1M83 53h1M105 53h1M107 53h1M112 53h3M9 54h1M13 54h1M20 54h1M41 54h1M47 54h1M51 54h1M73 54h1M77 54h1M84 54h1M105 54h1M111 54h1M115 54h1M9 55h1M11 55h2M18 55h2M21 55h1M23 55h1M41 55h1M45 55h1M52 55h1M73 55h1M75 55h2M82 55h2M85 55h1M87 55h1M105 55h1M109 55h1M116 55h1M9 56h1M22 56h2M41 56h1M43 56h2M50 56h2M53 56h1M73 56h1M86 56h2M105 56h1M107 56h2M114 56h2M117 56h1M119 56h1M22 57h2M41 57h1M54 57h2M86 57h2M105 57h1M118 57h2M20 58h2M23 58h1M54 58h2M84 58h2M87 58h1M119 58h1M12 59h1M15 59h1M52 59h1M55 59h1M76 59h1M79 59h1M116 59h2M44 60h1M47 60h1M108 60h1M111 60h1M12 69h2M76 69h2M12 70h2M44 70h1M76 70h2M44 71h1M109 71h1M13 73h1M44 73h1M76 73h2M76 74h2M77 75h1M108 75h1M13 78h1M77 78h1M13 79h1M77 79h1M10 80h2M74 80h2M107 80h1M9 81h3M42 81h1M73 81h3M107 81h1M10 82h1M20 82h2M74 82h1M84 82h2M107 82h1M11 83h1M19 83h2M22 83h1M50 83h2M75 83h1M83 83h2M86 83h1M107 83h1M113 83h2M20 84h2M23 84h1M51 84h3M84 84h2M87 84h1M114 84h3M20 85h3M52 85h4M84 85h3M115 85h3M21 86h3M53 86h4M85 86h3M116 86h5M22 87h1M86 87h1M116 87h3M16 98h1M80 98h1M11 99h1M15 99h1M17 99h2M48 99h1M75 99h1M79 99h1M81 99h2M112 99h1M13 100h3M20 100h1M22 100h1M43 100h1M47 100h1M49 100h2M77 100h3M84 100h1M86 100h1M107 100h1M111 100h1M113 100h2M12 101h1M16 101h1M22 101h1M45 101h3M52 101h1M54 101h1M76 101h1M80 101h1M86 101h1M109 101h3M116 101h1M118 101h1M11 102h1M18 102h1M22 102h1M44 102h1M48 102h1M54 102h1M75 102h1M82 102h1M86 102h1M108 102h1M112 102h1M118 102h1M8 103h1M10 103h1M12 103h2M19 103h2M22 103h1M43 103h1M50 103h1M54 103h1M72 103h1M74 103h1M76 103h2M83 103h2M86 103h1M107 103h1M114 103h1M118 103h1M8 104h2M22 104h1M42 104h1M44 104h2M51 104h2M54 104h1M72 104h2M86 104h1M104 104h1M106 104h1M108 104h2M115 104h2M118 104h1M8 105h2M40 105h2M54 105h1M72 105h2M104 105h2M118 105h1M8 106h1M10 106h2M40 106h2M72 106h1M74 106h2M104 106h1M16 107h1M19 107h1M40 107h1M43 107h1M80 107h1M83 107h1M106 107h2M48 108h1M51 108h1M112 108h1M115 108h1M18 117h2M82 117h2M18 118h2M51 118h1M82 118h2M51 119h1M114 119h2M19 121h1M51 121h1M83 121h1M114 122h2M115 123h1M18 126h1M82 126h1M18 127h1M82 127h1M20 128h2M84 128h2M116 128h1M20 129h3M53 129h1M84 129h3M116 129h1M10 130h2M21 130h1M74 130h2M85 130h1M116 130h1M9 131h1M11 131h2M20 131h1M44 131h2M73 131h1M75 131h2M84 131h1M109 131h2M116 131h1M8 132h1M10 132h2M42 132h3M72 132h1M74 132h2M107 132h3M9 133h3M40 133h4M73 133h3M106 133h3M8 134h3M39 134h4M72 134h3M103 134h5M9 135h1M73 135h1M105 135h3M13 146h2M18 146h2M77 146h2M82 146h2M13 147h1M15 147h1M17 147h1M19 147h1M45 147h2M50 147h2M77 147h1M79 147h1M81 147h1M83 147h1M109 147h2M114 147h2M12 148h2M15 148h3M19 148h2M45 148h1M47 148h1M49 148h1M51 148h1M76 148h2M79 148h3M83 148h2M109 148h1M111 148h1M113 148h1M115 148h1M9 149h1M11 149h2M20 149h2M23 149h1M44 149h2M47 149h3M51 149h2M73 149h1M75 149h2M84 149h2M87 149h1M108 149h2M111 149h3M115 149h2M11 150h1M21 150h1M41 150h1M43 150h1M52 150h2M55 150h1M75 150h1M85 150h1M105 150h1M107 150h2M117 150h1M119 150h1M9 151h1M53 151h1M73 151h1M107 151h1M105 152h1M10 173h1M74 173h1M10 174h2M74 174h2M9 175h4M23 175h1M42 175h2M73 175h4M87 175h1M117 175h2M9 176h5M42 176h4M73 176h5M115 176h4M9 177h6M23 177h1M42 177h6M73 177h6M87 177h1M113 177h6M9 178h6M18 178h1M24 178h1M41 178h2M44 178h5M73 178h6M82 178h1M88 178h1M112 178h5M118 178h2M8 179h8M18 179h2M23 179h1M41 179h2M44 179h5M72 179h8M82 179h2M87 179h1M112 179h5M118 179h2M8 180h11M20 180h1M24 180h1M41 180h2M44 180h5M72 180h11M84 180h1M88 180h1M112 180h5M118 180h2M8 181h2M11 181h9M41 181h2M44 181h5M72 181h2M75 181h9M112 181h5M118 181h2M8 182h1M12 182h7M20 182h1M24 182h1M41 182h1M44 182h2M72 182h1M76 182h7M84 182h1M88 182h1M115 182h2M119 182h1M12 183h4M17 183h1M19 183h1M76 183h4M81 183h1M83 183h1M14 184h2M17 184h2M20 184h1M44 184h4M78 184h2M81 184h2M84 184h1M113 184h4" />
<path stroke="#6a6a6a" d="M11 3h3M19 3h3M75 3h3M83 3h3M11 4h1M21 4h1M43 4h3M51 4h3M75 4h1M85 4h1M107 4h3M115 4h3M10 5h1M22 5h1M43 5h1M53 5h1M74 5h1M86 5h1M107 5h1M117 5h1M9 6h1M23 6h1M42 6h1M54 6h1M73 6h1M87 6h1M106 6h1M118 6h1M41 7h1M55 7h1M105 7h1M119 7h1M13 50h2M77 50h2M11 51h2M17 51h3M45 51h2M75 51h2M81 51h3M109 51h2M10 52h1M19 52h3M43 52h2M49 52h3M74 52h1M83 52h3M107 52h2M113 52h3M17 53h2M20 53h1M22 53h1M42 53h1M51 53h3M81 53h2M84 53h1M86 53h1M106 53h1M115 53h3M21 54h1M49 54h2M52 54h1M54 54h1M85 54h1M113 54h2M116 54h1M118 54h1M22 55h1M53 55h1M86 55h1M117 55h1M20 56h1M54 56h1M84 56h1M118 56h1M20 57h1M52 57h1M84 57h1M116 57h1M52 58h1M116 58h1M17 98h2M81 98h2M12 99h3M19 99h2M49 99h2M76 99h3M83 99h2M113 99h2M10 100h3M21 100h1M44 100h3M51 100h2M74 100h3M85 100h1M108 100h3M115 100h2M9 101h1M11 101h1M13 101h2M42 101h3M53 101h1M73 101h1M75 101h1M77 101h2M106 101h3M117 101h1M10 102h1M41 102h1M43 102h1M45 102h2M74 102h1M105 102h1M107 102h1M109 102h2M9 103h1M42 103h1M73 103h1M106 103h1M11 104h1M41 104h1M75 104h1M105 104h1M11 105h1M43 105h1M75 105h1M107 105h1M43 106h1M107 106h1M11 147h2M20 147h2M75 147h2M84 147h2M11 148h1M14 148h1M18 148h1M21 148h1M43 148h2M52 148h2M75 148h1M78 148h1M82 148h1M85 148h1M107 148h2M116 148h2M10 149h1M13 149h7M22 149h1M43 149h1M46 149h1M50 149h1M53 149h1M74 149h1M77 149h7M86 149h1M107 149h1M110 149h1M114 149h1M117 149h1M9 150h1M13 150h1M15 150h3M19 150h1M23 150h1M42 150h1M44 150h8M54 150h1M73 150h1M77 150h1M79 150h3M83 150h1M87 150h1M106 150h1M109 150h8M118 150h1M10 151h1M13 151h7M22 151h1M41 151h1M43 151h1M47 151h3M51 151h1M55 151h1M74 151h1M77 151h7M86 151h1M105 151h1M109 151h1M111 151h3M117 151h1M119 151h1M10 152h1M12 152h2M15 152h3M20 152h1M22 152h1M42 152h1M45 152h7M54 152h1M74 152h1M76 152h2M79 152h3M84 152h1M86 152h1M106 152h1M109 152h7M118 152h1M9 153h6M18 153h1M21 153h1M42 153h1M44 153h2M47 153h3M52 153h1M54 153h1M73 153h6M82 153h1M85 153h1M106 153h1M108 153h2M111 153h3M116 153h1M118 153h1M9 154h1M11 154h1M13 154h1M15 154h3M21 154h1M41 154h6M50 154h1M53 154h1M73 154h1M75 154h1M77 154h1M79 154h3M85 154h1M105 154h6M114 154h1M117 154h1M8 155h1M13 155h1M16 155h1M41 155h1M43 155h1M45 155h1M47 155h3M53 155h1M72 155h1M77 155h1M80 155h1M105 155h1M107 155h1M109 155h1M111 155h3M117 155h1M8 156h1M13 156h1M40 156h1M45 156h1M48 156h1M72 156h1M77 156h1M104 156h1M109 156h1M112 156h1M8 157h1M13 157h1M40 157h1M45 157h1M72 157h1M77 157h1M104 157h1M109 157h1M39 158h1M44 158h1M105 158h1M110 158h1" />
<path stroke="#828282" d="M10 4h1M22 4h1M74 4h1M86 4h1M42 5h1M54 5h1M106 5h1M118 5h1M21 53h1M85 53h1M22 54h1M53 54h1M86 54h1M117 54h1M54 55h1M118 55h1M10 101h1M74 101h1M9 102h1M42 102h1M73 102h1M106 102h1M41 103h1M105 103h1M10 148h1M22 148h1M74 148h1M86 148h1M42 149h1M54 149h1M106 149h1M118 149h1M12 150h1M14 150h1M18 150h1M20 150h1M76 150h1M78 150h1M82 150h1M84 150h1M11 151h2M20 151h2M44 151h3M50 151h1M52 151h1M75 151h2M84 151h2M108 151h1M110 151h1M114 151h3M11 152h1M14 152h1M18 152h1M21 152h1M43 152h2M52 152h2M75 152h1M78 152h1M82 152h1M85 152h1M107 152h2M116 152h2M15 153h3M43 153h1M46 153h1M50 153h1M53 153h1M79 153h3M107 153h1M110 153h1M114 153h1M117 153h1M47 154h3M111 154h3" />
<path stroke="#5a5a5a" d="M12 6h1M20 6h1M76 6h1M84 6h1M14 7h1M18 7h1M44 7h1M52 7h1M78 7h1M82 7h1M108 7h1M116 7h1M10 8h1M22 8h1M46 8h1M50 8h1M74 8h1M86 8h1M110 8h1M114 8h1M42 9h1M54 9h1M106 9h1M118 9h1M10 10h1M22 10h1M74 10h1M86 10h1M42 11h1M54 11h1M106 11h1M118 11h1M16 23h3M80 23h3M17 24h2M48 24h1M81 24h2M112 24h3M113 25h2M14 27h1M78 27h1M16 31h3M49 31h1M80 31h3M17 32h2M50 32h1M81 32h2M18 33h1M51 33h1M82 33h1M13 34h1M19 34h1M77 34h1M83 34h1M11 53h4M75 53h4M11 54h2M43 54h4M75 54h2M107 54h4M43 55h2M107 55h2M13 59h2M77 59h2M45 60h2M109 60h2M13 72h1M44 72h1M77 72h1M108 76h1M11 82h1M75 82h1M17 101h4M81 101h4M19 102h2M49 102h4M83 102h2M113 102h4M51 103h2M115 103h2M17 107h2M81 107h2M49 108h2M113 108h2M51 120h1M115 124h1M20 130h1M84 130h1" />
<path stroke="#262626" d="M13 6h2M18 6h2M77 6h2M82 6h2M15 7h1M17 7h1M45 7h2M50 7h2M79 7h1M81 7h1M109 7h2M114 7h2M47 8h1M49 8h1M111 8h1M113 8h1M9 11h2M22 11h2M73 11h2M86 11h2M41 12h2M54 12h2M105 12h2M118 12h2M14 21h1M78 21h1M15 22h1M46 22h1M79 22h1M15 23h1M47 23h1M79 23h1M111 23h1M16 24h1M47 24h1M57 24h1M80 24h1M103 24h1M111 24h1M17 25h1M48 25h1M56 25h1M81 25h1M104 25h1M112 25h1M54 26h1M106 26h1M113 26h1M114 27h1M14 28h1M16 28h1M18 28h1M47 28h1M78 28h1M80 28h1M111 28h1M113 28h1M8 53h1M10 53h1M16 53h1M72 53h1M74 53h1M80 53h1M8 54h1M10 54h1M14 54h3M40 54h1M42 54h1M48 54h1M72 54h1M74 54h1M78 54h3M104 54h1M106 54h1M112 54h1M8 55h1M17 55h1M40 55h1M42 55h1M46 55h3M72 55h1M81 55h1M104 55h1M106 55h1M110 55h3M8 56h1M18 56h1M40 56h1M49 56h1M72 56h1M82 56h1M104 56h1M113 56h1M8 57h2M18 57h2M40 57h1M50 57h1M72 57h2M82 57h2M104 57h1M114 57h1M9 58h1M19 58h1M40 58h2M50 58h2M73 58h1M83 58h1M104 58h2M114 58h2M41 59h1M51 59h1M105 59h1M115 59h1M11 70h1M11 71h1M108 71h1M12 72h1M43 72h1M108 72h1M12 73h1M43 73h1M109 73h1M13 74h1M19 74h1M44 74h1M83 74h1M109 74h1M13 75h1M44 75h1M49 75h2M12 76h1M50 76h1M76 76h1M113 76h1M107 77h1M109 77h1M15 101h1M21 101h1M23 101h1M79 101h1M85 101h1M87 101h1M15 102h3M21 102h1M23 102h1M47 102h1M53 102h1M55 102h1M79 102h3M85 102h1M87 102h1M111 102h1M117 102h1M119 102h1M14 103h1M23 103h1M47 103h3M53 103h1M55 103h1M78 103h1M87 103h1M111 103h3M117 103h1M119 103h1M13 104h1M23 104h1M46 104h1M55 104h1M77 104h1M87 104h1M110 104h1M119 104h1M12 105h2M22 105h2M45 105h1M55 105h1M76 105h2M86 105h2M109 105h1M119 105h1M12 106h1M22 106h1M44 106h2M54 106h2M76 106h1M86 106h1M108 106h2M118 106h2M44 107h1M54 107h1M108 107h1M118 107h1M18 119h1M82 119h1M18 120h1M82 120h1M18 121h1M82 121h1M12 122h1M19 122h1M51 122h1M76 122h1M83 122h1M19 123h1M45 123h2M51 123h1M83 123h1M114 123h1M19 124h1M45 124h1M83 124h1M110 124h1M114 124h1M114 125h1M116 125h1" />
<path stroke="#e8a08d" d="M12 7h2M19 7h2M76 7h2M83 7h2M11 8h1M21 8h1M44 8h2M51 8h2M75 8h1M85 8h1M108 8h2M115 8h2M11 9h1M21 9h1M43 9h1M53 9h1M75 9h1M85 9h1M107 9h1M117 9h1M11 10h1M43 10h1M53 10h1M75 10h1M107 10h1M117 10h1M43 11h1M107 11h1M9 12h1M23 12h1M73 12h1M87 12h1M41 13h1M55 13h1M105 13h1M119 13h1M13 17h1M19 17h1M77 17h1M83 17h1M45 18h1M51 18h1M109 18h1M115 18h1M5 30h1M27 30h1M69 30h1M91 30h1M10 55h1M13 55h1M16 55h1M74 55h1M77 55h1M80 55h1M17 56h1M42 56h1M45 56h1M48 56h1M81 56h1M106 56h1M109 56h1M112 56h1M17 57h1M49 57h1M81 57h1M113 57h1M17 58h1M49 58h1M81 58h1M113 58h1M10 59h1M49 59h1M74 59h1M113 59h1M10 60h1M42 60h1M74 60h1M106 60h1M18 61h2M42 61h1M82 61h2M106 61h1M9 62h1M18 62h1M50 62h2M73 62h1M82 62h1M114 62h2M9 63h1M18 63h2M41 63h1M50 63h1M73 63h1M82 63h2M105 63h1M114 63h1M17 64h1M41 64h1M50 64h2M81 64h1M105 64h1M114 64h2M11 65h1M16 65h1M49 65h1M75 65h1M80 65h1M113 65h1M43 66h1M48 66h1M107 66h1M112 66h1M19 79h1M83 79h1M49 80h1M118 80h1M15 103h1M18 103h1M21 103h1M79 103h1M82 103h1M85 103h1M14 104h1M47 104h1M50 104h1M53 104h1M78 104h1M111 104h1M114 104h1M117 104h1M14 105h1M46 105h1M78 105h1M110 105h1M14 106h1M46 106h1M78 106h1M110 106h1M21 107h1M46 107h1M85 107h1M110 107h1M21 108h1M53 108h1M85 108h1M117 108h1M12 109h2M53 109h1M76 109h2M117 109h1M13 110h1M22 110h1M44 110h2M77 110h1M86 110h1M108 110h2M12 111h2M22 111h1M45 111h1M54 111h1M76 111h2M86 111h1M109 111h1M118 111h1M14 112h1M44 112h2M54 112h1M78 112h1M108 112h2M118 112h1M15 113h1M20 113h1M46 113h1M79 113h1M84 113h1M110 113h1M47 114h1M52 114h1M111 114h1M116 114h1M13 127h1M77 127h1M46 128h1M105 128h1M58 171h1M102 171h1M38 172h1M40 172h1M120 172h1M122 172h1M39 173h2M56 173h1M104 173h1M120 173h2M5 174h1M27 174h1M69 174h1M91 174h1M58 175h1M102 175h1" />
<path stroke="#ffc89b" d="M12 8h1M20 8h1M76 8h1M84 8h1M44 9h1M52 9h1M108 9h1M116 9h1M11 12h1M21 12h1M75 12h1M85 12h1M9 13h1M23 13h1M43 13h1M53 13h1M73 13h1M87 13h1M107 13h1M117 13h1M41 14h1M55 14h1M105 14h1M119 14h1M11 15h1M21 15h1M75 15h1M85 15h1M12 16h1M20 16h1M43 16h1M53 16h1M76 16h1M84 16h1M107 16h1M117 16h1M14 17h5M44 17h1M52 17h1M78 17h5M108 17h1M116 17h1M46 18h5M110 18h5M7 28h1M25 28h1M40 28h1M71 28h1M89 28h1M120 28h1M5 29h1M7 29h1M25 29h1M27 29h1M69 29h1M71 29h1M89 29h1M91 29h1M55 30h1M105 30h1M55 31h1M57 31h1M103 31h1M105 31h1M14 55h2M78 55h2M10 56h1M16 56h1M46 56h2M74 56h1M80 56h1M110 56h2M10 57h1M16 57h1M42 57h1M48 57h1M74 57h1M80 57h1M106 57h1M112 57h1M10 58h1M42 58h1M48 58h1M74 58h1M106 58h1M112 58h1M17 59h1M42 59h1M81 59h1M106 59h1M17 60h2M49 60h1M81 60h2M113 60h1M10 61h1M17 61h1M49 61h2M74 61h1M81 61h1M113 61h2M17 62h1M42 62h1M49 62h1M81 62h1M106 62h1M113 62h1M15 63h1M17 63h1M49 63h1M79 63h1M81 63h1M113 63h1M10 64h1M47 64h1M49 64h1M74 64h1M111 64h1M113 64h1M12 65h1M15 65h1M42 65h1M76 65h1M79 65h1M106 65h1M44 66h1M47 66h1M108 66h1M111 66h1M17 79h1M81 79h1M118 79h1M47 80h1M116 80h1M16 103h2M80 103h2M15 104h1M21 104h1M48 104h2M79 104h1M85 104h1M112 104h2M15 105h1M21 105h1M47 105h1M53 105h1M79 105h1M85 105h1M111 105h1M117 105h1M21 106h1M47 106h1M53 106h1M85 106h1M111 106h1M117 106h1M14 107h1M53 107h1M78 107h1M117 107h1M13 108h2M46 108h1M77 108h2M110 108h1M14 109h1M21 109h1M45 109h2M78 109h1M85 109h1M109 109h2M14 110h1M46 110h1M53 110h1M78 110h1M110 110h1M117 110h1M14 111h1M16 111h1M46 111h1M78 111h1M80 111h1M110 111h1M21 112h1M46 112h1M48 112h1M85 112h1M110 112h1M112 112h1M16 113h1M19 113h1M53 113h1M80 113h1M83 113h1M117 113h1M48 114h1M51 114h1M112 114h1M115 114h1M15 127h1M79 127h1M105 127h1M48 128h1M107 128h1M5 171h1M27 171h1M38 171h2M69 171h1M91 171h1M121 171h2M5 172h3M25 172h3M39 172h1M56 172h1M69 172h3M89 172h3M104 172h1M121 172h1M5 173h3M25 173h3M57 173h1M69 173h3M89 173h3M103 173h1M56 174h3M102 174h3" />
<path stroke="#ffebce" d="M13 8h7M77 8h7M12 9h1M20 9h1M45 9h7M76 9h1M84 9h1M109 9h7M12 10h1M20 10h2M44 10h1M52 10h1M76 10h1M84 10h2M108 10h1M116 10h1M11 11h1M21 11h1M44 11h1M52 11h2M75 11h1M85 11h1M108 11h1M116 11h2M43 12h1M53 12h1M107 12h1M117 12h1M15 13h3M79 13h3M15 14h3M47 14h3M79 14h3M111 14h3M12 15h1M15 15h1M17 15h1M20 15h1M47 15h3M76 15h1M79 15h1M81 15h1M84 15h1M111 15h3M13 16h7M44 16h1M47 16h1M49 16h1M52 16h1M77 16h7M108 16h1M111 16h1M113 16h1M116 16h1M45 17h7M109 17h7M5 27h2M26 27h2M69 27h2M90 27h2M5 28h2M26 28h2M69 28h2M90 28h2M6 29h1M26 29h1M57 29h1M70 29h1M90 29h1M103 29h1M6 30h2M25 30h2M56 30h2M70 30h2M89 30h2M103 30h2M56 31h1M104 31h1M11 56h2M15 56h1M75 56h2M79 56h1M43 57h2M47 57h1M107 57h2M111 57h1M16 59h1M80 59h1M11 60h1M16 60h1M48 60h1M75 60h1M80 60h1M112 60h1M11 61h1M16 61h1M43 61h1M48 61h1M75 61h1M80 61h1M107 61h1M112 61h1M11 62h1M16 62h1M19 62h1M43 62h1M48 62h1M75 62h1M80 62h1M83 62h1M107 62h1M112 62h1M10 63h2M16 63h1M43 63h1M48 63h1M51 63h1M74 63h2M80 63h1M107 63h1M112 63h1M115 63h1M11 64h6M42 64h2M48 64h1M75 64h6M106 64h2M112 64h1M13 65h2M43 65h6M77 65h2M107 65h6M45 66h2M109 66h2M17 78h2M81 78h2M117 78h2M18 79h1M47 79h2M82 79h1M116 79h2M48 80h1M117 80h1M16 104h1M19 104h2M80 104h1M83 104h2M48 105h1M51 105h2M112 105h1M115 105h2M15 107h1M79 107h1M15 108h1M20 108h1M47 108h1M79 108h1M84 108h1M111 108h1M15 109h1M20 109h1M47 109h1M52 109h1M79 109h1M84 109h1M111 109h1M116 109h1M12 110h1M15 110h1M20 110h1M47 110h1M52 110h1M76 110h1M79 110h1M84 110h1M111 110h1M116 110h1M15 111h1M20 111h2M44 111h1M47 111h1M52 111h1M79 111h1M84 111h2M108 111h1M111 111h1M116 111h1M15 112h6M47 112h1M52 112h2M79 112h6M111 112h1M116 112h2M17 113h2M47 113h6M81 113h2M111 113h6M49 114h2M113 114h2M14 126h2M78 126h2M105 126h2M14 127h1M47 127h2M78 127h1M106 127h2M47 128h1M106 128h1M6 171h1M26 171h1M57 171h1M70 171h1M90 171h1M103 171h1M57 172h2M102 172h2M58 173h1M102 173h1M6 174h2M25 174h2M70 174h2M89 174h2M56 175h2M103 175h2" />
<path stroke="#fffff3" d="M13 9h7M77 9h7M13 10h7M45 10h7M77 10h7M109 10h7M15 11h3M45 11h7M79 11h3M109 11h7M15 12h3M47 12h3M79 12h3M111 12h3M47 13h3M111 13h3M16 15h1M80 15h1M48 16h1M112 16h1M13 56h2M77 56h2M11 57h5M45 57h2M75 57h5M109 57h2M11 58h6M43 58h5M75 58h6M107 58h5M11 59h1M43 59h6M75 59h1M107 59h6M43 60h1M107 60h1M10 62h1M74 62h1M42 63h1M106 63h1M17 104h2M81 104h2M16 105h5M49 105h2M80 105h5M113 105h2M15 106h6M48 106h5M79 106h6M112 106h5M20 107h1M47 107h6M84 107h1M111 107h6M52 108h1M116 108h1M21 110h1M85 110h1M53 111h1M117 111h1" />
<path stroke="#5c4766" d="M8 11h1M24 11h1M72 11h1M88 11h1M8 12h1M24 12h1M40 12h1M72 12h1M88 12h1M120 12h1M40 13h1M120 13h1M9 14h1M23 14h1M73 14h1M87 14h1M41 15h1M55 15h1M105 15h1M119 15h1M9 59h1M73 59h1M9 60h1M41 60h1M73 60h1M105 60h1M41 61h1M105 61h1M11 66h2M75 66h2M43 67h2M107 67h2M114 67h1M22 107h1M86 107h1M22 108h1M54 108h1M86 108h1M118 108h1M54 109h1M118 109h1M19 114h2M83 114h2M51 115h2M115 115h2" />
<path stroke="#aa7162" d="M10 12h1M14 12h1M18 12h1M22 12h1M74 12h1M78 12h1M82 12h1M86 12h1M10 13h1M22 13h1M42 13h1M46 13h1M50 13h1M54 13h1M74 13h1M86 13h1M106 13h1M110 13h1M114 13h1M118 13h1M42 14h1M54 14h1M106 14h1M118 14h1M11 16h1M21 16h1M75 16h1M85 16h1M12 17h1M20 17h1M43 17h1M53 17h1M76 17h1M84 17h1M107 17h1M117 17h1M15 18h3M44 18h1M52 18h1M79 18h3M108 18h1M116 18h1M47 19h3M111 19h3M39 28h1M121 28h1M39 29h1M121 29h1M58 30h1M102 30h1M58 31h1M102 31h1M57 32h1M103 32h1M9 61h1M73 61h1M41 62h1M105 62h1M17 65h1M81 65h1M13 66h2M49 66h1M77 66h2M113 66h1M45 67h2M109 67h2M45 77h1M45 78h1M16 79h1M80 79h1M17 80h2M81 80h2M115 80h1M116 81h2M22 109h1M86 109h1M54 110h1M118 110h1M14 113h1M78 113h1M17 114h2M81 114h2M110 114h1M49 115h2M113 115h2M50 125h1M50 126h1M16 127h1M80 127h1M14 128h2M78 128h2M108 128h1M106 129h2M38 173h1M55 173h1M105 173h1M122 173h1M38 174h3M55 174h1M105 174h1M120 174h3" />
<path stroke="#493357" d="M12 12h2M19 12h2M76 12h2M83 12h2M14 13h1M18 13h1M44 13h2M51 13h2M78 13h1M82 13h1M108 13h2M115 13h2M13 14h2M18 14h2M46 14h1M50 14h1M77 14h2M82 14h2M110 14h1M114 14h1M45 15h2M50 15h2M109 15h2M114 15h2M49 44h1M111 44h1M48 45h1M112 45h1M13 60h2M77 60h2M12 61h1M45 61h2M76 61h1M109 61h2M12 62h2M44 62h1M76 62h2M108 62h1M44 63h2M108 63h2M17 108h2M81 108h2M19 109h1M49 109h2M83 109h1M113 109h2M18 110h2M51 110h1M82 110h2M115 110h1M50 111h2M114 111h2" />
<path stroke="#0c0c0c" d="M8 13h1M24 13h1M72 13h1M88 13h1M40 14h1M57 14h1M103 14h1M120 14h1M7 15h1M9 15h2M22 15h2M25 15h1M40 15h1M57 15h1M71 15h1M73 15h2M86 15h2M89 15h1M103 15h1M120 15h1M7 16h1M9 16h1M23 16h1M25 16h1M40 16h3M54 16h4M71 16h1M73 16h1M87 16h1M89 16h1M103 16h4M118 16h3M7 17h1M23 17h1M25 17h1M39 17h3M55 17h3M71 17h1M87 17h1M89 17h1M103 17h3M119 17h3M25 18h1M39 18h2M55 18h3M89 18h1M119 18h3M37 19h2M55 19h2M122 19h2M25 61h1M89 61h1M24 62h1M57 62h1M88 62h1M121 62h1M24 63h2M56 63h1M88 63h2M120 63h1M19 64h2M24 64h2M56 64h1M83 64h2M88 64h2M120 64h1M20 65h1M24 65h2M51 65h2M57 65h1M84 65h1M88 65h2M115 65h2M120 65h1M20 66h5M52 66h1M57 66h1M84 66h5M116 66h1M119 66h1M20 67h3M24 67h1M52 67h4M57 67h1M84 67h3M88 67h1M116 67h4M52 68h2M56 68h2M117 68h1M6 109h1M70 109h1M7 110h1M38 110h1M71 110h1M102 110h1M6 111h2M39 111h1M70 111h2M103 111h1M6 112h2M11 112h2M39 112h1M70 112h2M75 112h2M103 112h1M6 113h2M11 113h1M38 113h1M43 113h2M70 113h2M75 113h1M103 113h1M107 113h2M7 114h5M38 114h1M43 114h1M71 114h5M104 114h1M7 115h1M9 115h1M38 115h1M40 115h3M71 115h1M73 115h1M104 115h1M38 116h2M38 156h1M122 156h1M8 161h1M24 161h1M72 161h1M88 161h1M8 162h1M11 162h1M21 162h1M24 162h1M38 162h1M54 162h1M72 162h1M75 162h1M85 162h1M88 162h1M106 162h1M122 162h1M7 163h1M9 163h1M11 163h1M17 163h1M21 163h1M23 163h1M25 163h1M38 163h1M41 163h1M51 163h1M54 163h1M71 163h1M73 163h1M75 163h1M81 163h1M85 163h1M87 163h1M89 163h1M106 163h1M109 163h1M119 163h1M122 163h1M9 164h1M11 164h1M17 164h1M21 164h1M23 164h1M37 164h1M39 164h1M41 164h1M47 164h1M51 164h1M53 164h1M55 164h1M73 164h1M75 164h1M81 164h1M85 164h1M87 164h1M105 164h1M107 164h1M109 164h1M115 164h1M119 164h1M121 164h1M123 164h1M10 165h1M12 165h1M17 165h1M20 165h1M22 165h1M39 165h1M41 165h1M47 165h1M51 165h1M53 165h1M74 165h1M76 165h1M81 165h1M84 165h1M86 165h1M107 165h1M109 165h1M115 165h1M119 165h1M121 165h1M14 166h2M17 166h2M40 166h1M42 166h1M47 166h1M50 166h1M52 166h1M78 166h2M81 166h2M108 166h1M110 166h1M115 166h1M118 166h1M120 166h1M14 167h1M16 167h1M18 167h1M44 167h2M47 167h2M78 167h1M80 167h1M82 167h1M112 167h2M115 167h2M44 168h1M46 168h1M48 168h1M112 168h1M114 168h1M116 168h1" />
<path stroke="#7c513f" d="M11 13h1M21 13h1M75 13h1M85 13h1M11 14h1M21 14h1M43 14h1M53 14h1M75 14h1M85 14h1M107 14h1M117 14h1M43 15h1M53 15h1M107 15h1M117 15h1M13 18h2M18 18h2M77 18h2M82 18h2M45 19h2M50 19h2M109 19h2M114 19h2M4 27h1M28 27h1M38 27h1M68 27h1M92 27h1M122 27h1M4 28h1M28 28h1M38 28h1M53 28h1M68 28h1M92 28h1M107 28h1M122 28h1M4 29h1M8 29h1M24 29h1M28 29h1M38 29h1M53 29h1M58 29h1M68 29h1M72 29h1M88 29h1M92 29h1M102 29h1M107 29h1M122 29h1M4 30h1M8 30h1M24 30h1M28 30h1M39 30h1M54 30h1M68 30h1M72 30h1M88 30h1M92 30h1M106 30h1M121 30h1M5 31h3M25 31h3M54 31h1M69 31h3M89 31h3M106 31h1M55 32h2M104 32h2M12 60h1M76 60h1M15 61h1M44 61h1M79 61h1M108 61h1M15 62h1M47 62h1M79 62h1M111 62h1M47 63h1M111 63h1M9 64h1M73 64h1M10 65h1M41 65h1M74 65h1M105 65h1M15 66h2M42 66h1M79 66h2M106 66h1M47 67h2M111 67h2M16 78h1M80 78h1M119 78h1M20 79h1M46 79h1M84 79h1M115 79h1M119 79h1M19 80h1M46 80h1M50 80h1M83 80h1M119 80h1M47 81h3M118 81h1M19 108h1M83 108h1M16 109h1M51 109h1M80 109h1M115 109h1M16 110h1M48 110h1M80 110h1M112 110h1M48 111h1M112 111h1M22 112h1M86 112h1M21 113h1M54 113h1M85 113h1M118 113h1M15 114h2M53 114h1M79 114h2M117 114h1M48 115h1M111 115h2M16 126h1M80 126h1M104 126h1M12 127h1M49 127h1M76 127h1M104 127h1M108 127h1M13 128h1M45 128h1M49 128h1M77 128h1M104 128h1M46 129h3M105 129h1M4 170h1M28 170h1M37 170h1M68 170h1M92 170h1M123 170h1M4 171h1M28 171h1M37 171h1M59 171h1M68 171h1M92 171h1M101 171h1M123 171h1M4 172h1M28 172h1M37 172h1M59 172h1M68 172h1M92 172h1M101 172h1M123 172h1M4 173h1M8 173h1M24 173h1M28 173h1M37 173h1M53 173h2M59 173h1M68 173h1M72 173h1M88 173h1M92 173h1M101 173h1M106 173h2M123 173h1M4 174h1M28 174h1M37 174h1M54 174h1M59 174h1M68 174h1M92 174h1M101 174h1M106 174h1M123 174h1M5 175h3M25 175h3M38 175h2M55 175h1M59 175h1M69 175h3M89 175h3M101 175h1M105 175h1M121 175h2M56 176h3M102 176h3" />
<path stroke="#7b7b82" d="M12 13h1M20 13h1M76 13h1M84 13h1M44 14h1M52 14h1M108 14h1M116 14h1M14 61h1M78 61h1M46 62h1M110 62h1M17 109h1M81 109h1M49 110h1M113 110h1" />
<path stroke="#c9c9c9" d="M13 13h1M19 13h1M77 13h1M83 13h1M45 14h1M51 14h1M109 14h1M115 14h1M13 61h1M77 61h1M45 62h1M109 62h1M18 109h1M82 109h1M50 110h1M114 110h1" />
<path stroke="#ced7dd" d="M12 14h1M20 14h1M76 14h1M84 14h1M44 15h1M52 15h1M108 15h1M116 15h1M14 62h1M78 62h1M14 63h1M46 63h1M78 63h1M110 63h1M46 64h1M110 64h1M17 110h1M81 110h1M17 111h1M49 111h1M81 111h1M113 111h1M49 112h1M113 112h1" />
<path stroke="#588658" d="M13 15h2M18 15h2M77 15h2M82 15h2M45 16h2M50 16h2M109 16h2M114 16h2M12 63h2M76 63h2M44 64h2M108 64h2M18 111h2M82 111h2M50 112h2M114 112h2" />
<path stroke="#a67b38" d="M8 17h2M72 17h2M7 18h1M71 18h1M104 18h2M11 19h1M75 19h1M103 19h1M10 20h2M41 20h2M74 20h2M8 25h1M24 25h1M40 25h1M72 25h1M88 25h1M120 25h1M8 26h1M24 26h1M39 26h2M72 26h1M88 26h1M120 26h2M7 27h2M24 27h2M55 27h1M71 27h2M88 27h2M105 27h1M55 29h2M104 29h2M17 75h1M20 75h1M81 75h1M84 75h1M116 75h3M17 76h1M20 76h1M48 76h2M81 76h1M84 76h1M118 76h1M19 77h1M47 77h1M50 77h1M83 77h1M114 77h2M117 77h2M19 78h1M83 78h1M116 78h1M49 79h1M12 123h1M15 123h1M76 123h1M79 123h1M105 123h3M12 124h1M15 124h1M46 124h2M76 124h1M79 124h1M105 124h1M13 125h1M45 125h1M48 125h1M77 125h1M105 125h2M108 125h2M13 126h1M77 126h1M107 126h1M46 127h1M56 164h1M39 169h1M54 169h3M104 169h3M121 169h1M8 170h1M24 170h1M72 170h1M88 170h1M7 171h2M24 171h2M71 171h2M88 171h2M54 172h2M105 172h2" />
<path stroke="#83632a" d="M10 17h1M74 17h1M8 18h1M10 18h2M41 18h2M72 18h1M74 18h2M103 18h1M106 18h1M12 19h1M40 19h4M76 19h1M102 19h1M104 19h1M107 19h2M9 20h1M43 20h1M73 20h1M102 20h2M107 20h1M11 21h1M42 21h1M75 21h1M102 21h1M105 21h3M7 23h1M25 23h1M71 23h1M89 23h1M6 24h1M8 24h1M24 24h1M26 24h1M39 24h2M70 24h1M72 24h1M88 24h1M90 24h1M120 24h2M6 25h1M26 25h1M39 25h1M70 25h1M90 25h1M121 25h1M5 26h1M27 26h1M38 26h1M56 26h2M69 26h1M91 26h1M103 26h2M122 26h1M39 27h2M54 27h1M57 27h1M103 27h1M106 27h1M120 27h2M8 28h1M24 28h1M54 28h1M57 28h1M72 28h1M88 28h1M103 28h1M106 28h1M54 29h1M106 29h1M104 68h1M104 69h1M17 74h1M21 74h1M81 74h1M85 74h1M21 75h1M85 75h1M21 76h1M47 76h1M85 76h1M20 77h1M84 77h1M119 77h1M20 78h1M46 78h1M84 78h1M12 114h2M44 114h3M76 114h2M107 114h2M11 115h2M15 115h1M43 115h2M47 115h1M75 115h2M79 115h1M105 115h5M10 116h2M16 116h1M43 116h1M48 116h1M74 116h2M80 116h1M104 116h3M109 116h2M10 117h5M43 117h5M74 117h5M104 117h2M110 117h1M11 118h1M15 118h1M43 118h1M47 118h1M75 118h1M79 118h1M104 118h1M107 118h4M109 119h2M11 122h1M15 122h1M75 122h1M79 122h1M11 123h1M75 123h1M11 124h1M48 124h1M75 124h1M12 125h1M76 125h1M104 125h1M12 126h1M49 126h1M76 126h1M56 163h1M57 164h1M56 165h2M54 166h1M57 166h1M6 168h3M24 168h3M39 168h2M70 168h3M88 168h3M120 168h2M6 169h1M26 169h1M38 169h1M40 169h1M57 169h1M70 169h1M90 169h1M103 169h1M120 169h1M122 169h1M5 170h1M27 170h1M38 170h3M53 170h1M57 170h1M69 170h1M91 170h1M103 170h1M107 170h1M120 170h3M53 171h1M56 171h1M104 171h1M107 171h1M8 172h1M24 172h1M53 172h1M72 172h1M88 172h1M107 172h1" />
<path stroke="#c29447" d="M9 18h1M73 18h1M7 19h1M10 19h1M71 19h1M74 19h1M105 19h2M7 24h1M25 24h1M71 24h1M89 24h1M6 26h1M26 26h1M70 26h1M90 26h1M55 28h1M105 28h1M18 74h1M82 74h1M19 75h1M83 75h1M19 76h1M83 76h1M117 76h1M17 77h2M49 77h1M81 77h2M47 78h2M13 115h2M45 115h2M77 115h2M12 116h1M15 116h1M44 116h1M76 116h1M79 116h1M107 116h2M15 117h1M48 117h1M79 117h1M106 117h1M109 117h1M14 122h1M78 122h1M13 123h1M77 123h1M13 124h1M77 124h1M106 124h1M14 125h2M46 125h1M78 125h2M47 126h2M8 169h1M24 169h1M72 169h1M88 169h1M7 170h1M25 170h1M54 170h1M56 170h1M71 170h1M89 170h1M104 170h1M106 170h1M55 171h1M105 171h1" />
<path stroke="#000000" d="M22 18h1M53 18h1M86 18h1M107 18h1M22 19h1M86 19h1M118 19h1M22 20h1M86 20h1M118 20h1M22 21h1M86 21h1M118 21h1M14 22h1M78 22h1M118 22h1M14 23h1M42 23h1M46 23h1M78 23h1M118 23h1M14 24h2M46 24h1M78 24h2M9 25h1M15 25h2M23 25h1M41 25h1M46 25h2M73 25h1M79 25h2M87 25h1M111 25h1M119 25h1M9 26h1M16 26h2M23 26h1M41 26h1M47 26h2M73 26h1M80 26h2M87 26h1M111 26h2M119 26h1M9 27h1M17 27h2M23 27h1M41 27h1M48 27h2M73 27h1M81 27h2M87 27h1M112 27h2M119 27h1M9 28h1M17 28h1M23 28h1M41 28h1M48 28h2M73 28h1M81 28h2M87 28h1M112 28h1M119 28h1M9 29h1M14 29h5M23 29h1M40 29h2M46 29h4M73 29h1M78 29h5M87 29h1M111 29h4M119 29h2M14 32h1M78 32h1M15 33h1M57 33h1M79 33h1M103 33h1M16 34h1M57 34h1M80 34h1M103 34h1M111 34h1M15 35h3M57 35h1M79 35h3M103 35h1M111 35h1M14 36h1M16 36h1M18 36h1M49 36h1M57 36h1M78 36h1M80 36h1M82 36h1M103 36h1M111 36h1M113 36h1M11 37h2M16 37h1M20 37h2M49 37h1M51 37h3M57 37h1M75 37h2M80 37h1M84 37h2M103 37h1M107 37h2M111 37h1M114 37h1M16 38h1M49 38h1M53 38h2M57 38h1M80 38h1M103 38h1M106 38h2M111 38h1M10 39h1M16 39h1M22 39h1M49 39h2M52 39h3M56 39h1M74 39h1M80 39h1M86 39h1M104 39h1M106 39h3M110 39h2M15 40h3M48 40h2M54 40h2M79 40h3M105 40h2M111 40h2M10 41h1M16 41h1M22 41h1M43 41h1M49 41h1M74 41h1M80 41h1M86 41h1M111 41h1M117 41h1M16 42h1M49 42h1M53 42h1M80 42h1M107 42h1M111 42h1M16 43h1M49 43h4M80 43h1M108 43h4M10 44h1M15 44h1M17 44h1M22 44h1M43 44h1M48 44h1M74 44h1M79 44h1M81 44h1M86 44h1M112 44h1M117 44h1M11 45h4M18 45h4M44 45h4M75 45h4M82 45h4M113 45h4M18 58h1M82 58h1M18 59h2M50 59h1M82 59h2M114 59h1M15 60h1M19 60h1M50 60h2M79 60h1M83 60h1M114 60h2M47 61h1M51 61h1M111 61h1M115 61h1M19 66h1M83 66h1M17 67h2M49 67h2M81 67h2M21 68h2M48 68h1M51 68h1M85 68h2M116 68h1M21 69h2M52 69h2M85 69h2M118 69h1M22 70h1M52 70h2M86 70h1M119 70h1M22 71h1M52 71h2M86 71h1M107 71h1M119 71h1M11 72h1M21 72h2M52 72h2M85 72h2M107 72h1M119 72h1M11 73h1M21 73h2M45 73h1M53 73h1M85 73h2M108 73h1M12 74h1M43 74h1M53 74h1M108 74h1M12 75h1M43 75h1M51 75h3M109 75h1M10 76h1M13 76h1M23 76h1M44 76h1M52 76h2M74 76h1M77 76h1M87 76h1M109 76h1M10 77h4M23 77h1M43 77h1M53 77h2M74 77h4M87 77h1M106 77h1M44 78h1M54 78h2M106 78h4M11 79h1M43 79h1M45 79h1M55 79h2M75 79h1M107 79h1M114 79h1M12 80h1M43 80h1M56 80h2M76 80h1M108 80h1M13 81h1M44 81h1M57 81h1M77 81h1M108 81h2M13 82h2M40 82h1M42 82h1M45 82h1M58 82h1M77 82h2M108 82h1M9 83h1M13 83h1M15 83h1M40 83h1M42 83h1M46 83h1M73 83h1M77 83h1M79 83h1M108 83h1M10 84h1M12 84h1M14 84h1M40 84h3M47 84h1M74 84h1M76 84h1M78 84h1M105 84h1M108 84h1M10 85h3M14 85h1M40 85h3M74 85h3M78 85h1M106 85h2M10 86h2M14 86h1M39 86h3M49 86h2M74 86h2M78 86h1M10 87h3M14 87h1M40 87h2M44 87h2M49 87h1M74 87h3M78 87h1M107 87h1M11 88h1M13 88h1M39 88h1M44 88h2M50 88h4M75 88h1M77 88h1M106 88h3M13 89h2M39 89h2M43 89h3M50 89h1M58 89h1M77 89h2M106 89h1M11 90h2M40 90h5M58 90h1M75 90h2M12 91h1M21 91h1M58 91h1M76 91h1M85 91h1M112 91h1M13 92h1M20 92h1M49 92h1M56 92h2M77 92h1M84 92h1M105 92h1M111 92h1M14 93h6M50 93h6M78 93h6M106 93h5M13 106h1M77 106h1M12 107h2M45 107h1M76 107h2M109 107h1M12 108h1M16 108h1M44 108h2M76 108h1M80 108h1M108 108h2M44 109h1M48 109h1M108 109h1M112 109h1M9 119h1M49 119h1M73 119h1M104 119h1M111 119h1M9 120h2M49 120h1M73 120h2M104 120h1M9 121h2M42 121h1M49 121h2M73 121h2M9 122h1M18 122h1M42 122h1M50 122h1M73 122h1M82 122h1M9 123h1M18 123h1M42 123h3M50 123h1M73 123h1M82 123h1M8 124h2M18 124h1M21 124h1M42 124h2M51 124h1M72 124h2M82 124h1M85 124h1M8 125h1M10 125h1M18 125h4M41 125h2M52 125h1M72 125h1M74 125h1M82 125h4M117 125h1M40 126h2M51 126h1M114 126h4M20 127h1M39 127h2M50 127h1M52 127h1M84 127h1M109 127h1M116 127h1M19 128h1M38 128h2M52 128h1M83 128h1M115 128h1M18 129h1M38 129h1M51 129h1M82 129h1M114 129h2M17 130h2M37 130h1M50 130h1M53 130h1M55 130h1M81 130h2M115 130h1M16 131h1M18 131h1M22 131h1M49 131h1M53 131h1M55 131h1M80 131h1M82 131h1M86 131h1M115 131h1M17 132h1M19 132h1M21 132h1M48 132h1M53 132h3M81 132h1M83 132h1M85 132h1M115 132h1M118 132h1M17 133h1M19 133h3M53 133h3M81 133h1M83 133h3M116 133h2M17 134h1M20 134h2M45 134h2M54 134h3M81 134h1M84 134h2M17 135h1M19 135h3M46 135h1M50 135h2M54 135h2M81 135h1M83 135h3M116 135h1M18 136h1M20 136h1M42 136h4M50 136h2M56 136h1M82 136h1M84 136h1M115 136h3M17 137h2M37 137h1M45 137h1M50 137h3M55 137h2M81 137h2M117 137h1M19 138h2M37 138h1M51 138h5M83 138h2M10 139h1M19 139h1M37 139h1M74 139h1M83 139h1M111 139h1M11 140h1M18 140h1M38 140h2M46 140h1M75 140h1M82 140h1M112 140h1M118 140h1M12 141h6M40 141h6M76 141h6M113 141h5M53 166h1M107 166h1M53 167h1M107 167h1M9 169h1M23 169h1M73 169h1M87 169h1M9 170h1M23 170h1M41 170h1M73 170h1M87 170h1M119 170h1M9 171h1M23 171h1M41 171h1M73 171h1M87 171h1M119 171h1M9 172h1M23 172h1M41 172h1M73 172h1M87 172h1M119 172h1M9 173h1M23 173h1M41 173h1M73 173h1M87 173h1M119 173h1M55 176h1M105 176h1M49 185h5M107 185h5M16 186h1M46 186h8M80 186h1M107 186h8M16 187h1M45 187h8M80 187h1M108 187h8M10 188h1M15 188h1M17 188h1M22 188h1M43 188h7M74 188h1M79 188h1M81 188h1M86 188h1M111 188h7M11 189h4M18 189h4M44 189h5M75 189h4M82 189h4M112 189h5" />
<path stroke="#1d2915" d="M23 18h1M87 18h1M53 19h2M119 19h1M25 20h1M56 20h1M89 20h1M119 20h2M40 21h1M120 21h1M39 22h1M121 22h1M57 23h1M103 23h1M53 24h1M107 24h1M53 25h1M107 25h1M19 68h1M83 68h1M115 68h1M20 69h1M84 69h1M116 69h1M20 70h1M84 70h1M116 70h1M20 71h1M84 71h1M117 71h1M20 72h1M84 72h1M106 119h1M11 120h1M75 120h1M7 164h1M25 164h1M71 164h1M89 164h1M39 166h1M121 166h1M57 167h1M103 167h1" />
<path stroke="#624a20" d="M43 18h1M6 19h1M44 19h1M70 19h1M7 20h2M12 20h1M40 20h1M44 20h1M71 20h2M76 20h1M108 20h1M10 21h1M41 21h1M43 21h2M74 21h1M103 21h2M108 21h1M42 22h2M107 22h1M6 23h1M26 23h1M70 23h1M90 23h1M5 24h1M27 24h1M69 24h1M91 24h1M5 25h1M27 25h1M38 25h1M69 25h1M91 25h1M122 25h1M4 26h1M28 26h1M58 26h1M68 26h1M92 26h1M102 26h1M58 27h1M102 27h1M58 28h1M102 28h1M104 67h3M103 68h1M105 68h2M103 69h1M105 69h2M104 70h2M104 73h1M16 74h1M22 74h1M80 74h1M86 74h1M103 74h3M16 75h1M22 75h1M80 75h1M86 75h1M104 75h2M119 75h1M16 76h1M22 76h1M46 76h1M80 76h1M86 76h1M114 76h2M119 76h1M16 77h1M21 77h1M46 77h1M51 77h1M80 77h1M85 77h1M21 78h1M50 78h2M85 78h1M114 78h2M50 79h1M10 115h1M74 115h1M9 116h1M42 116h1M49 116h1M73 116h1M111 116h1M9 117h1M16 117h1M41 117h2M49 117h1M73 117h1M80 117h1M111 117h1M9 118h2M16 118h1M41 118h2M44 118h1M48 118h2M73 118h2M80 118h1M105 118h2M111 118h1M10 119h2M15 119h2M42 119h2M74 119h2M79 119h2M105 119h1M42 120h2M119 121h1M10 122h1M16 122h1M74 122h1M80 122h1M118 122h3M10 123h1M16 123h1M74 123h1M80 123h1M104 123h1M118 123h2M10 124h1M16 124h1M49 124h1M74 124h1M80 124h1M104 124h1M108 124h2M11 125h1M16 125h1M44 125h1M49 125h1M75 125h1M80 125h1M11 126h1M44 126h2M75 126h1M108 126h2M45 127h1M26 162h1M90 162h1M26 163h1M90 163h1M24 164h1M26 164h1M88 164h1M90 164h1M55 166h2M6 167h1M26 167h1M39 167h1M70 167h1M90 167h1M121 167h1M5 168h1M27 168h1M38 168h1M57 168h2M69 168h1M91 168h1M102 168h2M122 168h1M5 169h1M27 169h1M58 169h1M69 169h1M91 169h1M102 169h1M58 170h1M102 170h1M40 171h1M120 171h1" />
<path stroke="#ffe8a1" d="M8 19h2M72 19h2M104 20h3M7 25h1M25 25h1M71 25h1M89 25h1M7 26h1M25 26h1M71 26h1M89 26h1M56 27h1M104 27h1M56 28h1M104 28h1M18 75h1M82 75h1M18 76h1M82 76h1M116 76h1M48 77h1M116 77h1M49 78h1M13 116h2M45 116h3M77 116h2M107 117h2M14 123h1M78 123h1M14 124h1M78 124h1M107 124h1M47 125h1M107 125h1M46 126h1M54 165h1M7 169h1M25 169h1M71 169h1M89 169h1M6 170h1M26 170h1M55 170h1M70 170h1M90 170h1M105 170h1M54 171h1M106 171h1" />
<path stroke="#4f6e36" d="M23 19h1M87 19h1M24 20h1M54 20h1M88 20h1M53 21h1M55 21h1M24 22h1M53 22h1M55 22h1M88 22h1M105 22h1M24 23h1M55 23h2M88 23h1M104 23h2M55 24h2M104 24h2M54 25h1M106 25h1M18 69h1M82 69h1M19 70h1M48 70h3M83 70h1M115 70h1M16 71h1M50 71h1M80 71h1M114 71h1M116 71h1M16 72h1M47 72h1M80 72h1M17 73h1M19 73h1M47 73h1M81 73h1M83 73h1M50 74h1M114 74h2M46 75h2M12 118h1M45 118h2M76 118h1M45 119h1M107 119h1M15 120h1M48 120h1M79 120h1M12 121h1M14 121h1M48 121h1M76 121h1M78 121h1M45 122h1M108 122h2M48 123h2M8 165h1M24 165h1M72 165h1M88 165h1M106 165h1M8 166h1M24 166h1M72 166h1M88 166h1M105 166h1M56 167h1M104 167h1M55 168h2M104 168h2" />
<path stroke="#304422" d="M24 19h1M88 19h1M7 21h1M25 21h1M56 21h1M71 21h1M89 21h1M6 22h1M26 22h1M40 22h1M70 22h1M90 22h1M120 22h1M41 23h1M119 23h1M55 25h1M57 25h1M103 25h1M105 25h1M16 68h1M80 68h1M113 68h2M16 69h1M19 69h1M48 69h3M80 69h1M83 69h1M115 69h1M47 70h1M51 70h1M46 71h1M112 71h1M46 72h1M112 72h1M117 72h1M16 73h1M20 73h1M46 73h1M80 73h1M84 73h1M112 73h2M117 73h1M20 74h1M45 74h3M84 74h1M112 74h2M116 74h2M45 75h1M48 75h1M112 75h4M106 120h1M111 120h1M11 121h1M15 121h1M75 121h1M79 121h1M106 121h1M110 121h2M13 122h1M48 122h2M77 122h1M106 122h2M110 122h2M47 123h1M108 123h4M8 163h1M24 163h1M72 163h1M88 163h1M7 165h1M25 165h1M71 165h1M89 165h1M104 165h1M6 166h1M26 166h1M70 166h1M90 166h1" />
<path stroke="#334925" d="M13 20h1M19 20h1M45 20h1M77 20h1M83 20h1M115 20h1M13 21h1M19 21h1M45 21h1M50 21h1M77 21h1M83 21h1M110 21h1M115 21h1M13 22h1M19 22h1M45 22h1M50 22h1M77 22h1M83 22h1M110 22h1M115 22h1M13 23h1M19 23h1M45 23h1M50 23h1M77 23h1M83 23h1M110 23h1M115 23h1M13 24h1M19 24h1M45 24h1M50 24h1M77 24h1M83 24h1M110 24h1M115 24h1M13 25h1M19 25h1M45 25h1M50 25h1M77 25h1M83 25h1M110 25h1M115 25h1M13 26h1M19 26h1M45 26h1M50 26h1M77 26h1M83 26h1M110 26h1M115 26h1M13 27h1M19 27h1M45 27h1M50 27h1M77 27h1M83 27h1M110 27h1M115 27h1M13 28h1M19 28h1M45 28h1M50 28h1M77 28h1M83 28h1M110 28h1M115 28h1M50 29h1M110 29h1M14 68h1M78 68h1M14 69h1M46 69h1M78 69h1M110 69h1M14 70h1M46 70h1M78 70h1M110 70h1M14 71h1M78 71h1M110 71h1M14 72h1M78 72h1M110 72h1M14 73h1M78 73h1M110 73h1M14 74h1M78 74h1M110 74h1M14 75h1M78 75h1M110 75h1M14 76h1M78 76h1M110 76h1M110 77h1M17 116h1M81 116h1M17 117h1M81 117h1M113 117h1M17 118h1M81 118h1M113 118h1M17 119h1M81 119h1M113 119h1M17 120h1M81 120h1M113 120h1M17 121h1M81 121h1M113 121h1M17 122h1M81 122h1M113 122h1M17 123h1M81 123h1M113 123h1M17 124h1M81 124h1M113 124h1M113 125h1" />
<path stroke="#476634" d="M20 20h1M84 20h1M116 20h1M21 21h1M51 21h1M85 21h1M109 21h1M117 21h1M11 22h1M21 22h1M52 22h1M75 22h1M85 22h1M108 22h1M117 22h1M11 23h1M21 23h1M43 23h1M52 23h1M75 23h1M85 23h1M108 23h1M117 23h1M11 24h1M21 24h1M43 24h1M52 24h1M75 24h1M85 24h1M108 24h1M117 24h1M12 25h1M20 25h1M44 25h1M52 25h1M76 25h1M84 25h1M108 25h1M116 25h1M12 26h1M20 26h1M44 26h1M51 26h1M76 26h1M84 26h1M109 26h1M116 26h1M12 27h1M20 27h1M44 27h1M51 27h1M76 27h1M84 27h1M109 27h1M116 27h1M51 28h1M109 28h1M15 68h1M79 68h1M47 69h1M111 69h1M15 73h1M79 73h1M15 74h1M79 74h1M111 74h1M15 75h1M79 75h1M111 75h1M111 76h1M112 117h1M16 121h1M80 121h1M112 122h1M112 123h1M112 124h1M8 164h1M54 164h1M72 164h1M106 164h1M55 165h1M105 165h1M7 167h1M25 167h1M71 167h1M89 167h1M54 168h1M106 168h1" />
<path stroke="#6b9549" d="M23 20h1M87 20h1M54 21h1M54 22h1M106 22h1M54 23h1M106 23h1M54 24h1M106 24h1M17 70h2M81 70h2M17 71h3M48 71h2M81 71h3M115 71h1M17 72h3M48 72h3M81 72h3M114 72h3M18 73h1M48 73h3M82 73h1M114 73h3M48 74h2M13 118h2M77 118h2M12 119h3M46 119h2M76 119h3M108 119h1M12 120h3M45 120h3M76 120h3M107 120h3M13 121h1M45 121h3M77 121h1M107 121h3M46 122h2M9 165h1M23 165h1M73 165h1M87 165h1M106 166h1M8 167h1M24 167h1M54 167h2M72 167h1M88 167h1M105 167h2" />
<path stroke="#40582e" d="M53 20h1M55 20h1M8 21h2M23 21h2M72 21h2M87 21h2M119 21h1M7 22h2M25 22h1M41 22h1M56 22h1M71 22h2M89 22h1M104 22h1M119 22h1M8 23h1M53 23h1M72 23h1M107 23h1M55 26h1M105 26h1M17 68h2M81 68h2M17 69h1M81 69h1M113 69h2M16 70h1M80 70h1M112 70h3M47 71h1M51 71h1M113 71h1M51 72h1M113 72h1M51 73h1M51 74h1M44 119h1M48 119h1M44 120h1M110 120h1M44 121h1M44 122h1M7 166h1M25 166h1M71 166h1M89 166h1M104 166h1M40 167h1M120 167h1" />
<path stroke="#567e40" d="M12 21h1M20 21h1M76 21h1M84 21h1M116 21h1M12 22h1M20 22h1M44 22h1M51 22h1M76 22h1M84 22h1M109 22h1M116 22h1M12 23h1M20 23h1M44 23h1M51 23h1M76 23h1M84 23h1M109 23h1M116 23h1M12 24h1M20 24h1M44 24h1M51 24h1M76 24h1M84 24h1M109 24h1M116 24h1M51 25h1M109 25h1M15 69h1M79 69h1M15 70h1M79 70h1M111 70h1M15 71h1M79 71h1M111 71h1M15 72h1M79 72h1M111 72h1M111 73h1M112 118h1M112 119h1M16 120h1M80 120h1M112 120h1M112 121h1" />
<path stroke="#26371b" d="M39 23h2M120 23h2M38 24h1M122 24h1M58 25h1M102 25h1M53 26h1M107 26h1M118 73h1M118 74h1M45 76h1M105 121h1M105 122h1M50 124h1" />
<path stroke="#8c8c8c" d="M49 24h1M49 25h1M12 44h2M19 44h2M45 44h2M76 44h2M83 44h2M114 44h2M12 71h2M76 71h2M76 72h1M109 72h1M15 92h2M51 92h2M79 92h2M107 92h2M19 119h1M83 119h1M19 120h1M83 120h1M114 120h2M114 121h2M15 140h2M43 140h2M79 140h2M115 140h2" />
<path stroke="#181818" d="M46 32h1M111 32h1M47 33h1M111 33h1M46 34h1M48 34h1M110 34h1M112 34h1M49 35h1M109 35h1M113 35h1M50 36h1M53 36h1M107 36h1M109 36h1M114 36h1M13 37h1M19 37h1M77 37h1M83 37h1M115 37h1M12 68h1M76 68h1M11 69h1M44 69h1M75 69h1M108 69h1M43 70h1M75 70h1M107 70h1M43 71h1M75 71h1M75 72h1M75 73h1M11 74h1M75 74h1M11 75h1M75 75h1M10 78h1M43 78h1M74 78h1M9 79h1M73 79h1M105 79h2M42 80h1M105 80h1M41 81h1M105 81h1M105 82h1M41 83h1M105 83h1M11 84h1M75 84h1M106 84h1M48 85h1M19 116h1M83 116h1M20 117h1M51 117h1M84 117h1M115 117h1M20 118h1M52 118h1M84 118h1M116 118h1M20 119h1M52 119h1M84 119h1M20 120h1M52 120h1M84 120h1M20 121h1M52 121h1M84 121h1M20 122h1M52 122h1M84 122h1M20 123h1M52 123h1M84 123h1M21 126h1M52 126h1M85 126h1M22 127h1M86 127h1M117 127h2M53 128h1M118 128h1M54 129h1M118 129h1M118 130h1M54 131h1M118 131h1M20 132h1M84 132h1M117 132h1M47 133h1" />
<path stroke="#4e4e4e" d="M46 35h1M45 36h2M14 37h1M18 37h1M45 37h2M78 37h1M82 37h1M13 38h1M19 38h1M45 38h2M77 38h1M83 38h1M114 38h2M11 39h1M21 39h1M44 39h1M75 39h1M85 39h1M116 39h1M12 40h2M19 40h2M45 40h2M76 40h2M83 40h2M114 40h2M11 43h3M15 43h1M17 43h1M19 43h3M44 43h3M48 43h1M75 43h3M79 43h1M81 43h1M83 43h3M112 43h1M114 43h3M11 44h1M14 44h1M18 44h1M21 44h1M44 44h1M47 44h1M75 44h1M78 44h1M82 44h1M85 44h1M113 44h1M116 44h1M15 84h1M79 84h1M15 85h2M79 85h2M109 85h1M16 86h1M80 86h1M109 86h2M15 88h1M79 88h1M16 89h3M52 89h3M80 89h3M108 89h3M15 91h4M51 91h4M79 91h4M107 91h3M14 92h1M50 92h1M78 92h1M106 92h1M116 117h1M16 132h1M80 132h1M15 133h2M79 133h2M114 133h1M15 134h1M79 134h1M113 134h2M16 136h1M80 136h1M13 137h3M41 137h3M77 137h3M113 137h3M13 139h4M41 139h4M77 139h4M114 139h3M17 140h1M45 140h1M81 140h1M117 140h1" />
<path stroke="#3a3a3a" d="M15 39h1M17 39h1M48 39h1M79 39h1M81 39h1M112 39h1M11 40h1M14 40h1M18 40h1M21 40h1M44 40h1M47 40h1M53 40h1M75 40h1M78 40h1M82 40h1M85 40h1M107 40h1M113 40h1M116 40h1M13 41h1M19 41h1M46 41h1M51 41h2M77 41h1M83 41h1M108 41h2M114 41h1M11 42h4M18 42h4M44 42h4M75 42h4M82 42h4M113 42h4M10 43h1M14 43h1M18 43h1M22 43h1M43 43h1M47 43h1M74 43h1M78 43h1M82 43h1M86 43h1M113 43h1M117 43h1M42 86h1M13 87h1M42 87h2M77 87h1M12 88h1M14 88h1M40 88h4M76 88h1M78 88h1M11 89h2M41 89h2M55 89h1M75 89h2M16 90h3M52 90h3M80 90h3M108 90h2M14 91h1M19 91h2M50 91h1M55 91h1M78 91h1M83 91h2M106 91h1M110 91h2M17 92h3M53 92h3M81 92h3M109 92h2M53 134h1M18 135h1M52 135h2M82 135h1M17 136h1M19 136h1M52 136h4M81 136h1M83 136h1M19 137h2M40 137h1M53 137h2M83 137h2M13 138h3M41 138h3M77 138h3M114 138h2M11 139h2M17 139h1M40 139h1M45 139h1M75 139h2M81 139h1M112 139h2M117 139h1M12 140h3M40 140h3M76 140h3M113 140h2M44 185h3M114 185h3M12 186h2M19 186h2M44 186h1M76 186h2M83 186h2M116 186h1M11 187h4M18 187h4M75 187h4M82 187h4M12 188h2M19 188h2M76 188h2M83 188h2" />
</svg>