<svg xmlns="http://www.w3.org/2000/svg" viewBox="0 0 17 19"><defs><style>.cls-1{stroke:#a87c36;}.cls-2{stroke:#684a1a;}.cls-3{stroke:#c9a161;}.cls-4{stroke:#e6c198;}.cls-5{stroke:#422f10;}.cls-6{stroke:#886020;}.cls-7{stroke:#aa7162;}.cls-8{stroke:#e8a08d;}.cls-9{stroke:#ffc89b;}.cls-10{stroke:#ffebce;}.cls-11{stroke:#fffff3;}.cls-12{stroke:#493357;}.cls-13{stroke:#7c513f;}.cls-14{stroke:#7b7b82;}.cls-15{stroke:#c9c9c9;}.cls-16{stroke:#ced7dd;}.cls-17{stroke:#4b6400;}</style></defs><title>Datový zdroj 2</title><g id="Vrstva_2" data-name="Vrstva 2"><g id="Vrstva_1-2" data-name="Vrstva 1"><line class="cls-1" x1="6" y1="0.5" x2="11" y2="0.5"/><line class="cls-1" x1="5" y1="1.5" x2="6" y2="1.5"/><line class="cls-1" x1="11" y1="1.5" x2="13" y2="1.5"/><line class="cls-1" x1="3" y1="2.5" x2="4" y2="2.5"/><line class="cls-1" x1="7" y1="2.5" x2="10" y2="2.5"/><line class="cls-1" x1="12" y1="2.5" x2="15" y2="2.5"/><line class="cls-1" x1="2" y1="3.5" x2="3" y2="3.5"/><line class="cls-1" x1="11" y1="3.5" x2="13" y2="3.5"/><line class="cls-1" x1="15" y1="3.5" x2="16" y2="3.5"/><line class="cls-1" x1="6" y1="4.5" x2="8" y2="4.5"/><line class="cls-1" x1="9" y1="4.5" x2="10" y2="4.5"/><line class="cls-1" x1="12" y1="4.5" x2="13" y2="4.5"/><line class="cls-1" x1="15" y1="4.5" x2="16" y2="4.5"/><line class="cls-1" x1="3" y1="5.5" x2="4" y2="5.5"/><line class="cls-1" x1="5" y1="5.5" x2="6" y2="5.5"/><line class="cls-1" x1="7" y1="5.5" x2="8" y2="5.5"/><line class="cls-1" x1="9" y1="5.5" x2="10" y2="5.5"/><line class="cls-1" x1="13" y1="5.5" x2="14" y2="5.5"/><line class="cls-1" x1="1" y1="6.5" x2="2" y2="6.5"/><line class="cls-1" x1="3" y1="6.5" x2="4" y2="6.5"/><line class="cls-1" x1="7" y1="6.5" x2="9" y2="6.5"/><line class="cls-1" x1="13" y1="6.5" x2="15" y2="6.5"/><line class="cls-1" x1="2" y1="7.5" x2="3" y2="7.5"/><line class="cls-1" x1="7" y1="7.5" x2="8" y2="7.5"/><line class="cls-1" x1="14" y1="7.5" x2="15" y2="7.5"/><line class="cls-1" x1="7" y1="8.5" x2="8" y2="8.5"/><line class="cls-1" x1="1" y1="9.5" x2="2" y2="9.5"/><line class="cls-1" x1="8" y1="15.5" x2="9" y2="15.5"/><line class="cls-1" x1="7" y1="16.5" x2="8" y2="16.5"/><line class="cls-1" x1="9" y1="16.5" x2="10" y2="16.5"/><line class="cls-1" x1="6" y1="17.5" x2="7" y2="17.5"/><line class="cls-1" x1="10" y1="17.5" x2="11" y2="17.5"/><line class="cls-1" x1="7" y1="18.5" x2="10" y2="18.5"/><line class="cls-2" x1="4" y1="1.5" x2="5" y2="1.5"/><line class="cls-2" x1="2" y1="2.5" x2="3" y2="2.5"/><line class="cls-2" x1="1" y1="3.5" x2="2" y2="3.5"/><line class="cls-2" x1="7" y1="3.5" x2="8" y2="3.5"/><line class="cls-2" x1="1" y1="4.5" x2="2" y2="4.5"/><line class="cls-2" y1="5.5" x2="1" y2="5.5"/><line class="cls-2" x1="11" y1="5.5" x2="13" y2="5.5"/><line class="cls-2" x1="16" y1="5.5" x2="17" y2="5.5"/><line class="cls-2" y1="6.5" x2="1" y2="6.5"/><line class="cls-2" x1="16" y1="6.5" x2="17" y2="6.5"/><line class="cls-2" y1="7.5" x2="1" y2="7.5"/><line class="cls-2" x1="4" y1="7.5" x2="5" y2="7.5"/><line class="cls-2" x1="8" y1="7.5" x2="9" y2="7.5"/><line class="cls-2" x1="16" y1="7.5" x2="17" y2="7.5"/><line class="cls-2" x1="3" y1="8.5" x2="4" y2="8.5"/><line class="cls-2" x1="14" y1="10.5" x2="15" y2="10.5"/><line class="cls-2" x1="16" y1="10.5" x2="17" y2="10.5"/><line class="cls-2" x1="2" y1="11.5" x2="3" y2="11.5"/><line class="cls-2" x1="14" y1="11.5" x2="15" y2="11.5"/><line class="cls-3" x1="6" y1="1.5" x2="11" y2="1.5"/><line class="cls-3" x1="6" y1="2.5" x2="7" y2="2.5"/><line class="cls-3" x1="10" y1="2.5" x2="12" y2="2.5"/><line class="cls-3" x1="4" y1="3.5" x2="6" y2="3.5"/><line class="cls-3" x1="8" y1="3.5" x2="9" y2="3.5"/><line class="cls-3" x1="10" y1="3.5" x2="11" y2="3.5"/><line class="cls-3" x1="14" y1="3.5" x2="15" y2="3.5"/><line class="cls-3" x1="3" y1="4.5" x2="5" y2="4.5"/><line class="cls-3" x1="13" y1="4.5" x2="14" y2="4.5"/><line class="cls-3" x1="2" y1="5.5" x2="3" y2="5.5"/><line class="cls-3" x1="14" y1="5.5" x2="15" y2="5.5"/><line class="cls-3" x1="2" y1="6.5" x2="3" y2="6.5"/><line class="cls-3" x1="6" y1="6.5" x2="7" y2="6.5"/><line class="cls-3" x1="1" y1="7.5" x2="2" y2="7.5"/><line class="cls-3" x1="1" y1="8.5" x2="2" y2="8.5"/><line class="cls-3" x1="7" y1="15.5" x2="8" y2="15.5"/><line class="cls-3" x1="9" y1="15.5" x2="10" y2="15.5"/><line class="cls-3" x1="6" y1="16.5" x2="7" y2="16.5"/><line class="cls-3" x1="10" y1="16.5" x2="11" y2="16.5"/><path class="cls-4" d="M4,2.5H6m-3,1H4m2,0H7m2,0h1m3,0h1M2,4.5H3m2,0H6m2,0H9m5,0h1M4,5.5H5m3,0H9m6,0h1m-1,1h1"/><line class="cls-5" x1="10" y1="4.5" x2="12" y2="4.5"/><line class="cls-5" x1="10" y1="5.5" x2="11" y2="5.5"/><line class="cls-5" y1="8.5" x2="1" y2="8.5"/><line class="cls-5" x1="14" y1="8.5" x2="15" y2="8.5"/><line class="cls-5" x1="16" y1="8.5" x2="17" y2="8.5"/><line class="cls-5" y1="9.5" x2="1" y2="9.5"/><line class="cls-5" x1="3" y1="9.5" x2="4" y2="9.5"/><line class="cls-5" x1="14" y1="9.5" x2="15" y2="9.5"/><line class="cls-5" x1="16" y1="9.5" x2="17" y2="9.5"/><line class="cls-5" x1="2" y1="10.5" x2="3" y2="10.5"/><path class="cls-6" d="M1,5.5H2m4,0H7m-3,1H6m-3,1H4m11,0h1M2,8.5H3m12,0h1M2,9.5H3m12,0h1"/><line class="cls-7" x1="9" y1="6.5" x2="10" y2="6.5"/><line class="cls-7" x1="12" y1="6.5" x2="13" y2="6.5"/><line class="cls-7" x1="5" y1="7.5" x2="7" y2="7.5"/><line class="cls-7" x1="13" y1="7.5" x2="14" y2="7.5"/><line class="cls-7" x1="4" y1="8.5" x2="5" y2="8.5"/><line class="cls-7" x1="3" y1="10.5" x2="4" y2="10.5"/><line class="cls-7" x1="6" y1="11.5" x2="7" y2="11.5"/><line class="cls-7" x1="10" y1="11.5" x2="11" y2="11.5"/><line class="cls-7" x1="1" y1="12.5" x2="2" y2="12.5"/><line class="cls-7" x1="15" y1="12.5" x2="16" y2="12.5"/><line class="cls-7" x1="2" y1="14.5" x2="3" y2="14.5"/><line class="cls-7" x1="14" y1="14.5" x2="15" y2="14.5"/><line class="cls-7" x1="3" y1="15.5" x2="4" y2="15.5"/><line class="cls-7" x1="13" y1="15.5" x2="14" y2="15.5"/><line class="cls-7" x1="4" y1="16.5" x2="5" y2="16.5"/><line class="cls-7" x1="12" y1="16.5" x2="13" y2="16.5"/><line class="cls-7" x1="7" y1="17.5" x2="10" y2="17.5"/><line class="cls-8" x1="10" y1="6.5" x2="12" y2="6.5"/><line class="cls-8" x1="5" y1="8.5" x2="7" y2="8.5"/><line class="cls-8" x1="8" y1="8.5" x2="9" y2="8.5"/><line class="cls-8" x1="13" y1="8.5" x2="14" y2="8.5"/><line class="cls-8" x1="1" y1="10.5" x2="2" y2="10.5"/><line class="cls-8" x1="15" y1="10.5" x2="16" y2="10.5"/><line class="cls-8" x1="3" y1="11.5" x2="4" y2="11.5"/><line class="cls-8" x1="3" y1="12.5" x2="4" y2="12.5"/><line class="cls-8" x1="2" y1="13.5" x2="3" y2="13.5"/><line class="cls-8" x1="14" y1="13.5" x2="15" y2="13.5"/><line class="cls-8" x1="5" y1="16.5" x2="6" y2="16.5"/><line class="cls-8" x1="11" y1="16.5" x2="12" y2="16.5"/><line class="cls-9" x1="9" y1="7.5" x2="10" y2="7.5"/><line class="cls-9" x1="12" y1="7.5" x2="13" y2="7.5"/><line class="cls-9" x1="1" y1="11.5" x2="2" y2="11.5"/><line class="cls-9" x1="13" y1="11.5" x2="14" y2="11.5"/><line class="cls-9" x1="15" y1="11.5" x2="16" y2="11.5"/><line class="cls-9" x1="13" y1="12.5" x2="14" y2="12.5"/><line class="cls-9" x1="3" y1="13.5" x2="4" y2="13.5"/><line class="cls-9" x1="13" y1="13.5" x2="14" y2="13.5"/><line class="cls-9" x1="3" y1="14.5" x2="4" y2="14.5"/><line class="cls-9" x1="13" y1="14.5" x2="14" y2="14.5"/><line class="cls-9" x1="4" y1="15.5" x2="5" y2="15.5"/><line class="cls-9" x1="12" y1="15.5" x2="13" y2="15.5"/><line class="cls-9" x1="8" y1="16.5" x2="9" y2="16.5"/><path class="cls-10" d="M10,7.5h2m0,1h1m0,1h1m-1,1h1m-7,2h3m-3,1h3m-3,1H8m1,0h1m-5,1H7m3,0h2"/><path class="cls-11" d="M9,8.5h3m-8,1h9m-9,1h9m-6,1h3m-2,3H9"/><path class="cls-12" d="M4,11.5H6m5,0h2m-7,1H7m3,0h1m-6,1H7m3,0h2"/><line class="cls-13" x1="2" y1="12.5" x2="3" y2="12.5"/><line class="cls-13" x1="14" y1="12.5" x2="15" y2="12.5"/><line class="cls-13" x1="3" y1="16.5" x2="4" y2="16.5"/><line class="cls-13" x1="13" y1="16.5" x2="14" y2="16.5"/><line class="cls-13" x1="5" y1="17.5" x2="6" y2="17.5"/><line class="cls-13" x1="11" y1="17.5" x2="12" y2="17.5"/><path class="cls-14" d="M4,12.5H5m7,0h1"/><path class="cls-15" d="M5,12.5H6m5,0h1"/><path class="cls-16" d="M4,13.5H5m7,0h1m-9,1H5m7,0h1"/><path class="cls-17" d="M5,14.5H7m3,0h2"/></g></g></svg>