<svg xmlns="http://www.w3.org/2000/svg" viewBox="0 0 17 20"><defs><style>.cls-1{stroke:#928050;}.cls-2{stroke:#bdab7b;}.cls-3{stroke:#dfcd9d;}.cls-4{stroke:#ac9a6a;}.cls-5{stroke:#5f4d1d;}.cls-6{stroke:#aa7162;}.cls-7{stroke:#e8a08d;}.cls-8{stroke:#ffc89b;}.cls-9{stroke:#fffff3;}.cls-10{stroke:#493a17;}.cls-11{stroke:#7c6c44;}.cls-12{stroke:#493357;}.cls-13{stroke:#7b7b7b;}.cls-14{stroke:#c9c9c9;}.cls-15{stroke:#ccd4db;}.cls-16{stroke:#ffebce;}.cls-17{stroke:#79b4e1;}</style></defs><title>Datový zdroj 3</title><g id="Vrstva_2" data-name="Vrstva 2"><g id="Vrstva_1-2" data-name="Vrstva 1"><line class="cls-1" x1="6" y1="0.5" x2="11" y2="0.5"/><line class="cls-1" x1="4" y1="1.5" x2="6" y2="1.5"/><line class="cls-1" x1="11" y1="1.5" x2="13" y2="1.5"/><line class="cls-1" x1="2" y1="2.5" x2="4" y2="2.5"/><line class="cls-1" x1="13" y1="2.5" x2="15" y2="2.5"/><line class="cls-1" x1="1" y1="3.5" x2="2" y2="3.5"/><line class="cls-1" x1="15" y1="3.5" x2="16" y2="3.5"/><line class="cls-1" y1="5.5" x2="1" y2="5.5"/><line class="cls-1" x1="10" y1="5.5" x2="12" y2="5.5"/><line class="cls-1" x1="16" y1="5.5" x2="17" y2="5.5"/><line class="cls-1" y1="8.5" x2="1" y2="8.5"/><line class="cls-1" x1="15" y1="8.5" x2="16" y2="8.5"/><line class="cls-1" x1="5" y1="10.5" x2="7" y2="10.5"/><line class="cls-1" x1="10" y1="10.5" x2="12" y2="10.5"/><line class="cls-1" x1="1" y1="14.5" x2="2" y2="14.5"/><line class="cls-1" x1="15" y1="14.5" x2="16" y2="14.5"/><line class="cls-1" x1="2" y1="15.5" x2="3" y2="15.5"/><line class="cls-1" x1="14" y1="15.5" x2="15" y2="15.5"/><line class="cls-1" x1="1" y1="16.5" x2="2" y2="16.5"/><line class="cls-1" x1="15" y1="16.5" x2="16" y2="16.5"/><line class="cls-1" x1="1" y1="17.5" x2="2" y2="17.5"/><line class="cls-1" x1="3" y1="17.5" x2="4" y2="17.5"/><line class="cls-1" x1="13" y1="17.5" x2="14" y2="17.5"/><line class="cls-1" x1="15" y1="17.5" x2="16" y2="17.5"/><line class="cls-1" x1="2" y1="18.5" x2="3" y2="18.5"/><line class="cls-1" x1="6" y1="18.5" x2="7" y2="18.5"/><line class="cls-1" x1="10" y1="18.5" x2="11" y2="18.5"/><line class="cls-1" x1="14" y1="18.5" x2="15" y2="18.5"/><line class="cls-1" x1="3" y1="19.5" x2="4" y2="19.5"/><line class="cls-1" x1="13" y1="19.5" x2="14" y2="19.5"/><line class="cls-2" x1="6" y1="1.5" x2="11" y2="1.5"/><line class="cls-2" x1="4" y1="2.5" x2="5" y2="2.5"/><line class="cls-2" x1="12" y1="2.5" x2="13" y2="2.5"/><line class="cls-2" x1="2" y1="3.5" x2="3" y2="3.5"/><line class="cls-2" x1="14" y1="3.5" x2="15" y2="3.5"/><line class="cls-2" x1="1" y1="4.5" x2="2" y2="4.5"/><line class="cls-2" x1="3" y1="4.5" x2="4" y2="4.5"/><line class="cls-2" x1="5" y1="4.5" x2="6" y2="4.5"/><line class="cls-2" x1="7" y1="4.5" x2="8" y2="4.5"/><line class="cls-2" x1="9" y1="4.5" x2="10" y2="4.5"/><line class="cls-2" x1="11" y1="4.5" x2="12" y2="4.5"/><line class="cls-2" x1="13" y1="4.5" x2="14" y2="4.5"/><line class="cls-2" x1="15" y1="4.5" x2="16" y2="4.5"/><line class="cls-2" x1="2" y1="5.5" x2="4" y2="5.5"/><line class="cls-2" x1="5" y1="5.5" x2="7" y2="5.5"/><line class="cls-2" x1="14" y1="5.5" x2="15" y2="5.5"/><line class="cls-2" y1="6.5" x2="1" y2="6.5"/><line class="cls-2" x1="13" y1="6.5" x2="14" y2="6.5"/><line class="cls-2" x1="16" y1="6.5" x2="17" y2="6.5"/><line class="cls-2" y1="7.5" x2="1" y2="7.5"/><line class="cls-2" x1="16" y1="7.5" x2="17" y2="7.5"/><line class="cls-2" x1="16" y1="8.5" x2="17" y2="8.5"/><line class="cls-2" x1="1" y1="15.5" x2="2" y2="15.5"/><line class="cls-2" x1="15" y1="15.5" x2="16" y2="15.5"/><line class="cls-2" x1="2" y1="16.5" x2="3" y2="16.5"/><line class="cls-2" x1="4" y1="16.5" x2="5" y2="16.5"/><line class="cls-2" x1="12" y1="16.5" x2="13" y2="16.5"/><line class="cls-2" x1="14" y1="16.5" x2="15" y2="16.5"/><line class="cls-2" x1="2" y1="17.5" x2="3" y2="17.5"/><line class="cls-2" x1="4" y1="17.5" x2="5" y2="17.5"/><line class="cls-2" x1="8" y1="17.5" x2="9" y2="17.5"/><line class="cls-2" x1="12" y1="17.5" x2="13" y2="17.5"/><line class="cls-2" x1="14" y1="17.5" x2="15" y2="17.5"/><line class="cls-2" x1="3" y1="18.5" x2="4" y2="18.5"/><line class="cls-2" x1="7" y1="18.5" x2="10" y2="18.5"/><line class="cls-2" x1="13" y1="18.5" x2="14" y2="18.5"/><path class="cls-3" d="M5,2.5H7m3,0h2m-9,1H5m7,0h2M2,4.5H3m11,0h1M1,5.5H2m-1,1H3m11,0h2M2,7.5H3m12,0h1"/><path class="cls-4" d="M7,2.5h3m-5,1h7m-8,1H5m1,0H7m1,0H9m1,0h1m1,0h1m-9,1H5m7,0h2m1,0h1M3,6.5H4m-3,1H2m12,0h1M1,8.5H2m-1,1H2m14,0h1m-16,1H2m1,0H5m7,0h2m-8,1H7m3,0h1m-8,4H4m9,0h1m-9,1H6m5,0h1m-7,1H8m1,0h3"/><path class="cls-5" d="M7,5.5h3m-6,1H7m3,0h3M3,7.5H4m9,0h1M2,8.5H3m11,0h1M0,9.5H1m1,0H3m11,0h2m-16,1H1m1,0H3m11,0h3m-17,1H2m13,0h2m-17,1H2m13,0h2m-17,1H2m1,0H4m9,0h1m1,0h2m-17,1H1m1,0H4m9,0h2m1,0h1m-17,1H1m15,0h1m-17,1H1m2,0H4m9,0h1m2,0h1m-17,1H1m15,0h1"/><path class="cls-6" d="M7,6.5H8m1,0h1m-6,1H5m7,0h1"/><line class="cls-7" x1="8" y1="6.5" x2="9" y2="6.5"/><line class="cls-7" x1="5" y1="7.5" x2="7" y2="7.5"/><line class="cls-7" x1="10" y1="7.5" x2="12" y2="7.5"/><line class="cls-7" x1="3" y1="8.5" x2="4" y2="8.5"/><line class="cls-7" x1="13" y1="8.5" x2="14" y2="8.5"/><line class="cls-7" x1="3" y1="9.5" x2="4" y2="9.5"/><line class="cls-7" x1="13" y1="9.5" x2="14" y2="9.5"/><line class="cls-7" x1="4" y1="15.5" x2="5" y2="15.5"/><line class="cls-7" x1="12" y1="15.5" x2="13" y2="15.5"/><line class="cls-8" x1="7" y1="7.5" x2="8" y2="7.5"/><line class="cls-8" x1="9" y1="7.5" x2="10" y2="7.5"/><line class="cls-8" x1="4" y1="8.5" x2="5" y2="8.5"/><line class="cls-8" x1="12" y1="8.5" x2="13" y2="8.5"/><line class="cls-8" x1="5" y1="15.5" x2="6" y2="15.5"/><line class="cls-8" x1="11" y1="15.5" x2="12" y2="15.5"/><line class="cls-8" x1="6" y1="16.5" x2="11" y2="16.5"/><path class="cls-9" d="M8,7.5H9m-4,1h7m-8,1h9m-6,1h3m-3,1h3m-3,1h3m-2,2H9"/><path class="cls-10" d="M2,11.5H3m11,0h1m-13,1H3m11,0h1m-13,1H3m11,0h1"/><line class="cls-11" x1="3" y1="11.5" x2="4" y2="11.5"/><line class="cls-11" x1="13" y1="11.5" x2="14" y2="11.5"/><line class="cls-11" x1="3" y1="12.5" x2="4" y2="12.5"/><line class="cls-11" x1="13" y1="12.5" x2="14" y2="12.5"/><line class="cls-11" x1="4" y1="18.5" x2="6" y2="18.5"/><line class="cls-11" x1="11" y1="18.5" x2="13" y2="18.5"/><line class="cls-11" x1="7" y1="19.5" x2="10" y2="19.5"/><path class="cls-12" d="M4,11.5H6m5,0h2m-7,1H7m3,0h1m-6,1H7m3,0h2"/><line class="cls-13" x1="4" y1="12.5" x2="5" y2="12.5"/><line class="cls-13" x1="12" y1="12.5" x2="13" y2="12.5"/><path class="cls-14" d="M5,12.5H6m5,0h1"/><path class="cls-15" d="M4,13.5H5m7,0h1m-9,1H5m7,0h1"/><line class="cls-16" x1="7" y1="13.5" x2="10" y2="13.5"/><line class="cls-16" x1="7" y1="14.5" x2="8" y2="14.5"/><line class="cls-16" x1="9" y1="14.5" x2="10" y2="14.5"/><line class="cls-16" x1="6" y1="15.5" x2="11" y2="15.5"/><path class="cls-17" d="M5,14.5H7m3,0h2"/></g></g></svg>