<svg xmlns="http://www.w3.org/2000/svg" viewBox="0 0 17 20"><defs><style>.cls-1{stroke:#352017;}.cls-2{stroke:#513528;}.cls-3{stroke:#603f30;}.cls-4{stroke:#95634d;}.cls-5{stroke:#e8a08d;}.cls-6{stroke:#ffc89b;}.cls-7{stroke:#1e120d;}.cls-8{stroke:#f8e6ce;}.cls-9{stroke:#fdf9f4;}.cls-10{stroke:#4e4058;}.cls-11{stroke:#aa7162;}.cls-12{stroke:#7c7e83;}.cls-13{stroke:#c5c5c5;}.cls-14{stroke:#cec8db;}.cls-15{stroke:#ffebce;}.cls-16{stroke:#3c3c3c;}.cls-17{stroke:#292929;}.cls-18{stroke:#181818;}.cls-19{stroke:#7c513f;}.cls-20{stroke:#000;}</style></defs><title>Datový zdroj 6</title><g id="Vrstva_2" data-name="Vrstva 2"><g id="Vrstva_1-2" data-name="Vrstva 1"><line class="cls-1" x1="3" y1="0.5" x2="14" y2="0.5"/><line class="cls-1" x1="1" y1="1.5" x2="4" y2="1.5"/><line class="cls-1" x1="7" y1="1.5" x2="8" y2="1.5"/><line class="cls-1" x1="9" y1="1.5" x2="10" y2="1.5"/><line class="cls-1" x1="13" y1="1.5" x2="16" y2="1.5"/><line class="cls-1" x1="1" y1="2.5" x2="2" y2="2.5"/><line class="cls-1" x1="3" y1="2.5" x2="4" y2="2.5"/><line class="cls-1" x1="13" y1="2.5" x2="14" y2="2.5"/><line class="cls-1" x1="15" y1="2.5" x2="16" y2="2.5"/><line class="cls-1" y1="3.5" x2="1" y2="3.5"/><line class="cls-1" x1="4" y1="3.5" x2="5" y2="3.5"/><line class="cls-1" x1="12" y1="3.5" x2="13" y2="3.5"/><line class="cls-1" x1="16" y1="3.5" x2="17" y2="3.5"/><line class="cls-1" y1="4.5" x2="2" y2="4.5"/><line class="cls-1" x1="4" y1="4.5" x2="5" y2="4.5"/><line class="cls-1" x1="12" y1="4.5" x2="13" y2="4.5"/><line class="cls-1" x1="15" y1="4.5" x2="17" y2="4.5"/><line class="cls-1" y1="5.5" x2="3" y2="5.5"/><line class="cls-1" x1="14" y1="5.5" x2="17" y2="5.5"/><line class="cls-1" y1="6.5" x2="1" y2="6.5"/><line class="cls-1" x1="2" y1="6.5" x2="3" y2="6.5"/><line class="cls-1" x1="7" y1="6.5" x2="10" y2="6.5"/><line class="cls-1" x1="14" y1="6.5" x2="15" y2="6.5"/><line class="cls-1" x1="16" y1="6.5" x2="17" y2="6.5"/><line class="cls-1" y1="7.5" x2="2" y2="7.5"/><line class="cls-1" x1="15" y1="7.5" x2="17" y2="7.5"/><line class="cls-1" x1="2" y1="8.5" x2="3" y2="8.5"/><line class="cls-1" x1="14" y1="8.5" x2="15" y2="8.5"/><line class="cls-1" x1="1" y1="9.5" x2="2" y2="9.5"/><line class="cls-1" x1="15" y1="9.5" x2="16" y2="9.5"/><line class="cls-1" x1="1" y1="10.5" x2="3" y2="10.5"/><line class="cls-1" x1="14" y1="10.5" x2="16" y2="10.5"/><line class="cls-1" x1="2" y1="11.5" x2="3" y2="11.5"/><line class="cls-1" x1="14" y1="11.5" x2="15" y2="11.5"/><line class="cls-1" x1="2" y1="12.5" x2="3" y2="12.5"/><line class="cls-1" x1="14" y1="12.5" x2="15" y2="12.5"/><line class="cls-2" x1="4" y1="1.5" x2="7" y2="1.5"/><line class="cls-2" x1="8" y1="1.5" x2="9" y2="1.5"/><line class="cls-2" x1="10" y1="1.5" x2="13" y2="1.5"/><line class="cls-2" x1="2" y1="2.5" x2="3" y2="2.5"/><line class="cls-2" x1="4" y1="2.5" x2="5" y2="2.5"/><line class="cls-2" x1="6" y1="2.5" x2="8" y2="2.5"/><line class="cls-2" x1="9" y1="2.5" x2="11" y2="2.5"/><line class="cls-2" x1="12" y1="2.5" x2="13" y2="2.5"/><line class="cls-2" x1="14" y1="2.5" x2="15" y2="2.5"/><line class="cls-2" x1="1" y1="3.5" x2="2" y2="3.5"/><line class="cls-2" x1="3" y1="3.5" x2="4" y2="3.5"/><line class="cls-2" x1="6" y1="3.5" x2="8" y2="3.5"/><line class="cls-2" x1="9" y1="3.5" x2="11" y2="3.5"/><line class="cls-2" x1="13" y1="3.5" x2="14" y2="3.5"/><line class="cls-2" x1="15" y1="3.5" x2="16" y2="3.5"/><line class="cls-2" x1="2" y1="4.5" x2="4" y2="4.5"/><line class="cls-2" x1="5" y1="4.5" x2="6" y2="4.5"/><line class="cls-2" x1="7" y1="4.5" x2="8" y2="4.5"/><line class="cls-2" x1="9" y1="4.5" x2="10" y2="4.5"/><line class="cls-2" x1="11" y1="4.5" x2="12" y2="4.5"/><line class="cls-2" x1="13" y1="4.5" x2="15" y2="4.5"/><line class="cls-2" x1="4" y1="5.5" x2="6" y2="5.5"/><line class="cls-2" x1="11" y1="5.5" x2="13" y2="5.5"/><line class="cls-2" x1="1" y1="6.5" x2="2" y2="6.5"/><line class="cls-2" x1="3" y1="6.5" x2="4" y2="6.5"/><line class="cls-2" x1="5" y1="6.5" x2="7" y2="6.5"/><line class="cls-2" x1="10" y1="6.5" x2="14" y2="6.5"/><line class="cls-2" x1="15" y1="6.5" x2="16" y2="6.5"/><line class="cls-2" x1="2" y1="7.5" x2="4" y2="7.5"/><line class="cls-2" x1="13" y1="7.5" x2="15" y2="7.5"/><line class="cls-2" x1="1" y1="8.5" x2="2" y2="8.5"/><line class="cls-2" x1="15" y1="8.5" x2="16" y2="8.5"/><line class="cls-2" x1="2" y1="9.5" x2="3" y2="9.5"/><line class="cls-2" x1="14" y1="9.5" x2="15" y2="9.5"/><line class="cls-2" x1="3" y1="10.5" x2="4" y2="10.5"/><line class="cls-2" x1="13" y1="10.5" x2="14" y2="10.5"/><line class="cls-2" x1="3" y1="12.5" x2="4" y2="12.5"/><line class="cls-2" x1="13" y1="12.5" x2="14" y2="12.5"/><line class="cls-2" x1="3" y1="13.5" x2="4" y2="13.5"/><line class="cls-2" x1="13" y1="13.5" x2="14" y2="13.5"/><line class="cls-2" x1="3" y1="16.5" x2="4" y2="16.5"/><line class="cls-2" x1="13" y1="16.5" x2="14" y2="16.5"/><line class="cls-3" x1="5" y1="2.5" x2="6" y2="2.5"/><line class="cls-3" x1="8" y1="2.5" x2="9" y2="2.5"/><line class="cls-3" x1="11" y1="2.5" x2="12" y2="2.5"/><line class="cls-3" x1="2" y1="3.5" x2="3" y2="3.5"/><line class="cls-3" x1="14" y1="3.5" x2="15" y2="3.5"/><line class="cls-3" x1="6" y1="4.5" x2="7" y2="4.5"/><line class="cls-3" x1="10" y1="4.5" x2="11" y2="4.5"/><line class="cls-3" x1="3" y1="5.5" x2="4" y2="5.5"/><line class="cls-3" x1="6" y1="5.5" x2="11" y2="5.5"/><line class="cls-3" x1="13" y1="5.5" x2="14" y2="5.5"/><line class="cls-3" x1="4" y1="6.5" x2="5" y2="6.5"/><line class="cls-3" x1="4" y1="10.5" x2="6" y2="10.5"/><line class="cls-3" x1="11" y1="10.5" x2="13" y2="10.5"/><line class="cls-3" x1="5" y1="14.5" x2="7" y2="14.5"/><line class="cls-3" x1="10" y1="14.5" x2="12" y2="14.5"/><path class="cls-4" d="M5,3.5H6m2,0H9m2,0h1m-4,1H9"/><line class="cls-5" x1="4" y1="7.5" x2="5" y2="7.5"/><line class="cls-5" x1="12" y1="7.5" x2="13" y2="7.5"/><line class="cls-5" x1="3" y1="8.5" x2="4" y2="8.5"/><line class="cls-5" x1="13" y1="8.5" x2="14" y2="8.5"/><line class="cls-5" x1="6" y1="10.5" x2="7" y2="10.5"/><line class="cls-5" x1="10" y1="10.5" x2="11" y2="10.5"/><line class="cls-5" x1="4" y1="15.5" x2="5" y2="15.5"/><line class="cls-5" x1="12" y1="15.5" x2="13" y2="15.5"/><line class="cls-5" x1="5" y1="16.5" x2="6" y2="16.5"/><line class="cls-5" x1="11" y1="16.5" x2="12" y2="16.5"/><line class="cls-6" x1="5" y1="7.5" x2="12" y2="7.5"/><line class="cls-6" x1="3" y1="11.5" x2="4" y2="11.5"/><line class="cls-6" x1="13" y1="11.5" x2="14" y2="11.5"/><line class="cls-6" x1="1" y1="12.5" x2="2" y2="12.5"/><line class="cls-6" x1="15" y1="12.5" x2="16" y2="12.5"/><line class="cls-6" x1="3" y1="14.5" x2="4" y2="14.5"/><line class="cls-6" x1="13" y1="14.5" x2="14" y2="14.5"/><line class="cls-6" x1="5" y1="15.5" x2="6" y2="15.5"/><line class="cls-6" x1="11" y1="15.5" x2="12" y2="15.5"/><line class="cls-6" x1="8" y1="16.5" x2="9" y2="16.5"/><path class="cls-7" d="M0,8.5H1m15,0h1M0,9.5H1m15,0h1m-17,1H1m15,0h1"/><path class="cls-8" d="M4,8.5H5m7,0h1M3,9.5H4m9,0h1m-7,3h3m-3,1h3m-3,1H8m1,0h1"/><path class="cls-9" d="M5,8.5h7m-8,1h9m-6,1h3m-3,1h3m-2,3H9"/><line class="cls-10" x1="4" y1="11.5" x2="6" y2="11.5"/><line class="cls-10" x1="11" y1="11.5" x2="13" y2="11.5"/><line class="cls-10" x1="6" y1="12.5" x2="7" y2="12.5"/><line class="cls-10" x1="10" y1="12.5" x2="11" y2="12.5"/><line class="cls-10" x1="5" y1="13.5" x2="7" y2="13.5"/><line class="cls-10" x1="10" y1="13.5" x2="12" y2="13.5"/><line class="cls-11" x1="1" y1="11.5" x2="2" y2="11.5"/><line class="cls-11" x1="6" y1="11.5" x2="7" y2="11.5"/><line class="cls-11" x1="10" y1="11.5" x2="11" y2="11.5"/><line class="cls-11" x1="15" y1="11.5" x2="16" y2="11.5"/><line class="cls-11" x1="2" y1="13.5" x2="3" y2="13.5"/><line class="cls-11" x1="14" y1="13.5" x2="15" y2="13.5"/><line class="cls-11" x1="3" y1="15.5" x2="4" y2="15.5"/><line class="cls-11" x1="13" y1="15.5" x2="14" y2="15.5"/><line class="cls-11" x1="4" y1="16.5" x2="5" y2="16.5"/><line class="cls-11" x1="12" y1="16.5" x2="13" y2="16.5"/><line class="cls-11" x1="7" y1="17.5" x2="10" y2="17.5"/><path class="cls-12" d="M4,12.5H5m7,0h1"/><path class="cls-13" d="M5,12.5H6m5,0h1"/><path class="cls-14" d="M4,13.5H5m7,0h1m-9,1H5m7,0h1"/><path class="cls-15" d="M6,15.5H7m3,0h1"/><line class="cls-16" x1="7" y1="15.5" x2="8" y2="15.5"/><line class="cls-16" x1="9" y1="15.5" x2="10" y2="15.5"/><line class="cls-16" x1="6" y1="16.5" x2="7" y2="16.5"/><line class="cls-16" x1="10" y1="16.5" x2="11" y2="16.5"/><path class="cls-17" d="M8,15.5H9m-2,1H8m1,0h1m-4,1H7m3,0h1m-4,1h3"/><line class="cls-18" x1="4" y1="17.5" x2="5" y2="17.5"/><line class="cls-18" x1="12" y1="17.5" x2="13" y2="17.5"/><line class="cls-18" x1="5" y1="18.5" x2="6" y2="18.5"/><line class="cls-18" x1="11" y1="18.5" x2="12" y2="18.5"/><line class="cls-18" x1="6" y1="19.5" x2="11" y2="19.5"/><line class="cls-19" x1="5" y1="17.5" x2="6" y2="17.5"/><line class="cls-19" x1="11" y1="17.5" x2="12" y2="17.5"/><line class="cls-20" x1="6" y1="18.5" x2="7" y2="18.5"/><line class="cls-20" x1="10" y1="18.5" x2="11" y2="18.5"/><line class="cls-2" x1="2" y1="14.5" x2="3" y2="14.5"/><line class="cls-2" x1="14" y1="14.5" x2="15" y2="14.5"/></g></g></svg>